# https://github.com/mikedh/trimesh
v -0.58205531 0.09918023 1.11164603
v -0.73349270 -0.06271756 1.11090347
v -0.58205340 0.19935516 1.10065887
v -0.65228282 0.17576584 1.10961158
v -1.22903988 0.10553129 1.08754274
v -0.64620496 -0.17713607 1.10932467
v -0.64904432 0.42882833 1.01979605
v -0.58205708 -0.17039392 1.11119366
v -1.15665139 -0.26878474 1.07479393
v -1.22847970 0.23100011 1.07991569
v -0.58205531 0.24795451 1.01985703
v -0.58205502 0.44167898 0.43766139
v -1.17630037 0.27244148 1.07338979
v -1.30742145 -0.00218855 1.06441229
v -1.22971403 -0.09747993 1.08789911
v -1.01134750 -0.32671734 1.05717049
v -0.65130252 -0.42543589 1.02100919
v -0.58205538 -0.45343881 1.00591207
v -0.64711071 0.49171047 0.52755647
v -0.64594658 0.43983279 0.97492299
v -1.02312884 0.32352122 1.05837380
v -1.22419482 -0.21719748 1.08132729
v -1.14795920 -0.28776915 1.06041793
v -0.58205531 -0.50369315 0.64006012
v -1.53332085 0.20731619 0.53619675
v -1.54342902 0.17715491 0.54422992
v -1.25244269 0.32475722 0.52560595
v -1.38492473 0.02002084 1.02239294
v -1.38503844 -0.02079101 1.02230415
v -1.23437686 -0.23375122 1.06511249
v -1.50094242 -0.20928946 0.59638255
v -1.21366556 -0.33467875 0.52255767
v -1.47438920 -0.00009012 0.84985445
v -1.56483774 0.12483951 0.52547124
v -1.52589236 0.20852150 0.49488505
v -0.58207254 0.44006301 0.13037632
v -0.99327090 0.31846117 0.12929200
v -0.92285782 0.34550456 0.12739578
v -1.43976585 0.27225106 0.52857310
v -0.71838201 -0.47177355 0.52399255
v -1.36560125 -0.29099709 0.54621105
v -1.56678034 -0.11955546 0.52408959
v -1.54205345 -0.18376341 0.54174122
v -1.58205339 0.01579213 0.50262848
v -0.58205531 0.41081452 0.11177287
v -1.49980261 0.24431697 0.52017134
v -0.95383359 0.30250912 0.11182213
v -0.99839902 0.30225049 0.12557232
v -1.44023520 -0.27112159 0.52423639
v -0.58205531 -0.50828955 0.52785546
v -1.52500550 -0.20876848 0.49416628
v -1.50730500 -0.24024145 0.52059483
v -1.56416425 -0.04351019 0.49141069
v -0.99843179 -0.30204294 0.12546161
v -0.96087696 -0.30209572 0.11293515
v -0.93037439 -0.34397863 0.13074878
v -0.91571399 -0.32327109 0.11177102
v -0.98754613 -0.31929501 0.12511789
v -0.58205555 -0.43954743 0.13003229
v -0.58205531 -0.41190604 0.11164604
vn 0.77680962 0.00482745 0.62971701
vn -0.04395723 -0.00376517 0.99902632
vn 0.78760969 0.06846860 0.61235857
vn 0.02179724 0.05646108 0.99816683
vn -0.30266928 0.01418529 0.95299008
vn -0.02485377 -0.06649076 0.99747745
vn 0.54412436 0.45183724 0.70694539
vn 0.76230529 -0.03688775 0.64616557
vn -0.35824372 -0.18316504 0.91548457
vn -0.66022456 0.15145826 0.73563845
vn 0.99697409 0.04297563 0.06477472
vn 0.99120675 0.13153918 0.01437461
vn -0.58771810 0.31711859 0.74432737
vn -0.55642158 -0.00105373 0.83089946
vn -0.30965004 -0.01488805 0.95073403
vn -0.43835622 -0.41234790 0.79863198
vn -0.06132160 -0.20406437 0.97703500
vn 0.65057781 -0.47360258 0.59367424
vn 0.44434557 0.89570346 0.01650224
vn 0.65709421 0.66162237 0.36122436
vn -0.45537741 0.41131286 0.78959050
vn -0.50305240 -0.08508892 0.86005707
vn -0.68541054 -0.41007108 0.60170932
vn 0.75245158 -0.63756944 0.16529313
vn -0.98329499 0.14735176 0.10685698
vn -0.97942644 0.08225952 0.18427485
vn -0.78739936 0.61415960 -0.05301171
vn -0.85165669 0.04617951 0.52206161
vn -0.85184354 -0.04669291 0.52171099
vn -0.82339685 -0.20933303 0.52744413
vn -0.94355690 -0.15957848 0.29023282
vn -0.78405392 -0.61179855 -0.10469946
vn -0.96440996 0.00030177 0.26441131
vn -0.99784536 0.05333592 -0.03820874
vn -0.91415063 0.12993307 -0.38398701
vn 0.64295969 0.46955147 -0.60508202
vn -0.66682555 0.25709546 -0.69946094
vn -0.54727924 0.38822097 -0.74146470
vn -0.87137425 0.48713967 -0.05832540
vn -0.77611232 -0.62045948 -0.11260420
vn -0.78960324 -0.59293676 0.15796430
vn -0.99640194 -0.05031546 -0.06820213
vn -0.98797897 -0.10562726 0.11287350
vn -0.96822085 0.00699081 -0.24999901
vn 0.71152109 0.09810372 -0.69578258
vn -0.94546530 0.30982812 -0.10050825
vn -0.25171458 0.06035091 -0.96591798
vn -0.62178683 0.05917382 -0.78094788
vn -0.87244807 -0.48183147 -0.08168724
vn 0.74458920 -0.65817688 -0.11131086
vn -0.92219512 -0.12751246 -0.36509826
vn -0.95375328 -0.28720956 -0.08868687
vn -0.85648580 -0.02788426 -0.51541686
vn -0.64186065 -0.05036919 -0.76516524
vn -0.28037644 -0.03787342 -0.95914267
vn -0.59234091 -0.42908437 -0.68192291
vn -0.17761638 -0.11768981 -0.97703712
vn -0.64504139 -0.24710400 -0.72309144
vn 0.63981831 -0.46530170 -0.61165910
vn 0.70850242 -0.10290278 -0.69816570
f 11//11 7//7 3//3
f 3//3 45//45 12//12
f 12//12 11//11 3//3
f 24//24 50//50 3//3
f 3//3 18//18 24//24
f 8//8 18//18 3//3
f 36//36 27//27 19//19
f 19//19 12//12 36//36
f 36//36 12//12 45//45
f 42//42 33//33 44//44
f 44//44 53//53 42//42
f 20//20 12//12 19//19
f 20//20 21//21 7//7
f 7//7 11//11 20//20
f 11//11 12//12 20//20
f 19//19 27//27 20//20
f 3//3 50//50 60//60
f 60//60 45//45 3//3
f 60//60 47//47 45//45
f 57//57 47//47 60//60
f 54//54 53//53 44//44
f 50//50 24//24 40//40
f 18//18 8//8 17//17
f 1//1 8//8 3//3
f 49//49 23//23 52//52
f 33//33 42//42 43//43
f 43//43 29//29 33//33
f 31//31 29//29 43//43
f 52//52 31//31 43//43
f 13//13 46//46 10//10
f 33//33 29//29 28//28
f 30//30 29//29 31//31
f 30//30 23//23 9//9
f 52//52 23//23 30//30
f 30//30 31//31 52//52
f 44//44 33//33 34//34
f 45//45 47//47 38//38
f 38//38 36//36 45//45
f 27//27 36//36 38//38
f 59//59 60//60 50//50
f 50//50 40//40 59//59
f 59//59 40//40 56//56
f 57//57 60//60 59//59
f 59//59 56//56 57//57
f 53//53 54//54 51//51
f 51//51 42//42 53//53
f 52//52 43//43 51//51
f 51//51 43//43 42//42
f 57//57 56//56 58//58
f 58//58 49//49 52//52
f 56//56 49//49 58//58
f 52//52 51//51 58//58
f 58//58 51//51 54//54
f 55//55 47//47 57//57
f 57//57 58//58 55//55
f 55//55 58//58 54//54
f 6//6 17//17 8//8
f 18//18 17//17 16//16
f 16//16 24//24 18//18
f 16//16 23//23 24//24
f 9//9 23//23 16//16
f 16//16 6//6 9//9
f 17//17 6//6 16//16
f 24//24 23//23 41//41
f 23//23 49//49 41//41
f 21//21 13//13 4//4
f 3//3 7//7 4//4
f 7//7 21//21 4//4
f 4//4 13//13 10//10
f 4//4 1//1 3//3
f 10//10 5//5 4//4
f 46//46 13//13 39//39
f 27//27 38//38 39//39
f 39//39 13//13 21//21
f 39//39 20//20 27//27
f 21//21 20//20 39//39
f 33//33 28//28 26//26
f 26//26 34//34 33//33
f 14//14 28//28 29//29
f 15//15 5//5 14//14
f 10//10 28//28 14//14
f 14//14 5//5 10//10
f 44//44 34//34 35//35
f 9//9 6//6 22//22
f 22//22 6//6 15//15
f 22//22 30//30 9//9
f 15//15 14//14 22//22
f 29//29 30//30 22//22
f 22//22 14//14 29//29
f 32//32 41//41 49//49
f 56//56 40//40 32//32
f 32//32 49//49 56//56
f 32//32 40//40 24//24
f 24//24 41//41 32//32
f 15//15 6//6 2//2
f 2//2 5//5 15//15
f 2//2 4//4 5//5
f 1//1 4//4 2//2
f 8//8 1//1 2//2
f 2//2 6//6 8//8
f 37//37 35//35 46//46
f 46//46 39//39 37//37
f 37//37 39//39 38//38
f 37//37 38//38 47//47
f 34//34 26//26 25//25
f 25//25 35//35 34//34
f 46//46 35//35 25//25
f 10//10 46//46 25//25
f 25//25 28//28 10//10
f 25//25 26//26 28//28
f 44//44 35//35 48//48
f 35//35 37//37 48//48
f 48//48 54//54 44//44
f 48//48 37//37 47//47
f 47//47 55//55 48//48
f 48//48 55//55 54//54