# https://github.com/mikedh/trimesh
v -0.49198471 -1.28795093 0.54641700
v -0.53773270 -1.27757116 0.51994227
v -0.48673454 -1.27933307 0.50927273
v -0.42555631 -1.28217182 0.51093679
v 0.14707000 -1.28764754 0.54609012
v -0.34525534 -1.26023353 0.78430450
v -0.60375486 -1.27200495 0.62757595
v -0.59450609 -1.27355786 0.55948808
v -0.06948873 -1.16161765 0.12562398
v -0.85292293 -0.89317561 0.13309810
v -0.52931441 -1.01748199 0.13308298
v -0.20022467 -1.14503454 0.13534948
v -0.02756392 -1.17669334 0.15498063
v 0.14707188 -1.17694509 0.15522029
v 0.14703543 -1.28214135 0.51083942
v -0.03503144 -1.25519218 0.79386319
v -0.65476031 -1.25001975 0.63522437
v -0.72463925 -1.18358550 0.63593333
v -0.16257406 -1.14948293 0.12805367
v 0.14707188 -1.16010879 0.12487573
v -0.28076091 -1.24929844 0.83367485
v 0.14707188 -1.21335844 0.90208792
v -0.43016170 -1.23172329 0.85255225
v -0.59802996 -1.23401224 0.71493052
v -0.85291924 -1.03229146 0.52979002
v -0.12723836 -1.12074022 0.11215335
v 0.14707188 -1.12242302 0.11215060
v 0.14707188 -1.19779471 0.93253036
v -0.21311074 -1.20850050 0.94466471
v -0.85292807 -0.92843986 0.98458802
v -0.85292293 -1.02326518 0.64269090
v -0.85291420 -0.84529048 0.11219711
v -0.16540362 -1.19404010 0.96512680
v 0.14707188 -1.16480731 0.94613648
v 0.01194997 -1.18807060 0.95621354
v -0.38640077 -1.20240670 0.92120138
v -0.27707304 -1.19342588 0.96077072
v -0.80427400 -0.93898593 0.99801591
v -0.59891094 -1.02003496 0.99351314
v -0.85292293 -0.86995406 1.01981974
v -0.85292293 -0.28795092 0.11234635
v 0.14707188 -0.28795092 0.11231853
v -0.22929656 -1.16480731 0.97266348
v -0.46275267 -1.05987434 0.99145751
v 0.14707189 -0.34814764 0.98139035
v 0.13300432 -0.37502905 0.99328843
v 0.05248368 -0.34188063 1.04945462
v 0.01252977 -0.34169053 1.07554213
v -0.01659211 -0.36019025 1.09022418
v -0.05075404 -0.38984949 1.10206837
v 0.14707188 -0.28795092 0.88231501
v -0.16606471 -0.39711016 1.10678369
v -0.85292290 -0.39293264 1.10763129
v -0.09560259 -0.36113581 1.11151781
v -0.85292293 -0.36019025 1.11215057
v -0.85292293 -0.33356543 1.10304721
v -0.85292293 -0.28795094 0.91384594
v -0.08015642 -0.33523266 1.10238026
v -0.55652665 -0.28795092 0.91745598
v -0.00074636 -0.28795125 0.90816119
vn -0.14718512 -0.98842200 -0.03685766
vn -0.50413850 -0.83289943 -0.22830441
vn -0.18603631 -0.95613912 -0.22624869
vn -0.04061844 -0.98391039 -0.17398417
vn 0.82187482 -0.56966382 -0.00221771
vn -0.11201808 -0.98231148 0.15005370
vn -0.50024056 -0.86034070 0.09784305
vn -0.68734228 -0.71821352 -0.10830479
vn -0.13305500 -0.77851329 -0.61336239
vn -0.90307656 -0.30744319 -0.29988567
vn -0.58368704 -0.63636780 -0.50432674
vn -0.54020279 -0.72068670 -0.43450158
vn -0.05973722 -0.96051208 -0.27174991
vn 0.82955519 -0.53565378 -0.15783920
vn 0.83084971 -0.54957365 -0.08750747
vn 0.11225225 -0.98114528 0.15733204
vn -0.82505937 -0.56134747 0.06454497
vn -0.92450030 -0.38075927 0.01793245
vn -0.37920886 -0.72305103 -0.57740614
vn 0.80969350 -0.43809492 -0.39047315
vn -0.04977313 -0.97510160 0.21610066
vn 0.84535805 -0.51583107 0.13888151
vn -0.50094335 -0.81852053 0.28121150
vn -0.71279290 -0.65569419 0.24898075
vn -0.97759513 -0.20754816 -0.03509310
vn -0.15446153 -0.28907792 -0.94476219
vn 0.85272077 -0.11758722 -0.50896024
vn 0.84420939 -0.43641432 0.31121222
vn -0.04686519 -0.93306239 0.35664860
vn -0.93588265 -0.28323123 0.20953219
vn -0.98617582 -0.16424620 0.02191889
vn -0.86843353 -0.09265987 -0.48707017
vn 0.09135914 -0.67247627 0.73445842
vn 0.90041242 -0.15388608 0.40691098
vn 0.23059578 -0.58949056 0.77416178
vn -0.50598892 -0.75795401 0.41168063
vn -0.27393605 -0.71792410 0.63995627
vn -0.59562191 -0.54676111 0.58846141
vn -0.35295907 -0.47463577 0.80631308
vn -0.87783868 -0.16779386 0.44860279
vn -0.76392822 0.49422761 -0.41491293
vn 0.76391228 0.49422000 -0.41495135
vn -0.03569019 -0.33658401 0.94097684
vn -0.13319187 -0.34125720 0.93048560
vn 0.95293659 0.22754679 0.20033551
vn 0.93531384 -0.00664055 0.35375686
vn 0.85614122 0.35636845 0.37419745
vn 0.78124855 0.43422501 0.44844101
vn 0.78950736 0.08465785 0.60787430
vn 0.63099377 -0.09110181 0.77042022
vn 0.83092365 0.55357496 0.05586283
vn 0.02882660 -0.21967769 0.97514652
vn -0.87448117 -0.10539203 0.47347143
vn 0.30020738 0.11575201 0.94682470
vn -0.84366112 0.07147116 0.53209753
vn -0.78853083 0.50431412 0.35197501
vn -0.82504555 0.56313156 0.04671933
vn 0.33982895 0.72489285 0.59920501
vn 0.00149991 0.99620152 0.08706484
vn 0.03784300 0.99461444 0.09648848
f 30//30 41//41 10//10
f 45//45 27//27 42//42
f 32//32 10//10 41//41
f 32//32 42//42 27//27
f 41//41 42//42 32//32
f 45//45 42//42 51//51
f 51//51 42//42 41//41
f 20//20 27//27 45//45
f 45//45 14//14 20//20
f 45//45 28//28 22//22
f 22//22 14//14 45//45
f 35//35 50//50 54//54
f 57//57 41//41 30//30
f 30//30 56//56 57//57
f 26//26 32//32 27//27
f 30//30 40//40 53//53
f 14//14 22//22 5//5
f 33//33 54//54 43//43
f 33//33 35//35 54//54
f 28//28 35//35 33//33
f 34//34 35//35 28//28
f 50//50 35//35 34//34
f 34//34 28//28 45//45
f 45//45 51//51 47//47
f 51//51 48//48 47//47
f 48//48 34//34 47//47
f 58//58 48//48 51//51
f 56//56 54//54 58//58
f 9//9 20//20 14//14
f 27//27 20//20 9//9
f 9//9 26//26 27//27
f 38//38 40//40 30//30
f 38//38 39//39 40//40
f 40//40 39//39 44//44
f 44//44 53//53 40//40
f 55//55 54//54 56//56
f 55//55 56//56 30//30
f 30//30 53//53 55//55
f 30//30 10//10 31//31
f 10//10 25//25 31//31
f 10//10 8//8 17//17
f 17//17 25//25 10//10
f 14//14 5//5 15//15
f 50//50 34//34 49//49
f 49//49 34//34 48//48
f 54//54 50//50 49//49
f 49//49 58//58 54//54
f 48//48 58//58 49//49
f 46//46 34//34 45//45
f 45//45 47//47 46//46
f 46//46 47//47 34//34
f 60//60 58//58 51//51
f 53//53 44//44 52//52
f 54//54 55//55 52//52
f 52//52 55//55 53//53
f 43//43 54//54 52//52
f 52//52 44//44 43//43
f 18//18 31//31 25//25
f 25//25 17//17 18//18
f 30//30 31//31 18//18
f 18//18 17//17 30//30
f 14//14 15//15 4//4
f 7//7 17//17 8//8
f 36//36 38//38 30//30
f 59//59 60//60 51//51
f 59//59 51//51 41//41
f 41//41 57//57 59//59
f 59//59 57//57 56//56
f 56//56 58//58 59//59
f 58//58 60//60 59//59
f 1//1 7//7 8//8
f 1//1 15//15 5//5
f 1//1 4//4 15//15
f 5//5 6//6 1//1
f 6//6 7//7 1//1
f 13//13 9//9 14//14
f 14//14 4//4 13//13
f 29//29 21//21 22//22
f 29//29 22//22 28//28
f 28//28 33//33 29//29
f 16//16 5//5 22//22
f 22//22 21//21 16//16
f 16//16 6//6 5//5
f 16//16 21//21 6//6
f 23//23 36//36 30//30
f 17//17 7//7 23//23
f 23//23 7//7 6//6
f 6//6 21//21 23//23
f 21//21 29//29 23//23
f 23//23 29//29 36//36
f 2//2 1//1 8//8
f 11//11 12//12 2//2
f 2//2 8//8 10//10
f 10//10 11//11 2//2
f 37//37 29//29 33//33
f 36//36 29//29 37//37
f 37//37 33//33 43//43
f 43//43 44//44 37//37
f 37//37 44//44 39//39
f 39//39 38//38 37//37
f 38//38 36//36 37//37
f 30//30 17//17 24//24
f 24//24 23//23 30//30
f 17//17 23//23 24//24
f 4//4 1//1 3//3
f 1//1 2//2 3//3
f 3//3 13//13 4//4
f 9//9 13//13 3//3
f 3//3 2//2 9//9
f 9//9 2//2 19//19
f 19//19 2//2 12//12
f 26//26 9//9 19//19
f 19//19 12//12 11//11
f 32//32 26//26 19//19
f 10//10 32//32 19//19
f 19//19 11//11 10//10