# https://github.com/mikedh/trimesh
v 0.79963290 0.49999767 1.31288590
v 0.32660314 0.49989976 1.31288590
v 0.94490950 0.49989976 1.31288590
v 0.94490950 0.49226468 0.43269789
v 0.32660314 0.49226468 0.43269789
v 0.32660314 -0.50000237 1.31288590
v 1.09028385 0.49461393 1.31288590
v 1.09028385 0.48648942 0.43269789
v 1.09028385 0.48237825 0.36094772
v 0.94490950 0.48521693 0.34802672
v 1.21676447 0.48502115 1.31288590
v 1.16820786 0.47918739 0.37697639
v 1.09028385 0.46945733 0.32991791
v 0.94490950 0.46945733 0.31298364
v 0.32660313 0.48530270 0.34821897
v 0.32660314 -0.49226564 0.43227207
v 0.94490950 -0.49226938 0.43269789
v 0.80191895 -0.50000235 1.31288590
v 1.25200694 0.46945733 1.31288590
v 1.19787074 0.46945733 0.43269789
v 1.18044551 0.46945733 0.36496099
v 1.18984325 0.45174001 0.35615124
v 1.09028385 0.45174001 0.32110816
v 0.32660314 0.46946491 0.31298364
v 1.32660311 0.26350587 0.31347312
v 1.32660311 0.25684965 0.31298364
v 0.94490950 -0.46946203 0.31288585
v 0.32660314 -0.48522162 0.34802672
v 0.94490950 -0.48522162 0.34802672
v 1.09028385 -0.48238295 0.36094772
v 1.09028385 -0.48649412 0.43269789
v 1.00384244 -0.49863196 1.31288590
v 0.94490950 -0.49980659 1.31288590
v 1.26346068 0.45174001 1.31288590
v 1.32660311 0.29502507 0.40626881
v 1.21676447 0.45174001 0.43269789
v 1.32660311 0.28200628 0.33226717
v 1.32660311 0.27456695 0.32140188
v 0.32660314 -0.46946203 0.31288585
v 1.32660311 -0.25685435 0.31298364
v 1.09028385 -0.45174471 0.32110816
v 1.09028385 -0.46946203 0.32991791
v 1.16820701 -0.47919240 0.37697696
v 1.11554082 -0.49373768 1.31288590
v 1.32660311 0.30794599 1.31288590
v 1.32660311 0.29659125 0.43269789
v 1.32660311 0.28983711 0.35331268
v 1.32660311 -0.27457164 0.32140188
v 1.18984325 -0.45174471 0.35615124
v 1.18044551 -0.46946203 0.36496099
v 1.19787074 -0.46946203 0.43269789
v 1.22087622 -0.48355757 1.31288590
v 1.21676447 -0.48502585 1.31288590
v 1.32660311 -0.30736336 1.31288590
v 1.32660311 -0.28984181 0.35331268
v 1.21676447 -0.45174471 0.43269789
v 1.25278993 -0.46877683 1.31288590
v 1.25200694 -0.46946203 1.31288590
v 1.26346068 -0.45174471 1.31288590
v 1.32660311 -0.29659595 0.43269789
vn 0.00289017 0.18462827 0.98280418
vn -0.82634116 0.10362969 0.55355322
vn 0.23363852 0.19220895 0.95313628
vn 0.58385131 0.49530005 -0.64326939
vn -0.97560169 0.12911735 -0.17756706
vn -0.82622859 -0.10383090 0.55368354
vn 0.55631950 0.15084807 0.81716184
vn 0.94372005 0.24662390 -0.22038402
vn 0.57184406 0.15213602 -0.80613212
vn 0.18865022 0.16475313 -0.96812577
vn 0.82921474 0.07568798 0.55378177
vn 0.91520774 0.08576714 -0.39374966
vn 0.44463400 0.03819976 -0.89489742
vn 0.10428315 0.03597578 -0.99389676
vn -0.85144855 0.08742615 -0.51709963
vn -0.97518381 -0.12916542 -0.17981330
vn 0.58093305 -0.49523262 -0.64595777
vn 0.00791779 -0.18483892 0.98273693
vn 0.84571527 0.01844634 0.53331550
vn 0.99762568 0.02528596 -0.06405953
vn 0.89627077 0.02494667 -0.44280512
vn 0.81851700 0.01363949 -0.57432037
vn 0.39858742 0.00992260 -0.91707667
vn -0.80032996 0.02046729 -0.59921035
vn 0.84114979 0.00174229 -0.54079941
vn 0.82588970 0.00009231 -0.56383171
vn 0.10494554 -0.03605469 -0.99382418
vn -0.85129509 -0.08706230 -0.51741359
vn 0.18865694 -0.16489570 -0.96810018
vn 0.57183703 -0.15213613 -0.80613709
vn 0.94355220 -0.24621793 -0.22155353
vn 0.37306587 -0.17482357 0.91118526
vn 0.13514468 -0.19002324 0.97243359
vn 0.83304184 0.00735150 0.55316115
vn 0.99987075 0.00546706 -0.01511933
vn 0.99653208 0.01296137 -0.08219377
vn 0.99100676 0.00660364 -0.13364876
vn 0.96185844 0.00651116 -0.27347019
vn -0.80028780 -0.02051032 -0.59926518
vn 0.82594732 -0.00044624 -0.56374713
vn 0.39946570 -0.00982216 -0.91669552
vn 0.44506239 -0.03821469 -0.89468380
vn 0.91519849 -0.08576962 -0.39377060
vn 0.60401422 -0.14153181 0.78430579
vn 0.83067452 0.00283171 0.55675114
vn 0.99996112 0.00461601 -0.00751402
vn 0.99768350 0.00702464 -0.06766298
vn 0.92532216 -0.00636163 -0.37912851
vn 0.81832083 -0.01355293 -0.57460189
vn 0.89627189 -0.02494472 -0.44280296
vn 0.99762285 -0.02527719 -0.06410700
vn 0.83032199 -0.03100409 0.55642083
vn 0.82307332 -0.07527616 0.56292434
vn 0.83062844 -0.00281366 0.55681997
vn 0.99614008 -0.00730669 -0.08747317
vn 0.99652670 -0.01295145 -0.08226057
vn 0.83868811 -0.01142546 0.54449217
vn 0.84082065 -0.02080989 0.54091366
vn 0.83244736 -0.00715748 0.55405791
vn 0.99990847 -0.00541147 -0.01240014
f 15//15 6//6 2//2
f 24//24 39//39 15//15
f 16//16 6//6 15//15
f 25//25 26//26 14//14
f 39//39 24//24 14//14
f 15//15 39//39 28//28
f 28//28 16//16 15//15
f 5//5 2//2 1//1
f 1//1 4//4 5//5
f 15//15 2//2 5//5
f 5//5 4//4 15//15
f 25//25 14//14 23//23
f 15//15 4//4 10//10
f 10//10 24//24 15//15
f 10//10 14//14 24//24
f 6//6 16//16 17//17
f 7//7 8//8 4//4
f 19//19 36//36 20//20
f 20//20 21//21 12//12
f 36//36 21//21 20//20
f 45//45 46//46 34//34
f 26//26 40//40 27//27
f 39//39 14//14 27//27
f 27//27 14//14 26//26
f 40//40 41//41 27//27
f 60//60 54//54 59//59
f 9//9 10//10 4//4
f 9//9 8//8 12//12
f 4//4 8//8 9//9
f 3//3 4//4 1//1
f 3//3 7//7 4//4
f 11//11 20//20 12//12
f 19//19 20//20 11//11
f 12//12 8//8 11//11
f 8//8 7//7 11//11
f 25//25 23//23 22//22
f 35//35 47//47 36//36
f 35//35 36//36 19//19
f 19//19 34//34 35//35
f 35//35 34//34 46//46
f 37//37 21//21 36//36
f 36//36 47//47 37//37
f 49//49 41//41 40//40
f 30//30 31//31 17//17
f 50//50 49//49 48//48
f 48//48 49//49 40//40
f 13//13 22//22 23//23
f 21//21 22//22 13//13
f 13//13 23//23 14//14
f 12//12 21//21 13//13
f 13//13 9//9 12//12
f 14//14 10//10 13//13
f 10//10 9//9 13//13
f 18//18 33//33 6//6
f 6//6 17//17 18//18
f 17//17 33//33 18//18
f 32//32 33//33 17//17
f 32//32 31//31 44//44
f 17//17 31//31 32//32
f 57//57 60//60 59//59
f 58//58 51//51 57//57
f 25//25 22//22 38//38
f 38//38 22//22 21//21
f 21//21 37//37 38//38
f 42//42 49//49 50//50
f 41//41 49//49 42//42
f 42//42 27//27 41//41
f 29//29 30//30 17//17
f 16//16 28//28 29//29
f 29//29 17//17 16//16
f 27//27 42//42 29//29
f 29//29 42//42 30//30
f 52//52 51//51 58//58
f 43//43 53//53 44//44
f 44//44 31//31 43//43
f 43//43 52//52 53//53
f 51//51 52//52 43//43
f 50//50 51//51 43//43
f 31//31 30//30 43//43
f 43//43 42//42 50//50
f 30//30 42//42 43//43
f 50//50 48//48 55//55
f 60//60 57//57 56//56
f 56//56 57//57 51//51
f 56//56 55//55 60//60
f 56//56 51//51 50//50
f 50//50 55//55 56//56
f 39//39 27//27 29//29
f 29//29 28//28 39//39
f 52//52 2//2 6//6
f 6//6 33//33 52//52
f 1//1 2//2 52//52
f 59//59 54//54 52//52
f 52//52 54//54 45//45
f 52//52 32//32 44//44
f 45//45 34//34 52//52
f 44//44 53//53 52//52
f 52//52 3//3 1//1
f 52//52 34//34 19//19
f 19//19 11//11 52//52
f 52//52 57//57 59//59
f 7//7 3//3 52//52
f 52//52 11//11 7//7
f 33//33 32//32 52//52
f 58//58 57//57 52//52
f 45//45 54//54 55//55
f 55//55 26//26 25//25
f 55//55 35//35 46//46
f 55//55 46//46 45//45
f 55//55 40//40 26//26
f 54//54 60//60 55//55
f 55//55 48//48 40//40
f 47//47 35//35 55//55
f 55//55 37//37 47//47
f 25//25 38//38 55//55
f 55//55 38//38 37//37