# https://github.com/mikedh/trimesh
v 0.46750481 -1.12271653 0.11753235
v -0.53247389 -0.98577676 0.11498542
v -0.52344912 -1.13396830 0.11749347
v 0.31312136 -1.27056595 0.11795255
v 0.00874891 -1.37922756 0.11714085
v 0.46750481 -0.99213802 0.11165937
v -0.53247390 -0.88387977 0.10891871
v 0.10593677 -1.48660368 0.11062712
v 0.46750481 -0.96962107 0.09736853
v -0.53247390 -0.87562032 0.10030502
v -0.23793550 -1.45191792 0.10918549
v -0.43976719 -1.32505056 0.10937554
v 0.43978742 -1.32159820 0.10961489
v -0.53247390 -0.70049957 -0.74961194
v 0.46752606 -1.32285874 -0.30743675
v 0.46740689 -0.49989017 -0.81870129
v 0.46740689 -0.49858469 -0.75015032
v 0.46747888 -0.50014898 -0.63148231
v -0.44295746 -0.55559224 -0.81960920
v -0.44300831 -0.58850491 -0.83946840
v -0.44300456 -0.77150635 -0.87545854
v -0.44300831 -0.84395893 -0.88116652
v -0.44300831 -0.98535344 -0.88204747
v -0.53245040 -1.23758712 0.11148967
v -0.07008114 -1.49651157 0.09011060
v 0.10961356 -1.49858466 0.00155536
v 0.26454110 -1.44540034 0.09886949
v 0.46740689 -0.51082646 -0.82517753
v 0.46740695 -1.20678864 -0.82517751
v -0.44300152 -1.11604981 -0.87946818
v -0.44300830 -1.20306476 -0.86069573
v -0.15989245 -1.48735978 0.00324680
v 0.08030243 -1.48923633 -0.11159714
v 0.34313147 -1.41758436 -0.06289020
v 0.46739760 -1.34507008 -0.01112154
v 0.38675085 -1.21524235 -0.82517753
v 0.19844729 -1.44186192 -0.23298617
v 0.17248368 -1.44444313 -0.24531941
v 0.13293870 -1.40781620 -0.37153936
v -0.53247391 -1.10249339 -0.74960772
v -0.15560217 -1.45148994 -0.22509892
v -0.21924643 -1.43736347 -0.21556300
v -0.24870938 -1.44513137 -0.14420638
v -0.44300825 -1.21897902 -0.83555280
v -0.44878343 -1.33333335 -0.23641206
v -0.48955194 -1.30550674 -0.24678764
v -0.53247390 -1.25735100 -0.31915979
v -0.53247258 -1.20399282 -0.51009965
v -0.53245917 -1.29539305 -0.07194613
v -0.30049689 -1.43589368 -0.00016668
v 0.46750481 -1.34808246 -0.09086023
v 0.05901161 -1.38618011 -0.44413646
v 0.38675085 -1.38119411 -0.22077527
v 0.28279460 -1.43387234 -0.17612921
v 0.01287359 -1.43152390 -0.33554846
v -0.36937030 -1.39204814 -0.15999060
v -0.42853785 -1.36471444 0.00424283
v -0.07592651 -1.48807575 -0.09577886
v 0.46750481 -1.34032071 -0.19727727
v -0.05762897 -1.45919919 -0.24204866
vn 0.96773085 -0.02555163 0.25068727
vn -0.90626070 0.35114083 0.23535434
vn -0.89884045 -0.20490318 0.38742811
vn 0.19819340 -0.76780508 0.60925753
vn -0.03751386 -0.82209126 0.56811853
vn 0.58618637 0.80019200 0.12680025
vn -0.51290667 0.85187266 0.10601753
vn 0.06863782 -0.99106358 0.11437585
vn 0.55446391 0.83189328 0.02287668
vn -0.51482598 0.85713568 0.01651182
vn -0.16435516 -0.97953694 0.11616692
vn -0.28953688 -0.95137361 0.10515059
vn 0.56784793 -0.81531417 0.11318804
vn -0.84649005 0.53231358 -0.00984128
vn 0.65835608 -0.75269524 -0.00414102
vn 0.50070032 0.86543149 -0.01809739
vn 0.51442262 0.85753680 -0.00000791
vn 0.50836914 0.86111851 0.00597762
vn -0.34566230 0.93811901 -0.02122039
vn -0.43721611 0.89603911 -0.07717509
vn -0.58267492 0.79434276 -0.17178338
vn -0.83511469 0.44397298 -0.32476369
vn -0.92842060 -0.09053624 -0.36033093
vn -0.70116453 -0.70307320 0.11855960
vn -0.04199385 -0.99901904 0.01405246
vn 0.06374579 -0.99796609 -0.00040505
vn 0.19192629 -0.98082041 0.03399431
vn 0.60296409 0.78648683 -0.13368911
vn 0.59899299 -0.79224757 -0.11640956
vn -0.60504952 -0.76212765 -0.23038345
vn -0.39604982 -0.91597288 -0.06432901
vn -0.08921347 -0.99601244 -0.00041488
vn 0.04034923 -0.99917784 -0.00394755
vn 0.18397989 -0.98293000 -0.00014591
vn 0.67157325 -0.74093312 0.00273385
vn 0.03331293 -0.99875935 -0.03701353
vn 0.09736430 -0.99523125 -0.00591250
vn 0.06508790 -0.99785493 -0.00700734
vn 0.04749548 -0.99883267 -0.00880186
vn -0.87412600 -0.48542810 -0.01622627
vn -0.07733152 -0.99698717 -0.00603556
vn -0.11682385 -0.99313565 -0.00581154
vn -0.13109283 -0.99136334 -0.00365947
vn -0.28752898 -0.95767899 -0.01334297
vn -0.24296899 -0.97002646 -0.00383775
vn -0.29470750 -0.95557937 -0.00394365
vn -0.72070797 -0.69322953 -0.00358485
vn -0.79302990 -0.60916734 -0.00432809
vn -0.68968972 -0.72410487 -0.00047593
vn -0.18789941 -0.98218805 0.00066208
vn 0.67142405 -0.74107296 -0.00078519
vn 0.01361999 -0.99985549 -0.01017338
vn 0.19465598 -0.98086166 -0.00440973
vn 0.13865248 -0.99033418 -0.00370131
vn 0.00501689 -0.99995065 -0.00857471
vn -0.21253037 -0.97714893 -0.00328912
vn -0.27859896 -0.96039918 0.00400518
vn -0.04308821 -0.99906532 -0.00344755
vn 0.66774822 -0.74438485 -0.00187240
vn -0.02066472 -0.99976224 -0.00695996
f 40//40 10//10 14//14
f 10//10 19//19 14//14
f 15//15 9//9 6//6
f 16//16 19//19 17//17
f 15//15 6//6 1//1
f 7//7 9//9 10//10
f 7//7 6//6 9//9
f 7//7 10//10 40//40
f 40//40 47//47 7//7
f 18//18 16//16 17//17
f 10//10 9//9 18//18
f 18//18 9//9 15//15
f 17//17 19//19 18//18
f 18//18 19//19 10//10
f 28//28 16//16 18//18
f 15//15 29//29 18//18
f 29//29 28//28 18//18
f 32//32 11//11 50//50
f 31//31 30//30 29//29
f 31//31 44//44 40//40
f 40//40 30//30 31//31
f 40//40 44//44 48//48
f 48//48 47//47 40//40
f 44//44 47//47 48//48
f 33//33 54//54 26//26
f 27//27 8//8 26//26
f 5//5 8//8 4//4
f 11//11 8//8 5//5
f 36//36 52//52 44//44
f 36//36 31//31 29//29
f 44//44 31//31 36//36
f 32//32 41//41 58//58
f 33//33 26//26 58//58
f 55//55 38//38 33//33
f 44//44 52//52 55//55
f 52//52 36//36 55//55
f 57//57 50//50 11//11
f 56//56 57//57 49//49
f 50//50 57//57 56//56
f 28//28 21//21 20//20
f 19//19 16//16 20//20
f 20//20 16//16 28//28
f 20//20 14//14 19//19
f 20//20 21//21 14//14
f 22//22 21//21 28//28
f 14//14 21//21 22//22
f 27//27 35//35 13//13
f 13//13 35//35 1//1
f 13//13 1//1 4//4
f 4//4 8//8 13//13
f 13//13 8//8 27//27
f 34//34 35//35 27//27
f 27//27 26//26 34//34
f 34//34 26//26 54//54
f 49//49 24//24 2//2
f 2//2 47//47 49//49
f 2//2 7//7 47//47
f 2//2 1//1 6//6
f 6//6 7//7 2//2
f 25//25 26//26 8//8
f 25//25 11//11 32//32
f 25//25 8//8 11//11
f 32//32 58//58 25//25
f 25//25 58//58 26//26
f 37//37 54//54 33//33
f 33//33 38//38 37//37
f 29//29 54//54 37//37
f 37//37 38//38 29//29
f 60//60 58//58 41//41
f 60//60 41//41 44//44
f 44//44 55//55 60//60
f 33//33 58//58 60//60
f 60//60 55//55 33//33
f 29//29 38//38 39//39
f 38//38 55//55 39//39
f 39//39 36//36 29//29
f 39//39 55//55 36//36
f 11//11 24//24 12//12
f 12//12 57//57 11//11
f 12//12 24//24 49//49
f 49//49 57//57 12//12
f 49//49 47//47 46//46
f 46//46 47//47 44//44
f 43//43 56//56 44//44
f 43//43 41//41 32//32
f 32//32 50//50 43//43
f 50//50 56//56 43//43
f 23//23 28//28 29//29
f 23//23 22//22 28//28
f 29//29 30//30 23//23
f 23//23 30//30 40//40
f 40//40 14//14 23//23
f 14//14 22//22 23//23
f 53//53 34//34 54//54
f 59//59 34//34 53//53
f 15//15 59//59 53//53
f 53//53 29//29 15//15
f 53//53 54//54 29//29
f 35//35 34//34 51//51
f 51//51 34//34 59//59
f 1//1 35//35 51//51
f 15//15 1//1 51//51
f 51//51 59//59 15//15
f 3//3 2//2 24//24
f 3//3 24//24 11//11
f 11//11 5//5 3//3
f 3//3 5//5 4//4
f 4//4 1//1 3//3
f 1//1 2//2 3//3
f 45//45 56//56 49//49
f 49//49 46//46 45//45
f 44//44 56//56 45//45
f 45//45 46//46 44//44
f 44//44 41//41 42//42
f 42//42 43//43 44//44
f 41//41 43//43 42//42