# https://github.com/mikedh/trimesh
v 0.01308524 0.48137037 2.13468082
v 0.01308524 0.48137037 1.86538983
v 0.00349151 0.53953518 1.63987082
v 0.01308524 0.05292261 1.86538983
v 0.00349151 0.53953518 1.19049750
v -0.18255776 0.48137037 2.13382399
v -0.13282714 0.22294983 2.12431926
v 0.01308524 0.15130974 2.11306418
v 0.00349151 -0.44581600 1.41121822
v 0.00349151 -0.39696747 1.39026250
v 0.00349151 0.14638053 1.25385430
v -0.02734538 0.27720210 1.13468083
v -0.02333167 0.53904229 1.13468083
v -0.97998523 0.22650506 1.66459665
v -0.96038176 0.43720460 1.74631420
v -0.93267750 0.43720460 1.78293777
v -0.33091749 0.48137037 2.12792408
v -0.98691480 0.53954415 1.63832573
v -0.29841638 0.24200752 2.12410509
v -0.26219526 0.15505589 2.11078743
v -0.25857315 0.03833214 2.06349005
v -0.15725192 0.03458587 2.06711321
v 0.00349151 -0.46045585 1.47986301
v -0.35999228 -0.36694855 1.13468083
v -0.24917525 -0.33954210 1.13468083
v -0.22244994 -0.31341724 1.13468083
v -0.20208779 -0.28561643 1.13468083
v -0.07169175 0.05647158 1.13468083
v -0.03772222 0.14638053 1.13468083
v -0.91554586 0.53953605 1.13468081
v -0.95073912 -0.04861938 1.72883484
v -0.92014694 -0.06794200 1.77187246
v -0.97523481 0.53953518 1.55153154
v -0.90428800 -0.15528775 1.76570320
v -0.32661011 0.05597869 2.05232667
v -0.83664258 -0.19018673 1.77392882
v -0.83243312 -0.31933235 1.68873483
v -0.25857315 -0.02702938 2.01629075
v 0.01308524 0.04148675 2.06681946
v -0.14227706 -0.45552658 1.44245756
v -0.63033679 -0.33358588 1.13468092
v -0.91369526 0.22751759 1.13468090
v -0.97401364 -0.11449847 1.59338140
v -0.61319747 -0.33944345 1.70638569
v -0.87490114 -0.34373804 1.60064003
v -0.35999228 -0.35541417 1.72046235
v 0.01308524 0.02561466 2.00266706
v -0.17996354 -0.45173111 1.60549944
v 0.00349151 -0.45774474 1.53039177
v -0.90547244 -0.14478370 1.13469568
v -0.94506122 -0.25111181 1.50135730
v -0.91595584 -0.26742144 1.65137078
v -0.91897220 -0.31326933 1.45092642
v -0.57663983 -0.40964175 1.62835864
v -0.76517931 -0.40717099 1.54831190
v -0.25867105 -0.42136710 1.64780270
v -0.38491571 -0.45206689 1.56538433
v -0.47492702 -0.43977159 1.47106819
v -0.80752805 -0.34566352 1.32613147
v -0.83199259 -0.26183291 1.13468083
vn 0.55266307 0.65362349 0.51704918
vn 0.99121624 0.13222082 -0.00283150
vn 0.52155647 0.85299914 0.01926934
vn 0.99992358 -0.01129528 -0.00502419
vn 0.64863850 0.75118222 -0.12244743
vn -0.01262934 0.78823759 0.61524142
vn 0.00284781 -0.22356315 0.97468529
vn 0.69354297 -0.33039755 0.64018404
vn 0.61583882 -0.76472889 -0.18955811
vn 0.91769876 -0.26485453 -0.29610989
vn 0.98839255 -0.06720141 -0.13625024
vn 0.65602946 -0.06112233 -0.75225621
vn 0.42088797 0.72183346 -0.54937216
vn -0.99104704 -0.04374942 0.12614182
vn -0.88837865 0.25579890 0.38124835
vn -0.64512225 0.47455386 0.59884549
vn -0.23482643 0.73236919 0.63913372
vn -0.63440569 0.76769032 0.09044884
vn -0.28904723 -0.26658856 0.91944670
vn -0.16887059 -0.52559094 0.83380866
vn -0.13008927 -0.75114674 0.64719036
vn -0.00276639 -0.78571096 0.61858761
vn 0.58329834 -0.81183591 -0.02618205
vn -0.00557946 -0.78846902 -0.61504917
vn 0.18690334 -0.68518635 -0.70397926
vn 0.32871069 -0.48703410 -0.80916443
vn 0.41832879 -0.37980403 -0.82507571
vn 0.43640781 -0.27561082 -0.85649688
vn 0.63874175 -0.14806171 -0.75504086
vn -0.50520340 0.70423563 -0.49882031
vn -0.92914879 -0.20864675 0.30520331
vn -0.74511599 -0.21492652 0.63135469
vn -0.61764371 0.78374732 -0.06524093
vn -0.62743871 -0.55399492 0.54718397
vn -0.29628139 -0.64856762 0.70112580
vn -0.26918193 -0.74840091 0.60616596
vn -0.28004462 -0.88434097 0.37351849
vn -0.05355802 -0.86685894 0.49566835
vn 0.64457711 -0.61917851 0.44848448
vn -0.01369952 -0.99716867 -0.07393898
vn -0.09790064 -0.78125223 -0.61649040
vn -0.71189947 -0.01551557 -0.70210997
vn -0.97094837 -0.23395406 0.05024707
vn -0.08398250 -0.90378110 0.41967446
vn -0.43806973 -0.88932246 0.13115056
vn -0.02296564 -0.91143577 0.41080094
vn 0.99975623 -0.02200032 0.00186407
vn 0.05708849 -0.97255781 0.22554869
vn 0.58083725 -0.80447370 0.12429866
vn -0.70084054 -0.29388725 -0.64996371
vn -0.89196276 -0.45202579 -0.00866743
vn -0.70533010 -0.66690108 0.24031729
vn -0.62238468 -0.77884857 -0.07766737
vn -0.07840570 -0.96662978 0.24388402
vn -0.18206922 -0.98218584 0.04649492
vn 0.00909464 -0.93783730 0.34695604
vn -0.04412495 -0.99615106 0.07573672
vn -0.06689528 -0.99554214 -0.06648959
vn -0.24393112 -0.96130742 -0.12800645
vn -0.35497892 -0.70105413 -0.61847641
f 18//18 1//1 3//3
f 5//5 30//30 18//18
f 18//18 3//3 5//5
f 18//18 30//30 33//33
f 30//30 60//60 42//42
f 60//60 50//50 42//42
f 42//42 33//33 30//30
f 24//24 60//60 30//30
f 24//24 41//41 60//60
f 53//53 50//50 60//60
f 30//30 5//5 13//13
f 16//16 17//17 18//18
f 60//60 41//41 59//59
f 59//59 41//41 55//55
f 59//59 53//53 60//60
f 55//55 53//53 59//59
f 25//25 24//24 30//30
f 55//55 41//41 58//58
f 41//41 24//24 58//58
f 24//24 40//40 58//58
f 6//6 1//1 18//18
f 18//18 17//17 6//6
f 43//43 42//42 50//50
f 18//18 33//33 43//43
f 33//33 42//42 43//43
f 47//47 49//49 23//23
f 39//39 49//49 47//47
f 5//5 2//2 4//4
f 4//4 47//47 23//23
f 32//32 31//31 34//34
f 17//17 16//16 32//32
f 15//15 16//16 18//18
f 31//31 32//32 15//15
f 15//15 32//32 16//16
f 30//30 27//27 26//26
f 26//26 25//25 30//30
f 39//39 8//8 22//22
f 8//8 20//20 22//22
f 19//19 6//6 17//17
f 17//17 32//32 19//19
f 34//34 20//20 19//19
f 19//19 32//32 34//34
f 45//45 53//53 55//55
f 55//55 37//37 45//45
f 34//34 37//37 36//36
f 48//48 49//49 39//39
f 39//39 56//56 48//48
f 44//44 37//37 54//54
f 54//54 37//37 55//55
f 54//54 48//48 56//56
f 18//18 43//43 14//14
f 14//14 43//43 31//31
f 14//14 15//15 18//18
f 31//31 15//15 14//14
f 50//50 53//53 51//51
f 51//51 43//43 50//50
f 28//28 27//27 30//30
f 30//30 29//29 28//28
f 30//30 13//13 12//12
f 12//12 29//29 30//30
f 12//12 13//13 5//5
f 46//46 56//56 39//39
f 44//44 54//54 46//46
f 46//46 54//54 56//56
f 7//7 20//20 8//8
f 7//7 19//19 20//20
f 7//7 8//8 1//1
f 1//1 6//6 7//7
f 6//6 19//19 7//7
f 52//52 37//37 34//34
f 52//52 45//45 37//37
f 43//43 51//51 52//52
f 53//53 45//45 52//52
f 52//52 51//51 53//53
f 34//34 31//31 52//52
f 31//31 43//43 52//52
f 21//21 36//36 37//37
f 21//21 22//22 20//20
f 57//57 54//54 55//55
f 48//48 54//54 57//57
f 55//55 58//58 57//57
f 57//57 58//58 40//40
f 57//57 40//40 23//23
f 23//23 49//49 57//57
f 49//49 48//48 57//57
f 10//10 28//28 29//29
f 27//27 28//28 10//10
f 39//39 22//22 38//38
f 38//38 46//46 39//39
f 22//22 21//21 38//38
f 44//44 46//46 38//38
f 38//38 37//37 44//44
f 38//38 21//21 37//37
f 34//34 36//36 35//35
f 36//36 21//21 35//35
f 35//35 20//20 34//34
f 35//35 21//21 20//20
f 29//29 12//12 11//11
f 11//11 10//10 29//29
f 11//11 12//12 5//5
f 5//5 4//4 11//11
f 4//4 10//10 11//11
f 9//9 26//26 27//27
f 27//27 10//10 9//9
f 25//25 26//26 9//9
f 24//24 25//25 9//9
f 9//9 4//4 23//23
f 9//9 10//10 4//4
f 23//23 40//40 9//9
f 9//9 40//40 24//24
f 2//2 3//3 1//1
f 2//2 5//5 3//3
f 4//4 8//8 39//39
f 1//1 8//8 4//4
f 4//4 2//2 1//1
f 39//39 47//47 4//4