# https://github.com/mikedh/trimesh
v 1.29824992 0.29424141 0.27141378
v 1.21795655 0.29424141 0.25780769
v 1.21783447 -0.41782471 0.26086661
v 1.35451997 0.08321265 0.25046015
v 1.26843295 0.35110300 0.24779888
v 1.08745544 0.29424141 0.21473800
v 1.29799348 -0.36742248 0.26868523
v 1.37143702 0.35264443 0.22344982
v 1.29161984 -0.54506586 0.23562434
v 1.38963000 0.09270589 0.20409293
v 1.07050788 -0.43661546 0.21172800
v 1.36608901 -0.51199857 0.22462442
v 0.98266261 -0.20927936 0.17223114
v 1.05082220 -0.52002073 0.18751965
v 1.58860254 0.34657726 -0.08191357
v 1.58552818 0.37654877 -0.08753295
v 1.41368200 0.39790530 0.10421292
v 1.21392113 0.39192026 0.17996411
v 0.90235093 0.29424141 0.09443653
v 0.99096086 0.33851159 0.14957673
v 1.58171869 -0.54419727 -0.09369975
v 0.94602631 -0.02082149 0.14481093
v 1.40932144 -0.59034605 0.11225404
v 1.70401462 0.29424141 -0.72858621
v 1.66899614 0.34980625 -0.72858621
v 1.62079085 0.38339956 -0.72858621
v 1.50836061 -0.58911887 -0.07010929
v 1.67637107 -0.52061102 -0.72858621
v 1.68445409 -0.49998523 -0.72848833
v 1.69356283 -0.46110699 -0.72858621
v 0.89899317 -0.51447587 0.07732487
v 1.08092306 -0.57569868 0.13306463
v 1.35850319 -0.58985291 -0.72858621
v 1.58400101 -0.37927270 -0.08979130
v 1.53786566 0.40473668 -0.72786473
v 1.05794373 0.40730394 0.01890549
v 0.82528731 0.35804339 -0.03993453
v 0.77458488 0.32321052 -0.16393271
v 0.70401460 -0.11785304 -0.29942508
v 0.86747901 -0.31034684 0.05315323
v 1.53693215 -0.58926571 -0.72858621
v 1.56101043 -0.58422545 -0.71302242
v 1.61996056 -0.56377097 -0.72858621
v 0.79289996 -0.47975095 -0.09088553
v 0.94768229 -0.58673946 -0.08652350
v 0.90890467 0.40965398 -0.08769868
v 0.77458488 0.32330831 -0.21449066
v 0.72510972 -0.21633809 -0.22843938
v 0.83261928 0.37078066 -0.22651837
v 0.70429187 -0.55110596 -0.29974689
v 1.07446394 -0.51180286 -0.72858621
v 1.11465944 -0.55310331 -0.72858621
v 1.17722379 -0.58794447 -0.72858621
v 0.96066618 -0.58740619 -0.31514161
v 1.35886066 0.40705924 -0.72858621
v 1.21489885 0.40458456 -0.72807190
v 1.07055426 0.29242768 -0.72858561
v 1.06127707 -0.46149850 -0.72858621
v 1.12838161 0.37252526 -0.72857771
v 1.08506981 0.33490977 -0.72858344
vn 0.29689105 0.13611190 0.94516097
vn -0.47640716 0.14614146 0.86699417
vn -0.32613997 -0.11012549 0.93888503
vn 0.82763912 -0.00051642 0.56126039
vn -0.08820892 0.57608365 0.81261726
vn -0.67318138 0.16203586 0.72150621
vn 0.38492828 -0.03863076 0.92213767
vn 0.74580847 0.39206441 0.53856775
vn 0.13051036 -0.57127814 0.81031373
vn 0.94740197 -0.00076011 0.32004519
vn -0.70614039 -0.06875489 0.70472584
vn 0.79842182 -0.18921652 0.57159400
vn -0.81319509 -0.00974609 0.58190959
vn -0.68635449 -0.32830956 0.64894557
vn 0.97917020 0.03535843 0.19993874
vn 0.88145359 0.44707836 0.15218574
vn 0.58450608 0.76721463 0.26407265
vn -0.21488524 0.86637043 0.45080663
vn -0.90585486 0.10537651 0.41027157
vn -0.75076014 0.39142998 0.53211069
vn 0.95865558 -0.23624471 0.15864402
vn -0.86525275 0.00847896 0.50126419
vn 0.64898577 -0.68950790 0.32155299
vn 0.86801297 0.09222155 -0.48790231
vn 0.78749332 0.30024156 -0.53824648
vn 0.59695852 0.52990991 -0.60235871
vn 0.61395315 -0.78193972 0.10785078
vn 0.82206848 -0.25137712 -0.51089427
vn 0.86265000 -0.10430694 -0.49492932
vn 0.86109491 -0.03849091 -0.50698522
vn -0.87983621 -0.29986813 0.36873751
vn -0.45248418 -0.80816096 0.37700653
vn -0.00511435 -0.67843285 -0.73464461
vn 0.98140504 -0.00674679 0.19182971
vn 0.23897856 0.70944134 -0.66300998
vn -0.16973429 0.97369388 0.15202139
vn -0.91297110 0.33432582 0.23390172
vn -0.97480544 0.21056720 0.07359221
vn -0.99478120 0.02557112 -0.09877487
vn -0.94692925 -0.00855058 0.32132832
vn 0.21700584 -0.68851993 -0.69198900
vn 0.58082190 -0.81315272 -0.03779651
vn 0.64723148 -0.48060481 -0.59170129
vn -0.96892260 -0.06567877 0.23848540
vn -0.42617711 -0.89452294 0.13491397
vn -0.53128971 0.84155186 0.09757929
vn -0.96557762 0.23550843 -0.11043390
vn -0.98302011 0.00240078 0.18348217
vn -0.80713953 0.57617601 -0.12863508
vn -0.92093256 -0.38389362 -0.06714843
vn -0.65075067 -0.15794705 -0.74268183
vn -0.56648340 -0.32046752 -0.75920822
vn -0.26503646 -0.65916608 -0.70374410
vn -0.20215985 -0.97893458 -0.02860904
vn 0.00353759 0.68105276 -0.73222580
vn -0.24455866 0.67504708 -0.69606214
vn -0.70604446 0.06750692 -0.70494257
vn -0.66094788 -0.02952181 -0.74985089
vn -0.57433767 0.42936816 -0.69697864
vn -0.70626325 0.21007424 -0.67606289
f 49//49 60//60 47//47
f 47//47 57//57 39//39
f 60//60 57//57 47//47
f 32//32 45//45 23//23
f 23//23 45//45 54//54
f 40//40 44//44 31//31
f 31//31 22//22 40//40
f 40//40 22//22 19//19
f 9//9 32//32 23//23
f 1//1 3//3 7//7
f 7//7 4//4 1//1
f 3//3 9//9 7//7
f 1//1 4//4 8//8
f 19//19 22//22 20//20
f 53//53 41//41 33//33
f 33//33 41//41 23//23
f 23//23 54//54 33//33
f 33//33 54//54 53//53
f 15//15 8//8 10//10
f 10//10 8//8 4//4
f 28//28 21//21 43//43
f 39//39 57//57 58//58
f 50//50 54//54 45//45
f 31//31 44//44 50//50
f 50//50 32//32 31//31
f 45//45 32//32 50//50
f 39//39 58//58 50//50
f 53//53 54//54 50//50
f 50//50 48//48 39//39
f 44//44 48//48 50//50
f 4//4 7//7 12//12
f 23//23 21//21 12//12
f 12//12 9//9 23//23
f 12//12 7//7 9//9
f 12//12 10//10 4//4
f 1//1 8//8 5//5
f 5//5 8//8 18//18
f 18//18 20//20 5//5
f 18//18 8//8 17//17
f 46//46 20//20 18//18
f 23//23 41//41 27//27
f 27//27 21//21 23//23
f 27//27 43//43 21//21
f 28//28 30//30 29//29
f 29//29 21//21 28//28
f 29//29 30//30 21//21
f 51//51 50//50 58//58
f 13//13 22//22 31//31
f 31//31 11//11 13//13
f 31//31 32//32 14//14
f 14//14 11//11 31//31
f 32//32 9//9 14//14
f 14//14 9//9 3//3
f 3//3 11//11 14//14
f 15//15 10//10 34//34
f 10//10 12//12 34//34
f 34//34 12//12 21//21
f 24//24 15//15 34//34
f 34//34 30//30 24//24
f 21//21 30//30 34//34
f 6//6 5//5 20//20
f 6//6 13//13 11//11
f 6//6 20//20 22//22
f 22//22 13//13 6//6
f 6//6 11//11 3//3
f 49//49 46//46 56//56
f 18//18 17//17 36//36
f 36//36 46//46 18//18
f 36//36 17//17 35//35
f 49//49 47//47 38//38
f 38//38 47//47 39//39
f 39//39 48//48 38//38
f 19//19 20//20 37//37
f 20//20 46//46 37//37
f 37//37 38//38 48//48
f 37//37 46//46 49//49
f 49//49 38//38 37//37
f 37//37 40//40 19//19
f 37//37 48//48 44//44
f 44//44 40//40 37//37
f 35//35 17//17 16//16
f 16//16 26//26 35//35
f 16//16 8//8 15//15
f 16//16 17//17 8//8
f 16//16 25//25 26//26
f 24//24 25//25 16//16
f 16//16 15//15 24//24
f 41//41 43//43 42//42
f 42//42 27//27 41//41
f 43//43 27//27 42//42
f 53//53 50//50 52//52
f 50//50 51//51 52//52
f 1//1 5//5 2//2
f 5//5 6//6 2//2
f 2//2 3//3 1//1
f 2//2 6//6 3//3
f 55//55 56//56 46//46
f 55//55 36//36 35//35
f 46//46 36//36 55//55
f 35//35 26//26 55//55
f 55//55 57//57 60//60
f 55//55 58//58 57//57
f 59//59 55//55 60//60
f 56//56 55//55 59//59
f 59//59 60//60 49//49
f 49//49 56//56 59//59
f 28//28 43//43 55//55
f 24//24 30//30 55//55
f 55//55 41//41 53//53
f 55//55 43//43 41//41
f 55//55 30//30 28//28
f 55//55 25//25 24//24
f 53//53 52//52 55//55
f 55//55 51//51 58//58
f 26//26 25//25 55//55
f 55//55 52//52 51//51