# https://github.com/mikedh/trimesh
v -9.29406388 -0.49509260 -4.87651030
v -8.76711672 -0.47643806 -4.87651030
v -8.94142765 -0.48725867 -4.58751576
v -9.29406388 -0.49342792 -4.68636044
v -8.85527578 -0.45729389 -5.01138730
v -8.59280580 -0.46179842 -4.58751576
v -9.29406388 -0.48813998 -4.49297932
v -9.29406388 -0.44671808 -5.09485930
v -9.08073926 -0.41122067 -5.14337586
v -8.41413830 -0.43261708 -4.97971198
v -8.59280580 -0.37993395 -5.10915496
v -8.41335506 -0.43315562 -4.63566520
v -8.41776044 -0.43036480 -4.39428162
v -8.76711672 -0.44936205 -4.37151646
v -8.76711672 -0.27667307 -5.19904025
v -8.40111767 -0.22227628 -5.17563855
v -8.36523722 -0.30913488 -4.96526967
v -8.35265717 -0.31295392 -4.58751576
v -8.38985901 -0.31295392 -4.37342589
v -8.59280580 -0.31295392 -4.32280397
v -8.94142765 -0.31295392 -4.29352768
v -9.29406388 -0.45675537 -4.36446659
v -9.29406388 -0.20788146 -5.22403286
v -8.94142765 -0.07891553 -5.24594135
v -8.59280580 -0.07891553 -5.22175648
v -8.32867144 -0.07891553 -5.06920560
v -8.29406390 -0.07891553 -4.78021141
v -8.29998679 -0.07891553 -4.49111900
v -8.59280580 -0.07891553 -4.28226753
v -8.94142765 -0.07891553 -4.25377442
v -9.29406388 -0.31378627 -4.29323388
v -9.29406388 -0.07539027 -5.25328477
v -8.76711672 0.15512286 -5.22635835
v -8.39313865 0.03810366 -5.18024059
v -8.29430866 0.15512286 -4.78021141
v -8.33337084 0.15512286 -5.06920560
v -8.30018260 0.15512286 -4.49111900
v -8.36225130 0.03810366 -4.35281485
v -8.59280580 0.15512286 -4.28246328
v -8.94142765 0.15512286 -4.25406821
v -9.29406388 -0.08058024 -4.25328478
v -9.29406388 0.15683653 -5.24569649
v -8.76711672 0.31767671 -5.19159862
v -8.40728532 0.28330538 -5.17182004
v -8.36778273 0.32879109 -4.97285795
v -8.35794368 0.34063990 -4.58751576
v -8.38104796 0.31454314 -4.36686548
v -8.59280580 0.35508368 -4.33876421
v -9.29406388 0.15512286 -4.25348062
v -9.29392446 0.38042173 -4.32105407
v -9.29406388 0.32884006 -5.20236922
v -9.29406388 0.45545579 -5.05628088
v -8.76711672 0.41662892 -5.06920560
v -8.59280580 0.45075545 -4.78021141
v -8.59280580 0.44448833 -4.49111900
v -8.94142765 0.48297242 -4.49111900
v -8.94142765 0.48923960 -4.78021141
v -9.29406388 0.48532259 -4.48989504
v -9.29406388 0.50490740 -4.89731709
v -9.29406388 0.49805277 -4.68048550
vn -0.80471585 -0.59219148 -0.04173315
vn 0.15249960 -0.98675324 -0.05533454
vn 0.09855454 -0.99434750 0.03949757
vn -0.82392425 -0.56666958 0.00586747
vn 0.13372887 -0.96771213 -0.21365822
vn 0.23900363 -0.97075580 0.02259280
vn -0.80795402 -0.58666773 0.05505708
vn -0.79381961 -0.55130154 -0.25674312
vn 0.01701505 -0.79460083 -0.60689374
vn 0.77913691 -0.60843198 -0.15085161
vn 0.38698637 -0.76957955 -0.50792604
vn 0.80510410 -0.59312812 0.00253520
vn 0.75989620 -0.57021930 0.31210209
vn 0.15530396 -0.86859406 0.47055822
vn 0.21423233 -0.49149335 -0.84412013
vn 0.83896266 -0.26925177 -0.47291135
vn 0.98865660 -0.14208249 -0.04868986
vn 0.98672894 -0.16182575 0.01335753
vn 0.91285135 -0.15742180 0.37672377
vn 0.40660096 -0.35552502 0.84159231
vn 0.11514623 -0.43089884 0.89502376
vn -0.77809718 -0.54536857 0.31166953
vn -0.85228226 -0.22186588 -0.47369873
vn 0.12858336 -0.11709382 -0.98476157
vn 0.38008402 -0.07614542 -0.92181235
vn 0.99389610 -0.04370736 -0.10129271
vn 0.99834522 -0.05573720 -0.01414843
vn 0.99597198 -0.05162026 0.07331553
vn 0.52490477 -0.09952852 0.84532186
vn 0.13319060 -0.12033437 0.98375805
vn -0.84553371 -0.23022284 0.48173663
vn -0.84678767 -0.07029179 -0.52726626
vn 0.22191510 0.17315725 -0.95956774
vn 0.87863906 0.01913576 -0.47710296
vn 0.99687997 0.07752313 -0.01484863
vn 0.99268127 0.06500201 -0.10177734
vn 0.99529336 0.06878924 0.06825807
vn 0.92006456 -0.00252820 0.39175861
vn 0.49934525 0.15203348 0.85295964
vn 0.12686534 0.22224989 0.96670066
vn -0.86073191 -0.06283313 0.50516589
vn -0.84489164 0.10843925 -0.52383112
vn 0.18523432 0.64730379 -0.73938221
vn 0.79305141 0.41440661 -0.44647131
vn 0.88176697 0.46324768 -0.08881779
vn 0.90936219 0.41550706 0.02035408
vn 0.85371884 0.38259087 0.35325396
vn 0.35404093 0.68738765 0.63415553
vn -0.85054569 0.11056915 0.51414637
vn -0.79022472 0.44929307 0.41675009
vn -0.80088353 0.39449077 -0.45051372
vn -0.78656955 0.57940522 -0.21353671
vn 0.29584994 0.91007581 -0.29023237
vn 0.51427292 0.85615451 -0.05022766
vn 0.48417192 0.86158861 0.15245532
vn 0.12986117 0.96848085 0.21255802
vn 0.18448009 0.98193323 -0.04212164
vn -0.79718575 0.58926555 0.13138108
vn -0.77872956 0.62393410 -0.06547151
vn -0.81973418 0.57252772 0.01574429
f 37//37 28//28 27//27
f 13//13 12//12 18//18
f 18//18 28//28 13//13
f 27//27 28//28 18//18
f 38//38 37//37 47//47
f 28//28 37//37 38//38
f 2//2 3//3 1//1
f 56//56 58//58 50//50
f 34//34 16//16 25//25
f 25//25 16//16 15//15
f 26//26 34//34 36//36
f 16//16 34//34 26//26
f 10//10 18//18 12//12
f 19//19 38//38 29//29
f 13//13 28//28 19//19
f 28//28 38//38 19//19
f 50//50 40//40 48//48
f 48//48 56//56 50//50
f 39//39 38//38 47//47
f 29//29 38//38 39//39
f 47//47 48//48 39//39
f 39//39 48//48 40//40
f 49//49 40//40 50//50
f 50//50 58//58 49//49
f 41//41 21//21 30//30
f 30//30 21//21 29//29
f 30//30 49//49 41//41
f 40//40 49//49 30//30
f 29//29 39//39 30//30
f 30//30 39//39 40//40
f 31//31 21//21 41//41
f 22//22 21//21 31//31
f 29//29 21//21 20//20
f 13//13 19//19 20//20
f 20//20 19//19 29//29
f 9//9 8//8 23//23
f 32//32 15//15 23//23
f 23//23 15//15 9//9
f 1//1 8//8 5//5
f 5//5 2//2 1//1
f 5//5 10//10 2//2
f 5//5 8//8 9//9
f 9//9 10//10 5//5
f 13//13 3//3 6//6
f 3//3 2//2 6//6
f 6//6 12//12 13//13
f 6//6 10//10 12//12
f 2//2 10//10 6//6
f 46//46 45//45 54//54
f 47//47 37//37 46//46
f 36//36 45//45 35//35
f 35//35 37//37 27//27
f 35//35 46//46 37//37
f 45//45 46//46 35//35
f 27//27 26//26 35//35
f 35//35 26//26 36//36
f 60//60 56//56 59//59
f 58//58 56//56 60//60
f 59//59 56//56 57//57
f 57//57 53//53 59//59
f 54//54 53//53 57//57
f 47//47 46//46 55//55
f 55//55 46//46 54//54
f 55//55 48//48 47//47
f 56//56 48//48 55//55
f 54//54 57//57 55//55
f 55//55 57//57 56//56
f 59//59 53//53 52//52
f 43//43 51//51 52//52
f 52//52 53//53 43//43
f 24//24 33//33 25//25
f 25//25 15//15 24//24
f 24//24 15//15 32//32
f 42//42 24//24 32//32
f 33//33 24//24 42//42
f 42//42 51//51 43//43
f 43//43 33//33 42//42
f 1//1 3//3 4//4
f 3//3 7//7 4//4
f 22//22 7//7 14//14
f 14//14 21//21 22//22
f 14//14 3//3 13//13
f 14//14 7//7 3//3
f 13//13 20//20 14//14
f 14//14 20//20 21//21
f 43//43 53//53 44//44
f 44//44 33//33 43//43
f 44//44 45//45 36//36
f 36//36 34//34 44//44
f 54//54 45//45 44//44
f 44//44 53//53 54//54
f 25//25 33//33 44//44
f 44//44 34//34 25//25
f 11//11 10//10 9//9
f 16//16 10//10 11//11
f 9//9 15//15 11//11
f 11//11 15//15 16//16
f 27//27 18//18 17//17
f 18//18 10//10 17//17
f 17//17 26//26 27//27
f 16//16 26//26 17//17
f 17//17 10//10 16//16
f 4//4 60//60 59//59
f 32//32 23//23 4//4
f 4//4 8//8 1//1
f 41//41 49//49 4//4
f 4//4 42//42 32//32
f 4//4 31//31 41//41
f 59//59 52//52 4//4
f 4//4 7//7 22//22
f 4//4 49//49 58//58
f 22//22 31//31 4//4
f 4//4 23//23 8//8
f 58//58 60//60 4//4
f 4//4 52//52 51//51
f 51//51 42//42 4//4