# https://github.com/mikedh/trimesh
v -0.42005619 -0.03337724 0.45147386
v -0.41032285 0.03253203 0.41703018
v -0.41360244 -0.67607568 0.47481239
v -0.41414090 -0.64252127 0.40053370
v -0.47650148 0.11100841 1.05549281
v -0.46287330 0.15068210 1.00264919
v -0.36835329 0.08883116 0.41825648
v -0.49620664 -0.40116466 1.21250653
v -0.47271091 -0.37436738 0.96503527
v -0.49713798 0.02935822 1.21686230
v -0.30586349 -0.48729863 0.40053277
v -0.47178874 -0.68653573 1.14683435
v -0.48292232 -0.64364052 1.24864918
v -0.46570417 0.08579932 1.29002850
v -0.28504135 0.10836942 0.41756698
v -0.35011106 -0.72583465 0.40051773
v -0.40908503 -0.72342657 1.22796499
v -0.45811839 -0.66393475 1.31542868
v -0.47340637 -0.33022675 1.30057214
v -0.32700541 0.10106026 1.40039532
v -0.43445418 0.17673698 1.23791896
v -0.38309692 0.22202024 1.11709681
v -0.07641846 0.13543975 0.41757233
v 0.36440614 -0.49488137 0.40053277
v -0.12586348 -0.72086664 1.35888786
v -0.32709667 -0.25408714 1.40020943
v -0.13863308 0.27006733 1.17213052
v -0.19175809 0.25895084 1.07907607
v 0.29421803 0.11401444 0.41756641
v 0.20138962 -0.25151903 1.40051775
v 0.28067936 -0.72185115 1.35890965
v 0.43923456 -0.71149250 1.21607928
v -0.29273847 0.21535008 1.23492135
v 0.04758015 0.27416538 1.11805114
v 0.26841962 0.25572770 1.10043864
v 0.33909924 -0.71768639 0.40055270
v 0.47938910 -0.68718339 1.21603978
v 0.50286203 -0.55085624 1.21607928
v 0.49782553 -0.63375434 1.21513409
v 0.41947594 -0.62727601 0.40052591
v -0.17723602 0.20363855 1.28097449
v 0.21989939 0.25325148 1.20797955
v 0.12180369 0.13773531 0.41762273
v 0.39999124 0.06437413 0.41747205
v 0.47880064 -0.23522107 1.32117693
v 0.43642819 -0.27020901 0.56467961
v 0.49237182 -0.00921803 1.24984823
v 0.41623985 -0.67233328 0.40056911
v 0.45812909 0.06372034 1.31794316
v 0.21954094 0.09154777 1.38005475
v 0.17016594 0.15902551 1.33113859
v 0.40291717 0.17851612 0.86606816
v 0.41702868 0.01708845 0.42930987
v 0.46590123 0.10867030 0.91470288
v 0.36432964 -0.71108836 0.40054670
v 0.48065614 0.12734490 1.19286301
v 0.46881179 0.03896549 0.91255562
v 0.42460221 0.19989626 1.21305712
v 0.35120147 0.17354688 1.28490192
vn -0.96189497 0.07185682 -0.26380801
vn -0.53508330 0.40167334 -0.74319875
vn -0.62720851 -0.76681035 -0.13642349
vn -0.56248904 -0.33137102 -0.75749544
vn -0.88777401 0.45821585 -0.04353785
vn -0.59478837 0.79399764 -0.12567631
vn -0.21525725 0.71758909 -0.66236713
vn -0.99127824 -0.05047977 0.12173428
vn -0.98703193 -0.01365268 -0.15994238
vn -0.93587077 0.29505503 0.19258355
vn -0.00755042 0.02245909 -0.99971925
vn -0.64345576 -0.76453868 -0.03801700
vn -0.85921474 -0.46737301 0.20811656
vn -0.62715985 0.47092854 0.62040054
vn -0.06086590 0.71833789 -0.69302671
vn -0.14892607 -0.77674837 -0.61195016
vn -0.15394515 -0.97760657 0.14347923
vn -0.44054293 -0.60209972 0.66588127
vn -0.68452349 0.00481488 0.72897490
vn -0.17488053 0.51564219 0.83876691
vn -0.38926318 0.87604418 0.28464146
vn -0.19833978 0.98010717 0.00715952
vn -0.02068917 0.72250804 -0.69105288
vn 0.01562566 0.02439843 -0.99958019
vn -0.02314263 -0.78307189 0.62150047
vn -0.17011946 -0.05609353 0.98382564
vn -0.03439812 0.98473104 0.17065035
vn -0.06232246 0.99426691 -0.08688626
vn 0.08946895 0.72237798 -0.68568605
vn 0.07941737 -0.01920285 0.99665648
vn 0.12340141 -0.76088124 0.63704932
vn 0.17653847 -0.97387666 0.14282306
vn -0.09260581 0.94626219 0.30985809
vn 0.01035696 0.99985440 -0.01356146
vn 0.09475258 0.99498551 -0.03202794
vn 0.04339392 -0.77203097 -0.63410184
vn 0.52512092 -0.76422527 0.37444327
vn 0.97271557 -0.08390652 0.21629636
vn 0.80564617 -0.39190921 0.44423127
vn 0.57736457 -0.04278492 -0.81536471
vn -0.02333617 0.89065606 0.45407841
vn 0.05120660 0.95861470 0.28006381
vn 0.01930378 0.72568841 -0.68775264
vn 0.37631936 0.61379419 -0.69400319
vn 0.58759622 -0.02506860 0.80876588
vn 0.98378209 0.01760535 -0.17850168
vn 0.95219906 0.16807001 0.25508710
vn 0.49640109 -0.54556489 -0.67523693
vn 0.46985041 0.42609566 0.77309966
vn 0.08779243 0.44570190 0.89086604
vn 0.02892709 0.80624471 0.59087451
vn 0.29376886 0.94643578 -0.13401181
vn 0.78064556 0.22687197 -0.58234150
vn 0.78308082 0.60625781 -0.13869353
vn 0.15697726 -0.75189632 -0.64032028
vn 0.75740673 0.64201036 0.11898630
vn 0.98735723 0.06680852 -0.14374393
vn 0.31434757 0.91804061 0.24163410
vn 0.13382447 0.79987305 0.58505907
f 16//16 3//3 4//4
f 16//16 31//31 17//17
f 51//51 20//20 50//50
f 50//50 20//20 30//30
f 31//31 45//45 30//30
f 9//9 8//8 10//10
f 9//9 4//4 8//8
f 18//18 17//17 25//25
f 25//25 17//17 31//31
f 18//18 13//13 12//12
f 12//12 17//17 18//18
f 12//12 4//4 3//3
f 12//12 3//3 16//16
f 16//16 17//17 12//12
f 12//12 13//13 8//8
f 8//8 4//4 12//12
f 34//34 28//28 27//27
f 59//59 51//51 50//50
f 7//7 2//2 6//6
f 6//6 2//2 5//5
f 23//23 28//28 34//34
f 18//18 20//20 19//19
f 20//20 14//14 19//19
f 19//19 14//14 10//10
f 19//19 13//13 18//18
f 10//10 8//8 19//19
f 8//8 13//13 19//19
f 21//21 20//20 33//33
f 21//21 14//14 20//20
f 21//21 6//6 5//5
f 21//21 5//5 10//10
f 10//10 14//14 21//21
f 31//31 30//30 26//26
f 26//26 25//25 31//31
f 26//26 30//30 20//20
f 26//26 20//20 18//18
f 18//18 25//25 26//26
f 20//20 51//51 41//41
f 33//33 20//20 41//41
f 41//41 27//27 33//33
f 29//29 35//35 52//52
f 49//49 59//59 50//50
f 50//50 30//30 49//49
f 49//49 30//30 45//45
f 58//58 52//52 35//35
f 58//58 49//49 56//56
f 59//59 49//49 58//58
f 51//51 59//59 42//42
f 42//42 41//41 51//51
f 27//27 41//41 42//42
f 59//59 58//58 42//42
f 34//34 27//27 42//42
f 42//42 35//35 34//34
f 42//42 58//58 35//35
f 1//1 2//2 4//4
f 1//1 9//9 10//10
f 4//4 9//9 1//1
f 10//10 5//5 1//1
f 5//5 2//2 1//1
f 43//43 23//23 34//34
f 34//34 35//35 43//43
f 43//43 35//35 29//29
f 28//28 23//23 15//15
f 15//15 2//2 7//7
f 6//6 21//21 22//22
f 7//7 6//6 22//22
f 22//22 27//27 28//28
f 22//22 15//15 7//7
f 28//28 15//15 22//22
f 33//33 27//27 22//22
f 22//22 21//21 33//33
f 54//54 57//57 53//53
f 54//54 58//58 56//56
f 52//52 58//58 54//54
f 29//29 52//52 44//44
f 44//44 54//54 53//53
f 52//52 54//54 44//44
f 56//56 49//49 47//47
f 47//47 49//49 45//45
f 47//47 45//45 38//38
f 38//38 57//57 47//47
f 47//47 54//54 56//56
f 57//57 54//54 47//47
f 23//23 43//43 11//11
f 11//11 15//15 23//23
f 4//4 2//2 11//11
f 2//2 15//15 11//11
f 16//16 4//4 11//11
f 31//31 32//32 37//37
f 46//46 57//57 38//38
f 53//53 57//57 46//46
f 36//36 31//31 16//16
f 36//36 32//32 31//31
f 29//29 44//44 24//24
f 24//24 43//43 29//29
f 24//24 11//11 43//43
f 16//16 11//11 24//24
f 39//39 45//45 31//31
f 31//31 37//37 39//39
f 38//38 45//45 39//39
f 39//39 37//37 48//48
f 40//40 46//46 38//38
f 38//38 39//39 40//40
f 40//40 39//39 48//48
f 53//53 46//46 40//40
f 40//40 44//44 53//53
f 40//40 24//24 44//44
f 16//16 24//24 40//40
f 32//32 36//36 55//55
f 55//55 37//37 32//32
f 48//48 37//37 55//55
f 55//55 40//40 48//48
f 55//55 36//36 16//16
f 16//16 40//40 55//55