# https://github.com/mikedh/trimesh
v 0.47150114 -0.49877374 -0.04353882
v 0.02366647 -0.44497573 -0.19357516
v 0.04298863 -0.44364895 -0.39789792
v 0.53700829 -0.41114800 -0.59371710
v 0.30371467 -0.41668304 -0.59453823
v 0.84555275 -0.43824348 -0.02783071
v 0.37485560 -0.49412374 0.06315657
v -0.06018386 -0.42379073 0.05573323
v 0.60774236 -0.38160846 -0.59456287
v 0.91584434 -0.32436204 0.22297927
v 0.70799146 -0.49393461 0.09121170
v 0.57081213 -0.44595854 0.18820649
v -0.08327275 -0.37774191 -0.59480318
v 0.89365014 -0.35991340 -0.16082639
v 0.12812200 -0.40041137 0.18083803
v 0.63561443 -0.34507292 -0.59453823
v 0.91672723 -0.27466150 -0.22630462
v 0.69653888 -0.31737188 0.33088911
v -0.08138217 -0.34491323 0.16240145
v -0.08301042 0.37985576 -0.37673645
v -0.08326725 -0.24488560 -0.59432401
v 0.91599908 -0.09967967 -0.30441420
v 0.91616492 0.37139101 -0.13442431
v -0.08313657 0.13944118 0.32496263
v -0.06228018 0.41984941 -0.01343232
v 0.03134640 -0.19401477 -0.59453823
v 0.89748742 0.21980939 -0.29208139
v 0.91587750 -0.14477314 0.32677598
v 0.34826586 -0.26736732 0.35090136
v -0.04696312 -0.21084542 0.29260858
v -0.07157059 0.02387595 0.35203530
v -0.02106786 0.42461605 -0.37600796
v 0.12820147 -0.18821619 -0.59453823
v 0.63854655 -0.31669042 -0.59439429
v 0.88465438 0.10678449 0.36262412
v 0.00714799 0.44475174 0.03041992
v 0.31887881 0.49051359 -0.01343232
v 0.03713931 0.44471858 -0.37677067
v 0.44205097 0.50122623 -0.01343232
v 0.14251458 0.45029663 -0.37669446
v 0.63840276 0.37984899 -0.37677128
v 0.62605990 -0.28624333 -0.59489148
v 0.86735606 0.37413031 0.22204305
v 0.34517155 0.08811362 0.39941140
v -0.08307171 0.31726695 0.23221177
v 0.26919168 0.47368294 0.07831345
v 0.42954141 0.45050407 -0.37667668
v 0.59558775 0.42115511 -0.37661077
v 0.81453954 0.44756472 -0.07379594
v 0.76063334 0.47439547 0.01303137
v 0.09600205 -0.10329510 0.36026678
v 0.40191026 0.26819714 0.35403809
v 0.31584599 -0.19792144 -0.59453823
v 0.48690767 -0.23042794 -0.59453823
v 0.53708604 0.44404374 -0.37668064
v 0.59542324 -0.03329895 0.40510856
v 0.71614014 0.25266579 0.36577759
v 0.57415975 0.49350194 0.05922437
v 0.65186398 0.44245409 0.16739380
v 0.30242821 0.42398562 0.21493650
vn 0.06119039 -0.99653989 -0.05624930
vn -0.95486653 -0.29699786 -0.00471073
vn -0.91069467 -0.41170923 -0.03362631
vn 0.87184201 -0.37859557 -0.31073608
vn -0.29864798 -0.72830065 -0.61675566
vn 0.99019570 -0.13922825 -0.01131199
vn -0.76222620 -0.64086318 0.09113506
vn -0.98504469 -0.17002087 0.02792601
vn 0.96724436 -0.10613123 -0.23059599
vn 0.99524899 -0.08509554 0.04730954
vn 0.90316726 -0.42207478 0.07836952
vn 0.18996329 -0.88499422 0.42508726
vn -0.96777041 -0.15180576 -0.20093641
vn 0.99789687 -0.06296612 -0.01539805
vn -0.93354225 -0.31782162 0.16579590
vn 0.97339646 -0.03375218 -0.22662770
vn 0.99957196 -0.02421040 -0.01642420
vn 0.86664280 -0.35177764 0.35381174
vn -0.99434755 -0.09074600 0.05511914
vn -0.99569726 0.06109924 -0.06966954
vn -0.97781046 0.01824016 -0.20869596
vn 0.99968532 -0.00247887 -0.02496227
vn 0.99761948 0.06625230 -0.01913148
vn -0.99171294 0.05633783 0.11546210
vn -0.99494558 0.10036763 0.00310202
vn -0.76716367 0.18118125 -0.61533183
vn 0.99846019 0.03141714 -0.04571889
vn 0.99436709 -0.03228896 0.10095306
vn -0.82963250 -0.32423984 0.45450902
vn -0.99076537 -0.08541295 0.10530251
vn -0.98926768 -0.00100323 0.14611109
vn -0.98227992 0.14918006 -0.11345248
vn -0.02628315 0.26568680 -0.96370105
vn 0.97785271 0.00154097 -0.20928854
vn 0.98986043 0.02403050 0.13999593
vn -0.96747053 0.25061481 0.03453985
vn -0.84602280 0.53300835 0.01214582
vn -0.89750151 0.38315136 -0.21837141
vn -0.01559555 0.99983071 -0.00976344
vn -0.32932374 0.81590278 -0.47523523
vn 0.99304344 0.06719240 -0.09669491
vn 0.95588767 0.04246601 -0.29064654
vn 0.97948770 0.17586357 0.09836591
vn -0.73848311 0.11606855 0.66420688
vn -0.98949472 0.11648756 0.08562041
vn -0.82784649 0.54984538 0.11108667
vn 0.34064505 0.80813227 -0.48050306
vn 0.98076966 0.13376036 -0.14212335
vn 0.98261553 0.18473832 -0.01839763
vn 0.96288890 0.26982939 0.00608761
vn -0.94703049 -0.09171780 0.30776794
vn -0.78427307 0.39010466 0.48242523
vn 0.43096856 0.23237359 -0.87193384
vn 0.74849951 0.16095602 -0.64330525
vn 0.89586038 0.37393536 -0.24001359
vn 0.70024896 -0.09852153 0.70706782
vn 0.90300205 0.24681373 0.35166785
vn 0.61040251 0.78193744 0.12642238
vn 0.82092067 0.53710891 0.19391561
vn -0.72469755 0.61572529 0.30934740
f 19//19 24//24 13//13
f 13//13 24//24 21//21
f 24//24 45//45 21//21
f 8//8 19//19 13//13
f 17//17 16//16 22//22
f 58//58 50//50 39//39
f 23//23 22//22 27//27
f 17//17 22//22 23//23
f 56//56 57//57 44//44
f 44//44 51//51 56//56
f 43//43 57//57 35//35
f 35//35 23//23 43//43
f 35//35 57//57 56//56
f 20//20 45//45 25//25
f 20//20 21//21 45//45
f 13//13 5//5 3//3
f 3//3 8//8 13//13
f 7//7 3//3 1//1
f 1//1 3//3 5//5
f 9//9 42//42 16//16
f 9//9 5//5 13//13
f 13//13 42//42 9//9
f 10//10 18//18 11//11
f 11//11 6//6 10//10
f 7//7 1//1 11//11
f 7//7 11//11 12//12
f 12//12 11//11 18//18
f 56//56 51//51 29//29
f 29//29 18//18 56//56
f 51//51 30//30 29//29
f 29//29 12//12 18//18
f 41//41 42//42 48//48
f 27//27 42//42 41//41
f 48//48 23//23 41//41
f 41//41 23//23 27//27
f 16//16 42//42 34//34
f 34//34 42//42 27//27
f 34//34 22//22 16//16
f 27//27 22//22 34//34
f 46//46 58//58 39//39
f 49//49 23//23 48//48
f 49//49 50//50 43//43
f 43//43 23//23 49//49
f 24//24 44//44 52//52
f 52//52 44//44 57//57
f 52//52 45//45 24//24
f 23//23 35//35 28//28
f 28//28 10//10 17//17
f 17//17 23//23 28//28
f 28//28 18//18 10//10
f 56//56 18//18 28//28
f 28//28 35//35 56//56
f 40//40 38//38 39//39
f 39//39 47//47 40//40
f 39//39 50//50 55//55
f 55//55 47//47 39//39
f 50//50 49//49 55//55
f 55//55 49//49 48//48
f 48//48 42//42 55//55
f 47//47 55//55 53//53
f 21//21 20//20 32//32
f 25//25 38//38 32//32
f 32//32 20//20 25//25
f 7//7 8//8 2//2
f 2//2 3//3 7//7
f 8//8 3//3 2//2
f 6//6 9//9 14//14
f 17//17 10//10 14//14
f 10//10 6//6 14//14
f 14//14 16//16 17//17
f 14//14 9//9 16//16
f 31//31 30//30 51//51
f 31//31 44//44 24//24
f 51//51 44//44 31//31
f 24//24 19//19 31//31
f 19//19 30//30 31//31
f 4//4 11//11 1//1
f 4//4 1//1 5//5
f 5//5 9//9 4//4
f 4//4 9//9 6//6
f 6//6 11//11 4//4
f 15//15 30//30 19//19
f 15//15 29//29 30//30
f 12//12 29//29 15//15
f 19//19 8//8 15//15
f 15//15 8//8 7//7
f 7//7 12//12 15//15
f 39//39 38//38 37//37
f 37//37 46//46 39//39
f 25//25 45//45 36//36
f 46//46 37//37 36//36
f 36//36 38//38 25//25
f 36//36 37//37 38//38
f 45//45 52//52 60//60
f 60//60 36//36 45//45
f 46//46 36//36 60//60
f 58//58 46//46 60//60
f 60//60 52//52 57//57
f 13//13 21//21 26//26
f 26//26 42//42 13//13
f 21//21 32//32 26//26
f 26//26 32//32 38//38
f 54//54 55//55 42//42
f 42//42 53//53 54//54
f 54//54 53//53 55//55
f 59//59 57//57 43//43
f 59//59 60//60 57//57
f 58//58 60//60 59//59
f 43//43 50//50 59//59
f 50//50 58//58 59//59
f 33//33 53//53 42//42
f 42//42 26//26 33//33
f 47//47 53//53 33//33
f 33//33 40//40 47//47
f 38//38 40//40 33//33
f 33//33 26//26 38//38