# https://github.com/mikedh/trimesh
v 0.13522288 -1.52295500 -0.86958475
v -0.02669580 -1.72429486 -0.69398051
v -0.02669165 -1.82355904 -0.68372452
v -0.02669668 -1.85653211 -0.71668930
v -0.02669668 -1.86700535 -0.75917115
v 0.13522288 -1.52295500 -1.01073401
v -0.85352181 -1.73209626 -0.69573959
v -0.02673368 -1.75788603 -0.68342045
v 0.14647712 -1.16675637 -1.06103897
v -0.85352203 -1.76295833 -0.68654091
v -0.85352203 -1.82119722 -0.68654091
v -0.85352203 -1.85388936 -0.71668930
v -0.85352161 -1.86696266 -0.76084040
v 0.13522288 -1.30879229 -1.13984348
v -0.02669668 -1.85222530 -0.93487361
v -0.02669668 -1.28520306 -1.67086628
v 0.12060851 -1.13348801 -1.37564698
v 0.13522288 -1.08719053 -1.11644911
v -0.85352204 -1.08728838 -1.17449458
v 0.13522288 -1.05978397 -1.13984348
v -0.07247547 -1.86338377 -0.93653762
v -0.02843881 -1.85183393 -0.93653762
v -0.30920905 -1.48771802 -1.66293763
v -0.04887141 -1.32305265 -1.67294255
v 0.12060851 -0.91080965 -1.37564698
v 0.13522288 -1.07622788 -1.12545453
v 0.12060851 -0.98823319 -1.24394355
v 0.12060851 -0.93293072 -1.32719421
v -0.02499096 -0.86776698 -1.46070121
v -0.85352199 -0.95612567 -1.42127812
v -0.85350878 -1.86691272 -0.91087813
v -0.82313412 -1.86542848 -0.93220648
v -0.02676947 -1.86705699 -0.89269193
v -0.31487091 -1.86563502 -0.98038983
v -0.24881587 -1.86367736 -0.98038983
v -0.20477917 -1.85878336 -0.98038983
v -0.16958145 -1.41519960 -1.66966387
v -0.32791256 -1.40723560 -1.68261235
v -0.02751935 -1.21012854 -1.68182929
v -0.02669668 -1.14817016 -1.67096421
v -0.02669668 -0.89632333 -1.58365134
v -0.02669668 -0.86705702 -1.55164312
v -0.85352203 -1.85486819 -0.93653762
v -0.64533974 -1.86367736 -0.98038983
v -0.57928469 -1.86558607 -0.98038983
v -0.44736886 -1.49687801 -1.67156806
v -0.35914236 -1.49315439 -1.66829692
v -0.69101422 -1.37113567 -1.68342049
v -0.85352288 -1.23508955 -1.68157526
v -0.85352203 -1.18786069 -1.67561373
v -0.85352203 -1.15570691 -1.66861496
v -0.85352204 -0.98584636 -1.58012298
v -0.85352203 -0.96131604 -1.55164312
v -0.85352203 -0.95563896 -1.50999333
v -0.85350965 -1.32479939 -1.66220340
v -0.58455941 -1.48762010 -1.66283986
v -0.68947323 -1.85868545 -0.98038983
v -0.55726634 -1.49153528 -1.66577622
v -0.51165851 -1.49443953 -1.67104865
v -0.72422593 -1.41379982 -1.67205972
vn 0.87226045 0.07965308 0.48251125
vn 0.16744579 0.79172623 0.58747892
vn 0.34488348 -0.69219506 0.63397270
vn 0.27202545 -0.94485774 0.18233490
vn 0.25377293 -0.96644008 0.03991070
vn 0.75342977 -0.64826148 -0.11000292
vn -0.54381843 0.70006291 0.46278877
vn 0.34860038 0.34389343 0.87190314
vn 0.58117201 0.74338255 0.33109135
vn -0.63595390 0.31627939 0.70393891
vn -0.53162823 -0.60283308 0.59494849
vn -0.46381634 -0.86783734 0.17813691
vn -0.47047489 -0.88150987 0.03992155
vn 0.98335269 -0.15724999 -0.09104904
vn 0.27549097 -0.95087415 -0.14121995
vn 0.59366268 -0.58875446 -0.54857344
vn 0.91604819 -0.30192604 -0.26400071
vn 0.13085287 0.92200334 0.36440002
vn -0.49151201 0.83822658 0.23620361
vn 0.40967156 0.88646020 0.21530796
vn 0.04458799 -0.99299283 -0.10944017
vn 0.09819137 -0.97888542 -0.17928131
vn 0.09450020 -0.92286116 -0.37335907
vn 0.29431496 -0.77632546 -0.55740244
vn 0.51076141 0.85745051 -0.06246125
vn 0.18207880 0.92466929 0.33441593
vn 0.01555778 0.97881361 0.20416138
vn 0.28052259 0.94670474 0.15829467
vn 0.01492957 0.99752651 0.06868748
vn -0.47847471 0.87497959 0.07397755
vn -0.47705676 -0.87787929 -0.04177094
vn -0.04213648 -0.99333405 -0.10729392
vn 0.25066616 -0.96748584 -0.03372887
vn 0.00296827 -0.99635421 -0.08526127
vn 0.01712145 -0.99436117 -0.10465520
vn 0.03849845 -0.98711363 -0.15532080
vn 0.15441880 -0.83479661 -0.52845951
vn 0.03080189 -0.29037574 -0.95641684
vn 0.50507753 0.08357523 -0.85901797
vn 0.41675409 0.55377765 -0.72086500
vn 0.25739354 0.85140192 -0.45701568
vn 0.12568029 0.97934030 -0.15842046
vn -0.54580285 -0.82578850 -0.14203030
vn -0.01722409 -0.99385134 -0.10937483
vn -0.00282647 -0.99631953 -0.08567038
vn 0.00068940 -0.85614173 -0.51674061
vn 0.04269660 -0.87890172 -0.47508816
vn -0.04700731 -0.29083234 -0.95561858
vn -0.67501970 -0.01744902 -0.73759334
vn -0.66123767 0.36171125 -0.65721359
vn -0.58667217 0.59911116 -0.54486841
vn -0.51900611 0.79019610 -0.32591838
vn -0.47921417 0.86794727 -0.13046573
vn -0.50179092 0.86482297 -0.01694393
vn -0.61529089 -0.66480598 -0.42361554
vn -0.09926176 -0.93205880 -0.34844440
vn -0.03899503 -0.98678809 -0.15725345
vn -0.06793627 -0.92377260 -0.37686714
vn -0.02584235 -0.85709636 -0.51450753
vn -0.16726064 -0.84272184 -0.51170672
f 49//49 43//43 12//12
f 9//9 7//7 2//2
f 7//7 8//8 2//2
f 2//2 1//1 9//9
f 8//8 1//1 2//2
f 18//18 7//7 9//9
f 18//18 19//19 7//7
f 13//13 12//12 43//43
f 12//12 13//13 4//4
f 49//49 12//12 11//11
f 55//55 43//43 49//49
f 49//49 60//60 55//55
f 55//55 60//60 43//43
f 43//43 60//60 56//56
f 48//48 60//60 49//49
f 9//9 1//1 6//6
f 41//41 40//40 51//51
f 49//49 51//51 50//50
f 51//51 40//40 50//50
f 19//19 28//28 29//29
f 1//1 4//4 5//5
f 33//33 6//6 5//5
f 5//5 6//6 1//1
f 5//5 13//13 33//33
f 5//5 4//4 13//13
f 10//10 8//8 7//7
f 10//10 11//11 8//8
f 7//7 19//19 10//10
f 10//10 19//19 49//49
f 49//49 11//11 10//10
f 8//8 11//11 3//3
f 3//3 1//1 8//8
f 3//3 4//4 1//1
f 12//12 4//4 3//3
f 3//3 11//11 12//12
f 37//37 23//23 47//47
f 60//60 48//48 59//59
f 59//59 48//48 46//46
f 46//46 44//44 59//59
f 46//46 48//48 38//38
f 37//37 47//47 38//38
f 38//38 47//47 46//46
f 17//17 6//6 16//16
f 14//14 17//17 9//9
f 9//9 6//6 14//14
f 14//14 6//6 17//17
f 52//52 41//41 51//51
f 52//52 51//51 49//49
f 49//49 53//53 52//52
f 52//52 53//53 42//42
f 42//42 41//41 52//52
f 42//42 29//29 25//25
f 25//25 29//29 28//28
f 25//25 41//41 42//42
f 40//40 41//41 25//25
f 9//9 17//17 25//25
f 25//25 20//20 9//9
f 28//28 20//20 25//25
f 19//19 29//29 30//30
f 49//49 19//19 30//30
f 30//30 29//29 42//42
f 27//27 28//28 19//19
f 19//19 20//20 27//27
f 27//27 20//20 28//28
f 19//19 18//18 26//26
f 26//26 20//20 19//19
f 26//26 18//18 9//9
f 9//9 20//20 26//26
f 21//21 47//47 23//23
f 46//46 34//34 45//45
f 45//45 44//44 46//46
f 57//57 59//59 44//44
f 58//58 56//56 60//60
f 60//60 59//59 58//58
f 59//59 57//57 58//58
f 17//17 16//16 39//39
f 39//39 25//25 17//17
f 40//40 25//25 39//39
f 49//49 50//50 39//39
f 39//39 50//50 40//40
f 39//39 48//48 49//49
f 39//39 38//38 48//48
f 24//24 16//16 6//6
f 24//24 39//39 16//16
f 37//37 38//38 24//24
f 38//38 39//39 24//24
f 54//54 53//53 49//49
f 49//49 30//30 54//54
f 42//42 53//53 54//54
f 54//54 30//30 42//42
f 35//35 34//34 46//46
f 46//46 47//47 35//35
f 33//33 34//34 35//35
f 35//35 21//21 33//33
f 15//15 23//23 37//37
f 33//33 21//21 15//15
f 37//37 24//24 15//15
f 15//15 6//6 33//33
f 15//15 24//24 6//6
f 31//31 13//13 43//43
f 33//33 13//13 31//31
f 31//31 34//34 33//33
f 31//31 45//45 34//34
f 47//47 21//21 36//36
f 36//36 35//35 47//47
f 21//21 35//35 36//36
f 22//22 21//21 23//23
f 23//23 15//15 22//22
f 22//22 15//15 21//21
f 44//44 45//45 32//32
f 45//45 31//31 32//32
f 32//32 57//57 44//44
f 32//32 31//31 43//43
f 32//32 58//58 57//57
f 43//43 56//56 32//32
f 56//56 58//58 32//32