# https://github.com/mikedh/trimesh
v -0.18846542 0.10863344 0.18775491
v -0.34154896 0.11223203 0.00188052
v -0.23039276 0.10797134 -0.16581368
v 0.44649543 0.04935278 -0.04714452
v 0.36963667 0.10590742 0.03524520
v 0.49731412 -0.08755983 -0.18835335
v -0.43486076 -0.20029425 -0.76001241
v -0.37574172 -0.10936306 -0.75923975
v -0.29424010 -0.03063538 -0.76032827
v -0.46990374 -0.30905547 -0.75932837
v 0.30377503 -0.03850983 -0.76033273
v 0.04594626 0.06222501 -0.76044308
v 0.12890392 0.04734427 -0.76022233
v 0.19853405 0.02253229 -0.76026981
v -0.08132738 0.05697696 -0.76032548
v -0.11987623 0.09716186 -0.35939027
v -0.28844026 0.06321027 0.17866093
v -0.01575031 0.06175442 0.23955689
v 0.09403398 0.05995359 0.23461915
v 0.31438719 0.10841864 0.15890466
v 0.38321087 0.06083409 0.10255731
v -0.48115365 -0.09525180 -0.10672497
v -0.45867083 0.05306453 0.06430841
v -0.45071105 0.05729395 -0.03788047
v -0.49188063 -0.38611194 -0.39034203
v -0.17846655 0.03234327 -0.76028253
v 0.50811939 -0.43343475 -0.21846663
v 0.38657385 -0.12255541 -0.76029990
v 0.43863463 -0.56701572 -0.76032075
v 0.37454480 -0.67262359 -0.76031942
v 0.29781215 -0.74486179 -0.76032484
v 0.17502416 -0.81176123 -0.76032568
v -0.08759700 -0.83622996 -0.76032569
v -0.33075301 -0.71700548 -0.76032585
v -0.45338136 -0.53070214 -0.76032595
v -0.40066340 -0.63735872 -0.76032337
v -0.22316045 -0.79276034 -0.76032563
v 0.49429213 -0.69759197 -0.17996170
v 0.36031005 -0.88096681 0.01079680
v -0.26115514 -0.88749135 0.17907251
v 0.41062059 -0.85303985 -0.04477142
v -0.43375469 -0.82922415 -0.01532559
v 0.25792789 0.06211143 0.18976384
v -0.16879266 -0.84483619 0.22090773
v 0.41223281 -0.84151852 0.04770581
v 0.45473119 -0.79464846 -0.12356018
v 0.33627585 -0.84231317 0.14409341
v 0.17321618 -0.84264835 0.21908054
v 0.29400312 -0.88776796 0.11510036
v -0.46778053 -0.83220207 0.09789145
v -0.47830703 -0.40672693 -0.76034095
v -0.47739690 -0.71491561 -0.09827705
v -0.33539762 -0.88750451 -0.03056953
v 0.16754078 -0.88139248 -0.12542364
v -0.19121494 -0.88517787 -0.21562419
v 0.47394503 -0.44973633 -0.76032885
v 0.06552618 -0.84026090 -0.76033578
vn -0.25809218 0.91121129 0.32106450
vn -0.25802811 0.96611619 0.00640329
vn -0.06917255 0.99722914 -0.02737158
vn 0.86803659 0.49541596 0.03279501
vn 0.45773656 0.88848259 0.03280136
vn 0.97450072 0.22425571 0.00759726
vn -0.80024303 0.33112996 -0.49996405
vn -0.70771511 0.52076133 -0.47743791
vn -0.53462187 0.66267632 -0.52444213
vn -0.88433451 0.15166488 -0.44153170
vn 0.55223183 0.64923128 -0.52300932
vn 0.06120643 0.85704850 -0.51158737
vn 0.23680290 0.82547458 -0.51236325
vn 0.38283403 0.75948237 -0.52595117
vn -0.12909295 0.84745616 -0.51493016
vn -0.02961423 0.99909405 -0.03056251
vn -0.70350387 0.50743693 0.49758423
vn -0.11456234 0.67929737 0.72486588
vn 0.28096660 0.66138556 0.69543290
vn 0.60214921 0.73622322 0.30885547
vn 0.93173178 0.30128632 0.20273739
vn -0.99463997 0.10339552 -0.00083024
vn -0.84457538 0.50650287 0.17362966
vn -0.78899860 0.61325027 -0.03748751
vn -0.99997281 0.00166916 -0.00718347
vn -0.33111898 0.78761463 -0.51963777
vn 0.99922396 -0.00664684 0.03882397
vn 0.77486824 0.39721139 -0.49173400
vn 0.80192889 -0.31461211 -0.50786738
vn 0.69201043 -0.50266672 -0.51811943
vn 0.53026606 -0.66591165 -0.52476622
vn 0.33302241 -0.78597123 -0.52090815
vn -0.14626671 -0.84862024 -0.50837952
vn -0.60054828 -0.60539342 -0.52234142
vn -0.83410519 -0.24468937 -0.49436387
vn -0.73832379 -0.43975050 -0.51136825
vn -0.40836128 -0.75306757 -0.51587818
vn 0.97842058 -0.20604536 0.01544269
vn 0.34050429 -0.94017283 0.01148420
vn -0.43297599 -0.82750429 0.35744713
vn 0.65129466 -0.75856092 -0.02001497
vn -0.60708236 -0.79180291 -0.06707579
vn 0.71906452 0.25174928 0.64774109
vn -0.33009716 -0.60147167 0.72750787
vn 0.87652152 -0.46013567 0.14136899
vn 0.85517858 -0.51800451 -0.01846441
vn 0.80841598 -0.46695794 0.35834882
vn 0.38291504 -0.68646776 0.61817319
vn 0.29677210 -0.94676883 0.12472011
vn -0.84077562 -0.49696928 0.21475077
vn -0.87794995 -0.03721694 -0.47730366
vn -0.99276767 -0.11957278 -0.01070961
vn -0.30176026 -0.95298408 -0.02760587
vn 0.03978774 -0.99899558 -0.02060983
vn -0.05510835 -0.99809680 -0.02767402
vn 0.88131849 -0.01915146 -0.47213446
vn 0.09952882 -0.85700801 -0.50559992
f 16//16 5//5 12//12
f 12//12 15//15 16//16
f 40//40 50//50 53//53
f 31//31 57//57 12//12
f 12//12 56//56 31//31
f 38//38 56//56 27//27
f 34//34 51//51 12//12
f 9//9 15//15 12//12
f 12//12 51//51 9//9
f 25//25 51//51 52//52
f 3//3 15//15 2//2
f 3//3 16//16 15//15
f 2//2 5//5 3//3
f 5//5 16//16 3//3
f 25//25 52//52 22//22
f 22//22 52//52 50//50
f 22//22 24//24 10//10
f 22//22 51//51 25//25
f 10//10 51//51 22//22
f 57//57 31//31 32//32
f 29//29 31//31 56//56
f 56//56 38//38 29//29
f 29//29 38//38 46//46
f 11//11 56//56 12//12
f 11//11 28//28 56//56
f 12//12 14//14 11//11
f 6//6 38//38 27//27
f 27//27 56//56 6//6
f 56//56 28//28 6//6
f 57//57 54//54 55//55
f 57//57 55//55 33//33
f 33//33 55//55 53//53
f 50//50 52//52 35//35
f 35//35 52//52 51//51
f 42//42 53//53 50//50
f 50//50 34//34 42//42
f 7//7 51//51 10//10
f 7//7 9//9 51//51
f 10//10 24//24 7//7
f 2//2 15//15 26//26
f 15//15 9//9 26//26
f 26//26 24//24 2//2
f 26//26 9//9 24//24
f 20//20 1//1 18//18
f 20//20 5//5 2//2
f 2//2 1//1 20//20
f 23//23 22//22 50//50
f 24//24 22//22 23//23
f 2//2 24//24 23//23
f 23//23 1//1 2//2
f 40//40 48//48 44//44
f 44//44 48//48 18//18
f 44//44 50//50 40//40
f 46//46 31//31 30//30
f 30//30 29//29 46//46
f 31//31 29//29 30//30
f 12//12 5//5 13//13
f 13//13 14//14 12//12
f 5//5 14//14 13//13
f 4//4 14//14 5//5
f 4//4 11//11 14//14
f 28//28 11//11 4//4
f 4//4 6//6 28//28
f 38//38 6//6 4//4
f 37//37 33//33 53//53
f 53//53 42//42 37//37
f 37//37 42//42 34//34
f 57//57 33//33 37//37
f 12//12 57//57 37//37
f 37//37 34//34 12//12
f 51//51 34//34 36//36
f 36//36 35//35 51//51
f 36//36 34//34 50//50
f 50//50 35//35 36//36
f 24//24 9//9 8//8
f 8//8 7//7 24//24
f 9//9 7//7 8//8
f 18//18 48//48 19//19
f 19//19 20//20 18//18
f 17//17 23//23 50//50
f 1//1 23//23 17//17
f 50//50 44//44 17//17
f 18//18 1//1 17//17
f 17//17 44//44 18//18
f 43//43 19//19 48//48
f 20//20 19//19 43//43
f 48//48 47//47 43//43
f 43//43 47//47 20//20
f 41//41 31//31 46//46
f 41//41 32//32 31//31
f 20//20 47//47 21//21
f 5//5 20//20 21//21
f 21//21 4//4 5//5
f 49//49 48//48 40//40
f 49//49 47//47 48//48
f 49//49 55//55 54//54
f 40//40 53//53 49//49
f 53//53 55//55 49//49
f 45//45 41//41 46//46
f 46//46 38//38 45//45
f 47//47 49//49 45//45
f 45//45 21//21 47//47
f 38//38 4//4 45//45
f 4//4 21//21 45//45
f 39//39 54//54 57//57
f 39//39 49//49 54//54
f 57//57 32//32 39//39
f 32//32 41//41 39//39
f 41//41 45//45 39//39
f 39//39 45//45 49//49