# https://github.com/mikedh/trimesh
v 0.49848999 1.46942145 -0.30607665
v 0.49242146 1.46942145 -0.45791220
v 0.45669587 1.95779814 -0.87103013
v 0.43511354 2.26627906 -0.92966730
v 0.42459172 2.27418080 -0.81062877
v -0.02467290 2.37109077 -0.20064215
v 0.46912642 1.46942145 -0.87103013
v 0.46550490 1.46942145 -0.90862191
v 0.33884641 2.07174147 -0.30614190
v 0.41666354 1.82887608 -0.30607665
v 0.46211588 1.64125631 -0.30607665
v -0.02559735 2.46929225 -0.23253798
v -0.23833907 2.06239439 -0.19261607
v -0.04010709 2.15636974 -0.19819675
v 0.45522767 1.46942145 -0.96452009
v 0.35593505 2.39563697 -0.83584660
v 0.23253289 2.28746495 -0.30706442
v 0.13242454 2.40271141 -0.30607665
v 0.07947229 2.43942043 -0.30607665
v 0.29118340 2.41015106 -0.94611578
v -0.34414567 2.39859994 -0.83353625
v -0.07948233 2.44637064 -0.23255733
v -0.03784531 2.40808254 -1.12062824
v -0.17313849 2.40664680 -1.08929284
v -0.30473369 2.40710125 -0.98524781
v -0.33974858 2.40065592 -0.94128261
v -0.21342872 2.30414127 -0.20466414
v -0.41260465 1.46929228 -0.19714081
v -0.34414567 2.39027937 -0.79594448
v -0.13243458 2.41044470 -0.23255733
v 0.19453769 2.40684563 -1.07808264
v 0.42492599 2.29390802 -0.94757097
v -0.42460176 2.27408298 -0.81062877
v -0.41125068 2.32410421 -0.85124958
v -0.18538683 2.35582180 -0.23255733
v -0.42852690 2.22845469 -0.95440839
v -0.25527203 2.25616911 -0.23255733
v -0.31096489 2.13723181 -0.23255733
v -0.36430320 1.98382527 -0.20317841
v -0.44254350 1.75278764 -0.24462574
v 0.39699001 1.46942145 -1.09638498
v 0.33360760 2.28338258 -1.05965098
v 0.41978373 1.46938435 -1.07758243
v -0.44220121 2.17405207 -0.87022401
v 0.05276317 2.24299732 -1.17331977
v -0.50151002 1.46942128 -0.22972725
v 0.27611010 1.46942145 -1.15600320
v -0.45444378 1.98197171 -0.89615411
v 0.19718039 2.27211135 -1.14424480
v 0.16384352 1.46942145 -1.18263070
v 0.02632428 1.46942145 -1.19261603
v -0.05325317 2.15218030 -1.17663552
v -0.36718818 2.27076184 -1.02903758
v -0.46407644 1.46942143 -0.95657534
v -0.12944041 1.46942133 -1.19063216
v -0.16535578 2.25436286 -1.15411292
v -0.27936366 2.17320333 -1.11231109
v -0.39719580 1.46942145 -1.09579763
v -0.42058879 1.46942145 -1.05889111
v -0.23784969 1.46942145 -1.15962533
vn 0.45293348 -0.86816894 0.20281510
vn 0.28344606 -0.95897031 -0.00585426
vn 0.82126104 0.56949819 -0.03467149
vn 0.37076504 0.92827538 -0.02894989
vn 0.21443443 0.97661830 0.01531589
vn 0.07356941 0.96048216 0.26844284
vn 0.27150609 -0.96238038 -0.01041399
vn 0.27708474 -0.96061535 -0.02102837
vn 0.16724154 0.98044490 0.10372110
vn 0.23019287 0.96291964 0.14070188
vn 0.27380538 0.94766998 0.16417132
vn 0.02041548 0.99837389 0.05322393
vn -0.06087307 0.55582229 0.82906939
vn 0.16848146 -0.54908408 0.81860898
vn 0.28270415 -0.95850330 -0.03673940
vn 0.06081690 0.99814215 0.00368163
vn 0.10595679 0.99244805 0.06180638
vn 0.06238013 0.99765942 0.02800709
vn 0.03507686 0.99933250 0.01020628
vn 0.03069602 0.99948154 -0.00971600
vn -0.04544222 0.99896391 0.00247147
vn -0.03149074 0.99840847 0.04678520
vn -0.00559084 0.99850676 -0.05434144
vn -0.04071360 0.99826268 -0.04259142
vn -0.04628145 0.99870613 -0.02107358
vn -0.06397427 0.99787057 -0.01271273
vn -0.08308668 0.98546104 0.14819965
vn -0.09043718 -0.97072645 0.22251131
vn -0.06491257 0.99784043 0.01004185
vn -0.04980444 0.99827227 0.03117676
vn 0.03327623 0.99884636 -0.03462141
vn 0.22674082 0.97227295 -0.05721816
vn -0.23464548 0.97196244 0.01518267
vn -0.15265796 0.98827836 -0.00119292
vn -0.07420298 0.99708380 0.01782730
vn -0.31465137 0.94719354 -0.06179735
vn -0.11782432 0.99264689 0.02774125
vn -0.14243443 0.98933022 0.03062930
vn -0.19674968 0.95993677 0.19952687
vn -0.25043216 0.96720397 0.04242900
vn 0.25628185 -0.94750448 -0.19119327
vn 0.18855388 0.97579613 -0.11076708
vn 0.32955646 -0.93447825 -0.13469577
vn -0.45889497 0.88845261 -0.00820768
vn 0.03713095 0.96853510 -0.24609157
vn -0.47925170 -0.86037754 0.17340212
vn 0.16113606 -0.96349785 -0.21379209
vn -0.78341859 0.61996129 -0.04362695
vn 0.12508638 0.97329773 -0.19247056
vn 0.07289267 -0.97342077 -0.21711439
vn 0.01239818 -0.97834571 -0.20660579
vn -0.05948964 0.90033580 -0.43111068
vn -0.21252352 0.97185402 -0.10165395
vn -0.29942548 -0.95326745 -0.04031815
vn -0.06883391 -0.97227759 -0.22346851
vn -0.12048664 0.96938093 -0.21397099
vn -0.23454320 0.94742610 -0.21765404
vn -0.28920131 -0.94011401 -0.18041136
vn -0.29731660 -0.95099665 -0.08490117
vn -0.13819131 -0.97049351 -0.19759938
f 1//1 14//14 28//28
f 28//28 43//43 1//1
f 4//4 43//43 32//32
f 6//6 17//17 12//12
f 9//9 17//17 6//6
f 6//6 14//14 1//1
f 1//1 11//11 6//6
f 43//43 47//47 41//41
f 54//54 28//28 46//46
f 54//54 59//59 28//28
f 46//46 48//48 54//54
f 36//36 59//59 54//54
f 54//54 48//48 36//36
f 43//43 28//28 55//55
f 51//51 43//43 55//55
f 50//50 43//43 51//51
f 50//50 47//47 43//43
f 49//49 41//41 47//47
f 47//47 50//50 49//49
f 3//3 4//4 1//1
f 15//15 8//8 43//43
f 43//43 4//4 15//15
f 15//15 3//3 8//8
f 4//4 3//3 15//15
f 9//9 6//6 10//10
f 10//10 6//6 11//11
f 26//26 21//21 12//12
f 37//37 38//38 39//39
f 46//46 28//28 39//39
f 39//39 40//40 46//46
f 33//33 38//38 37//37
f 33//33 39//39 38//38
f 40//40 39//39 33//33
f 46//46 40//40 33//33
f 32//32 20//20 16//16
f 16//16 20//20 12//12
f 12//12 20//20 31//31
f 31//31 20//20 32//32
f 43//43 41//41 42//42
f 41//41 49//49 42//42
f 32//32 43//43 42//42
f 42//42 31//31 32//32
f 49//49 31//31 42//42
f 45//45 50//50 51//51
f 45//45 49//49 50//50
f 58//58 59//59 36//36
f 28//28 59//59 58//58
f 36//36 26//26 53//53
f 53//53 58//58 36//36
f 57//57 58//58 53//53
f 2//2 3//3 1//1
f 1//1 43//43 2//2
f 12//12 21//21 22//22
f 21//21 30//30 22//22
f 13//13 39//39 28//28
f 13//13 28//28 14//14
f 14//14 6//6 13//13
f 44//44 48//48 46//46
f 46//46 33//33 44//44
f 36//36 48//48 44//44
f 44//44 33//33 36//36
f 5//5 4//4 32//32
f 32//32 16//16 5//5
f 9//9 10//10 5//5
f 5//5 17//17 9//9
f 5//5 16//16 17//17
f 5//5 10//10 11//11
f 1//1 4//4 5//5
f 5//5 11//11 1//1
f 12//12 17//17 18//18
f 17//17 16//16 18//18
f 51//51 55//55 52//52
f 52//52 45//45 51//51
f 23//23 31//31 49//49
f 49//49 45//45 23//23
f 23//23 24//24 12//12
f 12//12 31//31 23//23
f 60//60 58//58 57//57
f 60//60 55//55 28//28
f 28//28 58//58 60//60
f 24//24 53//53 25//25
f 25//25 53//53 26//26
f 12//12 24//24 25//25
f 25//25 26//26 12//12
f 8//8 3//3 7//7
f 3//3 2//2 7//7
f 43//43 8//8 7//7
f 7//7 2//2 43//43
f 29//29 30//30 21//21
f 29//29 35//35 30//30
f 37//37 39//39 27//27
f 27//27 13//13 6//6
f 39//39 13//13 27//27
f 30//30 35//35 27//27
f 27//27 22//22 30//30
f 27//27 6//6 12//12
f 12//12 22//22 27//27
f 19//19 16//16 12//12
f 12//12 18//18 19//19
f 19//19 18//18 16//16
f 45//45 52//52 56//56
f 56//56 23//23 45//45
f 24//24 23//23 56//56
f 56//56 53//53 24//24
f 57//57 53//53 56//56
f 56//56 52//52 55//55
f 55//55 60//60 56//56
f 56//56 60//60 57//57
f 34//34 29//29 21//21
f 21//21 26//26 34//34
f 34//34 33//33 37//37
f 34//34 26//26 36//36
f 36//36 33//33 34//34
f 37//37 27//27 34//34
f 35//35 29//29 34//34
f 34//34 27//27 35//35