# https://github.com/mikedh/trimesh
v -0.01491120 1.04132383 10.19305180
v 0.98508770 0.50120928 10.19305180
v -0.01491120 1.50057296 10.19305180
v 0.98508770 0.72060323 11.08536701
v 0.82289138 0.77621045 11.03318899
v -0.01491120 1.26933303 11.18247926
v 0.89219430 0.75790316 11.07234717
v -0.01491168 1.19581071 11.08106144
v 0.04695246 1.50120930 10.46970389
v 0.98508770 0.73656098 11.10817663
v 0.91538096 1.23441942 10.19305180
v 0.14092260 1.26933303 11.19177948
v 0.89219430 0.83171983 11.17376679
v -0.01491120 1.49658344 10.67812287
v 0.09393753 1.49318151 10.75918014
v 0.19133367 1.48862911 10.73255247
v 0.98508770 1.18611796 10.59980668
v 0.98508620 1.18763398 10.19305180
v 0.91174702 1.23751549 10.53475528
v 0.87388976 1.24319370 10.80313502
v 0.23489275 1.26933303 11.19295405
v 0.11743007 1.35685568 11.14547488
v 0.09393753 1.42083336 11.04850980
v -0.01491120 1.36806527 11.13666434
v 0.98508433 0.92203309 11.19300612
v 0.89219430 0.91924247 11.19305178
v 0.98508828 0.83223337 11.19214170
v 0.11559471 1.46415409 10.87822074
v 0.32876503 1.46963647 10.59980668
v 0.39721151 1.42775976 10.84195058
v 0.56868253 1.40247707 10.74077585
v 0.98508770 1.15322357 10.84885222
v 0.80007182 1.30197043 10.43717819
v 0.75985302 1.31740189 10.75242521
v -0.01491120 1.43691345 11.00044300
v 0.98508770 1.00666719 11.15027170
v 0.28182889 1.40947693 11.01527402
v 0.42273517 1.44804954 10.46970389
v 0.32876503 1.46973431 10.33960111
v 0.14550390 1.49351575 10.19305303
v 0.42843699 1.39369055 10.96360999
v 0.63235709 1.33443657 10.92442738
v 0.72779551 1.30756302 10.85504406
v 0.80517406 1.22904715 10.99819159
v 0.61047968 1.18181039 11.18835304
v 0.37575010 1.26933303 11.18590571
v 0.32876503 1.35685568 11.10484837
v 0.84525820 1.05047747 11.18639503
v 0.32876503 1.46973431 10.19305180
v 0.48428071 1.34518107 11.04850968
v 0.76391534 1.32055926 10.19305180
v 0.68306182 1.35832416 10.46970389
v 0.60402270 1.39163294 10.19305535
v 0.84731378 1.14103504 11.10802981
v 0.93855538 1.14311537 10.98451059
v 0.98508770 1.05583750 11.08017883
v 0.70435192 1.18181039 11.15976737
v 0.51650954 1.26933303 11.15222947
v 0.47850547 1.43184708 10.19305180
v 0.66093967 1.26610228 11.07146601
vn -0.43302723 -0.29957615 -0.85014208
vn 0.29394807 -0.60667663 -0.73860544
vn -0.31940348 0.30619907 -0.89678512
vn 0.28454957 -0.27819529 0.91740881
vn -0.18956354 -0.34948033 0.91756698
vn -0.31889185 -0.02591168 0.94743684
vn -0.13765297 -0.25934529 0.95592452
vn -0.45886948 -0.22981293 0.85826850
vn 0.02312600 0.99802443 0.05841596
vn 0.29444006 -0.13652098 0.94586842
vn 0.19237039 0.26807893 -0.94399540
vn -0.00495376 0.02313607 0.99972005
vn -0.04770573 -0.09538316 0.99429684
vn -0.63128904 0.62435492 0.46005986
vn 0.01971495 0.68221907 0.73088197
vn 0.10692669 0.73156883 0.67333033
vn 0.86019317 0.44183036 0.25466377
vn 0.37317208 0.17777225 -0.91057104
vn 0.57387974 0.79359809 0.20214873
vn 0.36971456 0.50415702 0.78047219
vn 0.00202698 0.03291729 0.99945602
vn 0.00908491 0.11623108 0.99318065
vn 0.01774598 0.27141677 0.96229830
vn -0.32554084 0.12055127 0.93781158
vn 0.33565229 0.01404147 0.94188130
vn -0.00073987 -0.00135100 0.99999881
vn 0.30563888 -0.05312339 0.95066439
vn 0.03790716 0.41874496 0.90731235
vn 0.21599519 0.92143566 0.32295882
vn 0.13231769 0.52534566 0.84053790
vn 0.27270505 0.68542332 0.67514948
vn 0.65417913 0.30052868 0.69406929
vn 0.52359624 0.85037641 0.05202817
vn 0.36685150 0.62895448 0.68544601
vn -0.40927161 0.30792084 0.85888387
vn 0.38670387 0.08015400 0.91871402
vn 0.06174958 0.31704172 0.94639925
vn 0.29209558 0.95407878 0.06643687
vn 0.20688998 0.97836372 0.00097839
vn 0.03460157 0.32266352 -0.94588106
vn 0.10826684 0.35750110 0.92761590
vn 0.16786004 0.35325302 0.92034521
vn 0.21753570 0.38896958 0.89519880
vn 0.17865428 0.27193941 0.94558533
vn 0.02169876 0.04400942 0.99879544
vn 0.01780899 0.06749350 0.99756076
vn 0.04289251 0.17352014 0.98389582
vn 0.03753721 0.04870589 0.99810756
vn 0.06915768 0.32160620 -0.94434457
vn 0.09144731 0.23879495 0.96675455
vn 0.16563162 0.28639343 -0.94368690
vn 0.45389334 0.88846372 0.06791940
vn 0.13209604 0.30517326 -0.94309062
vn 0.11929880 0.15539391 0.98062252
vn 0.22511915 0.25180074 0.94123204
vn 0.49102049 0.15744492 0.85680218
vn 0.06652018 0.10885762 0.99182916
vn 0.05112332 0.12612211 0.99069653
vn 0.10423408 0.30863868 -0.94545091
vn 0.10818722 0.21172636 0.97132254
f 1//1 2//2 8//8
f 18//18 2//2 1//1
f 4//4 2//2 27//27
f 8//8 2//2 5//5
f 2//2 4//4 5//5
f 10//10 4//4 27//27
f 27//27 13//13 10//10
f 8//8 4//4 10//10
f 6//6 13//13 27//27
f 8//8 10//10 6//6
f 6//6 10//10 13//13
f 7//7 4//4 8//8
f 8//8 5//5 7//7
f 7//7 5//5 4//4
f 17//17 2//2 18//18
f 27//27 2//2 17//17
f 17//17 32//32 27//27
f 27//27 36//36 25//25
f 27//27 32//32 56//56
f 56//56 36//36 27//27
f 34//34 44//44 20//20
f 32//32 17//17 20//20
f 19//19 33//33 34//34
f 34//34 20//20 19//19
f 19//19 20//20 17//17
f 19//19 17//17 18//18
f 41//41 42//42 31//31
f 31//31 42//42 34//34
f 16//16 31//31 29//29
f 18//18 1//1 3//3
f 3//3 1//1 8//8
f 8//8 14//14 3//3
f 55//55 56//56 32//32
f 32//32 20//20 55//55
f 55//55 20//20 44//44
f 36//36 56//56 54//54
f 54//54 55//55 44//44
f 56//56 55//55 54//54
f 28//28 23//23 37//37
f 37//37 16//16 28//28
f 35//35 23//23 28//28
f 35//35 14//14 8//8
f 43//43 44//44 34//34
f 34//34 42//42 43//43
f 43//43 42//42 44//44
f 46//46 58//58 47//47
f 47//47 37//37 23//23
f 44//44 42//42 60//60
f 60//60 54//54 44//44
f 45//45 58//58 46//46
f 46//46 21//21 45//45
f 45//45 21//21 25//25
f 41//41 31//31 30//30
f 31//31 16//16 30//30
f 30//30 37//37 41//41
f 16//16 37//37 30//30
f 28//28 16//16 15//15
f 14//14 35//35 15//15
f 15//15 35//35 28//28
f 9//9 15//15 16//16
f 9//9 3//3 14//14
f 14//14 15//15 9//9
f 23//23 35//35 24//24
f 8//8 6//6 24//24
f 24//24 35//35 8//8
f 27//27 25//25 26//26
f 25//25 21//21 26//26
f 41//41 37//37 50//50
f 37//37 47//47 50//50
f 50//50 42//42 41//41
f 50//50 60//60 42//42
f 50//50 47//47 58//58
f 58//58 60//60 50//50
f 57//57 60//60 58//58
f 54//54 60//60 57//57
f 58//58 45//45 57//57
f 36//36 54//54 57//57
f 29//29 31//31 38//38
f 52//52 31//31 34//34
f 52//52 53//53 31//31
f 52//52 51//51 53//53
f 34//34 33//33 52//52
f 33//33 51//51 52//52
f 12//12 24//24 6//6
f 12//12 6//6 27//27
f 27//27 26//26 12//12
f 12//12 26//26 21//21
f 46//46 47//47 22//22
f 22//22 21//21 46//46
f 22//22 47//47 23//23
f 23//23 24//24 22//22
f 22//22 12//12 21//21
f 24//24 12//12 22//22
f 48//48 45//45 25//25
f 48//48 57//57 45//45
f 48//48 25//25 36//36
f 36//36 57//57 48//48
f 31//31 53//53 59//59
f 59//59 38//38 31//31
f 53//53 51//51 59//59
f 59//59 51//51 18//18
f 33//33 19//19 11//11
f 11//11 51//51 33//33
f 11//11 19//19 18//18
f 18//18 51//51 11//11
f 3//3 9//9 40//40
f 40//40 9//9 16//16
f 38//38 59//59 49//49
f 49//49 40//40 16//16
f 3//3 40//40 49//49
f 18//18 3//3 49//49
f 49//49 59//59 18//18
f 29//29 38//38 39//39
f 38//38 49//49 39//39
f 39//39 16//16 29//29
f 39//39 49//49 16//16