# https://github.com/mikedh/trimesh
v -0.57149386 -3.77610465 -0.64370121
v 0.42850611 -3.88094029 -0.72445690
v 0.31593762 -3.88094029 -0.38626191
v 0.29684992 -3.88094029 -0.11208417
v -0.57149386 -3.77610465 0.25322520
v -0.57149386 -3.60157455 -0.64879134
v 0.42850611 -3.88094029 0.22748111
v -0.57149386 -3.51416273 -0.65084687
v -0.57149386 -3.07700532 -0.66083123
v -0.57149386 -3.04127704 -0.65926506
v 0.42850611 -3.07671161 -0.57831367
v 0.31280530 -3.88094029 0.08026105
v -0.57149386 -3.74429192 0.26399274
v 0.32053825 -3.88094029 0.13488123
v 0.38582797 -3.88094029 0.19175301
v 0.42850611 -3.60167251 0.23766136
v -0.57149386 -3.65668418 0.27045298
v 0.42850611 -2.98695042 -0.51351324
v -0.57149386 -3.04127704 0.25714074
v -0.47957925 -2.91402563 -0.11218212
v -0.47957925 -2.93144929 -0.26566671
v 0.42850611 -2.93203655 -0.43236596
v -0.57149386 -3.51416273 0.27201934
v -0.57149386 -3.60157455 0.27113822
v 0.42850611 -3.16422139 0.23658471
v -0.57149386 -3.07680949 0.27554311
v -0.47957925 -2.98881032 0.16826051
v 0.42850611 -3.06281184 0.23580153
v 0.42850611 -2.97363799 0.18901206
v 0.42850611 -2.94348916 0.15504585
v 0.42850611 -2.91706005 0.07712869
v 0.42850611 -2.88769440 -0.06686106
v 0.42850611 -2.88094026 -0.11002846
v 0.42850611 -3.07671161 0.23599742
vn -0.32112769 -0.18248523 -0.92928798
vn 0.27493644 -0.20059070 -0.94030491
vn -0.13286947 -0.94571636 -0.29659110
vn -0.14187277 -0.98981529 0.01173890
vn -0.32442137 -0.19169427 0.92628510
vn -0.30992977 -0.00114247 -0.95075877
vn 0.29396044 -0.20528052 0.93351335
vn -0.30995766 -0.00102796 -0.95074980
vn -0.30501057 0.00129035 -0.95234809
vn -0.29428986 0.09451010 -0.95103171
vn 0.30246208 0.01973230 -0.95295715
vn -0.12769615 -0.98071634 0.14794982
vn -0.29712457 -0.00846799 0.95480118
vn -0.09408878 -0.66816209 0.73804250
vn -0.06506130 -0.63819491 0.76712078
vn 0.30513158 -0.00083278 0.95230984
vn -0.29890972 -0.00178559 0.95427973
vn 0.30431207 0.04966529 -0.95127679
vn -0.31780915 0.09165895 0.94371393
vn -0.46990261 0.67512082 0.56868569
vn -0.17899364 0.27877265 -0.94352906
vn 0.30934300 0.15161772 -0.93878591
vn -0.29977337 -0.00040177 0.95401036
vn -0.29977574 -0.00050329 0.95400957
vn 0.30610279 0.00019691 0.95199845
vn -0.29066349 0.01134761 0.95675805
vn -0.04595582 0.13381344 0.98994042
vn 0.29698281 0.01216710 0.95480531
vn 0.29728896 0.03762994 0.95404573
vn 0.29359195 0.09053464 0.95163399
vn 0.34108145 0.16652331 0.92516671
vn 0.40596164 0.23182192 0.88399872
vn 0.72018550 0.69378156 0.00005599
vn 0.30606118 0.00046410 0.95201173
f 1//1 2//2 3//3
f 1//1 3//3 4//4
f 1//1 4//4 5//5
f 1//1 5//5 13//13
f 1//1 13//13 17//17
f 1//1 17//17 24//24
f 1//1 24//24 23//23
f 1//1 23//23 26//26
f 1//1 26//26 19//19
f 1//1 19//19 10//10
f 1//1 10//10 9//9
f 1//1 9//9 8//8
f 1//1 8//8 6//6
f 1//1 6//6 2//2
f 2//2 7//7 15//15
f 2//2 15//15 14//14
f 2//2 14//14 12//12
f 2//2 12//12 4//4
f 2//2 4//4 3//3
f 2//2 6//6 8//8
f 2//2 8//8 9//9
f 2//2 9//9 10//10
f 2//2 10//10 11//11
f 2//2 11//11 18//18
f 2//2 18//18 22//22
f 2//2 22//22 33//33
f 2//2 33//33 32//32
f 2//2 32//32 31//31
f 2//2 31//31 30//30
f 2//2 30//30 29//29
f 2//2 29//29 28//28
f 2//2 28//28 34//34
f 2//2 34//34 25//25
f 2//2 25//25 16//16
f 2//2 16//16 7//7
f 4//4 12//12 5//5
f 5//5 12//12 14//14
f 5//5 14//14 15//15
f 5//5 15//15 7//7
f 5//5 7//7 13//13
f 7//7 16//16 17//17
f 7//7 17//17 13//13
f 10//10 18//18 11//11
f 10//10 19//19 20//20
f 10//10 20//20 21//21
f 10//10 21//21 22//22
f 10//10 22//22 18//18
f 16//16 23//23 24//24
f 16//16 24//24 17//17
f 16//16 25//25 26//26
f 16//16 26//26 23//23
f 19//19 27//27 20//20
f 19//19 26//26 28//28
f 19//19 28//28 29//29
f 19//19 29//29 30//30
f 19//19 30//30 27//27
f 20//20 31//31 32//32
f 20//20 32//32 33//33
f 20//20 33//33 21//21
f 20//20 27//27 31//31
f 21//21 33//33 22//22
f 25//25 34//34 26//26
f 26//26 34//34 28//28
f 27//27 30//30 31//31