# https://github.com/mikedh/trimesh
v -1.15177637 -0.74641849 -0.15651748
v -1.41983789 -0.67735495 -0.15266587
v -1.77521796 -0.51056610 -0.03850298
v -1.66164654 -0.57417953 -0.33171484
v -1.81069338 -0.45991771 0.06784278
v -1.89324834 -0.42968589 -0.23297709
v -1.27870755 -0.68544608 -0.50529897
v -1.99831374 -0.32606837 -0.29235314
v -1.15179422 -0.71622922 0.12349599
v -1.99420216 -0.29021627 0.08391186
v -1.81972811 -0.44051867 -0.49751437
v -1.61019001 -0.55298975 0.12131986
v -1.33886425 -0.66956289 0.11988566
v -1.15149846 -0.60998433 0.13026100
v -1.72406989 0.24569258 0.13111355
v -1.57532960 -0.54739876 -0.65799547
v -1.59415932 0.24569273 0.12466685
v -1.91806339 -0.12598581 0.13278192
v -1.59425651 0.25352066 -0.67468740
v -2.00477939 -0.31631360 -0.02562175
v -2.08808072 -0.20820763 -0.20801622
v -1.47280901 -0.61873245 -0.56486657
v -1.47332774 -0.54292511 -0.84151689
v -1.89085047 -0.34582285 0.12519903
v -1.15150684 -0.50940796 0.11895023
v -1.57966936 0.24569273 0.11214480
v -1.89690556 0.25352057 -0.67467864
v -1.83915334 0.24569128 0.12930399
v -2.10968294 -0.14258603 0.00572066
v -2.13161472 -0.07608407 -0.21871016
v -1.27954296 -0.61373356 -0.84147307
v -2.01121221 -0.22537562 -0.48780032
v -1.64617266 -0.43395322 -0.84096929
v -1.83584697 0.00461447 -0.86721809
v -2.07653425 -0.06421942 0.12383262
v -1.15177639 -0.40617802 -0.84148449
v -1.45375684 0.25358154 -0.82580893
v -2.03989734 0.24569273 -0.33422082
v -2.06396629 0.24569273 -0.14866517
v -2.06080574 0.24569273 -0.06683188
v -2.04787167 0.24569273 0.00321308
v -2.00252000 0.24567018 0.12101187
v -1.15177462 -0.64247275 -0.84136141
v -1.82662577 -0.19014013 -0.84185290
v -1.39450833 0.11437923 -0.86711548
v -1.45460788 0.25352066 -0.86711548
v -2.00388431 0.22487756 -0.50004716
v -2.08446142 0.15244253 -0.35285709
v -2.08242284 0.10954891 0.10476928
v -2.15149849 0.00369509 -0.08485296
v -2.10366134 -0.07444691 -0.38641965
v -1.91420360 -0.25551688 -0.65201598
v -1.98634587 -0.06788803 -0.64770704
v -1.44893722 0.00106312 -0.86709232
v -1.72839538 -0.34543240 -0.84110324
v -1.77914118 0.25351276 -0.86711346
v -2.00598037 0.10756939 -0.60538573
v -2.11668268 0.14959726 -0.21155258
v -2.09778444 0.15244253 -0.00263825
v -2.11340770 0.00847219 -0.37931109
vn 0.79571954 -0.60566519 0.00029045
vn -0.89103378 -0.45393504 0.00133718
vn -0.95867727 -0.28447110 0.00375205
vn -0.94274566 -0.33349499 -0.00342275
vn -0.97028426 -0.24173915 0.01051879
vn -0.97643523 -0.21580959 -0.00068480
vn -0.71017889 -0.70396320 -0.00904169
vn -0.98908609 -0.14730123 -0.00332555
vn 0.78179035 -0.60942198 0.13194202
vn -0.99039376 -0.13762317 0.01341902
vn -0.97741725 -0.21122055 -0.00643454
vn -0.94005263 -0.31982013 0.11838977
vn -0.88974693 -0.44655253 0.09455809
vn 0.98573926 -0.06517499 0.15514615
vn 0.25432290 0.91808929 0.30402618
vn -0.95305776 -0.30266478 -0.00865619
vn 0.88645837 0.45198865 0.09948780
vn -0.89076522 -0.06672365 0.44953897
vn 0.02792802 0.99960971 0.00067923
vn -0.98806717 -0.15400013 0.00268851
vn -0.99568180 -0.09282838 -0.00080123
vn -0.90761242 -0.41973159 -0.00806729
vn -0.92929787 -0.34896742 -0.12094295
vn -0.97399579 -0.19057850 0.12252363
vn 0.99752161 0.06274349 0.03184156
vn 0.89523308 0.44549682 0.00950406
vn -0.89277939 0.45041459 -0.00846475
vn -0.49430177 0.83130640 0.25415631
vn -0.99801588 -0.06280046 0.00451666
vn -0.99944559 -0.03324530 -0.00180515
vn -0.83982661 -0.51917932 -0.15856890
vn -0.99491096 -0.10053119 -0.00675750
vn -0.97214577 -0.21818773 -0.08559625
vn -0.99019069 -0.02499992 -0.13746782
vn -0.99582369 -0.02177434 0.08866255
vn 0.99808999 0.02645903 -0.05582377
vn 0.89372100 0.44862308 0.00032230
vn -0.91967091 0.39267648 -0.00325559
vn -0.90611852 0.42302384 0.00024591
vn -0.90533699 0.42469134 0.00148239
vn -0.89808084 0.43981047 0.00418942
vn -0.90396237 0.41762473 0.09187827
vn 0.81873096 -0.55977474 -0.12779616
vn -0.99591954 -0.08247735 -0.03663011
vn 0.98796012 0.06712371 -0.13938871
vn 0.88561824 0.44610509 -0.12911457
vn -0.98986695 0.14186029 -0.00625087
vn -0.99776270 0.06671354 -0.00434770
vn -0.99872324 0.04636155 0.02006221
vn -0.99999420 0.00318420 0.00121277
vn -0.99902708 -0.04382532 -0.00492197
vn -0.99371027 -0.11163962 -0.00874660
vn -0.99956695 -0.02783908 -0.00953353
vn 0.73389943 -0.14399977 -0.66381903
vn -0.98777177 -0.14436022 -0.05888175
vn -0.89099019 0.43419352 -0.13271194
vn -0.99906746 0.04230014 -0.00865452
vn -0.99787020 0.06520600 -0.00179790
vn -0.99781363 0.06598593 0.00371604
vn -0.99990335 0.01303416 -0.00483653
f 25//25 17//17 14//14
f 56//56 27//27 37//37
f 37//37 27//27 19//19
f 26//26 25//25 37//37
f 17//17 25//25 26//26
f 37//37 19//19 26//26
f 26//26 19//19 17//17
f 9//9 1//1 14//14
f 14//14 12//12 9//9
f 50//50 60//60 30//30
f 4//4 2//2 3//3
f 14//14 17//17 15//15
f 15//15 18//18 14//14
f 17//17 19//19 15//15
f 15//15 19//19 27//27
f 35//35 18//18 28//28
f 28//28 42//42 35//35
f 18//18 15//15 28//28
f 27//27 42//42 28//28
f 28//28 15//15 27//27
f 27//27 40//40 41//41
f 41//41 42//42 27//27
f 50//50 35//35 49//49
f 35//35 42//42 49//49
f 42//42 41//41 49//49
f 13//13 9//9 12//12
f 12//12 3//3 13//13
f 13//13 3//3 2//2
f 1//1 9//9 13//13
f 13//13 2//2 1//1
f 52//52 11//11 32//32
f 33//33 11//11 52//52
f 57//57 56//56 34//34
f 27//27 56//56 57//57
f 53//53 52//52 32//32
f 44//44 52//52 53//53
f 60//60 57//57 53//53
f 34//34 44//44 53//53
f 53//53 57//57 34//34
f 32//32 11//11 8//8
f 4//4 11//11 16//16
f 16//16 11//11 33//33
f 1//1 2//2 7//7
f 36//36 25//25 14//14
f 37//37 25//25 36//36
f 50//50 30//30 29//29
f 20//20 10//10 29//29
f 29//29 35//35 50//50
f 29//29 10//10 35//35
f 39//39 40//40 27//27
f 27//27 38//38 39//39
f 35//35 10//10 24//24
f 24//24 18//18 35//35
f 14//14 18//18 24//24
f 24//24 12//12 14//14
f 59//59 41//41 40//40
f 59//59 49//49 41//41
f 50//50 49//49 59//59
f 33//33 52//52 55//55
f 55//55 52//52 44//44
f 34//34 33//33 55//55
f 55//55 44//44 34//34
f 48//48 57//57 60//60
f 51//51 53//53 32//32
f 60//60 53//53 51//51
f 51//51 30//30 60//60
f 6//6 11//11 4//4
f 6//6 8//8 11//11
f 4//4 3//3 6//6
f 6//6 3//3 20//20
f 20//20 8//8 6//6
f 23//23 16//16 33//33
f 23//23 33//33 34//34
f 34//34 31//31 23//23
f 31//31 7//7 22//22
f 22//22 23//23 31//31
f 16//16 23//23 22//22
f 4//4 16//16 22//22
f 22//22 2//2 4//4
f 22//22 7//7 2//2
f 1//1 7//7 43//43
f 43//43 7//7 31//31
f 14//14 1//1 43//43
f 43//43 36//36 14//14
f 43//43 31//31 34//34
f 21//21 29//29 30//30
f 30//30 51//51 21//21
f 21//21 8//8 20//20
f 20//20 29//29 21//21
f 32//32 8//8 21//21
f 21//21 51//51 32//32
f 5//5 24//24 10//10
f 20//20 3//3 5//5
f 5//5 10//10 20//20
f 5//5 3//3 12//12
f 12//12 24//24 5//5
f 58//58 39//39 38//38
f 38//38 48//48 58//58
f 50//50 59//59 58//58
f 58//58 60//60 50//50
f 58//58 48//48 60//60
f 40//40 39//39 58//58
f 58//58 59//59 40//40
f 27//27 57//57 47//47
f 57//57 48//48 47//47
f 47//47 38//38 27//27
f 47//47 48//48 38//38
f 36//36 43//43 45//45
f 34//34 56//56 46//46
f 46//46 45//45 34//34
f 46//46 56//56 37//37
f 37//37 36//36 46//46
f 36//36 45//45 46//46
f 54//54 43//43 34//34
f 34//34 45//45 54//54
f 54//54 45//45 43//43