# https://github.com/mikedh/trimesh
v 0.06743351 0.49630040 0.05908889
v 0.14594019 0.47915934 0.77037457
v -0.09342932 0.49338902 0.80292782
v -0.06435643 0.49673047 0.04208305
v 0.20287918 0.46271222 0.02874782
v 0.31458374 0.39322511 0.77610191
v 0.12019223 0.42390360 -0.15761465
v 0.19818723 0.38160248 0.84231846
v 0.39485705 0.30702133 0.80090872
v -0.16194814 0.40656664 0.84217110
v -0.22243175 0.45526697 0.77717321
v -0.19076214 -0.38667374 0.84220731
v -0.21174657 0.39404407 -0.15305170
v -0.21657117 0.45940847 0.07055226
v 0.33441004 0.37624992 0.04304378
v 0.30725860 0.30228204 -0.15761506
v -0.38896359 0.31951513 0.79702917
v 0.26235368 -0.36478110 0.84224006
v -0.46343265 0.01551458 0.84199682
v 0.44443034 0.22911692 0.79886943
v -0.37340698 0.33582622 0.02479428
v 0.41283498 0.27608184 0.04308639
v 0.44591756 0.07079771 0.84169701
v -0.36088656 -0.23975704 0.84220481
v 0.47374998 0.16735116 0.05010056
v -0.38620422 0.20872959 -0.15768154
v 0.42513273 0.11033148 -0.15762819
v -0.49776339 0.04046365 0.80585980
v -0.48200876 0.13439284 0.60738367
v 0.49740849 -0.04428761 0.80150771
v 0.49440619 0.05785077 0.74248266
v -0.49772619 -0.04310132 0.74248266
v -0.37689931 -0.33307860 0.78832634
v -0.00057671 -0.50326956 0.79843341
v -0.48757282 0.10650962 0.02745978
v -0.43320203 0.24646738 0.07983085
v 0.48044487 -0.13410038 0.74248266
v 0.50191763 -0.00221809 0.04353384
v -0.47436943 -0.16493639 0.78938901
v -0.28282273 -0.41610274 0.79857043
v -0.16410857 -0.47630016 0.79054761
v -0.07503016 -0.49664876 0.00683231
v 0.40999131 -0.15321057 -0.15762726
v 0.04898441 -0.49990074 0.03145469
v 0.30551790 -0.40671493 0.78147398
v 0.40813468 -0.29181304 0.03184349
v 0.43299130 -0.24991928 0.80212909
v 0.47869219 -0.15080838 0.03131397
v -0.49808241 -0.01274584 0.03330796
v -0.38297422 -0.32350627 0.00605388
v -0.42625987 -0.05999204 -0.15761506
v 0.15283578 -0.47983774 0.77696666
v 0.18603675 -0.46333461 0.05130829
v 0.32808017 -0.37917154 0.00104582
v -0.47506261 -0.16610141 0.04161830
v -0.22515488 -0.44871234 0.02792497
v -0.18117852 -0.39059015 -0.15761503
v 0.07000757 -0.44002001 -0.15761689
v 0.25806047 -0.34630468 -0.15761421
v -0.34814244 -0.26656577 -0.15761643
vn 0.10481020 0.96124402 -0.25499953
vn 0.21443149 0.78674863 0.57883134
vn -0.08037088 0.71398427 0.69553360
vn -0.10545083 0.93273903 -0.34478694
vn 0.38083402 0.86231982 -0.33372141
vn 0.47433627 0.66974864 0.57135091
vn 0.10686576 0.44185605 -0.89069801
vn 0.09908384 0.21691897 0.97114806
vn 0.54239857 0.43920409 0.71617286
vn -0.09157925 0.18393755 0.97866246
vn -0.39270283 0.72437727 0.56662338
vn -0.06396523 -0.15652039 0.98560125
vn -0.21480535 0.43585321 -0.87400838
vn -0.41691376 0.87950181 -0.22947654
vn 0.63801834 0.70308546 -0.31401182
vn 0.31167603 0.30037126 -0.90146279
vn -0.55939115 0.44473613 0.69949361
vn 0.13444919 -0.20799706 0.96884500
vn -0.26297331 0.00112822 0.96480245
vn 0.67358714 0.31892396 0.66675923
vn -0.69918411 0.63244115 -0.33340631
vn 0.78789892 0.52489185 -0.32203080
vn 0.27787114 0.05086596 0.95927070
vn -0.16822761 -0.10945674 0.97965233
vn 0.90200884 0.32876351 -0.27981173
vn -0.40897926 0.20792847 -0.88853909
vn 0.44196262 0.11763107 -0.88928734
vn -0.77824796 0.11406484 0.61751059
vn -0.94742852 0.31500570 0.05613023
vn 0.71730614 -0.07479505 0.69273198
vn 0.96080459 0.16306388 0.22419794
vn -0.98693406 -0.10345377 0.12352525
vn -0.60703783 -0.50382633 0.61454381
vn 0.00369540 -0.70244551 0.71172794
vn -0.90920499 0.21285641 -0.35782459
vn -0.86971482 0.45327035 -0.19530008
vn 0.94797713 -0.28693714 0.13786386
vn 0.94910574 0.00063467 -0.31495698
vn -0.72954630 -0.27831436 0.62474259
vn -0.41763129 -0.60871096 0.67457770
vn -0.23099083 -0.73339813 0.63935156
vn -0.15556697 -0.91175644 -0.38013040
vn 0.41480704 -0.15229125 -0.89707441
vn 0.12502305 -0.95501231 -0.26892512
vn 0.49970374 -0.66700248 0.55263358
vn 0.77969571 -0.53737902 -0.32140068
vn 0.60722323 -0.34663706 0.71492845
vn 0.90735966 -0.27974633 -0.31375218
vn -0.94400117 -0.02736887 -0.32880500
vn -0.70318116 -0.61624609 -0.35465055
vn -0.42516228 -0.05215680 -0.90361314
vn 0.24492512 -0.77674755 0.58023695
vn 0.36596576 -0.89146737 -0.26712354
vn 0.58518681 -0.70517458 -0.40035635
vn -0.89740504 -0.31590883 -0.30800294
vn -0.44328163 -0.83533758 -0.32513463
vn -0.17863566 -0.37617631 -0.90916483
vn 0.08196069 -0.45459243 -0.88692061
vn 0.24582121 -0.33182416 -0.91074950
vn -0.34640378 -0.26404667 -0.90015764
f 28//28 35//35 49//49
f 29//29 35//35 28//28
f 38//38 43//43 27//27
f 27//27 26//26 16//16
f 27//27 43//43 26//26
f 8//8 18//18 23//23
f 23//23 9//9 8//8
f 34//34 18//18 12//12
f 12//12 18//18 8//8
f 52//52 18//18 34//34
f 16//16 26//26 7//7
f 26//26 13//13 7//7
f 7//7 5//5 16//16
f 7//7 1//1 5//5
f 7//7 13//13 4//4
f 4//4 1//1 7//7
f 21//21 13//13 26//26
f 44//44 52//52 34//34
f 53//53 52//52 44//44
f 8//8 9//9 6//6
f 31//31 30//30 38//38
f 22//22 27//27 16//16
f 17//17 10//10 11//11
f 19//19 10//10 17//17
f 17//17 28//28 19//19
f 29//29 28//28 17//17
f 11//11 21//21 17//17
f 48//48 43//43 38//38
f 48//48 46//46 43//43
f 38//38 30//30 48//48
f 43//43 46//46 54//54
f 30//30 23//23 47//47
f 47//47 23//23 18//18
f 46//46 48//48 47//47
f 33//33 55//55 50//50
f 26//26 35//35 36//36
f 36//36 21//21 26//26
f 36//36 35//35 29//29
f 29//29 17//17 36//36
f 36//36 17//17 21//21
f 4//4 13//13 14//14
f 13//13 21//21 14//14
f 14//14 21//21 11//11
f 26//26 43//43 58//58
f 58//58 57//57 26//26
f 53//53 44//44 58//58
f 58//58 54//54 53//53
f 51//51 55//55 49//49
f 49//49 35//35 51//51
f 51//51 35//35 26//26
f 50//50 57//57 56//56
f 3//3 1//1 4//4
f 4//4 14//14 3//3
f 3//3 14//14 11//11
f 3//3 10//10 8//8
f 11//11 10//10 3//3
f 5//5 1//1 2//2
f 2//2 6//6 5//5
f 1//1 3//3 2//2
f 8//8 6//6 2//2
f 2//2 3//3 8//8
f 9//9 23//23 20//20
f 20//20 22//22 9//9
f 20//20 23//23 30//30
f 30//30 31//31 20//20
f 16//16 5//5 15//15
f 15//15 22//22 16//16
f 5//5 6//6 15//15
f 15//15 6//6 9//9
f 9//9 22//22 15//15
f 38//38 27//27 25//25
f 27//27 22//22 25//25
f 22//22 20//20 25//25
f 25//25 31//31 38//38
f 25//25 20//20 31//31
f 37//37 48//48 30//30
f 30//30 47//47 37//37
f 37//37 47//47 48//48
f 18//18 52//52 45//45
f 45//45 47//47 18//18
f 45//45 52//52 53//53
f 53//53 54//54 45//45
f 45//45 54//54 46//46
f 46//46 47//47 45//45
f 55//55 33//33 39//39
f 19//19 28//28 39//39
f 24//24 10//10 19//19
f 19//19 39//39 24//24
f 24//24 39//39 33//33
f 8//8 10//10 24//24
f 24//24 12//12 8//8
f 43//43 54//54 59//59
f 59//59 58//58 43//43
f 54//54 58//58 59//59
f 60//60 57//57 50//50
f 50//50 55//55 60//60
f 55//55 51//51 60//60
f 26//26 57//57 60//60
f 60//60 51//51 26//26
f 57//57 58//58 42//42
f 42//42 56//56 57//57
f 42//42 58//58 44//44
f 42//42 44//44 34//34
f 34//34 12//12 41//41
f 41//41 42//42 34//34
f 56//56 42//42 41//41
f 40//40 33//33 50//50
f 50//50 56//56 40//40
f 56//56 41//41 40//40
f 40//40 41//41 12//12
f 12//12 24//24 40//40
f 40//40 24//24 33//33
f 49//49 55//55 32//32
f 55//55 39//39 32//32
f 32//32 28//28 49//49
f 32//32 39//39 28//28