# https://github.com/mikedh/trimesh
v -0.90675332 0.91266075 1.33762857
v -1.20794064 1.64395879 1.35035366
v -0.79440802 0.91266075 1.34036937
v -0.99901947 1.64395879 1.35661837
v -1.41695976 1.47596385 1.35549270
v -1.14897037 1.73070927 1.37556536
v -0.69636297 0.91266075 1.35926133
v -0.93496207 1.70562627 1.38441787
v -0.92399199 1.64395879 1.37756599
v -1.37472006 0.95549763 1.35295987
v -1.48052738 1.70503895 1.38471164
v -1.27434875 1.78737240 1.39694731
v -1.07394900 1.78736015 1.39655567
v -0.69195535 0.91266075 1.36278523
v -1.44663773 0.91266075 1.36278523
v -1.49570920 1.31022026 1.37506985
v -1.53087219 1.54803160 1.42709609
v -1.50609161 1.64395879 1.40242888
v -1.59365625 1.91265281 1.79720183
v -1.40892808 1.76729376 1.42592150
v -1.48471466 1.91265281 1.73850098
v -1.08793096 1.91265281 1.71234713
v -0.73736618 1.91266073 1.80797204
v -1.52601797 0.91266081 1.42888302
v -1.62849948 1.91264847 1.84787851
v -0.65292741 0.91270623 1.42691152
v -1.50011682 0.91266075 1.38559259
v -1.64213766 1.91265281 1.91535160
v -0.71947848 1.91265281 1.85975079
v -0.71183858 1.91265281 1.91534979
v -1.63358219 0.91267176 1.91570954
v -1.63410846 0.97188108 2.19451976
v -1.64214922 1.91265281 2.19452138
v -0.64214925 0.91266075 1.50988287
v -0.64288383 0.91266075 1.56668101
v -1.62962740 0.91266075 2.02005076
v -1.62483636 0.91266083 2.26547684
v -0.88726188 1.45210439 2.26421438
v -0.72637956 1.91253233 1.96027160
v -0.70772481 1.40399398 1.91534979
v -1.44271983 1.91265281 2.31217840
v -1.03095022 1.79352690 2.30346654
v -0.94617704 1.74884245 2.29504827
v -1.59561525 0.97188108 2.31335299
v -1.63361870 1.91265281 2.26421450
v -1.59947778 1.91265275 2.31490435
v -0.92257176 1.52404979 2.31389137
v -0.72466967 0.91266075 1.96096450
v -0.71365061 0.97188108 1.93884235
v -0.93995736 0.91266075 2.30336870
v -0.71281808 0.91266075 1.92915170
v -1.52156726 1.91265281 2.32744836
v -1.52156726 1.78809429 2.33258752
v -0.99901947 1.50006799 2.33307698
v -1.08997561 1.69932493 2.32788283
v -1.51852621 0.91266714 2.33153366
v -1.10343113 1.45210439 2.33762859
v -1.41695976 1.45210439 2.33762859
v -1.10343113 0.91266075 2.32274999
v -0.97869546 0.91266075 2.31095476
vn 0.00328289 -0.79418846 -0.60766266
vn -0.05159213 0.27394597 -0.96036027
vn 0.16978439 -0.75845842 -0.62921705
vn 0.26065214 0.28424845 -0.92263930
vn -0.34999814 0.05864040 -0.93491316
vn 0.01917210 0.51541508 -0.85672617
vn 0.56629241 -0.63082252 -0.53044873
vn 0.67083135 0.51643376 -0.53224193
vn 0.67605742 0.22772337 -0.70077702
vn -0.15643150 -0.11186187 -0.98133384
vn -0.67990811 0.47167033 -0.56147312
vn -0.12245431 0.84092798 -0.52711012
vn 0.18673079 0.83731789 -0.51383886
vn 0.76242787 -0.57360451 -0.29946888
vn -0.31524500 -0.75994386 -0.56842406
vn -0.81816950 0.00244609 -0.57497189
vn -0.97478010 0.03925267 -0.21968838
vn -0.94330545 0.12123770 -0.30899230
vn -0.44663125 0.88063620 -0.15811515
vn -0.37703818 0.87077746 -0.31557699
vn -0.13504336 0.98042094 -0.14331108
vn 0.03152166 0.99281447 -0.11543745
vn 0.64010378 0.75229625 -0.15594072
vn -0.73897291 -0.66047747 -0.13299830
vn -0.73358927 0.67386073 -0.08808237
vn 0.80806853 -0.56829258 -0.15514123
vn -0.65502252 -0.66570059 -0.35747480
vn -0.75172833 0.65861181 -0.03368981
vn 0.69766407 0.71356727 -0.06392645
vn 0.74952274 0.66033693 0.04659183
vn -0.74758738 -0.66318628 -0.03601478
vn -0.99869321 -0.04573983 0.02279783
vn -0.74724110 0.66424226 0.02032139
vn 0.77572765 -0.63044402 -0.02805247
vn 0.76047784 -0.64887286 0.02524815
vn -0.00341227 -0.99999418 0.00002862
vn -0.73720604 -0.65558538 0.16350863
vn 0.96067739 -0.00399536 0.27763823
vn 0.71645213 0.67571439 0.17351198
vn 0.99322997 0.00445285 0.11607929
vn 0.15952278 0.93624418 0.31304842
vn 0.39057857 0.67844240 0.62222527
vn 0.71913706 0.40608521 0.56385875
vn -0.80944605 -0.14334706 0.56942841
vn -0.75475787 0.64318014 0.12907310
vn -0.58910824 0.66598210 0.45762356
vn 0.80387207 0.07341038 0.59025470
vn 0.71682422 -0.67887293 0.15904269
vn 0.98859239 -0.00732281 0.15043758
vn 0.58993145 -0.67618073 0.44131678
vn 0.73132569 -0.67636909 0.08767892
vn -0.06698447 0.80180944 0.59381369
vn -0.22179006 0.03546940 0.97444912
vn 0.30850749 0.04611814 0.95010328
vn 0.20785679 0.19576620 0.95836901
vn -0.22910730 -0.77058350 0.59473601
vn 0.06126029 0.00055635 0.99812167
vn -0.05048200 0.00130830 0.99872411
vn 0.07289735 -0.81000818 0.58187003
vn 0.18624541 -0.80092720 0.56905911
f 33//33 23//23 28//28
f 57//57 53//53 58//58
f 42//42 39//39 41//41
f 55//55 53//53 57//57
f 23//23 21//21 19//19
f 19//19 28//28 23//23
f 48//48 38//38 50//50
f 39//39 38//38 48//48
f 56//56 58//58 53//53
f 57//57 58//58 56//56
f 46//46 56//56 53//53
f 23//23 41//41 30//30
f 30//30 41//41 39//39
f 34//34 26//26 30//30
f 50//50 38//38 47//47
f 47//47 38//38 39//39
f 53//53 55//55 52//52
f 52//52 46//46 53//53
f 42//42 41//41 52//52
f 52//52 55//55 42//42
f 52//52 41//41 23//23
f 23//23 46//46 52//52
f 23//23 8//8 13//13
f 21//21 12//12 20//20
f 20//20 19//19 21//21
f 20//20 12//12 11//11
f 11//11 19//19 20//20
f 33//33 28//28 32//32
f 12//12 13//13 6//6
f 25//25 19//19 11//11
f 28//28 19//19 25//25
f 18//18 25//25 11//11
f 17//17 25//25 18//18
f 28//28 25//25 31//31
f 31//31 32//32 28//28
f 31//31 36//36 37//37
f 37//37 32//32 31//31
f 59//59 56//56 37//37
f 37//37 36//36 59//59
f 57//57 56//56 59//59
f 33//33 32//32 45//45
f 45//45 32//32 37//37
f 45//45 23//23 33//33
f 45//45 46//46 23//23
f 37//37 56//56 44//44
f 56//56 46//46 44//44
f 44//44 45//45 37//37
f 46//46 45//45 44//44
f 29//29 26//26 23//23
f 23//23 30//30 29//29
f 29//29 30//30 26//26
f 34//34 30//30 35//35
f 42//42 55//55 43//43
f 43//43 39//39 42//42
f 43//43 47//47 39//39
f 54//54 55//55 57//57
f 50//50 47//47 54//54
f 54//54 43//43 55//55
f 47//47 43//43 54//54
f 57//57 59//59 54//54
f 22//22 12//12 21//21
f 22//22 13//13 12//12
f 22//22 21//21 23//23
f 23//23 13//13 22//22
f 10//10 5//5 1//1
f 11//11 5//5 16//16
f 16//16 18//18 11//11
f 27//27 17//17 16//16
f 17//17 18//18 16//16
f 1//1 5//5 2//2
f 2//2 5//5 11//11
f 11//11 12//12 2//2
f 12//12 6//6 2//2
f 14//14 26//26 34//34
f 14//14 7//7 8//8
f 14//14 8//8 23//23
f 23//23 26//26 14//14
f 27//27 36//36 24//24
f 36//36 31//31 24//24
f 24//24 17//17 27//27
f 24//24 25//25 17//17
f 24//24 31//31 25//25
f 39//39 48//48 49//49
f 50//50 54//54 60//60
f 60//60 54//54 59//59
f 15//15 10//10 1//1
f 27//27 16//16 15//15
f 5//5 10//10 15//15
f 15//15 16//16 5//5
f 4//4 2//2 6//6
f 4//4 13//13 8//8
f 4//4 6//6 13//13
f 51//51 49//49 48//48
f 35//35 49//49 51//51
f 40//40 30//30 39//39
f 39//39 49//49 40//40
f 40//40 35//35 30//30
f 40//40 49//49 35//35
f 3//3 4//4 7//7
f 1//1 2//2 3//3
f 2//2 4//4 3//3
f 8//8 7//7 9//9
f 9//9 4//4 8//8
f 7//7 4//4 9//9
f 34//34 35//35 3//3
f 3//3 14//14 34//34
f 3//3 36//36 27//27
f 50//50 60//60 3//3
f 3//3 48//48 50//50
f 3//3 51//51 48//48
f 3//3 59//59 36//36
f 27//27 15//15 3//3
f 7//7 14//14 3//3
f 3//3 60//60 59//59
f 3//3 15//15 1//1
f 35//35 51//51 3//3