# https://github.com/mikedh/trimesh
v 1.52174435 -1.52616258 2.04114463
v 1.45463983 -1.52616258 2.23007783
v 1.46402576 -1.24432957 2.10816952
v 1.46828329 -1.29445069 2.17529302
v 1.51636194 -1.48754401 2.09985306
v 1.49182069 -1.32543370 2.05790084
v 1.46619083 -1.39725021 2.22040412
v 1.53346450 -1.52618879 1.89396600
v 1.42299861 -1.39381179 1.37089564
v 1.41516090 -1.18334249 2.10816952
v 1.38567262 -1.03036066 1.45467677
v 1.30765819 -0.85696822 1.50494543
v 1.24292430 -0.77610894 1.50494543
v 1.39958225 -1.20468303 2.17529302
v 1.14165067 -1.35159555 2.22996676
v 1.49140945 -1.32695098 1.84016862
v 1.40693613 -1.15123371 1.37089564
v 1.18844730 -0.73822453 1.55489338
v 1.34951990 -0.93832931 1.45467677
v 1.32343037 -1.11873327 2.10816952
v 1.22579742 -1.10375578 2.10816952
v 1.25018147 -1.16550154 2.17529302
v 1.29685712 -1.22695363 2.21025540
v 1.37819775 -1.05197056 1.33269449
v 1.41240317 -1.52606485 1.35014164
v 1.37481108 -1.29273759 1.31877617
v 0.92752822 -0.52618879 1.30855960
v 0.89535482 -0.52618879 1.34463851
v 1.29798201 -0.87238632 1.34952470
v 1.24069881 -0.77899675 1.40440812
v 0.95013168 -0.52638813 1.23595112
v 1.12361664 -0.74050038 1.59773400
v 1.12806770 -1.10502836 2.10816952
v 0.79779440 -0.52618879 1.35455895
v 0.53346453 -0.52618879 1.35964265
v 1.03053151 -1.16973546 2.17529302
v 0.97402242 -1.22915631 2.20964459
v 0.98176339 -1.47467115 2.23595112
v 1.32352714 -1.47467115 1.30160038
v 1.32352714 -1.52606485 1.30150172
v 0.53346453 -0.52618879 1.23595749
v 0.53346453 -0.73900757 1.60898704
v 0.90890152 -1.24677700 2.18960614
v 0.87174484 -1.35445882 2.21675175
v 0.87193837 -1.47467115 2.21655442
v 0.87687324 -1.52616258 2.21339563
v 1.14761366 -1.52616258 2.23379183
v 1.00597810 -1.52606485 1.29049542
v 0.53346870 -1.50185126 1.23595328
v 0.83463661 -1.48680983 1.23595749
v 0.91064323 -1.43610144 1.23595749
v 0.95089626 -1.23157913 1.23595749
v 0.67696275 -1.52616258 1.88379899
v 0.53346453 -0.78756239 1.61663718
v 0.53346453 -0.98971075 1.63336866
v 0.61288807 -1.52606485 1.33948702
v 0.53346453 -1.33135626 1.62480552
v 0.53346453 -1.48788666 1.57197038
v 0.62105841 -1.52611372 1.67174269
v 0.53346453 -1.51069562 1.46992768
vn 0.52778905 -0.84899248 0.02550465
vn 0.39113182 -0.82486161 0.40819018
vn 0.59865690 0.79877391 0.05975071
vn 0.65223651 0.73188255 0.19732072
vn 0.97150153 -0.20841833 0.11290075
vn 0.82602696 0.56327176 0.02010951
vn 0.70508959 0.45039362 0.54771731
vn 0.65085729 -0.75911164 -0.01158869
vn 0.97766378 0.06278960 -0.20057665
vn 0.34799326 0.93445599 0.07544990
vn 0.75030854 0.66058520 -0.02577383
vn 0.49338804 0.86971486 0.01281857
vn 0.35258240 0.93556252 0.02020958
vn 0.27453967 0.93414915 0.22802049
vn 0.00810594 0.47599467 0.87941081
vn 0.81626299 0.57738018 -0.01862427
vn 0.92678066 0.35182171 -0.13152603
vn 0.23252206 0.97027381 0.06709863
vn 0.61048717 0.79171830 -0.02208041
vn 0.14073983 0.98286734 0.11901301
vn 0.02661898 0.99008607 0.13791666
vn 0.03339280 0.97668191 0.21207866
vn 0.09367024 0.87267801 0.47922749
vn 0.74335670 0.55861910 -0.36792054
vn 0.51204422 -0.83497840 -0.20154849
vn 0.75465261 0.09724930 -0.64887750
vn 0.10986122 0.99365558 0.02406447
vn 0.05961417 0.99640355 0.06021719
vn 0.50835704 0.84750638 -0.15266320
vn 0.38506777 0.92230515 -0.03280291
vn 0.19474866 0.91376617 -0.35651697
vn 0.10240651 0.98920406 0.10482474
vn -0.01318330 0.98927250 0.14548582
vn 0.00724330 0.99787682 0.06472544
vn -0.48549066 0.87228124 0.05851712
vn -0.05099509 0.97721065 0.20605544
vn -0.14492954 0.88722663 0.43797755
vn -0.13834362 -0.37864172 0.91514561
vn 0.47078715 0.03106163 -0.88169985
vn 0.24542434 -0.89608329 -0.36986703
vn -0.48725065 0.80667934 -0.33444768
vn -0.57643479 0.80160282 0.15860600
vn -0.33884164 0.89840951 0.27936840
vn -0.66124444 0.48118284 0.57551618
vn -0.77149493 -0.20133080 0.60354079
vn -0.35205203 -0.88999763 0.28976472
vn 0.00561735 -0.92468118 0.38070089
vn 0.00324316 -0.99855928 -0.05356159
vn -0.50732167 -0.78656724 -0.35204644
vn 0.02769534 -0.85137388 -0.52382773
vn 0.15597590 -0.40477356 -0.90101603
vn 0.18767208 -0.03865333 -0.98147089
vn -0.48984835 -0.86208798 0.12981877
vn -0.98175995 0.11737588 0.14956704
vn -0.98906581 0.03720488 0.14270467
vn -0.04063413 -0.99908628 -0.01324634
vn -0.98262824 -0.13053910 0.13191391
vn -0.69221043 -0.71959644 0.05500618
vn -0.07994944 -0.99675313 0.00955422
vn -0.55965087 -0.82872475 0.00248633
f 38//38 46//46 47//47
f 47//47 2//2 38//38
f 47//47 46//46 8//8
f 8//8 2//2 47//47
f 40//40 25//25 8//8
f 8//8 48//48 40//40
f 40//40 48//48 49//49
f 49//49 48//48 56//56
f 56//56 48//48 8//8
f 35//35 42//42 36//36
f 36//36 33//33 35//35
f 22//22 33//33 36//36
f 27//27 28//28 18//18
f 38//38 2//2 15//15
f 27//27 18//18 31//31
f 31//31 41//41 27//27
f 49//49 41//41 31//31
f 31//31 40//40 52//52
f 8//8 25//25 9//9
f 25//25 24//24 9//9
f 45//45 46//46 38//38
f 50//50 40//40 49//49
f 49//49 56//56 60//60
f 60//60 41//41 49//49
f 21//21 34//34 35//35
f 35//35 33//33 21//21
f 21//21 33//33 22//22
f 22//22 20//20 21//21
f 28//28 34//34 21//21
f 21//21 20//20 28//28
f 28//28 20//20 32//32
f 32//32 18//18 28//28
f 20//20 18//18 32//32
f 3//3 10//10 14//14
f 14//14 20//20 22//22
f 22//22 23//23 14//14
f 14//14 18//18 20//20
f 14//14 10//10 18//18
f 24//24 31//31 29//29
f 13//13 31//31 18//18
f 18//18 10//10 13//13
f 13//13 3//3 12//12
f 13//13 10//10 3//3
f 26//26 31//31 24//24
f 26//26 24//24 25//25
f 25//25 40//40 26//26
f 8//8 9//9 17//17
f 17//17 9//9 24//24
f 17//17 16//16 8//8
f 44//44 45//45 38//38
f 52//52 40//40 51//51
f 40//40 50//50 51//51
f 51//51 31//31 52//52
f 49//49 31//31 51//51
f 51//51 50//50 49//49
f 58//58 60//60 53//53
f 57//57 58//58 53//53
f 46//46 45//45 53//53
f 8//8 46//46 53//53
f 53//53 56//56 8//8
f 53//53 55//55 57//57
f 53//53 44//44 55//55
f 45//45 44//44 53//53
f 8//8 16//16 6//6
f 6//6 16//16 3//3
f 6//6 5//5 8//8
f 3//3 16//16 11//11
f 11//11 17//17 24//24
f 16//16 17//17 11//11
f 1//1 2//2 8//8
f 8//8 5//5 1//1
f 1//1 5//5 2//2
f 2//2 5//5 7//7
f 7//7 14//14 23//23
f 7//7 15//15 2//2
f 23//23 15//15 7//7
f 30//30 29//29 31//31
f 31//31 13//13 30//30
f 12//12 29//29 30//30
f 30//30 13//13 12//12
f 40//40 31//31 39//39
f 39//39 26//26 40//40
f 31//31 26//26 39//39
f 54//54 44//44 42//42
f 55//55 44//44 54//54
f 42//42 44//44 43//43
f 59//59 60//60 56//56
f 56//56 53//53 59//59
f 59//59 53//53 60//60
f 24//24 29//29 19//19
f 19//19 11//11 24//24
f 19//19 29//29 12//12
f 12//12 3//3 19//19
f 3//3 11//11 19//19
f 4//4 7//7 5//5
f 4//4 6//6 3//3
f 5//5 6//6 4//4
f 3//3 14//14 4//4
f 14//14 7//7 4//4
f 37//37 36//36 42//42
f 42//42 43//43 37//37
f 37//37 23//23 22//22
f 22//22 36//36 37//37
f 37//37 43//43 44//44
f 37//37 15//15 23//23
f 38//38 15//15 37//37
f 37//37 44//44 38//38
f 27//27 41//41 34//34
f 34//34 41//41 35//35
f 34//34 28//28 27//27
f 35//35 41//41 54//54
f 54//54 58//58 57//57
f 57//57 55//55 54//54
f 54//54 42//42 35//35
f 41//41 60//60 54//54
f 54//54 60//60 58//58