# https://github.com/mikedh/trimesh
v 0.45008663 0.83958680 -0.40588162
v 0.50640403 0.35700705 0.33904165
v 0.50495676 0.58372480 0.49797515
v 0.50639743 0.44979634 -0.44889281
v 0.50613235 0.99322115 -0.09881514
v -0.42583972 0.97550112 -0.17547731
v -0.42666781 0.95167433 -0.24111617
v -0.42563865 0.90754003 -0.32621821
v 0.10563370 0.68240245 -0.49397035
v -0.42759645 0.63347271 -0.50142678
v 0.13439810 0.54262427 -0.49189601
v -0.43502472 0.50211272 -0.47776678
v 0.51432635 0.37904802 -0.38737162
v 0.50615637 0.20712270 0.00054334
v 0.47118267 0.48371487 0.46777860
v 0.00011484 -0.00007692 0.20487931
v -0.42873032 0.70096230 0.48785427
v 0.45628370 0.71782560 0.48302892
v 0.46134234 0.89711263 0.34213230
v -0.42703694 0.77582145 0.45452050
v 0.39967725 0.00298334 -0.06986649
v 0.31867778 -0.00000039 -0.13308529
v 0.22825530 0.00001858 -0.17187540
v 0.11902828 0.00000002 -0.19648225
v 0.00000080 0.00000023 -0.20492107
v -0.11902673 0.00000042 -0.19648247
v -0.22825116 0.00000058 -0.17186149
v -0.31867672 0.00000069 -0.13308588
v -0.38285588 0.00000074 -0.08334927
v -0.46104996 0.49777748 0.47553330
v -0.43244760 0.58357460 0.49857324
v -0.42521307 0.84154670 0.40540905
v -0.47637377 0.96722054 0.20066630
v -0.42504028 0.99262865 0.09782090
v -0.48564695 0.78612113 0.42997729
v -0.48565010 0.51707927 0.45268349
v -0.48566384 0.37220612 0.35478109
v 0.41919800 -0.00000484 0.01587968
v 0.38285588 -0.00000075 0.08334927
v 0.22825116 -0.00000058 0.17186149
v 0.11902673 -0.00000043 0.19648247
v -0.31867778 0.00000039 0.13308529
v -0.38807806 0.00000239 0.07823672
v 0.31863591 0.00000722 0.13312000
v -0.11902828 -0.00000002 0.19648225
v -0.48567364 0.62023416 -0.47961015
v -0.48565008 0.28636732 -0.26565961
v -0.43371805 0.78724960 -0.44839408
v -0.48562452 0.85041035 -0.39525441
v -0.48529950 0.99494847 -0.07701964
v -0.41736540 -0.00505154 0.00282869
v -0.48264517 0.43795497 -0.43826563
v -0.48481734 0.21681682 0.03560181
v -0.22825252 0.00000019 0.17186105
v 0.50618325 0.84592351 0.39885480
v -0.43102142 0.93282052 0.28295296
v 0.50639801 0.97052518 0.19130916
v 0.45489423 0.92617202 -0.29419448
v 0.50638734 0.61015437 -0.47421157
v 0.50638454 0.79725796 -0.44004704
vn 0.42460604 0.49105796 -0.76063907
vn 0.98077518 -0.09082849 0.17271434
vn 0.88219757 -0.02625591 0.47014686
vn 0.88190094 -0.11146904 -0.45806701
vn 0.91897849 0.38426905 -0.08840716
vn -0.55344951 0.73647959 -0.38896203
vn -0.73558674 0.54317841 -0.40480781
vn -0.58244867 0.56322991 -0.58611058
vn 0.10481212 0.12036856 -0.98718075
vn -0.58389830 0.04780485 -0.81041808
vn 0.10708152 -0.11925520 -0.98707231
vn -0.62210758 -0.14754325 -0.76890386
vn 0.96864170 -0.11227417 -0.22164785
vn 0.99919017 -0.04022941 0.00076870
vn 0.78371041 -0.17740390 0.59525276
vn 0.00276117 -0.72915975 0.68433796
vn -0.73405500 0.08990670 0.67311221
vn 0.68802500 0.15280476 0.70941688
vn 0.58144417 0.54577111 0.60337101
vn -0.50282630 0.27547734 0.81931554
vn 0.93227142 -0.33908729 -0.12605480
vn 0.79097721 -0.53201628 -0.30218162
vn 0.62121708 -0.63179267 -0.46360258
vn 0.35161885 -0.70792643 -0.61253926
vn -0.00067907 -0.72933687 -0.68415442
vn -0.35215008 -0.69994949 -0.62133810
vn -0.63169370 -0.61299221 -0.47455623
vn -0.80250524 -0.50063431 -0.32457761
vn -0.91566491 -0.36295701 -0.17268464
vn -0.81325153 -0.13573457 0.56586047
vn -0.75305753 -0.01693050 0.65773681
vn -0.67289661 0.39274555 0.62686609
vn -0.91644457 0.34634736 0.20043170
vn -0.58488754 0.79476314 0.16204356
vn -0.96023011 0.10420052 0.25903744
vn -0.99208789 -0.01024316 0.12512672
vn -0.98195370 -0.08644052 0.16821106
vn 0.92666184 -0.37536082 0.02005229
vn 0.88374006 -0.43698203 0.16748196
vn 0.63107275 -0.62030365 0.46580099
vn 0.35866894 -0.70249204 0.61470442
vn -0.80880595 -0.48955980 0.32582839
vn -0.92186330 -0.34730140 0.17190056
vn 0.78951168 -0.52666517 0.31511126
vn -0.35992511 -0.69509261 0.62233446
vn -0.96597943 0.00101824 -0.25861692
vn -0.99496141 -0.05762920 -0.08204068
vn -0.64857404 0.22168418 -0.72815372
vn -0.90424591 0.21848817 -0.36688179
vn -0.92619105 0.37187106 -0.06230605
vn -0.92555087 -0.37861779 0.00203726
vn -0.91410559 -0.13091152 -0.38376184
vn -0.99955967 -0.02825265 0.00906933
vn -0.63880480 -0.60364763 0.47700940
vn 0.89958146 0.20189861 0.38728562
vn -0.70464798 0.48961650 0.51356295
vn 0.91696009 0.36092218 0.17005698
vn 0.79058307 0.44858665 -0.41683142
vn 0.90421318 0.00284600 -0.42707192
vn 0.89150097 0.14919798 -0.42774523
f 60//60 5//5 13//13
f 55//55 3//3 13//13
f 30//30 3//3 31//31
f 31//31 36//36 30//30
f 30//30 36//36 37//37
f 51//51 37//37 53//53
f 10//10 9//9 11//11
f 6//6 50//50 5//5
f 13//13 5//5 57//57
f 57//57 55//55 13//13
f 11//11 4//4 12//12
f 12//12 10//10 11//11
f 12//12 52//52 46//46
f 46//46 10//10 12//12
f 59//59 4//4 11//11
f 11//11 9//9 59//59
f 59//59 9//9 60//60
f 59//59 60//60 13//13
f 13//13 4//4 59//59
f 29//29 28//28 51//51
f 52//52 28//28 29//29
f 27//27 52//52 26//26
f 27//27 28//28 52//52
f 27//27 26//26 51//51
f 51//51 28//28 27//27
f 51//51 53//53 47//47
f 47//47 29//29 51//51
f 52//52 29//29 47//47
f 46//46 52//52 47//47
f 47//47 37//37 46//46
f 47//47 53//53 37//37
f 60//60 9//9 48//48
f 9//9 10//10 48//48
f 48//48 1//1 60//60
f 48//48 10//10 46//46
f 58//58 6//6 5//5
f 58//58 1//1 8//8
f 5//5 60//60 58//58
f 60//60 1//1 58//58
f 50//50 6//6 7//7
f 7//7 58//58 8//8
f 6//6 58//58 7//7
f 35//35 36//36 31//31
f 46//46 37//37 35//35
f 37//37 36//36 35//35
f 5//5 50//50 34//34
f 34//34 57//57 5//5
f 56//56 35//35 32//32
f 4//4 24//24 25//25
f 25//25 12//12 4//4
f 51//51 26//26 25//25
f 25//25 24//24 51//51
f 26//26 52//52 25//25
f 52//52 12//12 25//25
f 23//23 22//22 51//51
f 51//51 24//24 23//23
f 13//13 22//22 23//23
f 23//23 4//4 13//13
f 23//23 24//24 4//4
f 8//8 1//1 49//49
f 1//1 48//48 49//49
f 50//50 7//7 49//49
f 49//49 7//7 8//8
f 49//49 48//48 46//46
f 46//46 35//35 49//49
f 49//49 35//35 50//50
f 31//31 3//3 17//17
f 17//17 35//35 31//31
f 19//19 32//32 55//55
f 19//19 56//56 32//32
f 55//55 57//57 19//19
f 57//57 56//56 19//19
f 57//57 34//34 33//33
f 33//33 56//56 57//57
f 33//33 34//34 50//50
f 50//50 35//35 33//33
f 35//35 56//56 33//33
f 51//51 22//22 38//38
f 38//38 39//39 51//51
f 13//13 14//14 38//38
f 40//40 41//41 51//51
f 43//43 37//37 51//51
f 51//51 41//41 16//16
f 3//3 55//55 18//18
f 18//18 17//17 3//3
f 32//32 35//35 20//20
f 35//35 17//17 20//20
f 17//17 18//18 20//20
f 55//55 32//32 20//20
f 20//20 18//18 55//55
f 21//21 22//22 13//13
f 13//13 38//38 21//21
f 21//21 38//38 22//22
f 51//51 39//39 44//44
f 44//44 40//40 51//51
f 37//37 43//43 42//42
f 42//42 30//30 37//37
f 42//42 54//54 30//30
f 51//51 54//54 42//42
f 42//42 43//43 51//51
f 45//45 54//54 51//51
f 51//51 16//16 45//45
f 30//30 54//54 45//45
f 45//45 16//16 30//30
f 40//40 44//44 15//15
f 41//41 40//40 15//15
f 15//15 16//16 41//41
f 3//3 30//30 15//15
f 30//30 16//16 15//15
f 2//2 44//44 39//39
f 2//2 15//15 44//44
f 39//39 38//38 2//2
f 3//3 15//15 2//2
f 2//2 38//38 14//14
f 13//13 3//3 2//2
f 2//2 14//14 13//13