# https://github.com/mikedh/trimesh
v 0.93569551 0.27939647 -0.15132738
v 0.91574008 0.38916671 -0.13653326
v 0.90628540 0.43745333 -0.11012359
v 0.73368196 0.90277799 -0.86596239
v 0.91286864 0.27844465 -0.26689443
v 0.68383463 1.01525987 -0.85979715
v 0.68279738 1.01513015 -0.83870643
v 0.73653678 0.84267054 -0.05761980
v 0.72631453 0.93933102 -0.86027871
v 0.73696002 0.80295852 -0.87142441
v 0.68304278 1.01220603 -0.89434689
v 0.61310188 1.03063265 -0.89422522
v 0.25845490 1.22518694 -0.09019779
v 0.30018281 1.21121120 -0.08095027
v 0.34425783 1.19530766 -0.01562858
v 0.64938616 1.03274943 -0.70553866
v 0.64504235 0.98570534 -0.18163587
v 0.90046561 0.46355639 -0.05806819
v 0.65256228 0.37946133 -0.73649685
v 0.71774713 0.80217301 -0.89435278
v 0.45261295 1.03085239 -0.89434032
v -0.06430453 1.25161898 -0.15967023
v 0.15720707 1.26105821 -0.01350744
v 0.59902408 1.00955724 0.01088218
v 0.46511639 0.37946133 -0.73649685
v 0.05982436 1.27844462 -0.01954195
v 0.30899035 0.86693457 -0.89445879
v 0.51836117 0.80213484 -0.89434015
v 0.75534594 0.27940918 -0.27198138
v 0.70757155 0.27939902 -0.19231196
v 0.36998050 1.02574162 -0.89434082
v 0.44118652 1.11472286 0.09820670
v 0.83536448 0.54435352 0.09767580
v 0.91019415 0.27945358 0.08970142
v 0.46392196 0.37991285 -0.56669044
v 0.72085286 0.27939902 0.09861805
v -0.02413489 0.74806339 -0.65776565
v -0.03904742 0.76272992 -0.69962802
v 0.31402932 1.01060128 -0.89434082
v -0.02422106 1.03156486 -0.69285247
v -0.02422106 1.07572431 -0.60938011
v -0.02422106 1.11250758 -0.53334493
v -0.02422106 1.15094086 -0.44705919
v -0.02422110 1.20658677 -0.30730606
v -0.02422106 1.26682290 -0.04391125
v -0.02422091 1.26321314 0.09569564
v 0.19230161 1.24521501 0.09652543
v 0.81175888 0.67808028 -0.01514423
v -0.02422149 0.92055111 -0.71428523
v 0.29325956 0.95081623 -0.89434082
v -0.02422106 1.06184564 0.10028157
v -0.02421973 1.01418416 0.08551352
v -0.02412687 0.76437614 -0.58002289
v -0.02422106 1.01536511 -0.70704062
v 0.22542193 1.10380584 0.10508009
v 0.77510886 0.27939902 0.10370666
v 0.69109464 0.85571453 0.09916365
v 0.77993750 0.41858878 0.10554126
v -0.02422223 1.16669464 0.10439798
vn 0.69779515 -0.71629358 -0.00233207
vn 0.93160519 0.36346603 -0.00205333
vn 0.91049471 0.41352017 -0.00067934
vn 0.95565227 0.29320817 -0.02752639
vn 0.63429832 -0.77303141 -0.00938516
vn 0.42850916 0.90353607 -0.00157101
vn 0.51624019 0.85644250 0.00152153
vn 0.66267903 0.74889262 0.00404245
vn 0.81915048 0.57353350 -0.00719817
vn 0.95707796 -0.28782979 -0.03399685
vn 0.51655513 0.84247244 -0.15300652
vn 0.07385248 0.98550263 -0.15274286
vn 0.15991673 0.98712727 -0.00252792
vn 0.19852373 0.98009558 -0.00099134
vn 0.26983675 0.96290447 0.00176298
vn 0.36010539 0.93291065 0.00135592
vn 0.51927279 0.85460426 0.00270649
vn 0.89436933 0.44730895 0.00426713
vn 0.35414401 -0.93443853 -0.03750532
vn 0.71617985 -0.66843443 -0.20070334
vn -0.01376011 0.98527556 -0.17041928
vn -0.63120171 0.77560766 -0.00414362
vn 0.13509365 0.99083282 -0.00016173
vn 0.47232472 0.88140514 0.00585950
vn -0.19383338 -0.98037959 -0.03583969
vn 0.01402296 0.99990139 -0.00075378
vn -0.57193863 -0.79051347 -0.21903119
vn -0.07642144 -0.96945914 -0.23304237
vn -0.04304329 -0.99906828 -0.00313742
vn -0.11551678 -0.99330552 0.00014264
vn -0.07880796 0.98250979 -0.16871223
vn 0.36596196 0.92086949 0.13442923
vn 0.83994076 0.52152961 0.15002128
vn 0.72827327 -0.67967424 0.08752700
vn -0.29949005 -0.95409842 0.00138069
vn -0.27279515 -0.95903625 0.07636929
vn -0.50527982 -0.86295227 0.00238206
vn -0.80447449 -0.59315690 -0.03139563
vn -0.41423513 0.89354597 -0.17316138
vn -0.60688528 0.79465223 -0.01476758
vn -0.37287270 0.92779070 -0.01305256
vn -0.28896983 0.95725806 -0.01238733
vn -0.20487223 0.97872099 -0.01151470
vn -0.09224724 0.99568766 -0.00982532
vn -0.14619670 0.98925533 -0.00064790
vn -0.51683124 0.85169601 0.08659894
vn 0.14806570 0.98297769 0.10877228
vn 0.77020153 0.63775027 0.00801200
vn -0.99580333 0.06055839 -0.06861777
vn -0.95135637 0.15055222 -0.26880308
vn -0.84832161 -0.50679435 0.15332945
vn -0.77283139 -0.63375722 0.03291548
vn -0.63083465 -0.77589464 0.00592913
vn -0.74839612 0.66207141 -0.03955626
vn 0.15002996 0.74215742 0.65321770
vn 0.08360256 -0.98173835 0.17088132
vn 0.61154702 0.77524347 0.15813855
vn 0.71003901 0.00119853 0.70416133
vn -0.92631390 0.28094692 0.25102070
f 22//22 26//26 12//12
f 27//27 25//25 38//38
f 38//38 25//25 37//37
f 38//38 52//52 22//22
f 35//35 36//36 37//37
f 37//37 25//25 35//35
f 45//45 26//26 22//22
f 37//37 36//36 53//53
f 36//36 52//52 53//53
f 53//53 38//38 37//37
f 52//52 38//38 53//53
f 34//34 5//5 1//1
f 44//44 43//43 22//22
f 22//22 12//12 21//21
f 21//21 44//44 22//22
f 50//50 39//39 27//27
f 27//27 38//38 50//50
f 50//50 38//38 49//49
f 41//41 40//40 22//22
f 30//30 5//5 36//36
f 36//36 35//35 30//30
f 30//30 35//35 25//25
f 28//28 25//25 27//27
f 27//27 20//20 28//28
f 25//25 28//28 19//19
f 19//19 28//28 20//20
f 5//5 19//19 10//10
f 10//10 19//19 20//20
f 36//36 5//5 56//56
f 5//5 34//34 56//56
f 51//51 52//52 36//36
f 36//36 56//56 51//51
f 51//51 56//56 59//59
f 22//22 52//52 51//51
f 51//51 59//59 22//22
f 26//26 45//45 46//46
f 46//46 45//45 22//22
f 22//22 59//59 46//46
f 27//27 39//39 31//31
f 31//31 21//21 27//27
f 43//43 44//44 31//31
f 44//44 21//21 31//31
f 31//31 39//39 40//40
f 40//40 41//41 31//31
f 40//40 39//39 54//54
f 39//39 50//50 54//54
f 54//54 50//50 49//49
f 49//49 38//38 54//54
f 22//22 40//40 54//54
f 54//54 38//38 22//22
f 29//29 30//30 25//25
f 5//5 30//30 29//29
f 25//25 19//19 29//29
f 29//29 19//19 5//5
f 4//4 10//10 20//20
f 4//4 2//2 1//1
f 1//1 5//5 4//4
f 5//5 10//10 4//4
f 58//58 34//34 33//33
f 58//58 56//56 34//34
f 59//59 56//56 58//58
f 24//24 15//15 32//32
f 26//26 46//46 47//47
f 47//47 32//32 15//15
f 47//47 46//46 59//59
f 43//43 31//31 42//42
f 42//42 31//31 41//41
f 22//22 43//43 42//42
f 42//42 41//41 22//22
f 16//16 15//15 24//24
f 23//23 12//12 26//26
f 23//23 13//13 12//12
f 26//26 47//47 23//23
f 23//23 47//47 15//15
f 55//55 47//47 59//59
f 32//32 47//47 55//55
f 59//59 58//58 55//55
f 14//14 23//23 15//15
f 13//13 23//23 14//14
f 57//57 8//8 24//24
f 24//24 32//32 57//57
f 57//57 58//58 33//33
f 57//57 55//55 58//58
f 32//32 55//55 57//57
f 33//33 34//34 18//18
f 18//18 34//34 1//1
f 1//1 2//2 18//18
f 24//24 8//8 17//17
f 13//13 14//14 6//6
f 15//15 16//16 6//6
f 6//6 14//14 15//15
f 33//33 18//18 48//48
f 48//48 57//57 33//33
f 8//8 57//57 48//48
f 3//3 18//18 2//2
f 11//11 4//4 20//20
f 12//12 13//13 11//11
f 13//13 6//6 11//11
f 11//11 21//21 12//12
f 11//11 20//20 27//27
f 27//27 21//21 11//11
f 7//7 17//17 8//8
f 7//7 6//6 16//16
f 7//7 16//16 24//24
f 24//24 17//17 7//7
f 9//9 48//48 18//18
f 18//18 3//3 9//9
f 2//2 4//4 9//9
f 9//9 3//3 2//2
f 4//4 11//11 9//9
f 9//9 11//11 6//6
f 8//8 48//48 9//9
f 9//9 7//7 8//8
f 6//6 7//7 9//9