# https://github.com/mikedh/trimesh
v 0.33992667 0.50000623 -1.47763091
v 0.16303552 0.49922315 -1.47763091
v -0.25368828 0.45110104 -2.25811162
v 0.02187504 0.48786848 -1.47763091
v -0.25369142 0.45970185 -2.04853157
v 0.67784903 0.42051467 -2.14501653
v 0.62327144 0.42526486 -2.20054096
v -0.13060426 0.42265210 -2.33957416
v -0.25369142 0.44293893 -1.91424374
v -0.05286564 0.45801333 -1.47763091
v 0.54381775 0.48564765 -1.62092204
v 0.31804779 0.42381452 -2.26076847
v -0.09725975 0.40564452 -1.47763091
v -0.09070091 0.41797805 -1.47763091
v 0.72640518 0.35787627 -2.06813509
v 0.25299847 0.38224980 -2.35330396
v -0.25369142 0.31862411 -2.47763091
v -0.25369142 0.33998768 -1.88013950
v -0.25366741 -0.44195833 -1.87536487
v -0.09735758 -0.31009555 -1.47763091
v 0.74630860 0.45451894 -1.47763333
v 0.74412076 0.35785305 -1.98682412
v 0.72698017 -0.19682960 -2.06813509
v 0.67462021 -0.35786377 -2.14948603
v 0.46591410 0.35787627 -2.28732253
v 0.34237398 0.35787627 -2.32794912
v -0.01361090 0.09544478 -2.47763091
v -0.12280659 0.22167141 -2.47763091
v -0.25366740 -0.44321515 -2.30467671
v 0.74627720 -0.25026294 -1.82408222
v 0.74392772 -0.35786377 -1.98668625
v 0.55450634 0.33399216 -2.24263336
v 0.62097521 -0.35786377 -2.20107684
v 0.55362524 -0.35786377 -2.24170336
v 0.71451116 -0.40563198 -2.02741067
v 0.51739294 -0.40703296 -2.22232012
v -0.25359360 -0.31870949 -2.47763091
v -0.25304343 -0.45067593 -2.26044906
v -0.25359360 -0.46012983 -2.09079782
v -0.09735760 -0.40563195 -1.47763092
v -0.06407423 -0.45330230 -1.47763091
v 0.73984077 -0.40563198 -1.83425109
v 0.46513083 -0.35786377 -2.28732253
v 0.46591410 0.02389036 -2.28751840
v 0.73920119 -0.43761100 -1.47763241
v 0.64951067 -0.44062609 -2.02741067
v 0.00949171 0.00000625 -2.47763091
v 0.25231319 -0.38204157 -2.35310816
v 0.52437534 -0.49869007 -1.47763853
v 0.33982884 -0.49999378 -1.47763091
v 0.12309557 -0.49536866 -1.47763091
v 0.02177721 -0.48785593 -1.47763091
v 0.34139506 -0.35786377 -2.32794912
v -0.00357690 -0.07154817 -2.47763091
v 0.31403424 -0.43195098 -2.25715857
v 0.64243169 -0.48562576 -1.47763094
v -0.11169888 -0.40869704 -2.36355848
v -0.06834789 -0.16737519 -2.47763091
v 0.54202822 -0.46275439 -1.92785425
vn 0.27521903 0.54520365 0.79183803
vn -0.25741983 0.54087155 0.80074528
vn -0.93597589 0.29556538 -0.19128576
vn -0.76678330 0.31346185 0.56016519
vn -0.97363248 0.22734475 -0.01881914
vn 0.98244630 0.13970319 -0.12362151
vn 0.91691877 0.23675241 -0.32126044
vn -0.12287172 0.54930040 -0.82654196
vn -0.99532623 0.08325518 0.04893123
vn -0.87421100 0.11004939 0.47291041
vn 0.80728866 0.58405754 -0.08462750
vn 0.53351838 0.57025743 -0.62463157
vn -0.88434818 0.01665294 0.46653078
vn -0.87684788 0.04638926 0.47852463
vn 0.99671852 0.01306983 -0.07988345
vn 0.72181143 0.20247130 -0.66181087
vn -0.81171451 0.10828886 -0.57392776
vn -0.99910979 0.00214196 0.04213115
vn -0.99404938 -0.09717690 0.04921863
vn -0.87618079 0.00000576 0.48198260
vn 0.91514949 0.15671847 0.37140374
vn 0.99941606 0.02156999 -0.02650046
vn 0.99605473 -0.00076890 -0.08873769
vn 0.98450884 -0.04887879 -0.16838411
vn 0.88829065 0.03060922 -0.45826063
vn 0.83922115 0.02679861 -0.54312954
vn 0.59230030 0.01434598 -0.80558957
vn 0.47188563 0.03418334 -0.88099685
vn -0.91995207 -0.27688234 -0.27753261
vn 0.99999973 -0.00070325 0.00019599
vn 0.99897934 -0.01446106 -0.04279205
vn 0.93447215 0.00173572 -0.35603200
vn 0.96350562 -0.05312730 -0.26236314
vn 0.93385218 -0.04792832 -0.35443334
vn 0.99158906 -0.08405160 -0.09841983
vn 0.92179743 -0.20208003 -0.33083705
vn -0.80851420 -0.10165854 -0.57962948
vn -0.94642331 -0.30287011 -0.11203850
vn -0.96734175 -0.25132119 -0.03297861
vn -0.88410281 -0.02028160 0.46685209
vn -0.87801630 -0.10135382 0.46777643
vn 0.99832088 -0.05576853 -0.01566169
vn 0.89515541 -0.05974888 -0.44173166
vn 0.90933087 -0.00012347 -0.41607375
vn 0.92583016 -0.06938020 0.37151703
vn 0.94579335 -0.28275416 -0.15976556
vn 0.64372056 0.00034578 -0.76526056
vn 0.74516609 -0.18967241 -0.63933706
vn 0.41703800 -0.53168112 0.73715297
vn -0.02903376 -0.55645475 0.83037049
vn -0.30309671 -0.51763346 0.80011748
vn -0.76018054 -0.32013720 0.56536512
vn 0.83869240 -0.02739481 -0.54391597
vn 0.60507076 -0.01120581 -0.79609284
vn 0.71539498 -0.49868691 -0.48940923
vn 0.85214913 -0.26525690 0.45108828
vn 0.20570674 -0.45422175 -0.86681448
vn 0.50485522 -0.02882337 -0.86272268
vn 0.69004969 -0.69984678 -0.18451533
f 3//3 17//17 5//5
f 18//18 19//19 13//13
f 17//17 19//19 18//18
f 11//11 1//1 21//21
f 7//7 3//3 11//11
f 11//11 3//3 1//1
f 17//17 3//3 8//8
f 9//9 18//18 13//13
f 9//9 4//4 5//5
f 41//41 40//40 19//19
f 13//13 19//19 20//20
f 19//19 40//40 20//20
f 40//40 41//41 20//20
f 29//29 19//19 17//17
f 17//17 37//37 29//29
f 44//44 32//32 43//43
f 5//5 4//4 2//2
f 2//2 3//3 5//5
f 1//1 3//3 2//2
f 12//12 3//3 7//7
f 12//12 8//8 3//3
f 22//22 15//15 6//6
f 21//21 22//22 6//6
f 24//24 7//7 6//6
f 6//6 11//11 21//21
f 7//7 11//11 6//6
f 45//45 46//46 35//35
f 24//24 31//31 35//35
f 23//23 31//31 24//24
f 24//24 6//6 23//23
f 23//23 6//6 15//15
f 23//23 15//15 22//22
f 22//22 31//31 23//23
f 30//30 22//22 21//21
f 30//30 31//31 22//22
f 21//21 45//45 30//30
f 45//45 31//31 30//30
f 25//25 32//32 44//44
f 7//7 32//32 25//25
f 4//4 9//9 10//10
f 52//52 41//41 19//19
f 56//56 46//46 45//45
f 56//56 59//59 46//46
f 56//56 1//1 50//50
f 56//56 45//45 21//21
f 21//21 1//1 56//56
f 19//19 29//29 39//39
f 39//39 52//52 19//19
f 38//38 39//39 29//29
f 50//50 39//39 38//38
f 55//55 38//38 29//29
f 46//46 59//59 55//55
f 59//59 38//38 55//55
f 44//44 43//43 47//47
f 47//47 25//25 44//44
f 33//33 32//32 7//7
f 33//33 7//7 24//24
f 16//16 12//12 7//7
f 7//7 25//25 16//16
f 16//16 25//25 26//26
f 17//17 8//8 16//16
f 8//8 12//12 16//16
f 42//42 31//31 45//45
f 45//45 35//35 42//42
f 42//42 35//35 31//31
f 14//14 9//9 13//13
f 14//14 10//10 9//9
f 49//49 56//56 50//50
f 59//59 56//56 49//49
f 50//50 38//38 49//49
f 49//49 38//38 59//59
f 51//51 39//39 50//50
f 52//52 39//39 51//51
f 57//57 29//29 37//37
f 57//57 55//55 29//29
f 48//48 57//57 37//37
f 55//55 57//57 48//48
f 34//34 43//43 32//32
f 32//32 33//33 34//34
f 17//17 16//16 28//28
f 27//27 16//16 26//26
f 26//26 25//25 27//27
f 25//25 47//47 27//27
f 27//27 28//28 16//16
f 58//58 48//48 37//37
f 54//54 47//47 43//43
f 48//48 58//58 54//54
f 36//36 34//34 33//33
f 46//46 55//55 36//36
f 43//43 34//34 36//36
f 36//36 35//35 46//46
f 36//36 48//48 43//43
f 55//55 48//48 36//36
f 24//24 35//35 36//36
f 36//36 33//33 24//24
f 43//43 48//48 53//53
f 53//53 54//54 43//43
f 48//48 54//54 53//53
f 17//17 18//18 9//9
f 5//5 17//17 9//9
f 50//50 1//1 51//51
f 1//1 2//2 51//51
f 13//13 20//20 51//51
f 51//51 14//14 13//13
f 51//51 20//20 41//41
f 51//51 2//2 4//4
f 4//4 10//10 51//51
f 41//41 52//52 51//51
f 10//10 14//14 51//51
f 54//54 27//27 47//47
f 54//54 37//37 17//17
f 17//17 28//28 54//54
f 28//28 27//27 54//54
f 54//54 58//58 37//37