# https://github.com/mikedh/trimesh
v -0.01010884 1.60101566 10.27122993
v -0.13388868 1.58931399 10.81396138
v -0.01010884 1.13168640 10.27122993
v -0.01010887 1.27571277 11.15845427
v -0.75122236 0.60492219 11.12184150
v -0.65904791 0.60492219 10.27132787
v -0.01011128 1.60492220 10.45058000
v -0.16549412 1.58307320 10.42299200
v -0.22293190 1.56678851 10.67397093
v -0.38467741 1.49677440 10.81797504
v -0.35023434 1.50574561 10.86006988
v -0.20438938 1.54231285 10.92798470
v -0.04365292 1.57855710 10.89518962
v -0.66384258 0.60492219 10.27122993
v -0.79740741 0.60492219 11.22600197
v -0.22293190 1.56717867 10.27122993
v -0.31838427 1.52929484 10.67397093
v -0.70670074 1.22169069 10.67397093
v -0.70454800 1.21915539 10.82805813
v -0.11150556 1.51193758 11.11513580
v -0.01010884 1.52156698 11.09406389
v -0.01010884 1.44762792 11.23187600
v -0.15923175 1.35421063 11.27122994
v -0.01010922 1.35425567 11.26061091
v -0.70748351 1.13061379 11.08718679
v -0.36818975 1.43958309 11.03579167
v -0.35023434 1.42393229 11.11626175
v -0.34794709 1.51419262 10.27122993
v -0.39918149 1.48890630 10.27123557
v -0.68625014 1.24236340 10.27122993
v -0.72255235 1.20057921 10.41180755
v -0.79231306 1.09688044 10.57565966
v -0.76009606 1.12074667 10.89203874
v -0.27502462 1.47193296 11.09706200
v -0.16721873 1.44762792 11.19818769
v -1.00778421 0.61223563 10.27122993
v -0.22293190 1.35421063 11.26682453
v -0.73223948 0.88741684 11.26702041
v -0.66853932 0.88741684 11.27103406
v -0.86032471 0.60548289 11.26635955
v -0.73223948 0.98073658 11.22512098
v -0.66853932 1.07425132 11.19154314
v -0.28653419 1.35421063 11.23833674
v -0.70650503 1.22188577 10.27122993
v -1.01010878 0.60492219 10.27122993
v -0.98067984 0.70058228 10.54288924
v -0.96131728 0.76057646 10.27123648
v -0.66853932 0.98073658 11.25850341
v -0.82769184 0.74733965 11.24920312
v -0.79552377 0.99149954 11.06502572
v -0.77378890 1.12696921 10.27122993
v -0.86639138 0.95016632 10.84597289
v -0.96277336 0.72764205 10.85453886
v -0.86719866 0.78855102 11.14780828
v -0.91013018 0.78805127 11.01183195
v -0.85384215 0.99497343 10.27122993
v -0.88967960 0.93037118 10.54288924
v -0.99782798 0.60492219 10.81085309
v -0.95396685 0.64977807 11.06241931
v -0.94602882 0.60492219 11.12105833
vn 0.21088117 0.32690532 -0.92122855
vn -0.05721128 0.73383295 0.67691660
vn 0.29855096 -0.31199980 -0.90195535
vn 0.34413160 -0.26780880 0.89991771
vn 0.13541259 -0.66983882 0.73005437
vn 0.09188708 -0.41138053 -0.90682017
vn 0.51398334 0.85308089 0.08985607
vn -0.09080378 0.98669332 -0.13487388
vn -0.15297444 0.95783943 0.24319222
vn -0.21056090 0.67971685 0.70260167
vn -0.11562183 0.55146859 0.82614405
vn -0.06544995 0.45603263 0.88755312
vn 0.08975359 0.61641945 0.78228598
vn 0.00018161 -0.33569065 -0.94197227
vn 0.04826587 -0.42105432 0.90575033
vn -0.05024543 0.33690252 -0.94019790
vn -0.19220824 0.97180736 0.13655199
vn -0.46514357 0.87445115 0.13775573
vn -0.30387293 0.58768794 0.74985607
vn -0.02075549 0.29418276 0.95552379
vn 0.28517527 0.32787351 0.90065200
vn 0.21749749 0.12656407 0.96782043
vn -0.00012852 0.02866569 0.99958905
vn 0.22481884 -0.03160153 0.97388800
vn -0.13041222 0.23319871 0.96364465
vn -0.11799048 0.34826829 0.92993948
vn -0.07215746 0.22987676 0.97054107
vn -0.06967608 0.32224348 -0.94408918
vn -0.10322075 0.32633026 -0.93960313
vn -0.12656245 0.29566395 -0.94687104
vn -0.54473867 0.83860505 0.00116605
vn -0.58094450 0.77471459 0.24964133
vn -0.33469595 0.44429395 0.83101234
vn -0.05503710 0.28671651 0.95643325
vn -0.02217087 0.16060485 0.98676975
vn -0.00028389 0.00019425 -0.99999994
vn -0.01450742 0.06679489 0.99766125
vn -0.02529277 0.03211527 0.99916409
vn -0.00091762 0.00143250 0.99999855
vn -0.05141056 -0.27524787 0.95999769
vn -0.07659569 0.10730681 0.99127108
vn -0.05368923 0.12706214 0.99044065
vn -0.03330880 0.10682730 0.99371950
vn -0.15137577 0.27505233 -0.94943751
vn -0.29348482 -0.27355589 -0.91598790
vn -0.80108414 0.54579018 0.24571790
vn -0.21831846 0.17758936 -0.95958276
vn -0.02260337 0.05208300 0.99838692
vn -0.06968220 0.06136028 0.99568032
vn -0.18492188 0.21763294 0.95835265
vn -0.17214026 0.24281166 -0.95467808
vn -0.39652842 0.44068408 0.80533394
vn -0.49460523 0.37109203 0.78591117
vn -0.13916764 0.13250010 0.98136440
vn -0.23986558 0.22753385 0.94376525
vn -0.18647371 0.22133112 -0.95720431
vn -0.68327744 0.70807090 0.17823450
vn -0.53541294 -0.51681824 0.66800591
vn -0.24993199 0.12687907 0.95991442
vn -0.17097225 -0.30029420 0.93839857
f 4//4 5//5 3//3
f 3//3 5//5 6//6
f 7//7 1//1 8//8
f 3//3 6//6 14//14
f 16//16 8//8 1//1
f 16//16 1//1 3//3
f 3//3 14//14 36//36
f 36//36 14//14 45//45
f 3//3 30//30 28//28
f 28//28 16//16 3//3
f 28//28 30//30 29//29
f 3//3 36//36 56//56
f 22//22 4//4 3//3
f 7//7 8//8 2//2
f 2//2 13//13 7//7
f 3//3 56//56 51//51
f 50//50 25//25 33//33
f 15//15 40//40 60//60
f 5//5 4//4 15//15
f 54//54 59//59 60//60
f 4//4 22//22 24//24
f 24//24 15//15 4//4
f 40//40 15//15 24//24
f 40//40 24//24 23//23
f 23//23 24//24 22//22
f 13//13 2//2 20//20
f 10//10 28//28 29//29
f 44//44 30//30 3//3
f 3//3 51//51 44//44
f 30//30 44//44 18//18
f 29//29 30//30 18//18
f 18//18 10//10 29//29
f 47//47 56//56 36//36
f 47//47 36//36 45//45
f 59//59 53//53 58//58
f 60//60 59//59 58//58
f 45//45 14//14 58//58
f 50//50 33//33 52//52
f 26//26 25//25 27//27
f 41//41 25//25 50//50
f 50//50 54//54 41//41
f 21//21 20//20 22//22
f 13//13 20//20 21//21
f 7//7 13//13 21//21
f 21//21 1//1 7//7
f 3//3 1//1 21//21
f 21//21 22//22 3//3
f 12//12 20//20 2//2
f 16//16 28//28 17//17
f 28//28 10//10 17//17
f 31//31 44//44 51//51
f 51//51 18//18 31//31
f 31//31 18//18 44//44
f 10//10 18//18 19//19
f 19//19 25//25 26//26
f 26//26 10//10 19//19
f 19//19 33//33 25//25
f 19//19 52//52 33//33
f 46//46 47//47 45//45
f 45//45 58//58 46//46
f 46//46 58//58 53//53
f 53//53 52//52 57//57
f 57//57 46//46 53//53
f 47//47 46//46 57//57
f 56//56 47//47 57//57
f 50//50 52//52 55//55
f 55//55 54//54 50//50
f 59//59 54//54 55//55
f 55//55 53//53 59//59
f 55//55 52//52 53//53
f 22//22 20//20 35//35
f 42//42 27//27 25//25
f 25//25 41//41 42//42
f 43//43 35//35 27//27
f 27//27 42//42 43//43
f 43//43 42//42 41//41
f 2//2 10//10 11//11
f 11//11 12//12 2//2
f 11//11 10//10 26//26
f 26//26 27//27 11//11
f 16//16 17//17 9//9
f 8//8 16//16 9//9
f 9//9 2//2 8//8
f 9//9 10//10 2//2
f 9//9 17//17 10//10
f 52//52 19//19 32//32
f 32//32 57//57 52//52
f 32//32 19//19 18//18
f 32//32 18//18 51//51
f 32//32 51//51 56//56
f 56//56 57//57 32//32
f 34//34 35//35 20//20
f 27//27 35//35 34//34
f 20//20 12//12 34//34
f 34//34 11//11 27//27
f 12//12 11//11 34//34
f 40//40 23//23 39//39
f 39//39 38//38 40//40
f 23//23 38//38 39//39
f 40//40 38//38 49//49
f 49//49 38//38 41//41
f 49//49 41//41 54//54
f 60//60 40//40 49//49
f 49//49 54//54 60//60
f 41//41 38//38 48//48
f 48//48 43//43 41//41
f 43//43 48//48 37//37
f 35//35 43//43 37//37
f 37//37 38//38 23//23
f 37//37 48//48 38//38
f 37//37 23//23 22//22
f 22//22 35//35 37//37
f 58//58 14//14 6//6
f 58//58 6//6 5//5
f 5//5 15//15 58//58
f 58//58 15//15 60//60