# https://github.com/mikedh/trimesh
v -0.50259131 -0.36290015 -1.22864143
v -0.50131289 -0.42231390 -1.32823107
v -0.48325404 -0.73975795 -1.25377208
v -0.50809822 -0.70691818 -1.05360951
v -0.44449974 -0.20528203 -1.60759838
v -0.47768720 -0.17058148 -1.42669873
v -0.50101312 -0.71511112 -0.89937354
v -0.48901036 0.01319736 -1.09892145
v -0.49118410 -0.01917542 -1.27835089
v -0.42160988 -0.77693889 -1.28193640
v 0.21568350 0.12462159 -0.75773736
v -0.21195308 -0.69508920 -1.74807843
v -0.26641901 -0.69884103 -1.74367079
v -0.32027532 -0.69551502 -1.71941742
v -0.43931074 0.01574940 -1.51887346
v -0.40154891 0.07091057 -1.53382533
v -0.31289796 0.10639416 -1.53336815
v -0.45013008 -0.65535450 -1.60775448
v -0.40833423 -0.74827073 -1.58143715
v -0.49556741 -0.74415144 -0.90024626
v 0.30589528 -0.20609286 -0.76101153
v 0.00831193 0.14349750 -1.11991724
v -0.25792218 0.13832933 -1.15877949
v -0.45196262 0.05343600 -1.09928570
v 0.01088101 -0.69508920 -1.75773739
v -0.28142895 -0.83107358 -1.08678166
v 0.48457558 -0.20609286 -0.76101153
v -0.46730331 0.02935639 -1.34787217
v 0.45104228 -0.20628837 -1.53899622
v 0.41377214 -0.67553716 -1.53899622
v -0.00222085 0.13211253 -1.53351797
v 0.39607129 0.07936683 -1.50553139
v 0.44525779 0.05123189 -1.50550398
v 0.46871855 0.01758240 -1.50553139
v -0.24901169 -0.74630429 -1.64610151
v -0.29549662 -0.81469480 -0.90251061
v 0.00409410 -0.85650249 -0.89833972
v 0.45675039 -0.75043880 -0.89656642
v 0.47385671 -0.67416853 -1.06414654
v 0.48780732 -0.03825364 -0.76101187
v 0.47474178 -0.01819782 -1.50553139
v 0.46962820 -0.18790947 -1.50553139
v 0.43176802 -0.70672266 -1.49255524
v 0.37507610 -0.78199798 -1.24439822
v 0.16610768 -0.84026304 -1.09536740
v 0.34096509 0.09641375 -1.50553139
v -0.00293503 -0.85165965 -1.09924896
v -0.15725253 -0.84742398 -1.08941594
v 0.41140128 -0.77198825 -1.01910650
v 0.49190175 -0.03540360 -1.02477900
v 0.45064893 -0.70672266 -1.42816223
v 0.37260441 -0.75234551 -1.54065178
v 0.16260132 0.13098572 -1.33124341
v 0.47020417 0.03591226 -0.76152029
v 0.20389073 -0.83477204 -0.89751463
v 0.48833393 -0.01820393 -1.30760519
v 0.46910380 -0.73087880 -1.31302100
v 0.48023640 -0.45082931 -1.22034839
v 0.29044159 0.11259764 -1.06154735
v 0.42772798 0.07921379 -0.76286160
vn -0.99994134 0.00237697 -0.01056718
vn -0.94842080 0.00049289 -0.31701379
vn -0.93029154 -0.07034777 -0.36001229
vn -0.99552342 -0.01298035 -0.09361962
vn -0.38074635 0.00600544 -0.92466002
vn -0.87732820 0.00493420 -0.47986548
vn -0.49331691 -0.00467508 0.86983709
vn -0.64581023 0.02989760 0.76291237
vn -0.95712751 0.01127534 -0.28944739
vn -0.85177119 -0.19279269 -0.48715173
vn 0.12255620 0.15305814 0.98058818
vn -0.01779630 -0.00314625 -0.99983668
vn -0.07818485 -0.02574988 -0.99660628
vn -0.20996259 -0.01791266 -0.97754532
vn -0.56686334 0.01805325 -0.82361401
vn -0.46856730 0.07202566 -0.88048679
vn -0.33478417 0.11764051 -0.93492260
vn -0.57651782 -0.00822986 -0.81704313
vn -0.43300958 -0.09350502 -0.89652636
vn -0.54238958 -0.06016743 0.83796982
vn -0.01886687 -0.00237612 0.99981918
vn 0.10971045 0.85941734 0.49936505
vn -0.64788381 0.32806355 0.68747427
vn -0.62802094 0.08349560 0.77370419
vn 0.06022709 -0.02736687 -0.99780948
vn -0.87702785 -0.39463262 -0.27402052
vn 0.47524517 -0.00376120 0.87984538
vn -0.93505137 0.05860284 -0.34963500
vn 0.29774533 0.00015138 -0.95464532
vn 0.34855469 -0.00488584 -0.93727571
vn 0.02420060 0.14931314 -0.98849376
vn 0.44255051 0.09388001 -0.89181589
vn 0.50923987 0.05258463 -0.85901666
vn 0.53494292 0.02424161 -0.84454036
vn -0.04821834 -0.09573630 -0.99423818
vn -0.29687269 -0.10106833 0.94955347
vn 0.01860089 -0.20935360 0.97766307
vn 0.54091613 -0.06170508 0.83881001
vn 0.99543903 -0.00620705 0.09519771
vn 0.48503838 0.00437420 0.87448192
vn 0.56868051 0.00461525 -0.82254555
vn 0.74660718 -0.00215633 -0.66526166
vn 0.56439327 -0.02332162 -0.82517655
vn 0.81947349 -0.22504025 -0.52708641
vn 0.50186412 -0.32806996 -0.80031400
vn 0.35447417 0.13268752 -0.92560363
vn 0.05381637 -0.29569685 -0.95376473
vn -0.48297071 -0.46227882 -0.74366497
vn 0.97437603 -0.21544667 0.06460717
vn 0.99987716 0.00953960 0.01243650
vn 0.78426284 -0.01793147 -0.62016954
vn 0.34881970 -0.09054035 -0.93280612
vn 0.60180056 0.48861994 -0.63173304
vn 0.50985353 0.02896844 0.85977335
vn 0.34994795 -0.15213686 0.92433263
vn 0.99445288 0.01597783 -0.10396236
vn 0.91742845 -0.07211499 -0.39131121
vn 0.99799321 -0.00239850 -0.06327565
vn 0.91566901 0.39922314 -0.04659556
vn 0.49533211 0.09781289 0.86317944
f 25//25 30//30 52//52
f 60//60 59//59 11//11
f 2//2 3//3 4//4
f 18//18 3//3 2//2
f 23//23 11//11 22//22
f 59//59 60//60 46//46
f 29//29 30//30 25//25
f 11//11 27//27 40//40
f 40//40 27//27 50//50
f 21//21 27//27 11//11
f 11//11 7//7 21//21
f 37//37 21//21 36//36
f 27//27 21//21 37//37
f 25//25 13//13 12//12
f 48//48 37//37 26//26
f 26//26 37//37 36//36
f 19//19 3//3 18//18
f 48//48 26//26 19//19
f 1//1 2//2 4//4
f 9//9 2//2 1//1
f 16//16 15//15 28//28
f 28//28 15//15 9//9
f 18//18 2//2 5//5
f 5//5 15//15 16//16
f 5//5 12//12 13//13
f 17//17 5//5 16//16
f 16//16 23//23 17//17
f 25//25 12//12 17//17
f 12//12 5//5 17//17
f 32//32 33//33 25//25
f 32//32 60//60 33//33
f 32//32 46//46 60//60
f 25//25 33//33 34//34
f 34//34 29//29 25//25
f 57//57 38//38 49//49
f 44//44 45//45 52//52
f 44//44 57//57 49//49
f 52//52 57//57 44//44
f 52//52 45//45 47//47
f 47//47 37//37 48//48
f 45//45 37//37 47//47
f 54//54 60//60 11//11
f 11//11 40//40 54//54
f 54//54 40//40 50//50
f 33//33 60//60 54//54
f 54//54 34//34 33//33
f 55//55 38//38 27//27
f 27//27 37//37 55//55
f 55//55 37//37 45//45
f 49//49 38//38 55//55
f 55//55 44//44 49//49
f 45//45 44//44 55//55
f 20//20 7//7 4//4
f 4//4 3//3 20//20
f 20//20 26//26 36//36
f 36//36 21//21 20//20
f 20//20 21//21 7//7
f 3//3 19//19 10//10
f 10//10 19//19 26//26
f 10//10 20//20 3//3
f 26//26 20//20 10//10
f 35//35 13//13 25//25
f 35//35 19//19 13//13
f 25//25 52//52 35//35
f 52//52 47//47 35//35
f 48//48 19//19 35//35
f 35//35 47//47 48//48
f 24//24 23//23 16//16
f 16//16 28//28 24//24
f 11//11 23//23 24//24
f 18//18 5//5 14//14
f 14//14 5//5 13//13
f 14//14 19//19 18//18
f 13//13 19//19 14//14
f 9//9 15//15 6//6
f 15//15 5//5 6//6
f 6//6 2//2 9//9
f 6//6 5//5 2//2
f 59//59 46//46 53//53
f 22//22 11//11 53//53
f 11//11 59//59 53//53
f 56//56 54//54 50//50
f 34//34 54//54 56//56
f 50//50 27//27 39//39
f 27//27 38//38 39//39
f 38//38 57//57 39//39
f 8//8 28//28 9//9
f 8//8 24//24 28//28
f 4//4 7//7 8//8
f 8//8 7//7 11//11
f 11//11 24//24 8//8
f 8//8 1//1 4//4
f 9//9 1//1 8//8
f 31//31 53//53 46//46
f 25//25 17//17 31//31
f 31//31 17//17 23//23
f 31//31 32//32 25//25
f 46//46 32//32 31//31
f 31//31 23//23 22//22
f 22//22 53//53 31//31
f 30//30 29//29 42//42
f 57//57 51//51 42//42
f 58//58 56//56 50//50
f 57//57 56//56 58//58
f 50//50 39//39 58//58
f 58//58 39//39 57//57
f 30//30 42//42 43//43
f 43//43 42//42 51//51
f 43//43 52//52 30//30
f 43//43 57//57 52//52
f 43//43 51//51 57//57
f 41//41 56//56 57//57
f 57//57 42//42 41//41
f 34//34 56//56 41//41
f 29//29 34//34 41//41
f 41//41 42//42 29//29