# https://github.com/mikedh/trimesh
v 0.00420451 0.93243504 -0.91236417
v 0.22038860 0.61295521 -0.91236417
v -0.50309052 0.20251858 -0.90737293
v -0.48606837 0.32523024 -0.90737293
v -0.29237546 0.85654221 -0.90734847
v 0.22036128 0.97722409 -0.91237302
v -0.35548357 0.20251858 -0.90737293
v -0.49635000 0.05686688 -0.62933218
v 0.35241425 0.74125440 -0.62933218
v 0.41919637 0.56269292 -0.62933218
v 0.47159392 0.32029573 -0.62933218
v -0.10476670 0.05686688 -0.01276868
v -0.26843541 0.05652457 -0.62427910
v -0.23386478 0.94234332 -0.77991618
v -0.07836952 1.05328197 -0.77187119
v 0.16167490 0.99695330 -0.69418450
v 0.27895269 0.82189022 -0.44769062
v 0.40638701 0.10257130 0.00856634
v -0.48217188 0.20597158 -0.60930381
v 0.49690944 0.10327810 -0.62870599
v 0.06454227 1.05652454 -0.91109190
v 0.36027814 0.10257130 0.07599689
v -0.43428976 0.53137772 -0.71933561
v -0.22031437 0.88275009 -0.40884996
v 0.45659437 0.10289956 -0.28831620
v 0.35790921 0.26035244 0.05798931
v 0.30186058 0.35038033 0.08588141
v 0.30186058 0.16490030 0.08162422
v -0.13531872 0.05686688 0.03604257
v -0.46049846 0.08037205 -0.30803410
v -0.09954651 0.98671533 -0.44910970
v 0.03736509 1.04977404 -0.68038293
v 0.43665814 0.31918134 -0.33282051
v 0.39256413 0.21866590 0.02532608
v 0.28779347 0.53601096 0.05392779
v 0.18541620 0.59658214 0.08617506
v -0.02029081 0.71985859 0.08700688
v -0.35024735 0.72875080 -0.58036111
v 0.26901291 0.68600720 -0.04831898
v 0.33492805 0.48714229 0.02265922
v 0.36677900 0.58369390 -0.32575036
v 0.15647606 0.75412446 0.04739516
v 0.06877644 0.76860180 0.06782492
v -0.08978379 0.76577660 0.06309061
v -0.38767498 0.05672268 0.08762698
v -0.22287182 0.47348123 0.08593039
v -0.25203175 0.53510701 0.07883499
v -0.41830324 0.17674707 -0.08047447
v -0.43745320 0.34242283 -0.35285729
v -0.38080928 0.55660943 -0.32172940
v 0.16573202 0.93329501 -0.39965617
v 0.20100358 0.81244175 -0.13333195
v -0.23296117 0.68569641 0.02415781
v -0.35682681 0.34412733 0.04450809
v -0.08308603 0.88293531 -0.08971681
v 0.07345327 0.90356510 -0.14181428
v -0.37774432 0.41813976 -0.08270708
v -0.27233144 0.74014400 -0.19463582
v -0.31329451 0.57750913 -0.01672011
vn -0.00595462 0.01998531 -0.99978254
vn 0.19942996 -0.27046693 -0.94184677
vn -0.50970009 -0.57059842 -0.64391246
vn -0.52678575 0.48293412 -0.69947939
vn -0.27235822 0.76965125 -0.57745818
vn 0.26401387 0.78819173 -0.55592308
vn 0.01181220 -0.73441363 -0.67859936
vn -0.46437997 -0.88437369 -0.04726969
vn 0.43696319 0.89930104 0.01791085
vn 0.63427543 0.76342348 -0.12198064
vn 0.79189485 0.53144136 -0.30078669
vn 0.01197646 -0.99989634 0.00799224
vn 0.00692155 -0.99332149 -0.11517163
vn -0.22528658 0.97411252 -0.01872823
vn -0.09267854 0.99428908 -0.05291420
vn 0.15695798 0.98514873 0.06961446
vn 0.31540910 0.94101742 0.12248800
vn 0.47803611 -0.81389013 0.33024890
vn -0.86592932 0.47608174 0.15333812
vn 0.52924644 -0.78214107 -0.32886707
vn 0.02817183 0.85837887 -0.51224219
vn 0.21401316 -0.75103620 0.62461428
vn -0.60638911 0.79478997 0.02451831
vn -0.23886156 0.96324327 0.12291283
vn 0.52794858 -0.83588019 0.15024847
vn 0.40675345 0.35321833 0.84248943
vn 0.18661009 0.21385498 0.95887576
vn 0.01721619 -0.09499222 0.99532913
vn 0.00972594 -0.99746727 0.07045887
vn -0.80592481 -0.54700156 0.22643871
vn -0.08971976 0.98974471 0.11115657
vn 0.03719959 0.99689940 0.06933806
vn 0.75525571 0.61736242 0.22011918
vn 0.68075163 0.41448154 0.60397207
vn 0.29797442 0.65941122 0.69020873
vn 0.10758031 0.33550654 0.93587491
vn -0.01280347 0.41942865 0.90769801
vn -0.41913855 0.90378368 0.08659063
vn 0.34433700 0.89599244 0.28040967
vn 0.49714608 0.70367394 0.50763054
vn 0.53504435 0.82450670 0.18416364
vn 0.16375237 0.84552682 0.50820228
vn 0.04955515 0.79846534 0.59999783
vn -0.09443573 0.80635928 0.58383783
vn -0.35144264 -0.70973107 0.61054884
vn -0.03429160 0.08939484 0.99540577
vn -0.22173876 0.47859839 0.84957372
vn -0.86377598 0.35684937 0.35573809
vn -0.77185314 0.60385156 0.19901261
vn -0.54592458 0.81962871 0.17370990
vn 0.16095247 0.98024435 0.11495787
vn 0.21523099 0.95863081 0.18628631
vn -0.25354907 0.85868740 0.44538614
vn -0.51871451 0.56523254 0.64144168
vn -0.08777913 0.97089108 0.22285723
vn 0.06524592 0.97973580 0.18936930
vn -0.65563479 0.69325853 0.29922505
vn -0.31549311 0.93264931 0.17501246
vn -0.43570022 0.81290456 0.38646020
f 3//3 2//2 7//7
f 7//7 2//2 20//20
f 7//7 8//8 3//3
f 1//1 2//2 3//3
f 45//45 8//8 13//13
f 13//13 7//7 20//20
f 8//8 7//7 13//13
f 21//21 1//1 5//5
f 6//6 1//1 21//21
f 2//2 1//1 6//6
f 20//20 2//2 6//6
f 6//6 11//11 20//20
f 12//12 13//13 20//20
f 45//45 13//13 12//12
f 4//4 1//1 3//3
f 4//4 5//5 1//1
f 3//3 8//8 19//19
f 19//19 4//4 3//3
f 49//49 4//4 19//19
f 30//30 8//8 45//45
f 30//30 19//19 8//8
f 49//49 19//19 30//30
f 5//5 38//38 14//14
f 51//51 32//32 56//56
f 10//10 6//6 9//9
f 11//11 6//6 10//10
f 29//29 22//22 45//45
f 45//45 12//12 29//29
f 29//29 18//18 22//22
f 12//12 18//18 29//29
f 45//45 22//22 28//28
f 42//42 36//36 35//35
f 35//35 39//39 42//42
f 40//40 39//39 35//35
f 23//23 4//4 49//49
f 5//5 4//4 23//23
f 23//23 38//38 5//5
f 48//48 30//30 45//45
f 49//49 30//30 48//48
f 53//53 55//55 58//58
f 58//58 59//59 53//53
f 58//58 55//55 24//24
f 24//24 38//38 58//58
f 24//24 14//14 38//38
f 16//16 32//32 51//51
f 16//16 6//6 21//21
f 21//21 32//32 16//16
f 41//41 10//10 9//9
f 9//9 39//39 41//41
f 41//41 39//39 40//40
f 11//11 10//10 33//33
f 33//33 41//41 40//40
f 10//10 41//41 33//33
f 20//20 11//11 33//33
f 25//25 12//12 20//20
f 25//25 18//18 12//12
f 20//20 33//33 25//25
f 22//22 18//18 34//34
f 34//34 33//33 40//40
f 18//18 25//25 34//34
f 34//34 25//25 33//33
f 17//17 39//39 9//9
f 9//9 6//6 17//17
f 17//17 16//16 51//51
f 6//6 16//16 17//17
f 38//38 23//23 50//50
f 58//58 38//38 50//50
f 50//50 59//59 58//58
f 50//50 23//23 49//49
f 49//49 48//48 57//57
f 57//57 50//50 49//49
f 59//59 50//50 57//57
f 55//55 53//53 44//44
f 31//31 24//24 55//55
f 55//55 56//56 31//31
f 31//31 56//56 32//32
f 14//14 24//24 31//31
f 40//40 35//35 26//26
f 26//26 34//34 40//40
f 22//22 34//34 26//26
f 52//52 17//17 51//51
f 39//39 17//17 52//52
f 42//42 39//39 52//52
f 52//52 56//56 42//42
f 51//51 56//56 52//52
f 54//54 48//48 45//45
f 54//54 57//57 48//48
f 59//59 57//57 54//54
f 55//55 44//44 43//43
f 42//42 56//56 43//43
f 43//43 56//56 55//55
f 43//43 36//36 42//42
f 14//14 31//31 15//15
f 15//15 31//31 32//32
f 15//15 32//32 21//21
f 21//21 5//5 15//15
f 5//5 14//14 15//15
f 22//22 26//26 27//27
f 27//27 26//26 35//35
f 27//27 35//35 36//36
f 27//27 28//28 22//22
f 45//45 28//28 27//27
f 47//47 54//54 45//45
f 45//45 46//46 47//47
f 47//47 53//53 59//59
f 59//59 54//54 47//47
f 47//47 44//44 53//53
f 37//37 43//43 44//44
f 44//44 47//47 37//37
f 37//37 47//47 46//46
f 36//36 43//43 37//37
f 37//37 46//46 45//45
f 45//45 27//27 37//37
f 37//37 27//27 36//36