# https://github.com/mikedh/trimesh
v 0.95388837 0.01580069 1.63564914
v 0.93191309 -0.18049090 1.54712226
v 0.94094300 0.31014004 1.54712226
v 0.92715334 0.21923428 1.72192614
v 0.91649605 -0.17391350 1.67651334
v 0.89479605 -0.12964164 1.24180544
v 0.88527059 0.01580069 1.13393165
v 0.95026665 0.53929422 1.63716537
v 0.88722827 0.43714805 1.77289027
v 0.88678775 -0.02852318 1.77259674
v 0.89432494 -0.22339130 1.33465777
v 0.71179264 -0.02224020 1.90996013
v 0.88224724 0.53944177 1.13398569
v 0.00361434 0.53944146 1.63868160
v 0.52984767 0.48142288 2.10843640
v 0.59895499 0.48142288 2.05823040
v 0.59993383 0.40828600 2.05979554
v 0.58326879 0.22431460 2.06497992
v 0.86021182 -0.32740276 1.45199255
v 0.82497298 -0.23374821 1.13393165
v 0.51790561 0.06076278 2.04874182
v 0.80936019 -0.27920118 1.70363389
v 0.01015027 0.53947821 1.13394010
v -0.04611158 0.43714805 1.86396048
v -0.04611158 0.05016043 1.86396048
v 0.52370538 0.37557070 2.11543057
v 0.48834416 0.21057072 2.12396535
v 0.85505448 -0.33094924 1.59167917
v 0.56809040 -0.39106018 1.63519064
v 0.73266681 -0.38355616 1.45849761
v 0.75882061 -0.31509470 1.22180441
v 0.73237315 -0.29598826 1.13393165
v 0.46113191 -0.09891121 1.93209183
v 0.62206824 -0.33125598 1.69841273
v -0.04611158 0.43714805 1.63877944
v -0.04611158 -0.00029912 1.63877944
v 0.01271772 0.04152133 2.06527340
v 0.01271772 0.15657704 2.11271598
v 0.00361434 -0.45777310 1.52931905
v 0.01286137 0.48135787 2.13393164
v 0.09347340 0.20310989 2.12528581
v 0.60584215 -0.41478055 1.55922744
v 0.63438960 -0.33290045 1.19252575
v 0.30858325 0.09167422 2.08318058
v 0.30141314 -0.05929037 1.98243849
v 0.00361434 -0.37678248 1.38102437
v 0.00765016 0.18326257 1.13393375
v 0.00361434 -0.44589452 1.41017466
v 0.00361434 -0.46052182 1.47874630
v 0.33955796 -0.35263253 1.71762214
v 0.17197769 -0.45011575 1.60131436
v 0.24108498 -0.45796937 1.57671271
v 0.54503221 -0.41090900 1.43633837
v 0.58116729 -0.32584129 1.13393165
v 0.02837941 0.15515363 1.13393165
v 0.22375917 -0.30060228 1.13393165
v 0.25787236 -0.34315917 1.13393165
v 0.33955796 -0.36186058 1.13393165
v 0.20983498 -0.44785174 1.43738077
vn 0.98780432 -0.10204449 0.11759910
vn 0.90973238 -0.41509412 -0.00915796
vn 0.99425571 0.01307099 -0.10622964
vn 0.92102980 -0.00073184 0.38949142
vn 0.77723417 -0.53392616 0.33291125
vn 0.93864036 -0.28800530 -0.18975570
vn 0.70740357 -0.08620457 -0.70153330
vn 0.62776538 0.77102056 0.10694820
vn 0.79126019 0.32715704 0.51660003
vn 0.77259845 -0.32266792 0.54678793
vn 0.82339821 -0.54918982 -0.14284934
vn 0.49187090 -0.59441681 0.63618526
vn 0.48917792 0.71349049 -0.50163361
vn -0.37034437 0.92874531 0.01664923
vn 0.25435537 0.76770140 0.58816486
vn 0.49812689 0.71666901 0.48811385
vn 0.72186659 -0.00061006 0.69203197
vn 0.65592345 -0.23675423 0.71673695
vn 0.50732486 -0.85962376 -0.06056796
vn 0.48970863 -0.59240906 -0.63971631
vn 0.23642897 -0.74578895 0.62281633
vn 0.33470621 -0.84430831 0.41846771
vn -0.49728755 0.71299666 -0.49430846
vn -0.89727007 0.43513233 0.07460745
vn -0.97142432 -0.20023942 0.12743222
vn 0.40042802 0.02926758 0.91586069
vn 0.27856346 -0.36621085 0.88785810
vn 0.44985943 -0.88191139 0.14092127
vn 0.09661528 -0.96065284 0.26040661
vn 0.16910454 -0.98437141 -0.04915867
vn 0.24463322 -0.95922394 -0.14157691
vn 0.17199975 -0.76913188 -0.61550974
vn 0.09313455 -0.87325917 0.47827229
vn 0.11116374 -0.91429803 0.38948907
vn -0.93639330 0.34998070 -0.02609762
vn -0.99542870 -0.09058408 -0.03026914
vn -0.51382581 -0.68262776 0.51961754
vn -0.61266362 -0.36964053 0.69857653
vn -0.52907039 -0.83836355 0.13126720
vn -0.47907108 0.68015447 0.55487007
vn -0.03096083 -0.30200673 0.95280290
vn 0.11273724 -0.99075101 0.07551656
vn 0.10261805 -0.98691414 -0.12437855
vn 0.03528255 -0.74000346 0.67167702
vn 0.02866710 -0.86496347 0.50101537
vn -0.96660045 -0.17242185 -0.18961614
vn -0.71035409 -0.10569543 -0.69586316
vn -0.56725645 -0.79706581 -0.20713817
vn -0.52566503 -0.84994941 -0.03552855
vn 0.01990985 -0.91962168 0.39230035
vn -0.05952097 -0.96249011 0.26470745
vn 0.04346516 -0.99361697 0.10409655
vn 0.07783387 -0.99369818 -0.08065867
vn 0.07209957 -0.77487255 -0.62799219
vn -0.00014579 -0.00008553 -0.99999999
vn -0.37661430 -0.41374117 -0.82884251
vn -0.19349287 -0.68904183 -0.69841382
vn 0.01351329 -0.78937899 -0.61375745
vn 0.03636432 -0.99608718 -0.08054793
f 40//40 14//14 24//24
f 8//8 14//14 40//40
f 23//23 14//14 13//13
f 13//13 14//14 8//8
f 24//24 14//14 35//35
f 35//35 14//14 23//23
f 47//47 35//35 23//23
f 36//36 35//35 47//47
f 25//25 40//40 24//24
f 23//23 13//13 7//7
f 7//7 6//6 20//20
f 1//1 6//6 7//7
f 3//3 8//8 1//1
f 3//3 13//13 8//8
f 1//1 7//7 3//3
f 3//3 7//7 13//13
f 49//49 36//36 48//48
f 48//48 59//59 49//49
f 27//27 26//26 40//40
f 40//40 41//41 27//27
f 49//49 59//59 52//52
f 44//44 37//37 45//45
f 37//37 50//50 45//45
f 53//53 52//52 59//59
f 58//58 48//48 57//57
f 59//59 48//48 58//58
f 58//58 53//53 59//59
f 54//54 53//53 58//58
f 38//38 41//41 40//40
f 38//38 25//25 37//37
f 40//40 25//25 38//38
f 38//38 37//37 44//44
f 44//44 27//27 38//38
f 38//38 27//27 41//41
f 1//1 8//8 4//4
f 8//8 9//9 4//4
f 16//16 9//9 8//8
f 55//55 47//47 23//23
f 23//23 7//7 55//55
f 36//36 47//47 46//46
f 46//46 48//48 36//36
f 47//47 48//48 46//46
f 10//10 5//5 1//1
f 1//1 4//4 10//10
f 10//10 4//4 9//9
f 2//2 6//6 1//1
f 1//1 5//5 2//2
f 49//49 52//52 39//39
f 37//37 25//25 39//39
f 39//39 25//25 36//36
f 39//39 36//36 49//49
f 21//21 27//27 44//44
f 44//44 45//45 21//21
f 30//30 19//19 28//28
f 5//5 22//22 28//28
f 28//28 2//2 5//5
f 19//19 2//2 28//28
f 29//29 28//28 22//22
f 54//54 32//32 43//43
f 30//30 53//53 43//43
f 43//43 53//53 54//54
f 8//8 40//40 15//15
f 15//15 16//16 8//8
f 40//40 26//26 15//15
f 47//47 55//55 56//56
f 57//57 48//48 56//56
f 56//56 48//48 47//47
f 26//26 27//27 18//18
f 9//9 16//16 17//17
f 17//17 10//10 9//9
f 17//17 18//18 10//10
f 26//26 18//18 17//17
f 17//17 15//15 26//26
f 16//16 15//15 17//17
f 6//6 2//2 11//11
f 11//11 2//2 19//19
f 20//20 6//6 11//11
f 11//11 19//19 20//20
f 51//51 39//39 52//52
f 51//51 29//29 50//50
f 52//52 29//29 51//51
f 51//51 50//50 37//37
f 37//37 39//39 51//51
f 33//33 21//21 45//45
f 22//22 21//21 33//33
f 33//33 45//45 50//50
f 12//12 21//21 22//22
f 12//12 22//22 5//5
f 5//5 10//10 12//12
f 27//27 21//21 12//12
f 12//12 18//18 27//27
f 10//10 18//18 12//12
f 50//50 29//29 34//34
f 34//34 29//29 22//22
f 34//34 33//33 50//50
f 22//22 33//33 34//34
f 42//42 29//29 52//52
f 42//42 53//53 30//30
f 52//52 53//53 42//42
f 30//30 28//28 42//42
f 28//28 29//29 42//42
f 30//30 43//43 31//31
f 31//31 43//43 32//32
f 31//31 19//19 30//30
f 31//31 32//32 20//20
f 20//20 19//19 31//31
f 25//25 35//35 36//36
f 24//24 35//35 25//25
f 20//20 32//32 56//56
f 56//56 7//7 20//20
f 56//56 58//58 57//57
f 56//56 32//32 54//54
f 54//54 58//58 56//56
f 56//56 55//55 7//7