# https://github.com/mikedh/trimesh
v 0.43804747 -0.52931570 -0.86893686
v 0.96850754 -0.52265946 -0.76107105
v 0.42352367 -0.52285522 -0.65828954
v 0.37785656 -0.48653953 -0.65828954
v 0.43804747 -0.52882626 -0.88146022
v 1.03015752 -0.48352054 -0.76819700
v 0.63418051 -0.58680044 -0.07963180
v 0.63487022 -0.58262118 0.01315296
v 0.86888771 -0.53058824 -0.80250418
v 0.63405371 -0.58355925 -0.16389105
v 1.03873825 -0.46585642 -0.78040602
v 1.29033762 -0.21811054 -0.08754817
v 1.21888367 -0.29883851 -0.06183591
v 1.06939409 -0.41821509 -0.07252758
v 0.91694295 -0.49985202 -0.07242974
v 0.83811040 -0.52838160 -0.02304331
v 0.36591585 -0.42878677 -0.65828954
v 0.76659885 -0.48274440 -0.86703058
v 0.75693182 -0.53037014 -0.83804120
v 0.52626744 -0.53062959 -0.86986501
v 1.33339883 -0.13190855 -0.12462289
v 1.29631633 -0.20002719 -0.13049718
v 0.71624861 -0.56801892 -0.05215053
v 0.43307626 0.41313071 -0.65907224
v 0.43808424 -0.00255946 -0.90562818
v 0.43817373 -0.51614123 -0.89890996
v 0.63406706 -0.57144897 0.07948217
v 0.63411171 -0.43190058 0.08925882
v 0.93836392 -0.52277684 -0.82724995
v 1.06030571 -0.23420883 -0.79336708
v 1.36283969 0.00101635 -0.15288738
v 1.36591588 -0.05260429 -0.06120582
v 0.83013445 0.41313076 -0.65907253
v 0.73505430 0.41313071 -0.80015604
v 1.02153384 0.14374843 0.08831965
v 1.09844173 0.14374843 0.09282025
v 1.07269672 0.25142679 -0.76146325
v 1.04817586 0.41314124 -0.76993369
v 1.01021878 -0.45416958 -0.07220309
v 1.22306373 0.14374843 0.08954266
v 1.27811043 0.14366953 0.07702737
v 0.48582743 0.36768619 -0.89917926
v 0.65876186 -0.10333373 -0.88765129
v 1.31364369 -0.02571200 0.09183234
v 1.12991218 -0.31354948 0.09437180
v 0.63427197 -0.49609265 0.09385737
v 1.04679120 0.41312116 -0.75287000
v 1.35947188 0.05239132 -0.13703804
v 1.27271647 -0.23223310 -0.01521198
v 0.97903464 0.41313071 -0.70931257
v 1.02589673 0.41319955 -0.79955897
v 0.88829266 -0.48698268 0.08440710
v 1.04194784 0.41318113 -0.74157933
v 1.34301622 -0.07637098 0.00115046
v 1.14827637 -0.35102763 0.00527433
v 1.34711331 0.03279988 0.02034518
v 1.06723650 0.01236926 -0.79833516
v 1.35605005 0.06482207 -0.04299373
v 0.84168469 0.36211484 -0.85989389
v 0.89755288 -0.03968503 -0.85158315
vn -0.83785373 -0.54589193 -0.00176968
vn 0.78320051 -0.62176334 -0.00270205
vn -0.90000525 -0.43587740 0.00119611
vn -0.98634524 -0.16468543 0.00133453
vn -0.83066597 -0.55614009 -0.02650012
vn 0.96604085 -0.25833651 -0.00522801
vn -0.28749686 -0.95777831 0.00250416
vn -0.43174640 -0.90191618 0.01192691
vn 0.22856250 -0.97350968 -0.00617191
vn -0.04919094 -0.99878400 -0.00328293
vn 0.99162520 -0.12759278 -0.01998849
vn 0.98629490 -0.16499083 0.00062785
vn 0.96760110 -0.25247885 0.00159209
vn 0.94029992 -0.34033077 0.00331968
vn 0.87388308 -0.48612062 0.00388750
vn 0.83126205 -0.55583845 0.00685728
vn -0.99987214 -0.01593420 0.00134186
vn 0.95710707 -0.25569536 -0.13625685
vn 0.17387168 -0.98449437 -0.02322647
vn 0.18001317 -0.98303693 -0.03512325
vn 0.99512967 -0.09852715 -0.00305676
vn 0.98968684 -0.14321992 -0.00283103
vn 0.72610994 -0.68757126 0.00318070
vn -0.88626015 0.46311696 0.00810060
vn -0.96781571 0.03484686 -0.24923573
vn -0.79301689 -0.56281702 -0.23315492
vn -0.69476126 -0.71207626 0.10126301
vn -0.99248248 0.09853508 0.07259036
vn 0.89877666 -0.43430300 -0.05984497
vn 0.99920454 -0.02280826 -0.03271183
vn 0.99991081 -0.01198746 -0.00588806
vn 0.99881905 -0.04854601 0.00194750
vn 0.16961304 0.98533935 0.01837908
vn -0.15306593 0.98803874 -0.01871524
vn -0.84985467 0.51450774 0.11414390
vn -0.18530256 0.93065840 0.31549630
vn 0.99965599 0.02328108 -0.01207884
vn 0.88742597 0.46082508 -0.01074228
vn 0.91071619 -0.41300418 0.00485519
vn 0.74815319 0.63818058 0.18163797
vn 0.90573985 0.42174787 0.04200079
vn -0.76149736 0.60191831 -0.24044982
vn 0.98216153 -0.01596935 -0.18735981
vn 0.99081718 -0.02558066 0.13276652
vn 0.95525217 -0.24834344 0.16068240
vn -0.95590755 -0.22250956 0.19165139
vn 0.77666819 0.62990800 0.00156050
vn 0.99525603 0.09727488 -0.00173949
vn 0.98442158 -0.17565238 0.00777179
vn 0.27891655 0.96023895 0.01211264
vn 0.88893060 0.45605449 -0.04262272
vn 0.86032406 -0.49681723 0.11408400
vn 0.62047576 0.78420035 0.00629584
vn 0.99697659 -0.07725853 0.00829508
vn 0.95374970 -0.30045314 0.00945623
vn 0.99914451 0.04054487 0.00814581
vn 0.99929602 0.00330659 -0.03737022
vn 0.99307752 0.11744612 0.00185760
vn 0.93503853 0.33476606 -0.11676743
vn 0.99535276 -0.00515078 -0.09615794
f 28//28 24//24 17//17
f 29//29 30//30 11//11
f 57//57 30//30 29//29
f 17//17 24//24 25//25
f 37//37 57//57 51//51
f 30//30 57//57 31//31
f 31//31 11//11 30//30
f 57//57 37//37 31//31
f 31//31 48//48 32//32
f 4//4 3//3 27//27
f 17//17 4//4 27//27
f 9//9 19//19 29//29
f 29//29 19//19 20//20
f 42//42 25//25 24//24
f 32//32 48//48 58//58
f 24//24 28//28 35//35
f 32//32 12//12 21//21
f 21//21 31//31 32//32
f 11//11 31//31 21//21
f 1//1 4//4 5//5
f 1//1 3//3 4//4
f 7//7 3//3 1//1
f 8//8 3//3 7//7
f 8//8 27//27 3//3
f 46//46 28//28 17//17
f 17//17 27//27 46//46
f 46//46 35//35 28//28
f 52//52 46//46 27//27
f 10//10 9//9 29//29
f 10//10 2//2 7//7
f 29//29 2//2 10//10
f 19//19 9//9 10//10
f 10//10 20//20 19//19
f 5//5 20//20 10//10
f 7//7 1//1 10//10
f 10//10 1//1 5//5
f 34//34 24//24 51//51
f 51//51 42//42 34//34
f 34//34 42//42 24//24
f 17//17 25//25 26//26
f 26//26 18//18 29//29
f 26//26 4//4 17//17
f 5//5 4//4 26//26
f 29//29 20//20 26//26
f 26//26 20//20 5//5
f 60//60 57//57 29//29
f 29//29 18//18 60//60
f 14//14 13//13 55//55
f 55//55 13//13 49//49
f 49//49 13//13 12//12
f 49//49 12//12 32//32
f 32//32 54//54 49//49
f 56//56 54//54 32//32
f 32//32 58//58 56//56
f 11//11 21//21 22//22
f 22//22 21//21 12//12
f 29//29 11//11 6//6
f 6//6 2//2 29//29
f 12//12 13//13 6//6
f 6//6 14//14 2//2
f 13//13 14//14 6//6
f 11//11 22//22 6//6
f 6//6 22//22 12//12
f 7//7 2//2 23//23
f 23//23 8//8 7//7
f 35//35 46//46 36//36
f 24//24 35//35 36//36
f 36//36 33//33 24//24
f 40//40 33//33 36//36
f 41//41 56//56 58//58
f 41//41 33//33 40//40
f 40//40 36//36 44//44
f 44//44 41//41 40//40
f 44//44 49//49 54//54
f 54//54 56//56 44//44
f 56//56 41//41 44//44
f 25//25 42//42 43//43
f 43//43 60//60 18//18
f 43//43 26//26 25//25
f 18//18 26//26 43//43
f 59//59 42//42 51//51
f 51//51 57//57 59//59
f 57//57 60//60 59//59
f 59//59 43//43 42//42
f 60//60 43//43 59//59
f 15//15 2//2 39//39
f 2//2 14//14 39//39
f 39//39 52//52 15//15
f 55//55 52//52 39//39
f 39//39 14//14 55//55
f 38//38 58//58 48//48
f 48//48 31//31 38//38
f 38//38 41//41 58//58
f 47//47 41//41 38//38
f 38//38 31//31 37//37
f 38//38 37//37 51//51
f 16//16 2//2 15//15
f 16//16 23//23 2//2
f 15//15 52//52 16//16
f 16//16 52//52 27//27
f 27//27 8//8 16//16
f 8//8 23//23 16//16
f 33//33 41//41 50//50
f 55//55 49//49 45//45
f 49//49 44//44 45//45
f 45//45 52//52 55//55
f 46//46 52//52 45//45
f 45//45 36//36 46//46
f 45//45 44//44 36//36
f 53//53 41//41 47//47
f 53//53 50//50 41//41
f 53//53 38//38 51//51
f 47//47 38//38 53//53
f 33//33 50//50 53//53
f 51//51 24//24 53//53
f 24//24 33//33 53//53