# https://github.com/mikedh/trimesh
v -0.02762627 1.29286017 -0.45853684
v -0.02762708 1.38190801 -0.13850650
v -0.02762227 1.39441416 0.09663797
v -0.02762713 1.36843628 0.11501100
v -0.02762624 1.28373192 0.12090819
v -0.48346492 1.11885039 -0.86449268
v -0.87471329 0.39441507 0.12121819
v -0.02762709 1.16880876 0.11610887
v -0.02743062 1.20628213 -0.65715418
v -0.02748484 1.12757871 -0.81658908
v -0.71914052 0.88743602 -0.79349129
v -0.40488694 1.27846997 -0.24394428
v -0.30605177 1.31879858 -0.22296067
v -0.18528975 1.25769569 -0.52737526
v -0.15659266 1.34854248 -0.25370221
v -0.12406183 1.39183834 0.00475740
v -0.25762954 1.35293313 0.11241392
v -0.79589745 0.39441528 0.11464084
v -0.02743062 1.03928634 -0.82660842
v -0.48346228 1.04813771 -0.87531060
v -0.73117550 0.98476138 -0.53877425
v -0.65705948 1.09427046 -0.41754280
v -0.55734662 1.18956218 0.11277249
v -0.54175537 1.03938478 0.12051447
v -0.81762355 0.64252475 0.12150785
v -0.02742753 0.84150977 -0.67115510
v -0.78853101 0.39441528 0.10308938
v -0.02762733 1.11617466 0.09897118
v -0.48358853 0.67632207 -0.87731891
v -0.48346228 0.91703921 -0.87849214
v -0.88497596 0.40675297 -0.79634766
v -0.84934093 0.56734281 -0.79636831
v -0.80272671 0.72317168 -0.79453497
v -0.87813492 0.74279804 -0.52693592
v -0.51071197 1.23115589 -0.23203413
v -0.30624159 1.34541749 -0.09284541
v -1.00330002 0.39606052 0.11246411
v -0.02741548 0.82427824 -0.75620848
v -0.77222662 0.39441528 -0.22289710
v -0.48346228 0.50987640 -0.84452298
v -0.48346228 0.54449510 -0.86757698
v -0.02734515 0.84258323 -0.82090098
v -0.91506721 0.59636288 -0.58826593
v -0.62295807 1.15088737 -0.23054506
v -0.51290302 1.24044710 0.01242980
v -0.79835295 0.39441528 -0.61995452
v -0.72422290 0.40694310 -0.79671334
v -0.95081036 0.39441418 -0.61961165
v -0.75297182 1.01132739 -0.35335482
v -0.83672983 0.88018276 -0.41026680
v -0.78923121 0.91250025 0.11162051
v -0.95675505 0.62273469 0.02533117
v -0.98464142 0.55125145 -0.30650072
v -0.76210073 1.01739897 -0.22487811
v -0.80962377 0.93821771 -0.01590450
v -1.01331403 0.39441570 -0.38697826
v -0.88079975 0.83956733 -0.17675033
v -0.66088675 1.12788676 -0.07238338
v -1.02734518 0.39444178 -0.01612328
v -0.98321657 0.58892538 -0.09111079
vn 0.57252679 0.81984315 -0.00838383
vn 0.56275402 0.82661471 -0.00400449
vn 0.53723161 0.84327105 0.01661741
vn 0.58389526 0.80241368 0.12328266
vn 0.94321202 0.20882561 0.25834658
vn -0.25658185 0.96109009 -0.10233077
vn -0.08248500 -0.97751377 0.19406973
vn 0.85864803 -0.48878957 0.15429941
vn 0.60149983 0.79879812 -0.01093226
vn 0.60896026 0.79071656 -0.06272741
vn -0.65583365 0.75428997 -0.03047728
vn -0.22669887 0.97394789 -0.00575528
vn -0.16630979 0.98605264 -0.00642152
vn -0.04819117 0.99878519 -0.01028364
vn -0.07180298 0.99738906 -0.00770672
vn -0.06777156 0.99770077 -0.00042491
vn -0.19413827 0.97273026 0.12691009
vn 0.26709008 -0.95960627 0.08842345
vn 0.95339345 0.25195120 -0.16601664
vn -0.35962864 0.87063680 -0.33564684
vn -0.56317071 0.82628539 -0.00955030
vn -0.42766221 0.90391643 -0.00633415
vn -0.41285989 0.90101522 0.13311007
vn -0.34084015 0.63163076 0.69632649
vn -0.60069968 0.47082990 0.64612623
vn 0.79510395 -0.60645972 0.00403852
vn 0.23610671 -0.97170507 0.00654878
vn 0.79650516 -0.60378546 0.03197870
vn -0.19153191 -0.74390810 -0.64024704
vn -0.52732638 0.28335512 -0.80102232
vn -0.70837495 -0.70111655 -0.08148936
vn -0.90640321 0.41456330 -0.08105858
vn -0.81916872 0.57057181 -0.05839873
vn -0.78830536 0.61519402 -0.01053498
vn -0.31259319 0.94987922 -0.00386768
vn -0.19072127 0.98164093 -0.00254575
vn -0.77974832 -0.61427312 0.12108297
vn 0.76821580 -0.64019095 -0.00018413
vn 0.12094584 -0.99265905 0.00032729
vn 0.25061932 -0.96766800 -0.02843590
vn 0.09075112 -0.97992715 -0.17750214
vn 0.80708300 -0.58342234 -0.09074911
vn -0.88300424 0.46915127 -0.01416337
vn -0.42081879 0.90714003 -0.00291826
vn -0.33830127 0.94103307 0.00300116
vn 0.03917457 -0.99923212 -0.00071889
vn 0.08906847 -0.99576362 -0.02283922
vn -0.70949631 -0.70457463 -0.01376865
vn -0.55145010 0.83419793 -0.00407446
vn -0.70888818 0.70529026 -0.00657242
vn -0.65691988 0.74091006 0.13967305
vn -0.82483060 0.56526737 0.01128163
vn -0.87947413 0.47592945 -0.00405188
vn -0.56411926 0.82569048 -0.00216498
vn -0.65115844 0.75890710 0.00725988
vn -0.73542911 -0.67755935 -0.00757383
vn -0.73293964 0.68029333 -0.00068341
vn -0.47626887 0.87929822 0.00161295
vn -0.73471044 -0.67836045 0.00525951
vn -0.86607469 0.49991248 0.00146426
f 9//9 3//3 42//42
f 19//19 9//9 42//42
f 10//10 9//9 19//19
f 29//29 31//31 30//30
f 29//29 41//41 31//31
f 42//42 41//41 29//29
f 29//29 19//19 42//42
f 30//30 19//19 29//29
f 31//31 41//41 47//47
f 42//42 28//28 26//26
f 55//55 23//23 58//58
f 51//51 23//23 55//55
f 6//6 9//9 10//10
f 40//40 47//47 41//41
f 40//40 41//41 42//42
f 27//27 28//28 18//18
f 27//27 26//26 28//28
f 24//24 23//23 51//51
f 59//59 37//37 52//52
f 52//52 55//55 57//57
f 52//52 37//37 51//51
f 51//51 55//55 52//52
f 59//59 52//52 60//60
f 60//60 52//52 57//57
f 56//56 43//43 48//48
f 54//54 50//50 57//57
f 54//54 55//55 58//58
f 57//57 55//55 54//54
f 58//58 44//44 54//54
f 3//3 9//9 2//2
f 2//2 16//16 3//3
f 58//58 23//23 45//45
f 45//45 44//44 58//58
f 10//10 19//19 20//20
f 20//20 6//6 10//10
f 20//20 19//19 30//30
f 30//30 31//31 20//20
f 6//6 20//20 33//33
f 26//26 27//27 38//38
f 38//38 27//27 40//40
f 42//42 26//26 38//38
f 38//38 40//40 42//42
f 47//47 40//40 39//39
f 40//40 27//27 39//39
f 27//27 48//48 39//39
f 42//42 3//3 5//5
f 25//25 5//5 24//24
f 51//51 37//37 25//25
f 25//25 24//24 51//51
f 34//34 33//33 43//43
f 9//9 6//6 1//1
f 1//1 2//2 9//9
f 16//16 2//2 15//15
f 2//2 1//1 15//15
f 17//17 45//45 23//23
f 3//3 16//16 17//17
f 23//23 24//24 17//17
f 24//24 5//5 17//17
f 44//44 45//45 35//35
f 35//35 22//22 44//44
f 6//6 22//22 35//35
f 6//6 33//33 11//11
f 11//11 34//34 50//50
f 33//33 34//34 11//11
f 43//43 33//33 32//32
f 31//31 48//48 32//32
f 32//32 48//48 43//43
f 32//32 20//20 31//31
f 32//32 33//33 20//20
f 47//47 39//39 46//46
f 46//46 39//39 48//48
f 31//31 47//47 46//46
f 46//46 48//48 31//31
f 18//18 28//28 8//8
f 8//8 28//28 42//42
f 42//42 5//5 8//8
f 5//5 25//25 7//7
f 18//18 8//8 7//7
f 7//7 8//8 5//5
f 7//7 25//25 37//37
f 7//7 37//37 59//59
f 59//59 56//56 7//7
f 56//56 48//48 7//7
f 7//7 27//27 18//18
f 7//7 48//48 27//27
f 57//57 50//50 53//53
f 50//50 34//34 53//53
f 53//53 60//60 57//57
f 53//53 56//56 59//59
f 59//59 60//60 53//53
f 53//53 43//43 56//56
f 53//53 34//34 43//43
f 49//49 54//54 44//44
f 44//44 22//22 49//49
f 50//50 54//54 49//49
f 14//14 1//1 6//6
f 6//6 15//15 14//14
f 14//14 15//15 1//1
f 4//4 5//5 3//3
f 3//3 17//17 4//4
f 4//4 17//17 5//5
f 6//6 35//35 12//12
f 21//21 11//11 50//50
f 50//50 49//49 21//21
f 21//21 49//49 22//22
f 21//21 22//22 6//6
f 6//6 11//11 21//21
f 13//13 15//15 6//6
f 6//6 12//12 13//13
f 36//36 35//35 45//45
f 36//36 12//12 35//35
f 45//45 17//17 36//36
f 36//36 13//13 12//12
f 36//36 17//17 16//16
f 16//16 15//15 36//36
f 15//15 13//13 36//36