# https://github.com/mikedh/trimesh
v -0.03843332 1.18766835 -2.03874464
v 0.04039701 1.18262877 -2.68292933
v -0.03843332 1.14057619 -1.75898809
v 0.08258817 1.13719844 -1.75898809
v 0.04136860 1.18610190 -2.03874464
v -0.03843327 1.18341344 -2.68292795
v -0.03843332 1.04570630 -1.74792703
v 0.20634460 1.04237763 -1.69301290
v 0.20634460 1.12637999 -1.76388239
v 0.12380774 1.17689880 -2.03874464
v 0.12380774 1.17464701 -2.52543154
v 0.86644397 0.23750191 -1.68293094
v 0.28897912 1.11355438 -1.78571054
v 0.45385744 0.94173137 -1.68674835
v 0.45385744 1.02132805 -1.77885865
v 0.28940266 1.04252619 -1.68595379
v 0.20634460 1.15956971 -2.03874464
v 0.20458641 1.15731787 -2.52543154
v -0.03843332 0.93810895 -2.68292939
v -0.03843335 1.04237598 -1.74763341
v 0.81027989 0.18766835 -1.80166589
v 0.86644397 0.18766835 -1.69193661
v 0.93423162 0.18766835 -1.76427355
v 0.86644397 0.33805017 -1.69536226
v 0.78390717 0.53924459 -1.69056576
v 0.34797586 1.10200165 -1.82652912
v 0.53688268 0.94535388 -1.75624698
v 0.66522991 0.79702805 -1.74606722
v 0.50982621 1.00331357 -1.82388580
v 0.54205953 0.70675980 -2.68292939
v 0.79455395 0.18766835 -2.03385034
v -0.03843332 0.98980266 -1.86264900
v 0.96156667 0.18797352 -2.03424021
v 0.92588029 0.28777604 -1.78482983
v 0.85858103 0.48823617 -1.77460088
v 0.78605600 0.63832431 -1.76231595
v 0.75997634 0.71635445 -1.80528772
v 0.64115261 0.86654047 -1.80235132
v 0.58391400 0.94990644 -2.03874464
v 0.51617521 1.00830666 -2.03874464
v 0.24585484 1.14302379 -2.68292939
v 0.32187176 1.11891468 -2.20333916
v 0.91215664 0.40266735 -1.84287564
v 0.83206174 0.60376391 -1.83318544
v 0.42492072 1.06609503 -2.20333916
v 0.39251647 1.08202909 -2.68292939
v 0.73428736 0.77881780 -2.03874464
v 0.78153850 0.70580523 -2.03752107
v 0.67231149 0.85723953 -2.03874464
v 0.64911321 0.87965974 -2.68292939
v 0.58080278 0.94681684 -2.68292938
v 0.51256117 1.00546742 -2.68292939
v 0.31942984 1.11654052 -2.68292939
v 0.76564156 0.72516591 -2.68292939
v 0.77639396 0.70676254 -2.68293092
v 0.85032731 0.57429453 -2.03385034
v 0.90561234 0.43296889 -2.03385034
v 0.93227809 0.33805017 -2.03385034
v 0.45258765 1.04600009 -2.68292939
v 0.71113800 0.80236384 -2.68292939
vn -0.48764902 0.67928121 0.54843001
vn 0.01404955 0.29329996 -0.95591723
vn -0.22322409 0.18870130 0.95632778
vn 0.01015005 0.23456305 0.97204792
vn 0.03065592 0.78249278 0.62190454
vn -0.23092620 0.27997549 -0.93181909
vn -0.25514738 0.00924712 0.96685796
vn -0.00905224 0.01299881 0.99987454
vn 0.03096981 0.27011443 0.96233002
vn 0.08065819 0.81611000 0.57224009
vn 0.11088499 0.96246337 -0.24772724
vn 0.03291221 -0.00469557 0.99944722
vn 0.06435349 0.31359557 0.94737345
vn 0.02558576 0.05212408 0.99831280
vn 0.07201314 0.17255689 0.98236359
vn 0.01641278 0.06258911 0.99790442
vn 0.15224295 0.87925611 0.45136546
vn 0.16608380 0.97070948 -0.17360669
vn -0.28222260 -0.19742351 -0.93881540
vn -0.24663681 -0.05098005 0.96776615
vn -0.17130048 -0.54077513 0.82354016
vn 0.00454982 -0.28186886 0.95944215
vn 0.22425355 -0.28691246 0.93133860
vn 0.07281624 0.03133368 0.99685305
vn 0.04922342 0.03465097 0.99818654
vn 0.15003197 0.46250825 0.87382866
vn 0.08129744 0.12854676 0.98836555
vn 0.07442089 0.08787497 0.99334763
vn 0.20070610 0.39252395 0.89757563
vn -0.01379877 -0.07097043 -0.99738297
vn -0.13282022 -0.49101873 -0.86096422
vn -0.46687416 -0.30543317 0.82990306
vn 0.43156964 -0.39732119 -0.80986636
vn 0.26883423 0.06985449 0.96065004
vn 0.14365683 0.08226015 0.98620281
vn 0.11052023 0.09222463 0.98958572
vn 0.24089726 0.24180779 0.93994548
vn 0.20720283 0.27610495 0.93852706
vn 0.51174491 0.78519802 0.34868498
vn 0.43727593 0.87964911 0.18710212
vn 0.05922930 0.28195483 -0.95759770
vn 0.27503112 0.96055299 0.04118055
vn 0.39429577 0.17590401 0.90199148
vn 0.34858308 0.25009744 0.90329458
vn 0.36105786 0.93022173 0.06576287
vn 0.09731032 0.27069884 -0.95773318
vn 0.62022530 0.67586536 0.39815399
vn 0.71839852 0.63868148 0.27566199
vn 0.56428623 0.71637363 0.41035334
vn 0.16458679 0.22094324 -0.96129874
vn 0.14446412 0.23348934 -0.96156791
vn 0.12879079 0.25069186 -0.95946158
vn 0.07753399 0.27793939 -0.95746445
vn 0.19118471 0.18192864 -0.96454672
vn 0.19578273 0.07919948 -0.97744389
vn 0.84159477 0.54010192 -0.00285432
vn 0.84712217 0.41133139 -0.33643797
vn 0.81255378 0.25558792 -0.52386179
vn 0.11065868 0.25850490 -0.95965091
vn 0.17646212 0.19848514 -0.96408753
f 30//30 55//55 33//33
f 30//30 19//19 55//55
f 20//20 19//19 32//32
f 20//20 32//32 21//21
f 31//31 30//30 33//33
f 19//19 30//30 31//31
f 31//31 32//32 19//19
f 31//31 21//21 32//32
f 22//22 12//12 20//20
f 20//20 21//21 22//22
f 20//20 12//12 8//8
f 12//12 16//16 8//8
f 55//55 19//19 2//2
f 2//2 41//41 55//55
f 14//14 16//16 12//12
f 12//12 25//25 14//14
f 6//6 2//2 19//19
f 41//41 2//2 11//11
f 28//28 14//14 25//25
f 20//20 8//8 7//7
f 29//29 39//39 40//40
f 41//41 17//17 42//42
f 55//55 60//60 54//54
f 54//54 60//60 47//47
f 47//47 60//60 49//49
f 50//50 60//60 55//55
f 50//50 49//49 60//60
f 39//39 49//49 50//50
f 16//16 14//14 15//15
f 15//15 13//13 16//16
f 3//3 8//8 16//16
f 3//3 7//7 8//8
f 20//20 7//7 3//3
f 18//18 17//17 41//41
f 41//41 11//11 18//18
f 18//18 11//11 17//17
f 36//36 28//28 25//25
f 37//37 28//28 36//36
f 38//38 28//28 37//37
f 38//38 39//39 29//29
f 38//38 49//49 39//39
f 38//38 37//37 47//47
f 47//47 49//49 38//38
f 24//24 25//25 12//12
f 33//33 55//55 58//58
f 58//58 43//43 33//33
f 59//59 40//40 52//52
f 59//59 52//52 55//55
f 55//55 46//46 59//59
f 41//41 42//42 53//53
f 53//53 42//42 46//46
f 55//55 41//41 53//53
f 53//53 46//46 55//55
f 17//17 13//13 26//26
f 26//26 42//42 17//17
f 26//26 15//15 29//29
f 13//13 15//15 26//26
f 29//29 40//40 26//26
f 39//39 50//50 51//51
f 52//52 40//40 51//51
f 51//51 40//40 39//39
f 55//55 52//52 51//51
f 51//51 50//50 55//55
f 14//14 28//28 27//27
f 27//27 15//15 14//14
f 28//28 38//38 27//27
f 29//29 15//15 27//27
f 27//27 38//38 29//29
f 16//16 13//13 9//9
f 35//35 36//36 25//25
f 25//25 24//24 35//35
f 23//23 24//24 12//12
f 12//12 22//22 23//23
f 23//23 31//31 33//33
f 48//48 56//56 55//55
f 55//55 54//54 48//48
f 48//48 54//54 47//47
f 47//47 37//37 48//48
f 43//43 58//58 57//57
f 57//57 56//56 43//43
f 57//57 58//58 55//55
f 55//55 56//56 57//57
f 43//43 56//56 44//44
f 44//44 35//35 43//43
f 44//44 48//48 37//37
f 56//56 48//48 44//44
f 37//37 36//36 44//44
f 36//36 35//35 44//44
f 45//45 26//26 40//40
f 45//45 59//59 46//46
f 40//40 59//59 45//45
f 46//46 42//42 45//45
f 42//42 26//26 45//45
f 4//4 3//3 16//16
f 16//16 9//9 4//4
f 24//24 23//23 34//34
f 43//43 35//35 34//34
f 34//34 35//35 24//24
f 33//33 43//43 34//34
f 34//34 23//23 33//33
f 5//5 4//4 9//9
f 3//3 4//4 5//5
f 5//5 11//11 2//2
f 10//10 5//5 9//9
f 10//10 13//13 17//17
f 10//10 9//9 13//13
f 17//17 11//11 10//10
f 11//11 5//5 10//10
f 3//3 5//5 1//1
f 20//20 3//3 1//1
f 2//2 6//6 1//1
f 1//1 5//5 2//2
f 1//1 19//19 20//20
f 1//1 6//6 19//19
f 23//23 22//22 21//21
f 21//21 31//31 23//23