# https://github.com/mikedh/trimesh
v -0.62577694 -0.04040165 0.08814529
v -0.62577694 -0.00312582 0.08785157
v -0.73305921 -0.78474432 0.06308655
v -0.62548335 -0.84060915 0.08677489
v -0.08838700 -0.91506299 0.08785157
v -0.02446798 -0.91506299 0.08785157
v -0.62577694 0.00841892 0.08746009
v -0.71898320 -0.00890175 0.05317207
v -0.79227975 -0.78474432 0.02716252
v -0.46441315 -0.88717947 0.08594286
v -0.02446798 -0.93839095 -0.03324520
v 0.01722481 -0.96679007 -0.55109077
v 0.02153810 -0.90410525 -0.61819772
v -0.38135901 0.00841896 0.04638057
v -0.56929717 0.03053003 -0.63004187
v -0.78431433 -0.46416358 0.00997134
v -0.81156312 -0.78474432 -0.02305284
v -0.72350926 -0.83840170 0.04550689
v -0.02446974 -0.86533472 0.03104674
v -0.38135751 0.00841892 -0.12602856
v -0.65514249 0.03053003 -0.90823293
v -0.45712066 0.00841892 -0.57228932
v -0.84735241 -0.00432433 -0.28473793
v -0.72565660 0.00841892 0.02027382
v -0.78772807 -0.04475540 -0.06181557
v -0.28565021 -0.92122671 0.05307774
v 0.02136446 -0.96878018 -0.76169358
v 0.02154256 -0.91712647 -0.76170031
v -0.71162226 -0.78992966 -0.91185473
v -0.70986031 -0.23421644 -0.91185473
v -0.90655323 0.02981042 -0.60625991
v -0.80338359 0.00269547 -0.12939337
v -0.81381448 -0.03105825 -0.14731868
v -0.84649594 -0.75448828 -0.13695504
v -0.83530793 -0.83210652 -0.16373136
v -0.70538977 -0.87742179 -0.07455754
v -0.53963794 -0.90240534 0.01698239
v -0.13632323 -0.94289144 -0.09294321
v -0.97845745 -0.78992966 -0.91185473
v -0.94821093 -0.23421644 -0.91185473
v -0.93355793 0.03052716 -0.90823116
v -0.92192875 -0.00312582 -0.65098941
v -0.88013175 -0.56140728 -0.28898373
v -0.97297592 -0.80343114 -0.74417657
v -0.94781940 -0.00312582 -0.90823293
v -0.87274147 -0.87993956 -0.76169811
v -0.93733342 -0.84275239 -0.70126747
v -0.94331669 0.00910378 -0.90823293
v -0.94008647 -0.00312582 -0.80980891
v -0.96091153 -0.80343114 -0.64790600
v -0.89564658 -0.04040165 -0.47205441
v -0.90569812 -0.81951461 -0.38857322
v -0.94047790 -0.80323547 -0.51913741
v -0.91906560 -0.75681191 -0.41628404
v -0.23284911 -0.96946998 -0.76039490
v -0.88208944 -0.27856098 -0.35552151
v -0.39046695 -0.92997086 -0.10111055
v -0.48434202 -0.95212971 -0.75876852
v -0.66792885 -0.93248218 -0.75443206
v -0.83143996 -0.87849188 -0.51331015
vn -0.21892325 0.00037730 0.97574201
vn -0.24577149 0.00149971 0.96932663
vn -0.56491075 -0.00476350 0.82513826
vn -0.36203594 -0.02686868 0.93177682
vn -0.02895241 -0.10320245 0.99423891
vn 0.73552391 -0.06687105 0.67419051
vn -0.23268822 0.16571867 0.95832850
vn -0.81636199 0.01522215 0.57733992
vn -0.88897039 -0.01027523 0.45784939
vn -0.34416423 -0.05699237 0.93717813
vn 0.87671340 -0.17948952 0.44627025
vn 0.96770001 -0.19168786 0.16374512
vn 0.99994427 0.00686361 0.00802168
vn 0.82588433 0.13040515 0.54855225
vn 0.93840334 0.33736074 -0.07474551
vn -0.94979241 0.00166844 0.31287631
vn -0.97963276 -0.00771093 0.20064944
vn -0.82657093 -0.04536058 0.56100170
vn 0.99371862 0.00957410 0.11149726
vn 0.99480043 0.09639173 -0.03287464
vn 0.62830839 0.16253041 -0.76079723
vn 0.98242267 0.06366257 -0.17547870
vn -0.98926480 0.01023936 0.14577486
vn -0.88036764 0.14799317 0.45061163
vn -0.96780867 0.00353521 0.25166225
vn -0.39308390 -0.19599088 0.89837221
vn 0.82171256 -0.14471453 -0.55122244
vn 0.86613425 0.00376892 -0.49979722
vn 0.13312302 -0.01485011 -0.99098826
vn 0.05576600 0.00017143 -0.99844385
vn -0.97230589 0.17885368 0.15044142
vn -0.97501720 0.04292193 0.21794304
vn -0.98537298 0.00293036 0.17038631
vn -0.98588419 -0.00049968 0.16742797
vn -0.97902281 -0.03892074 0.19999880
vn -0.95104023 -0.09748307 0.29329087
vn -0.80629458 -0.14555332 0.57332651
vn -0.41161505 -0.51520992 0.75175247
vn -0.79270710 -0.02312384 -0.60916398
vn -0.23419554 0.00055606 -0.97218935
vn -0.79056455 0.14234012 -0.59560640
vn -0.99633694 0.00533864 0.08534758
vn -0.98845908 0.00141314 0.15148154
vn -0.99945898 -0.01400621 0.02975857
vn -0.82898059 0.00535808 -0.55925171
vn -0.95580995 -0.08948293 -0.28003595
vn -0.99875893 -0.04210688 0.02660110
vn -0.82350643 0.01054826 -0.56720887
vn -0.99839894 0.00693167 0.05613822
vn -0.99631172 -0.01114056 0.08508136
vn -0.99291188 0.00312029 0.11881184
vn -0.99009749 -0.02493565 0.13814911
vn -0.99388200 -0.01058538 0.10993872
vn -0.99099280 -0.00013403 0.13391511
vn -0.36116384 -0.30736575 -0.88039024
vn -0.98997924 0.00156258 0.14120430
vn -0.85393074 -0.29562493 0.42826183
vn -0.68558772 -0.23849606 -0.68781473
vn -0.86522563 -0.16772245 -0.47249739
vn -0.98589290 -0.08746815 0.14270428
f 28//28 21//21 22//22
f 22//22 21//21 15//15
f 21//21 29//29 30//30
f 15//15 14//14 20//20
f 20//20 22//22 15//15
f 28//28 22//22 20//20
f 27//27 21//21 28//28
f 27//27 29//29 21//21
f 39//39 29//29 27//27
f 14//14 6//6 19//19
f 3//3 4//4 1//1
f 5//5 4//4 10//10
f 5//5 6//6 1//1
f 1//1 4//4 5//5
f 11//11 6//6 5//5
f 39//39 59//59 46//46
f 9//9 35//35 18//18
f 18//18 3//3 9//9
f 4//4 3//3 18//18
f 10//10 4//4 18//18
f 15//15 21//21 41//41
f 41//41 31//31 15//15
f 49//49 41//41 48//48
f 31//31 41//41 49//49
f 7//7 14//14 15//15
f 15//15 31//31 7//7
f 7//7 6//6 14//14
f 13//13 27//27 28//28
f 13//13 19//19 6//6
f 14//14 19//19 13//13
f 28//28 20//20 13//13
f 13//13 20//20 14//14
f 58//58 57//57 59//59
f 58//58 59//59 39//39
f 57//57 58//58 55//55
f 39//39 27//27 55//55
f 55//55 58//58 39//39
f 11//11 5//5 26//26
f 26//26 5//5 10//10
f 39//39 46//46 47//47
f 10//10 18//18 37//37
f 37//37 26//26 10//10
f 57//57 26//26 37//37
f 59//59 57//57 37//37
f 21//21 30//30 40//40
f 40//40 41//41 21//21
f 40//40 29//29 39//39
f 40//40 30//30 29//29
f 48//48 41//41 40//40
f 52//52 47//47 35//35
f 45//45 49//49 48//48
f 45//45 40//40 39//39
f 48//48 40//40 45//45
f 51//51 31//31 42//42
f 31//31 49//49 42//42
f 1//1 6//6 2//2
f 6//6 7//7 2//2
f 2//2 3//3 1//1
f 57//57 55//55 38//38
f 11//11 26//26 38//38
f 38//38 26//26 57//57
f 36//36 18//18 35//35
f 36//36 37//37 18//18
f 59//59 37//37 36//36
f 54//54 52//52 34//34
f 34//34 43//43 54//54
f 53//53 52//52 54//54
f 47//47 52//52 53//53
f 53//53 54//54 51//51
f 51//51 54//54 56//56
f 54//54 43//43 56//56
f 23//23 31//31 51//51
f 23//23 32//32 31//31
f 51//51 56//56 23//23
f 24//24 7//7 31//31
f 31//31 32//32 24//24
f 12//12 55//55 27//27
f 12//12 38//38 55//55
f 11//11 38//38 12//12
f 12//12 6//6 11//11
f 12//12 13//13 6//6
f 27//27 13//13 12//12
f 60//60 46//46 59//59
f 59//59 36//36 60//60
f 60//60 36//36 35//35
f 35//35 47//47 60//60
f 60//60 47//47 46//46
f 17//17 34//34 52//52
f 17//17 35//35 9//9
f 17//17 52//52 35//35
f 9//9 16//16 17//17
f 25//25 17//17 16//16
f 34//34 17//17 25//25
f 39//39 47//47 44//44
f 44//44 45//45 39//39
f 49//49 45//45 44//44
f 44//44 42//42 49//49
f 33//33 56//56 43//43
f 33//33 23//23 56//56
f 43//43 34//34 33//33
f 34//34 25//25 33//33
f 32//32 23//23 33//33
f 33//33 25//25 32//32
f 8//8 24//24 32//32
f 32//32 25//25 8//8
f 8//8 25//25 16//16
f 8//8 16//16 9//9
f 7//7 24//24 8//8
f 9//9 3//3 8//8
f 3//3 2//2 8//8
f 8//8 2//2 7//7
f 47//47 53//53 50//50
f 50//50 44//44 47//47
f 42//42 44//44 50//50
f 51//51 42//42 50//50
f 50//50 53//53 51//51