# https://github.com/mikedh/trimesh
v 0.49989667 -1.62121791 -0.13150582
v 0.49187003 -1.62121791 -0.23756820
v 0.35028286 -2.48102384 -0.96379377
v 0.46090887 -1.79120498 -0.12358026
v 0.30836424 -2.56326615 -0.89080321
v 0.38507678 -2.19841069 -0.97080755
v 0.38008544 -2.32089377 -0.95927993
v 0.46426631 -1.62121791 -0.53648017
v 0.24908944 -2.57973419 -0.45742652
v 0.33283185 -2.38066947 -1.03042077
v 0.38245033 -2.09256751 -0.98900509
v 0.42325218 -1.62121791 -0.70447751
v 0.38316334 -1.95770150 -0.98348046
v 0.38076983 -1.82869074 -0.95926201
v 0.19276055 -2.26619043 -0.10868840
v 0.33065235 -2.19088916 -0.12054735
v 0.40161727 -1.99056769 -0.11294653
v 0.32616641 -2.41174524 -0.47525287
v 0.26531644 -2.57836632 -1.01029395
v 0.33926201 -1.72049523 -1.02343382
v 0.30236340 -1.66263441 -1.00172609
v 0.41979152 -1.62121790 -0.10900184
v 0.23183678 -2.37579797 -0.13150582
v 0.04068583 -2.54914761 -0.13233074
v 0.14354545 -2.47418655 -0.11359854
v 0.14513145 -2.61891166 -1.04797321
v -0.19278101 -2.61911405 -0.44775235
v 0.18772917 -2.62121689 -0.44547247
v 0.07538971 -2.44629422 -1.10366773
v 0.36469123 -1.62121687 -0.74905403
v 0.21447412 -1.65833630 -1.05273163
v -0.20885602 -2.27551339 -0.10863002
v -0.08435543 -2.53579855 -0.13724415
v -0.18252820 -2.61887516 -1.04669458
v -0.34131811 -1.62121781 -0.75722865
v -0.46237856 -1.62125522 -0.10902747
v -0.26922954 -2.61750870 -0.97137265
v 0.22449930 -1.73937791 -1.08458100
v 0.14677871 -1.73199799 -1.09640510
v -0.50010330 -1.62121791 -0.13150582
v -0.21908105 -2.40672669 -0.11865774
v -0.35249172 -2.46751980 -0.95877280
v -0.01556366 -2.39795923 -1.10863003
v -0.04981876 -1.66042762 -1.10253420
v -0.46157023 -1.79080077 -0.12831906
v -0.49099993 -1.62121791 -0.24940726
v -0.37999757 -2.32392981 -0.95926201
v -0.35209983 -2.46654495 -0.93812993
v -0.40876028 -1.97277045 -0.11688774
v -0.32195313 -2.44417311 -0.52538709
v -0.33208147 -2.18889548 -0.11537023
v -0.46447298 -1.62121791 -0.53471896
v -0.34163245 -2.46133137 -1.01221577
v -0.24311487 -1.77787863 -1.07775942
v -0.34007931 -1.72167963 -1.02247589
v -0.29195018 -1.66014311 -1.01660095
v -0.42240044 -1.62121694 -0.70830280
v -0.38078067 -1.82869074 -0.95926201
v -0.38750640 -1.97197907 -0.96472133
v -0.32936143 -2.35407280 -1.04233522
vn 0.50257811 0.86192232 0.06712047
vn 0.32952696 0.94413875 -0.00374166
vn 0.19715806 -0.98032604 -0.00946323
vn 0.33926035 -0.93686982 0.08471928
vn 0.08624259 -0.99627386 0.00078786
vn 0.79320691 -0.60757082 -0.04099392
vn 0.48720206 -0.87314177 -0.01605001
vn 0.31081595 0.95045935 -0.00452374
vn 0.09305023 -0.99565576 0.00335550
vn 0.35802040 -0.92945016 -0.08912794
vn 0.95234648 -0.28976614 -0.09524579
vn 0.17356485 0.98480098 -0.00650220
vn 0.80539939 0.59002754 -0.05656256
vn 0.47559871 0.87941532 -0.02084606
vn 0.09193838 -0.89586781 0.43470473
vn 0.13538338 -0.99002703 0.03895911
vn 0.21602614 -0.97015750 0.11012329
vn 0.18595363 -0.98255247 0.00344745
vn 0.07976117 -0.99668364 -0.01612089
vn 0.28359802 0.95731471 -0.05586333
vn 0.04347062 0.99903964 -0.00548622
vn 0.11809149 0.98525877 0.12377218
vn 0.09945697 -0.99495746 0.01296026
vn 0.00390659 -0.99970911 0.02380005
vn 0.04937338 -0.99556754 0.08004708
vn 0.04600600 -0.99864324 -0.02439526
vn -0.05101178 -0.99869429 0.00274152
vn 0.02486506 -0.99968791 0.00240903
vn 0.09685805 -0.98631261 -0.13343896
vn 0.00446351 0.99998943 -0.00110329
vn 0.03062567 0.99945217 -0.01254692
vn -0.05995821 -0.96011733 0.27309287
vn -0.02673569 -0.99941602 0.02127978
vn -0.05901494 -0.99764477 -0.03495934
vn -0.00291639 0.99999527 -0.00097239
vn -0.28977234 0.94480440 0.15289418
vn -0.05974434 -0.99820918 -0.00300639
vn 0.25787872 0.95675630 -0.13459548
vn 0.10469680 0.98596041 -0.13007936
vn -0.51716181 0.85446956 0.04924874
vn -0.07618614 -0.99566305 0.05339256
vn -0.20318423 -0.97913645 -0.00282562
vn -0.06560372 -0.98150756 -0.17983067
vn -0.04044828 0.99387007 -0.10288933
vn -0.27141774 -0.96203701 0.02858658
vn -0.32761619 0.94480328 -0.00379387
vn -0.55665639 -0.83047009 -0.02128620
vn -0.19355931 -0.98108750 0.00145213
vn -0.21401081 -0.97413311 0.07255382
vn -0.15809032 -0.98742050 0.00286567
vn -0.15284935 -0.98496921 0.08045334
vn -0.31031727 0.95062215 -0.00455230
vn -0.26841933 -0.96278692 -0.03150246
vn -0.27875336 0.94888330 -0.14804406
vn -0.29132142 0.95527618 -0.05078622
vn -0.04234778 0.99904654 -0.01061521
vn -0.17507960 0.98453257 -0.00653855
vn -0.49688542 0.86745435 -0.02505654
vn -0.97274783 0.22335358 -0.06224823
vn -0.42532172 -0.89692432 -0.12094708
f 25//25 24//24 28//28
f 17//17 25//25 16//16
f 9//9 25//25 28//28
f 28//28 24//24 27//27
f 44//44 35//35 30//30
f 35//35 57//57 30//30
f 43//43 44//44 39//39
f 49//49 36//36 40//40
f 4//4 3//3 1//1
f 32//32 25//25 15//15
f 25//25 17//17 15//15
f 16//16 25//25 23//23
f 23//23 9//9 16//16
f 25//25 9//9 23//23
f 18//18 17//17 16//16
f 16//16 9//9 18//18
f 3//3 4//4 18//18
f 18//18 4//4 17//17
f 24//24 25//25 41//41
f 41//41 25//25 32//32
f 34//34 26//26 28//28
f 28//28 27//27 34//34
f 34//34 27//27 37//37
f 34//34 60//60 43//43
f 5//5 9//9 28//28
f 3//3 18//18 5//5
f 5//5 18//18 9//9
f 43//43 39//39 29//29
f 29//29 39//39 38//38
f 29//29 34//34 43//43
f 26//26 34//34 29//29
f 31//31 30//30 12//12
f 44//44 30//30 31//31
f 31//31 39//39 44//44
f 38//38 39//39 31//31
f 12//12 30//30 8//8
f 10//10 29//29 38//38
f 26//26 29//29 10//10
f 37//37 27//27 50//50
f 27//27 41//41 50//50
f 22//22 15//15 17//17
f 22//22 36//36 32//32
f 32//32 15//15 22//22
f 40//40 36//36 22//22
f 22//22 4//4 1//1
f 17//17 4//4 22//22
f 1//1 30//30 22//22
f 22//22 57//57 40//40
f 22//22 30//30 57//57
f 33//33 27//27 24//24
f 24//24 41//41 33//33
f 33//33 41//41 27//27
f 44//44 55//55 56//56
f 56//56 55//55 57//57
f 56//56 35//35 44//44
f 56//56 57//57 35//35
f 54//54 55//55 44//44
f 60//60 55//55 54//54
f 54//54 44//44 43//43
f 43//43 60//60 54//54
f 59//59 55//55 60//60
f 60//60 47//47 59//59
f 47//47 52//52 59//59
f 38//38 31//31 20//20
f 20//20 10//10 38//38
f 2//2 30//30 1//1
f 2//2 8//8 30//30
f 3//3 10//10 7//7
f 8//8 2//2 7//7
f 1//1 3//3 7//7
f 7//7 2//2 1//1
f 19//19 10//10 3//3
f 26//26 10//10 19//19
f 3//3 5//5 19//19
f 28//28 26//26 19//19
f 19//19 5//5 28//28
f 40//40 47//47 42//42
f 49//49 50//50 51//51
f 51//51 50//50 41//41
f 51//51 41//41 32//32
f 32//32 36//36 51//51
f 36//36 49//49 51//51
f 40//40 57//57 46//46
f 57//57 52//52 46//46
f 46//46 47//47 40//40
f 46//46 52//52 47//47
f 57//57 55//55 58//58
f 55//55 59//59 58//58
f 58//58 52//52 57//57
f 58//58 59//59 52//52
f 14//14 20//20 12//12
f 13//13 20//20 14//14
f 12//12 8//8 14//14
f 14//14 8//8 13//13
f 21//21 31//31 12//12
f 12//12 20//20 21//21
f 21//21 20//20 31//31
f 8//8 7//7 6//6
f 6//6 7//7 10//10
f 37//37 50//50 48//48
f 48//48 42//42 37//37
f 40//40 42//42 48//48
f 37//37 42//42 53//53
f 53//53 34//34 37//37
f 60//60 34//34 53//53
f 53//53 47//47 60//60
f 53//53 42//42 47//47
f 13//13 8//8 11//11
f 8//8 6//6 11//11
f 11//11 6//6 10//10
f 11//11 20//20 13//13
f 10//10 20//20 11//11
f 45//45 49//49 40//40
f 40//40 48//48 45//45
f 45//45 50//50 49//49
f 45//45 48//48 50//50