# https://github.com/mikedh/trimesh
v 1.27019168 -0.13562138 -1.16536051
v 1.27019168 0.86436479 -1.17132945
v 1.75094609 -0.13562138 -1.16536051
v 1.31169838 0.86436479 -1.17064450
v 1.91756060 -0.03470266 -1.16447982
v 1.27019168 0.86436479 -0.26756855
v 1.90052724 -0.13562138 -0.22196951
v 1.46627206 0.86436479 -0.17314139
v 1.37493758 0.86436479 -0.18889556
v 1.30748902 0.86436479 -0.21776188
v 1.27018633 -0.13562069 -0.27822954
v 1.49554217 0.84048105 -1.16066360
v 2.00429418 0.08604989 -1.16175220
v 1.94849499 -0.13562138 -1.16306099
v 2.01224377 -0.03246351 -0.17306230
v 1.54280788 0.86436479 -0.17253180
v 1.84247632 0.64265681 -1.13463495
v 2.10338675 0.04282172 -1.13223759
v 2.25716935 -0.13562138 -0.22197036
v 2.16816774 -0.08902845 -0.87385944
v 1.81653462 0.67960816 -1.10317555
v 1.92042756 0.57552570 -1.12816539
v 1.81498099 0.53054112 -1.16351066
v 2.03420060 0.30177468 -1.14371075
v 2.11451092 0.17824571 -1.11784447
v 2.12372414 -0.13562138 -1.11770656
v 2.05901203 -0.13560062 -1.14983862
v 2.26884012 0.06869137 -0.21312736
v 2.27018631 -0.03345540 -0.21780548
v 2.16846144 0.01394585 -0.90458497
v 2.13870173 -0.03470266 -1.08864453
v 1.84541322 0.75346187 -0.17314139
v 1.68897951 0.86250504 -0.17314139
v 1.68711956 0.86436479 -0.17348387
v 1.51561465 0.86437864 -1.13629467
v 1.98549858 0.50871438 -1.03425106
v 2.02803329 0.41243291 -1.11770656
v 2.16826554 0.12269534 -0.84567807
v 2.13674390 0.06866318 -1.08864453
v 1.78971179 0.71215467 -1.05968034
v 1.61487430 0.86436479 -0.85644178
v 1.82074409 0.73092401 -0.87821385
v 1.83425334 0.74049222 -0.77047882
v 1.86367031 0.66791098 -0.98707418
v 2.02632019 0.55935728 -0.55769967
v 2.16386042 0.42192769 -0.22196951
v 2.08874107 0.27280914 -1.11748828
v 2.16806979 0.32786085 -0.46699089
v 2.22191118 0.27539486 -0.21986570
v 2.22738125 -0.03386126 -0.17357833
v 2.01284151 0.62499482 -0.19831993
v 1.77310921 0.86436092 -0.19342484
v 1.78442567 0.86436479 -0.24339910
v 1.75650562 0.86436382 -0.40222683
v 2.18657168 0.37024477 -0.22196951
v 2.08547223 0.37856492 -0.86370729
v 2.18151535 0.31389039 -0.17132949
v 2.12141926 0.49546887 -0.21862380
v 2.00322652 0.63907280 -0.33409216
v 1.89461686 0.76704334 -0.23626814
vn -0.83929847 -0.52421154 -0.14415388
vn -0.83112115 0.53325627 -0.15771936
vn 0.04673892 -0.96172699 -0.26999383
vn 0.27787985 0.92635067 -0.25427787
vn 0.56969993 -0.03091166 -0.82127124
vn -0.85921499 0.51151800 0.00994685
vn -0.19251397 -0.97650214 0.09686044
vn -0.68568125 0.68705606 0.24040632
vn -0.85438508 0.50846362 0.10719555
vn -0.86607525 0.49809795 0.04256860
vn -0.86006368 -0.50625697 0.06320080
vn 0.76212696 0.62467768 -0.17011848
vn 0.96823571 0.04667021 -0.24564508
vn 0.47782740 -0.84269963 -0.24806916
vn -0.52142496 -0.76100907 0.38598083
vn -0.03562993 0.96030842 0.27665548
vn 0.91582145 0.39527928 -0.07088974
vn 0.99774502 0.02201488 -0.06340523
vn 0.80905661 -0.58588909 0.04649055
vn 0.99903078 -0.04378140 -0.00454816
vn 0.89574716 0.44434684 -0.01388891
vn 0.95555233 0.29013474 -0.05236003
vn 0.92709281 0.25526721 -0.27447692
vn 0.98402132 0.14380992 -0.10497979
vn 0.99706570 0.06848897 -0.03419431
vn 0.86169750 -0.50661469 -0.02861790
vn 0.82583139 -0.55369401 -0.10688998
vn 0.99901543 0.04145447 0.01580197
vn 0.99952323 -0.02837258 0.01217839
vn 0.99997130 0.00603010 -0.00458597
vn 0.99990067 -0.01025221 -0.00967134
vn 0.90616610 0.35615649 0.22806918
vn 0.72698068 0.60442452 0.32583752
vn 0.35384424 0.92475451 0.14008333
vn 0.59932230 0.79985369 -0.03235530
vn 0.96939096 0.24547288 -0.00492344
vn 0.97993476 0.19719631 -0.02900825
vn 0.99781619 0.06589804 -0.00450566
vn 0.99954215 0.02840343 -0.01042751
vn 0.87906140 0.47661707 -0.00933918
vn 0.55995303 0.82850622 -0.00548162
vn 0.89348766 0.44902807 -0.00732062
vn 0.91769891 0.39723501 -0.00575010
vn 0.93063435 0.36589282 -0.00649280
vn 0.96516443 0.26160232 -0.00467497
vn 0.98131453 0.19224984 0.00786041
vn 0.99095969 0.13134971 -0.02731569
vn 0.98942989 0.14494180 -0.00451277
vn 0.99340943 0.11443246 0.00655156
vn 0.89895243 -0.38772768 0.20384252
vn 0.95329297 0.29968726 0.03768378
vn 0.69123838 0.72145134 0.04120030
vn 0.65071085 0.75932562 0.00004314
vn 0.63921204 0.76902259 -0.00349619
vn 0.98775138 0.15592134 0.00597947
vn 0.98464294 0.17451738 -0.00468574
vn 0.97140835 0.14333392 0.18926490
vn 0.96851066 0.24862573 0.01312793
vn 0.95233143 0.30504080 -0.00386662
vn 0.93409277 0.35700769 0.00402563
f 11//11 2//2 1//1
f 6//6 2//2 11//11
f 11//11 10//10 6//6
f 7//7 15//15 11//11
f 11//11 1//1 7//7
f 7//7 1//1 19//19
f 57//57 15//15 50//50
f 50//50 19//19 29//29
f 15//15 7//7 50//50
f 50//50 7//7 19//19
f 28//28 50//50 29//29
f 57//57 50//50 28//28
f 29//29 19//19 20//20
f 20//20 31//31 29//29
f 30//30 28//28 29//29
f 29//29 31//31 30//30
f 5//5 14//14 3//3
f 3//3 1//1 2//2
f 2//2 5//5 3//3
f 19//19 1//1 3//3
f 3//3 14//14 19//19
f 31//31 20//20 26//26
f 26//26 20//20 19//19
f 26//26 14//14 27//27
f 19//19 14//14 26//26
f 11//11 15//15 8//8
f 53//53 34//34 52//52
f 52//52 34//34 33//33
f 4//4 5//5 2//2
f 31//31 26//26 39//39
f 39//39 30//30 31//31
f 38//38 28//28 39//39
f 28//28 30//30 39//39
f 58//58 51//51 57//57
f 9//9 10//10 11//11
f 11//11 8//8 9//9
f 32//32 52//52 33//33
f 51//51 52//52 32//32
f 32//32 33//33 57//57
f 57//57 51//51 32//32
f 5//5 4//4 23//23
f 23//23 4//4 12//12
f 18//18 26//26 27//27
f 45//45 58//58 36//36
f 49//49 28//28 38//38
f 57//57 28//28 49//49
f 54//54 42//42 41//41
f 59//59 58//58 45//45
f 51//51 58//58 59//59
f 41//41 42//42 40//40
f 35//35 6//6 10//10
f 2//2 6//6 35//35
f 35//35 4//4 2//2
f 35//35 34//34 53//53
f 35//35 9//9 8//8
f 10//10 9//9 35//35
f 53//53 54//54 35//35
f 35//35 54//54 41//41
f 12//12 4//4 35//35
f 41//41 40//40 35//35
f 5//5 23//23 13//13
f 13//13 23//23 24//24
f 13//13 14//14 5//5
f 27//27 14//14 13//13
f 13//13 18//18 27//27
f 24//24 18//18 13//13
f 25//25 18//18 24//24
f 25//25 39//39 26//26
f 26//26 18//18 25//25
f 38//38 39//39 25//25
f 25//25 49//49 38//38
f 55//55 49//49 48//48
f 57//57 49//49 55//55
f 51//51 59//59 60//60
f 53//53 52//52 60//60
f 60//60 52//52 51//51
f 44//44 59//59 22//22
f 45//45 36//36 22//22
f 22//22 59//59 45//45
f 24//24 23//23 22//22
f 34//34 35//35 16//16
f 16//16 35//35 8//8
f 33//33 34//34 16//16
f 57//57 33//33 16//16
f 16//16 15//15 57//57
f 16//16 8//8 15//15
f 46//46 36//36 58//58
f 46//46 58//58 57//57
f 57//57 55//55 46//46
f 48//48 56//56 46//46
f 46//46 55//55 48//48
f 43//43 60//60 59//59
f 44//44 42//42 43//43
f 43//43 59//59 44//44
f 42//42 54//54 43//43
f 43//43 54//54 53//53
f 53//53 60//60 43//43
f 37//37 22//22 36//36
f 24//24 22//22 37//37
f 36//36 46//46 37//37
f 37//37 46//46 56//56
f 12//12 35//35 17//17
f 17//17 23//23 12//12
f 17//17 22//22 23//23
f 47//47 37//37 56//56
f 47//47 56//56 48//48
f 47//47 25//25 24//24
f 24//24 37//37 47//47
f 48//48 49//49 47//47
f 49//49 25//25 47//47
f 22//22 17//17 21//21
f 44//44 22//22 21//21
f 21//21 35//35 40//40
f 21//21 17//17 35//35
f 21//21 42//42 44//44
f 21//21 40//40 42//42