# https://github.com/mikedh/trimesh
v 0.50012736 1.48502271 -0.13696232
v 0.36133008 2.27089061 -0.95808118
v 0.46737591 1.63113306 -0.12562527
v 0.42021832 1.80779644 -0.12653626
v 0.48110687 1.48926235 -0.10837591
v 0.26919084 2.48025620 -0.96133464
v 0.33762642 2.36600219 -0.94040709
v 0.48926237 1.48502271 -0.26475912
v 0.32238809 2.37786685 -1.01125326
v 0.45138189 1.48502271 -0.53849792
v 0.42544304 1.48502271 -0.70239000
v 0.37528720 1.94213994 -0.11962067
v 0.32424742 2.34676545 -0.72939585
v 0.25620435 2.43340900 -0.49454338
v 0.23011193 2.48486906 -0.67355274
v 0.37303894 2.18824386 -0.97630489
v 0.42123412 1.48502271 -0.71507214
v 0.27276430 2.40665574 -0.44992045
v 0.21239824 2.47609869 -0.44559681
v 0.37360185 1.78851582 -0.97290584
v 0.12158189 2.48468392 -1.05610814
v 0.27300878 2.17721488 -0.11748269
v 0.01896302 2.41363276 -0.12853819
v 0.11289654 2.36539667 -0.10806417
v -0.33194603 2.00140723 -0.10791880
v 0.34401424 1.91124686 -1.02289656
v 0.32517218 1.62415559 -1.01613542
v 0.05813927 2.48475559 -0.42904143
v -0.47795767 1.48512274 -0.10837991
v 0.15585711 1.60449135 -1.08817789
v 0.19511474 2.28276464 -1.08186754
v 0.39341103 1.48502271 -0.72790059
v -0.02991419 2.41579025 -0.12987642
v -0.46714754 1.63203425 -0.12574663
v -0.37354995 2.18792746 -0.97108762
v -0.49987264 1.48503448 -0.13730580
v -0.11355134 2.38877551 -1.08877377
v -0.20876710 2.48493130 -0.45807985
v -0.25611224 2.42894021 -0.47003883
v -0.14550716 2.33914019 -0.11238561
v -0.23291410 2.34557209 -0.28300187
v -0.28176744 2.16309784 -0.12307066
v -0.36818762 1.97069668 -0.13696232
v -0.42026273 1.80752336 -0.12641576
v -0.33718994 2.36767159 -0.94224194
v -0.48926816 1.48502271 -0.26475912
v -0.26365168 2.48486008 -0.97261052
v -0.28058925 2.37056100 -0.42073617
v -0.33147400 2.35925986 -0.85073165
v -0.37496923 1.79800531 -0.97160489
v -0.45040885 1.48502271 -0.54600964
v -0.30065768 2.43749943 -1.02204553
v -0.07196835 1.60500866 -1.09347680
v -0.32753553 1.48502273 -0.73887453
v -0.24391499 1.97237105 -1.07357755
v -0.42387728 1.48493130 -0.71323140
v -0.32833540 1.61926033 -1.00600763
v -0.21806999 1.61076423 -1.06943847
v -0.34526552 1.75408500 -1.02044054
v -0.06720454 1.99161717 -1.10791883
vn 0.49645559 -0.86786486 0.01850473
vn 0.31678597 0.94848547 -0.00468651
vn 0.28093377 0.95932427 0.02780589
vn 0.23463164 0.97185161 0.02127047
vn 0.41666433 -0.89363361 0.16676273
vn 0.05831692 0.99829530 -0.00237392
vn 0.18351138 0.98301750 0.00040210
vn 0.33304668 -0.94289993 -0.00443115
vn 0.23451666 0.97100473 -0.04638701
vn 0.27720532 -0.96079245 -0.00592343
vn 0.26526454 -0.96415202 -0.00675287
vn 0.18530105 0.98071089 0.06220675
vn 0.20442906 0.97887693 0.00295298
vn 0.08145734 0.99667580 0.00143368
vn 0.03183359 0.99949301 0.00058907
vn 0.62637587 0.77840570 -0.04168731
vn 0.16232227 -0.98669796 -0.00886636
vn 0.13984474 0.99016486 0.00412345
vn 0.04345988 0.99905034 0.00310902
vn 0.65797374 -0.75184889 -0.04235328
vn 0.03093674 0.99906498 -0.03020076
vn 0.13068679 0.98918196 0.06663341
vn 0.00862916 0.99987671 0.01311862
vn 0.04998058 0.99334610 0.10375672
vn -0.17095415 0.97461224 0.14458794
vn 0.95475454 -0.20216391 -0.21811355
vn 0.20679080 -0.97740516 -0.04378025
vn 0.00198956 0.99999684 0.00153788
vn -0.38954737 -0.90690135 0.16057020
vn 0.12865844 -0.98591212 -0.10688449
vn 0.24801228 0.95501540 -0.16258996
vn 0.00654519 -0.99997445 -0.00287273
vn -0.01475937 0.99975416 0.01654619
vn -0.28402716 0.95825336 0.03284919
vn -0.57063840 0.82035889 -0.03719015
vn -0.49780902 -0.86706741 0.01950096
vn -0.08041956 0.99224093 -0.09481898
vn -0.04403627 0.99902613 0.00275827
vn -0.10742217 0.99421017 0.00257090
vn -0.06089729 0.99465485 0.08338620
vn -0.09041091 0.99587999 0.00699399
vn -0.12564690 0.99173615 0.02592809
vn -0.18172776 0.98326888 0.01254330
vn -0.22712857 0.97337480 0.03088853
vn -0.19982066 0.97983248 -0.00011370
vn -0.33509923 -0.94217272 -0.00436788
vn -0.04709386 0.99888961 -0.00130647
vn -0.14710592 0.98910738 0.00514115
vn -0.18928142 0.98191895 0.00277790
vn -0.68734722 -0.72508268 -0.04253124
vn -0.27953088 -0.96011816 -0.00596627
vn -0.20325051 0.97797345 -0.04750956
vn -0.04074355 -0.99561927 -0.08415595
vn -0.00286494 -0.99999283 -0.00247517
vn -0.84914038 0.35222037 -0.39357518
vn -0.26464735 -0.96431259 -0.00793735
vn -0.15797161 -0.98723144 -0.02047065
vn -0.14005729 -0.98729408 -0.07506241
vn -0.63306183 -0.76430874 -0.12273906
vn -0.26973426 0.36245682 -0.89211461
f 24//24 5//5 22//22
f 56//56 1//1 36//36
f 36//36 1//1 29//29
f 1//1 5//5 29//29
f 36//36 29//29 34//34
f 36//36 35//35 46//46
f 46//46 56//56 36//36
f 53//53 32//32 54//54
f 32//32 56//56 54//54
f 60//60 53//53 58//58
f 53//53 54//54 58//58
f 58//58 54//54 56//56
f 60//60 58//58 55//55
f 55//55 58//58 59//59
f 50//50 56//56 35//35
f 35//35 59//59 50//50
f 60//60 55//55 37//37
f 38//38 40//40 33//33
f 33//33 40//40 24//24
f 33//33 28//28 38//38
f 25//25 40//40 42//42
f 24//24 40//40 25//25
f 25//25 5//5 24//24
f 25//25 29//29 5//5
f 38//38 47//47 39//39
f 39//39 48//48 38//38
f 48//48 39//39 45//45
f 45//45 35//35 36//36
f 36//36 34//34 45//45
f 42//42 40//40 41//41
f 41//41 48//48 42//42
f 41//41 40//40 38//38
f 38//38 48//48 41//41
f 42//42 48//48 43//43
f 43//43 25//25 42//42
f 3//3 5//5 1//1
f 12//12 22//22 5//5
f 5//5 3//3 12//12
f 12//12 3//3 4//4
f 1//1 56//56 8//8
f 30//30 32//32 53//53
f 30//30 53//53 60//60
f 1//1 8//8 16//16
f 17//17 56//56 32//32
f 17//17 11//11 56//56
f 32//32 30//30 17//17
f 17//17 30//30 27//27
f 35//35 56//56 51//51
f 51//51 46//46 35//35
f 56//56 46//46 51//51
f 57//57 58//58 56//56
f 59//59 58//58 57//57
f 56//56 50//50 57//57
f 57//57 50//50 59//59
f 15//15 28//28 19//19
f 19//19 6//6 15//15
f 15//15 47//47 38//38
f 38//38 28//28 15//15
f 60//60 37//37 31//31
f 31//31 30//30 60//60
f 24//24 19//19 23//23
f 23//23 33//33 24//24
f 19//19 28//28 23//23
f 28//28 33//33 23//23
f 48//48 45//45 49//49
f 52//52 39//39 47//47
f 52//52 45//45 39//39
f 35//35 45//45 52//52
f 52//52 37//37 55//55
f 52//52 59//59 35//35
f 52//52 55//55 59//59
f 22//22 12//12 18//18
f 24//24 22//22 18//18
f 18//18 19//19 24//24
f 18//18 12//12 4//4
f 11//11 16//16 10//10
f 10//10 16//16 8//8
f 56//56 11//11 10//10
f 10//10 8//8 56//56
f 2//2 3//3 1//1
f 1//1 16//16 2//2
f 2//2 16//16 9//9
f 20//20 17//17 27//27
f 20//20 16//16 11//11
f 11//11 17//17 20//20
f 9//9 31//31 21//21
f 21//21 31//31 37//37
f 21//21 6//6 9//9
f 47//47 15//15 21//21
f 21//21 15//15 6//6
f 21//21 52//52 47//47
f 37//37 52//52 21//21
f 27//27 30//30 26//26
f 30//30 31//31 26//26
f 26//26 31//31 9//9
f 9//9 16//16 26//26
f 26//26 20//20 27//27
f 16//16 20//20 26//26
f 44//44 43//43 48//48
f 48//48 49//49 44//44
f 25//25 43//43 44//44
f 44//44 45//45 34//34
f 44//44 49//49 45//45
f 44//44 34//34 29//29
f 29//29 25//25 44//44
f 14//14 6//6 19//19
f 19//19 18//18 14//14
f 14//14 18//18 6//6
f 13//13 18//18 4//4
f 4//4 3//3 7//7
f 7//7 13//13 4//4
f 3//3 2//2 7//7
f 7//7 2//2 9//9
f 9//9 6//6 7//7
f 6//6 18//18 7//7
f 18//18 13//13 7//7