# https://github.com/mikedh/trimesh
v 1.58774194 -3.74849572 1.85353320
v 1.60144739 -3.74849572 1.92347851
v 1.59919452 -2.94720372 2.20396389
v 1.60134807 -3.74849572 2.20406178
v 1.49563165 -3.74849572 1.43321216
v 1.49289090 -2.74849569 1.43321216
v 1.59919452 -2.94720372 1.92361944
v 1.59459387 -2.74849569 2.20396389
v 1.58637152 -2.74849569 2.27405000
v 1.59674742 -3.04332726 2.22716283
v 1.60056494 -3.45053171 2.15521685
v 1.59312563 -3.74849572 2.27405000
v 1.46342737 -3.74849572 1.38113708
v 1.46700016 -2.74849569 1.38994676
v 1.58040054 -2.74849569 1.85353320
v 1.58568631 -3.04406152 1.85353320
v 1.59430031 -2.74849569 1.92361944
v 1.59439813 -2.74849569 1.99370555
v 1.55935509 -2.74849569 2.32211183
v 1.59102108 -2.99526549 2.27405000
v 1.56258532 -3.74849572 2.32377604
v 1.38678307 -3.74849572 1.36018936
v 1.38678292 -2.74849569 1.36067899
v 1.46259529 -3.14091932 1.38147962
v 1.48907337 -2.74849569 2.34061242
v 1.48907337 -2.94720372 2.34168906
v 1.56170442 -3.11681501 2.32340887
v 1.50718214 -3.74849572 2.33699046
v 1.28430480 -3.74849572 1.35617618
v 1.28439473 -2.74849569 1.35617617
v 1.38453164 -2.74849569 2.34188483
v 1.48907337 -3.74849572 2.34031864
v 0.87787612 -2.74849569 1.34188486
v 1.07991183 -2.74849569 2.33424987
v 1.00312066 -2.74849569 2.32774042
v 1.40890513 -3.74849572 2.33111747
v 0.76961473 -2.74849569 1.34227641
v 1.06728461 -3.74849572 1.35642089
v 0.94482979 -2.74849569 2.32034986
v 0.92231615 -2.81182765 2.31163826
v 1.39157939 -3.74849572 2.32778930
v 0.97762146 -3.74849572 1.35891702
v 0.91879227 -2.74849569 2.31398731
v 0.70833839 -3.74849572 1.97011507
v 0.95716341 -3.74849572 1.36410492
v 0.89706166 -3.74849572 1.37986454
v 0.67133765 -2.74849569 1.36410492
v 0.70931725 -2.74849569 1.96933197
v 0.70735953 -2.94720372 1.97080028
v 0.69130630 -3.74849572 1.92361944
v 0.88766467 -3.74849572 1.39317698
v 0.61808795 -2.74849569 1.41275408
v 0.68939756 -2.99531444 1.92361944
v 0.60399244 -2.74849569 1.57338452
v 0.60203472 -2.74849569 1.53932033
v 0.60144742 -2.74849569 1.50329828
v 0.70080120 -3.74849572 1.85353320
v 0.86113768 -3.74849572 1.43321216
v 0.69845196 -2.74849569 1.93898744
v 0.60898458 -2.74849569 1.45313193
vn 0.33228027 -0.94262634 -0.03233268
vn 0.34560316 -0.93824773 -0.01580034
vn 0.99413595 0.10444317 0.02802386
vn 0.34104229 -0.94000091 0.00940477
vn 0.34397920 -0.93664374 -0.06615752
vn 0.33925999 0.93851395 -0.06398611
vn 0.99278240 0.11050279 -0.04660718
vn 0.31947015 0.94755564 0.00878209
vn 0.33262931 0.94158216 0.05273304
vn 0.99819599 0.02341769 0.05528456
vn 0.99976333 0.02175440 0.00016678
vn 0.35266450 -0.93390898 0.05866663
vn 0.28552431 -0.93741131 -0.19933868
vn 0.29032982 0.94110733 -0.17327894
vn 0.31148650 0.94977238 -0.03014287
vn 0.99348207 0.05925656 -0.09737579
vn 0.32253277 0.94643812 -0.01508269
vn 0.31152199 0.95023893 -0.00014898
vn 0.28005521 0.93999413 0.19488490
vn 0.98385723 0.07569774 0.16215675
vn 0.28205213 -0.93726272 0.20490286
vn 0.08113778 -0.96493184 -0.24964617
vn 0.09590382 0.96399981 -0.24800568
vn 0.82108035 0.03664711 -0.56963501
vn 0.07054312 0.96634177 0.24740100
vn 0.25944536 0.03548560 0.96510563
vn 0.81512886 0.03740800 0.57807057
vn 0.10256035 -0.96851409 0.22685201
vn 0.01447748 -0.97193556 -0.23480134
vn 0.01954966 0.97196396 -0.23431575
vn -0.00656373 0.97087591 0.23949299
vn 0.03237629 -0.96740039 0.25117377
vn 0.00290662 0.96847102 -0.24910930
vn -0.03956168 0.96454997 0.26091804
vn -0.06960884 0.95832993 0.27705299
vn -0.05440960 -0.97928741 0.19502760
vn -0.09234064 0.95073936 -0.29591870
vn -0.00410028 -0.97515375 -0.22149119
vn -0.11628091 0.94782283 0.29683437
vn -0.44760959 -0.79947050 0.40061524
vn -0.08850651 -0.98243681 0.16426966
vn -0.04597423 -0.97479076 -0.21833311
vn -0.31665134 0.91572477 0.24734607
vn -0.31622411 -0.94387587 0.09539741
vn -0.09155300 -0.98159037 -0.16762574
vn -0.16124395 -0.97521846 -0.15149038
vn -0.36590121 0.88094172 -0.30009664
vn -0.31859023 0.94517051 0.07178421
vn -0.97332995 0.04820874 0.22428716
vn -0.33423660 -0.94177030 0.03680484
vn -0.16975705 -0.98395991 -0.05482185
vn -0.54786468 0.82168687 -0.15708269
vn -0.98847680 0.05252443 0.14196760
vn -0.39175503 0.91990885 0.01719581
vn -0.40616381 0.91378906 0.00452899
vn -0.47075116 0.88186924 -0.02645729
vn -0.22757934 -0.97357210 -0.01910517
vn -0.18120385 -0.98241596 -0.04498937
vn -0.31680595 0.94732471 0.04700945
vn -0.49460768 0.86773958 -0.04890052
f 19//19 20//20 9//9
f 9//9 20//20 3//3
f 47//47 37//37 42//42
f 6//6 1//1 5//5
f 5//5 14//14 6//6
f 16//16 1//1 6//6
f 9//9 3//3 8//8
f 10//10 3//3 20//20
f 52//52 47//47 46//46
f 60//60 57//57 56//56
f 52//52 57//57 60//60
f 50//50 55//55 56//56
f 56//56 57//57 50//50
f 54//54 55//55 50//50
f 23//23 14//14 24//24
f 13//13 23//23 24//24
f 24//24 5//5 13//13
f 14//14 5//5 24//24
f 42//42 37//37 38//38
f 38//38 29//29 13//13
f 37//37 33//33 38//38
f 38//38 33//33 29//29
f 22//22 23//23 13//13
f 13//13 29//29 22//22
f 7//7 16//16 6//6
f 7//7 3//3 2//2
f 2//2 1//1 7//7
f 1//1 16//16 7//7
f 7//7 8//8 3//3
f 31//31 34//34 32//32
f 40//40 43//43 44//44
f 45//45 47//47 42//42
f 45//45 46//46 47//47
f 58//58 57//57 52//52
f 54//54 50//50 53//53
f 53//53 50//50 44//44
f 29//29 33//33 30//30
f 23//23 22//22 30//30
f 30//30 22//22 29//29
f 15//15 7//7 6//6
f 17//17 7//7 15//15
f 18//18 7//7 17//17
f 8//8 7//7 18//18
f 41//41 40//40 44//44
f 36//36 40//40 41//41
f 36//36 32//32 35//35
f 35//35 32//32 34//34
f 52//52 46//46 51//51
f 51//51 58//58 52//52
f 54//54 53//53 59//59
f 59//59 53//53 48//48
f 49//49 53//53 44//44
f 48//48 53//53 49//49
f 43//43 48//48 49//49
f 44//44 43//43 49//49
f 26//26 25//25 31//31
f 31//31 32//32 26//26
f 19//19 25//25 26//26
f 20//20 19//19 27//27
f 19//19 26//26 27//27
f 27//27 26//26 21//21
f 3//3 10//10 4//4
f 4//4 1//1 2//2
f 43//43 40//40 39//39
f 39//39 40//40 36//36
f 36//36 35//35 39//39
f 28//28 26//26 32//32
f 21//21 26//26 28//28
f 2//2 3//3 11//11
f 11//11 4//4 2//2
f 3//3 4//4 11//11
f 12//12 10//10 20//20
f 12//12 4//4 10//10
f 20//20 27//27 12//12
f 12//12 27//27 21//21
f 23//23 30//30 39//39
f 39//39 33//33 37//37
f 56//56 55//55 39//39
f 9//9 8//8 39//39
f 37//37 47//47 39//39
f 54//54 59//59 39//39
f 39//39 18//18 17//17
f 39//39 60//60 56//56
f 6//6 14//14 39//39
f 39//39 55//55 54//54
f 39//39 19//19 9//9
f 39//39 47//47 52//52
f 39//39 14//14 23//23
f 39//39 48//48 43//43
f 39//39 15//15 6//6
f 52//52 60//60 39//39
f 39//39 34//34 31//31
f 31//31 25//25 39//39
f 39//39 30//30 33//33
f 17//17 15//15 39//39
f 8//8 18//18 39//39
f 39//39 25//25 19//19
f 39//39 35//35 34//34
f 39//39 59//59 48//48
f 12//12 51//51 46//46
f 44//44 50//50 12//12
f 13//13 5//5 12//12
f 57//57 58//58 12//12
f 12//12 5//5 1//1
f 42//42 38//38 12//12
f 12//12 45//45 42//42
f 12//12 50//50 57//57
f 12//12 38//38 13//13
f 12//12 32//32 36//36
f 46//46 45//45 12//12
f 12//12 41//41 44//44
f 1//1 4//4 12//12
f 36//36 41//41 12//12
f 58//58 51//51 12//12
f 12//12 28//28 32//32
f 21//21 28//28 12//12