# https://github.com/mikedh/trimesh
v 1.60817369 -1.05937968 3.69451018
v 1.16629716 -1.47920457 3.69993785
v 1.32516685 -1.07020608 3.69983385
v 1.60817369 -1.73928338 3.69827350
v 1.68990442 -0.85697849 3.66550237
v 1.05587698 -1.47920457 3.68750404
v 1.05587698 -1.06749489 3.69049003
v 1.16641754 -1.78265702 3.68711967
v 1.68389172 -1.78501801 3.65617429
v 1.73523511 -1.28419450 3.58396959
v 1.51948508 -0.85697827 3.66165709
v 0.99919857 -0.98034395 3.64050966
v 1.35965484 -0.92975125 3.68456684
v 0.98353613 -1.02416476 3.65553796
v 0.99498928 -1.77294646 3.64550270
v 1.04667528 -1.78550869 3.66214656
v 0.98184749 -1.37087929 3.65793671
v 1.52327526 -1.82166829 3.62453892
v 1.73239632 -1.76097299 3.58392070
v 1.73370562 -0.86468247 3.49629574
v 0.94516312 -1.04580529 3.58401848
v 0.95343484 -1.45756406 3.58392070
v 0.77571513 -1.71769193 3.09219367
v 1.00370148 -1.80180047 3.63277498
v 1.15723313 -1.83968361 3.57491034
v 1.64417432 -1.82877291 3.31985524
v 1.75133808 -1.71764285 3.47358181
v 1.73616513 -0.89407628 3.39775460
v 0.76736592 -0.85698197 3.10217076
v 0.75202338 -0.85698003 3.03219112
v 0.77405100 -1.75255722 2.99316284
v 0.78648308 -1.77540003 3.06037455
v 0.88329653 -1.83188131 3.03173737
v 1.73784152 -1.76787982 3.19575244
v 1.75202335 -1.69600232 3.17683238
v 1.74431450 -1.30590866 3.03173737
v 1.73269004 -0.85697827 3.01220539
v 0.83033789 -1.78764335 2.89804829
v 1.22114933 -1.85697830 3.19695328
v 1.73719290 -1.69600232 2.92139867
v 1.68443011 -0.85697827 2.84454344
v 1.72047480 -0.85697879 2.92135880
v 0.76212981 -0.85698340 2.91828181
v 0.77503624 -0.85698369 2.86565300
v 1.70613725 -1.76107114 2.88186956
v 1.69162507 -1.56599974 2.83737182
v 0.98803909 -1.69600232 2.74546368
v 0.84580458 -1.73938153 2.84248740
v 1.58726185 -1.82666130 2.90304760
v 1.53863104 -1.77820580 2.71424343
v 1.60134225 -0.85698737 2.76018030
v 0.98040362 -0.85697827 2.73880609
v 1.05577909 -1.69600232 2.72451199
v 1.05577909 -0.85697827 2.71178446
v 1.16629716 -1.78276074 2.71374253
v 1.56319377 -0.85699038 2.72746932
v 1.16678666 -0.85697827 2.69993790
v 1.14717524 -1.83270837 2.77319620
v 1.31337717 -0.85697827 2.70003587
v 1.49132759 -0.85697827 2.71015881
vn 0.16580228 0.00588183 0.98614147
vn -0.05638273 -0.00246077 0.99840620
vn -0.00885058 0.00892727 0.99992098
vn 0.21478389 -0.04039924 0.97582569
vn 0.60352761 0.29033545 0.74260336
vn -0.26934634 -0.00511340 0.96302980
vn -0.23154157 0.01766346 0.97266464
vn -0.08662012 -0.12832907 0.98794160
vn 0.65712786 -0.21014853 0.72389265
vn 0.95495090 0.00120344 0.29676139
vn -0.14005227 0.40785443 0.90224172
vn -0.57680571 0.14692479 0.80355975
vn -0.10634870 0.06864067 0.99195686
vn -0.63483065 0.04667893 0.77123999
vn -0.70545477 -0.03952540 0.70765197
vn -0.25840932 -0.09540887 0.96131252
vn -0.70825881 -0.00247444 0.70594853
vn 0.27119497 -0.46148856 0.84467840
vn 0.95723728 -0.09620890 0.27283813
vn 0.97334597 0.20297254 0.10676967
vn -0.91299916 0.00912655 0.40785933
vn -0.92723041 -0.00507101 0.37445700
vn -0.97808343 -0.02053020 0.20719872
vn -0.67971537 -0.24561614 0.69112932
vn -0.24830252 -0.60133656 0.75943413
vn 0.86052885 -0.50596371 0.05908318
vn 0.99751991 -0.02064965 0.06728759
vn 0.99996417 0.00692609 0.00486642
vn -0.86840800 0.35114480 0.35009267
vn -0.94021907 0.33544740 0.05884847
vn -0.98115936 -0.05889084 -0.18400590
vn -0.98168628 -0.15097470 0.11618389
vn -0.85672284 -0.50180732 -0.11922832
vn 0.98828473 -0.14149294 -0.05721044
vn 0.99944741 -0.01415349 -0.03007595
vn 0.99775457 0.00296106 -0.06691081
vn 0.93236201 0.35566361 -0.06484192
vn -0.79712375 -0.19709610 -0.57074237
vn -0.04132221 -0.99914544 0.00092711
vn 0.95387996 -0.01985593 -0.29953091
vn 0.77285266 0.33652050 -0.53800811
vn 0.90235755 0.33956046 -0.26542333
vn -0.92491069 0.34723973 -0.15480561
vn -0.77284692 0.30123868 -0.55853639
vn 0.89602118 -0.12828040 -0.42507669
vn 0.77622268 -0.00083598 -0.63045829
vn -0.42649750 -0.03039599 -0.90397786
vn -0.70216135 -0.05608095 -0.70980587
vn 0.72884886 -0.49902189 -0.46878192
vn 0.39871238 -0.15598390 -0.90371315
vn 0.63635521 0.35754294 -0.68353134
vn -0.40787088 0.34431568 -0.84562880
vn -0.21691475 -0.01439511 -0.97608441
vn -0.20970616 0.34163606 -0.91613762
vn -0.18254231 -0.09631692 -0.97846888
vn 0.43186670 0.32446669 -0.84155364
vn -0.04944632 0.35314347 -0.93426161
vn -0.23706644 -0.42456212 -0.87381149
vn 0.02530674 0.35874765 -0.93309147
vn 0.13605829 0.34865665 -0.92732232
f 30//30 11//11 52//52
f 7//7 12//12 14//14
f 30//30 52//52 44//44
f 35//35 27//27 34//34
f 29//29 11//11 30//30
f 29//29 12//12 11//11
f 14//14 12//12 29//29
f 29//29 21//21 14//14
f 11//11 12//12 13//13
f 12//12 7//7 13//13
f 3//3 7//7 2//2
f 2//2 4//4 3//3
f 3//3 4//4 1//1
f 3//3 13//13 7//7
f 1//1 13//13 3//3
f 10//10 27//27 20//20
f 14//14 21//21 17//17
f 17//17 7//7 14//14
f 46//46 50//50 56//56
f 5//5 37//37 11//11
f 20//20 37//37 5//5
f 11//11 13//13 5//5
f 5//5 13//13 1//1
f 5//5 10//10 20//20
f 5//5 4//4 9//9
f 1//1 4//4 5//5
f 28//28 37//37 20//20
f 36//36 37//37 28//28
f 35//35 36//36 28//28
f 28//28 27//27 35//35
f 20//20 27//27 28//28
f 30//30 44//44 43//43
f 9//9 4//4 8//8
f 8//8 4//4 2//2
f 27//27 10//10 19//19
f 19//19 34//34 27//27
f 19//19 5//5 9//9
f 10//10 5//5 19//19
f 38//38 48//48 55//55
f 22//22 17//17 21//21
f 22//22 15//15 17//17
f 50//50 46//46 45//45
f 45//45 49//49 50//50
f 51//51 46//46 56//56
f 51//51 41//41 46//46
f 42//42 41//41 37//37
f 42//42 37//37 36//36
f 54//54 55//55 53//53
f 57//57 55//55 54//54
f 60//60 51//51 56//56
f 41//41 51//51 60//60
f 56//56 50//50 60//60
f 7//7 17//17 6//6
f 17//17 15//15 6//6
f 2//2 7//7 6//6
f 6//6 8//8 2//2
f 30//30 43//43 31//31
f 31//31 43//43 44//44
f 31//31 48//48 38//38
f 44//44 48//48 31//31
f 16//16 15//15 24//24
f 24//24 8//8 16//16
f 16//16 6//6 15//15
f 8//8 6//6 16//16
f 58//58 39//39 33//33
f 49//49 39//39 58//58
f 58//58 33//33 38//38
f 38//38 55//55 58//58
f 50//50 49//49 58//58
f 58//58 55//55 50//50
f 53//53 55//55 47//47
f 47//47 55//55 48//48
f 52//52 54//54 47//47
f 47//47 54//54 53//53
f 47//47 44//44 52//52
f 47//47 48//48 44//44
f 21//21 29//29 23//23
f 23//23 22//22 21//21
f 23//23 29//29 30//30
f 30//30 31//31 23//23
f 15//15 22//22 23//23
f 40//40 42//42 36//36
f 40//40 36//36 35//35
f 40//40 45//45 46//46
f 35//35 34//34 40//40
f 34//34 45//45 40//40
f 46//46 41//41 40//40
f 41//41 42//42 40//40
f 24//24 33//33 25//25
f 33//33 39//39 25//25
f 25//25 8//8 24//24
f 26//26 39//39 49//49
f 26//26 19//19 9//9
f 34//34 19//19 26//26
f 26//26 45//45 34//34
f 49//49 45//45 26//26
f 41//41 60//60 59//59
f 59//59 60//60 50//50
f 50//50 55//55 59//59
f 59//59 55//55 57//57
f 24//24 15//15 32//32
f 15//15 23//23 32//32
f 32//32 23//23 31//31
f 32//32 33//33 24//24
f 38//38 33//33 32//32
f 32//32 31//31 38//38
f 18//18 25//25 39//39
f 39//39 26//26 18//18
f 18//18 26//26 9//9
f 9//9 8//8 18//18
f 8//8 25//25 18//18
f 11//11 37//37 59//59
f 59//59 52//52 11//11
f 37//37 41//41 59//59
f 59//59 54//54 52//52
f 57//57 54//54 59//59