# https://github.com/mikedh/trimesh
v 0.86329129 -0.98159555 0.12131099
v 0.83157639 -0.98159555 0.11710103
v 1.02989243 -0.93304423 0.07813493
v 1.02989243 -0.64534606 0.09118685
v 1.02991690 -0.37663768 0.10158311
v 1.02999031 -0.11423067 0.10961125
v 1.02999031 -0.02574208 0.11171629
v 0.86338918 0.01840443 0.10985609
v 0.55632233 -0.28787984 0.06609263
v 0.55632233 -0.40201454 0.06648421
v 0.55632233 -0.86662884 0.06780593
v 0.55632233 -0.91092214 0.06785490
v 1.02154769 -0.97396048 0.07529566
v 1.12552657 -0.60111398 0.04328075
v 1.13186466 -0.40475534 0.05064811
v 1.13786014 -0.21842997 0.05669379
v 1.14368434 -0.03680312 0.06168691
v 1.02999031 0.00739226 0.10873017
v 0.68078376 -0.98159555 0.08983456
v 0.64105599 0.01837178 0.07421360
v 0.55632233 -0.98159555 0.06491775
v 1.10066365 -0.97224746 0.02360189
v 1.11397608 -0.94811867 0.02702860
v 1.11648746 -0.87978528 0.03067555
v 1.16928139 -0.00361991 0.01459468
v 1.16154844 0.01840443 0.01209812
v 0.64109118 0.01840443 -0.18160658
v 0.55632233 -0.27838494 -0.15487859
v 1.28135418 -0.93304427 -0.39122084
v 1.39764829 -0.86667780 -0.60964652
v 1.45510709 -0.27838494 -0.87868898
v 1.46430834 -0.06107878 -0.87868898
v 1.46215482 -0.04757058 -0.87868898
v 1.41673596 -0.88879997 -0.72517421
v 1.41487614 -0.91092214 -0.86224096
v 1.44659105 -0.54580858 -0.86224096
v 1.55632233 -0.09200703 -0.63627898
v 0.55632280 -0.98159546 -0.20717397
v 0.62308025 -0.98159555 -0.74269917
v 1.15068315 -0.98159555 -0.12376933
v 1.36796450 -0.94410535 -0.75405613
v 1.24034628 -0.97728857 -0.37868902
v 0.91879238 -0.27838494 -0.87868898
v 1.35036958 -0.97728857 -0.86224096
v 1.34508376 -0.98159555 -0.86224096
v 1.41409305 0.01840443 -0.87868898
v 1.41379940 -0.91092214 -0.84070190
v 1.54978685 -0.07404863 -0.63627663
v 0.68719526 0.01840443 -0.72556582
v 0.69972459 -0.98159555 -0.83198838
v 1.28725791 -0.98159555 -0.57185525
v 0.91056999 0.01840443 -0.87868898
v 1.34175566 -0.98159555 -0.84070190
v 1.40782837 0.01840443 -0.83952707
v 1.51980941 -0.05226907 -0.63627663
v 0.73452292 0.01840443 -0.82386227
v 0.86338918 0.01840443 -0.87075867
v 0.79504357 -0.98159555 -0.86224042
v 1.33518510 0.01840443 -0.50811921
v 1.25020824 0.01840443 -0.21342567
vn 0.20781932 -0.16230447 0.96460789
vn -0.30341867 -0.17983321 0.93573347
vn 0.65575133 -0.00214612 0.75497390
vn 0.61041638 -0.00121631 0.79207977
vn 0.57769272 -0.00103074 0.81625367
vn 0.54203007 -0.00082703 0.84035869
vn 0.38601461 0.00123874 0.92249184
vn -0.06644427 0.17709091 0.98194907
vn -0.87581691 0.00172644 0.48264040
vn -0.88038510 0.00005949 0.47425951
vn -0.88072549 0.00004639 0.47362707
vn -0.88091082 -0.00004867 0.47328229
vn 0.74325663 -0.07785967 0.66446027
vn 0.88826035 -0.00117925 0.45933883
vn 0.88216997 -0.00108695 0.47092989
vn 0.87525804 -0.00100443 0.48365521
vn 0.86486504 0.00149056 0.50200224
vn 0.51213570 0.04926488 0.85749052
vn -0.36000214 -0.18096216 0.91523284
vn -0.86572161 0.11093673 0.48807698
vn -0.88245576 -0.10845126 0.45772280
vn 0.91493641 -0.06343042 0.39858242
vn 0.91542639 -0.00664540 0.40243058
vn 0.89444112 -0.00134297 0.44718373
vn 0.94934025 0.00592206 0.31419424
vn 0.89880372 0.13694962 0.41640927
vn -0.99075301 0.13414340 -0.02034743
vn -0.99916187 0.00217202 -0.04087587
vn 0.98683746 -0.01192371 0.16127506
vn 0.98899090 -0.00580742 0.14786232
vn 0.74405043 -0.00093636 -0.66812281
vn 0.74907719 0.00126160 -0.66248153
vn 0.76686055 0.00748715 -0.64177009
vn 0.99705619 -0.00911947 0.07613005
vn 0.84679108 -0.00943605 -0.53184192
vn 0.96298865 -0.00146487 -0.26953795
vn 0.99895057 0.00133382 0.04578179
vn -0.99130011 -0.12817876 -0.02990473
vn -0.96894698 -0.11840864 -0.21707406
vn 0.96870858 -0.14512927 0.20134842
vn 0.99565686 -0.01813598 0.09131539
vn 0.98889402 -0.03027104 0.14550696
vn -0.11684204 -0.00027481 -0.99315047
vn 0.85736266 -0.01695347 -0.51443353
vn 0.81554504 -0.11958479 -0.56620293
vn 0.79877020 0.12250734 -0.58903151
vn 0.99896627 -0.01328634 0.04347249
vn 0.99863739 0.01096081 0.05102179
vn -0.98255688 0.12545410 -0.13727070
vn -0.78517647 -0.13140206 -0.60517057
vn 0.98198499 -0.14912574 0.11604738
vn -0.16704552 0.17431275 -0.97041788
vn 0.98467307 -0.15188932 0.08572388
vn 0.98165150 0.17056324 0.08525561
vn 0.99576112 0.02722647 0.08785504
vn -0.85416886 0.12240721 -0.50538306
vn -0.47030925 0.16512877 -0.86691505
vn -0.29881278 -0.16314323 -0.94026337
vn 0.97751516 0.17128653 0.12298387
vn 0.97189100 0.15998083 0.17272525
f 19//19 21//21 58//58
f 19//19 12//12 21//21
f 58//58 21//21 39//39
f 37//37 35//35 36//36
f 37//37 23//23 30//30
f 56//56 39//39 49//49
f 7//7 6//6 17//17
f 1//1 6//6 7//7
f 2//2 58//58 1//1
f 2//2 19//19 58//58
f 12//12 19//19 2//2
f 58//58 39//39 50//50
f 50//50 39//39 56//56
f 38//38 39//39 21//21
f 1//1 58//58 40//40
f 15//15 14//14 37//37
f 24//24 23//23 37//37
f 37//37 14//14 24//24
f 34//34 35//35 37//37
f 37//37 30//30 34//34
f 28//28 49//49 39//39
f 39//39 38//38 28//28
f 28//28 27//27 49//49
f 28//28 38//38 21//21
f 9//9 20//20 28//28
f 20//20 27//27 28//28
f 25//25 17//17 37//37
f 25//25 26//26 17//17
f 55//55 54//54 59//59
f 1//1 7//7 8//8
f 8//8 27//27 20//20
f 8//8 2//2 1//1
f 8//8 20//20 9//9
f 9//9 2//2 8//8
f 12//12 2//2 11//11
f 51//51 40//40 58//58
f 57//57 52//52 58//58
f 58//58 50//50 57//57
f 57//57 50//50 56//56
f 43//43 45//45 58//58
f 58//58 52//52 43//43
f 54//54 55//55 46//46
f 37//37 17//17 16//16
f 16//16 15//15 37//37
f 3//3 24//24 14//14
f 14//14 15//15 3//3
f 15//15 16//16 3//3
f 23//23 24//24 3//3
f 35//35 34//34 47//47
f 29//29 34//34 30//30
f 29//29 30//30 23//23
f 23//23 22//22 29//29
f 29//29 22//22 40//40
f 60//60 55//55 59//59
f 26//26 55//55 60//60
f 48//48 55//55 26//26
f 48//48 25//25 37//37
f 26//26 25//25 48//48
f 48//48 46//46 55//55
f 26//26 8//8 18//18
f 18//18 8//8 7//7
f 18//18 7//7 17//17
f 17//17 26//26 18//18
f 10//10 2//2 9//9
f 10//10 11//11 2//2
f 58//58 45//45 53//53
f 53//53 51//51 58//58
f 17//17 6//6 5//5
f 5//5 6//6 1//1
f 4//4 16//16 17//17
f 4//4 3//3 16//16
f 17//17 5//5 4//4
f 1//1 3//3 4//4
f 4//4 5//5 1//1
f 13//13 22//22 23//23
f 23//23 3//3 13//13
f 13//13 3//3 1//1
f 1//1 40//40 13//13
f 40//40 22//22 13//13
f 42//42 51//51 34//34
f 34//34 29//29 42//42
f 40//40 51//51 42//42
f 42//42 29//29 40//40
f 34//34 51//51 41//41
f 51//51 53//53 41//41
f 41//41 47//47 34//34
f 37//37 36//36 31//31
f 31//31 32//32 37//37
f 31//31 36//36 35//35
f 45//45 43//43 31//31
f 33//33 48//48 37//37
f 37//37 32//32 33//33
f 46//46 48//48 33//33
f 47//47 41//41 44//44
f 35//35 47//47 44//44
f 44//44 53//53 45//45
f 44//44 41//41 53//53
f 44//44 31//31 35//35
f 45//45 31//31 44//44
f 56//56 49//49 60//60
f 54//54 46//46 60//60
f 60//60 8//8 26//26
f 59//59 54//54 60//60
f 60//60 57//57 56//56
f 49//49 27//27 60//60
f 27//27 8//8 60//60
f 52//52 57//57 60//60
f 60//60 46//46 52//52
f 21//21 12//12 10//10
f 9//9 28//28 10//10
f 10//10 28//28 21//21
f 12//12 11//11 10//10
f 52//52 46//46 33//33
f 33//33 43//43 52//52
f 33//33 31//31 43//43
f 32//32 31//31 33//33