# https://github.com/mikedh/trimesh
v 1.49997657 0.03478809 0.49692509
v 0.93851422 0.13768607 0.41333077
v 1.49997657 -0.06820781 0.49114984
v 0.82838911 0.20122631 0.36556248
v 0.80842396 0.05537258 0.38446671
v 0.93185105 -0.02694092 0.43344624
v 0.79856345 -0.17120371 0.33732250
v 0.83278223 -0.22808642 0.36154919
v 0.93851422 -0.17120371 0.40207388
v 1.49997657 -0.17120371 0.45698778
v 1.76353311 0.40389459 0.41030203
v 1.49962596 -0.41631223 0.19480000
v 1.49997657 -0.45170107 0.07405896
v 1.49997657 -0.45649839 -0.04036936
v 0.82329973 0.30437972 0.26137698
v 0.78142963 0.21414976 0.24376826
v 0.76680971 -0.02694092 0.30056646
v 1.49997809 -0.27476833 0.41236966
v 0.83678510 -0.32794935 0.24702292
v 1.49983244 -0.35961327 0.31443433
v 1.49997657 -0.42262333 -0.16424372
v 1.49997657 -0.35702710 -0.29917913
v 1.49997657 -0.25158359 -0.40890895
v 1.49997657 -0.15847607 -0.47899511
v 1.49997657 -0.07200162 -0.49531753
v 1.49997657 0.03478809 -0.50307495
v 1.49997657 0.14081903 -0.48418304
v 0.93470666 0.19094631 -0.38399706
v 0.81253892 0.27734747 -0.30913111
v 1.76347658 0.47888448 0.29087572
v 0.93851422 -0.39697228 0.07454844
v 0.93851422 -0.40069263 -0.03811797
v 0.93851422 -0.37827247 -0.15117598
v 0.93646403 0.36991638 0.17967767
v 0.86978357 0.39077013 0.11008087
v 0.76654122 -0.27410169 0.01821523
v 0.76942130 0.24068197 -0.15117598
v 0.80066249 -0.27062607 0.23924104
v 0.81193863 -0.34767719 0.13097950
v 1.76654123 0.41353700 -0.39312565
v 1.76347658 0.49232801 -0.23209682
v 0.93851422 -0.32383736 -0.26457650
v 0.93851422 -0.25158358 -0.34821984
v 0.96192056 -0.13480758 -0.41752287
v 0.83639449 -0.02757730 -0.43592539
v 0.91850033 0.06753726 -0.43521572
v 0.83883529 0.39595908 -0.09694731
v 0.81127954 -0.32797383 -0.16820806
v 1.68722849 0.51285744 0.16949755
v 1.76347658 0.54350164 0.07503783
v 0.80376220 0.34059387 0.04608815
v 0.76961651 0.13768607 -0.26413604
v 0.77215492 -0.22265270 -0.20765601
v 1.67356048 0.48769590 -0.23158903
v 0.82184793 -0.23787690 -0.33490735
v 0.81041318 -0.08531668 -0.37368234
v 0.83654095 0.39698705 -0.00165557
v 1.72149612 0.53752948 -0.03821587
v 1.65867199 0.51202526 -0.14241520
vn 0.28848621 0.04466570 0.95644168
vn -0.50496369 0.18551548 0.84296838
vn 0.55668261 -0.14977594 0.81711177
vn -0.85719633 0.22450842 0.46347646
vn -0.91690035 0.03862339 0.39724298
vn -0.59735474 -0.03887677 0.80103428
vn -0.98171119 -0.05790732 0.18135567
vn -0.81888650 -0.28644453 0.49736749
vn -0.43310990 -0.23917307 0.86902938
vn 0.63652864 -0.23814205 0.73356639
vn 0.78244756 0.31442632 0.53750526
vn 0.77569316 -0.57610561 0.25768672
vn 0.77764446 -0.61772358 0.11699005
vn 0.77522949 -0.62704278 -0.07639762
vn -0.88218532 0.36229053 0.30082327
vn -0.99513533 0.06671304 0.07249175
vn -0.99587253 -0.00626484 0.09054642
vn 0.70090429 -0.39125159 0.59636848
vn -0.81692315 -0.47750924 0.32345246
vn 0.75057417 -0.52211823 0.40500737
vn 0.78091710 -0.57121674 -0.25274478
vn 0.75596532 -0.50882148 -0.41184602
vn 0.73622143 -0.40408314 -0.54285801
vn 0.66254828 -0.27739863 -0.69575842
vn 0.53184301 -0.10403856 -0.84042786
vn 0.39717244 0.01329080 -0.91764776
vn -0.00342566 0.22182862 -0.97507965
vn -0.49942331 0.32923469 -0.80136189
vn -0.87427996 0.31017227 -0.37340020
vn 0.78635424 0.53069591 0.31624176
vn -0.58653795 -0.79772510 0.14002821
vn -0.66719164 -0.74156391 -0.07027291
vn -0.57927750 -0.75944899 -0.29609933
vn -0.53387275 0.72258525 0.43914740
vn -0.78983000 0.57902563 0.20223227
vn -0.99594538 -0.08993504 0.00211791
vn -0.99727100 0.06927147 -0.02553457
vn -0.98981113 -0.10698576 0.09395731
vn -0.92851634 -0.36209823 0.08211142
vn 0.79114017 0.33917004 -0.50898027
vn 0.84162768 0.49509691 -0.21573571
vn -0.52692241 -0.67935655 -0.51071269
vn -0.38432116 -0.52948823 -0.75626679
vn -0.43497818 -0.31251219 -0.84447032
vn -0.83534069 -0.03187503 -0.54880772
vn -0.56078229 0.19428750 -0.80484507
vn -0.86855545 0.47633954 -0.13679210
vn -0.92513641 -0.34874574 -0.14999678
vn -0.36650081 0.87758277 0.30907223
vn 0.79604354 0.60078097 0.07332744
vn -0.98974026 0.13940300 0.03132126
vn -0.99615440 0.02265852 -0.08463449
vn -0.99577497 -0.06404588 -0.06580526
vn -0.35433986 0.83804199 -0.41488419
vn -0.86886588 -0.28023938 -0.40809064
vn -0.98830479 -0.03360713 -0.14874210
vn -0.88267280 0.46912182 0.02852086
vn 0.17257733 0.97577750 -0.13444458
vn -0.31366196 0.91467386 -0.25492725
f 44//44 55//55 45//45
f 45//45 24//24 44//44
f 45//45 29//29 46//46
f 46//46 26//26 45//45
f 52//52 29//29 45//45
f 50//50 30//30 40//40
f 41//41 50//50 40//40
f 58//58 50//50 41//41
f 39//39 38//38 36//36
f 19//19 38//38 39//39
f 40//40 14//14 21//21
f 21//21 22//22 40//40
f 23//23 24//24 40//40
f 40//40 22//22 23//23
f 22//22 21//21 42//42
f 25//25 24//24 45//45
f 45//45 26//26 25//25
f 40//40 24//24 25//25
f 25//25 26//26 40//40
f 55//55 44//44 43//43
f 43//43 44//44 24//24
f 24//24 23//23 43//43
f 43//43 42//42 55//55
f 43//43 23//23 22//22
f 22//22 42//42 43//43
f 28//28 29//29 40//40
f 28//28 46//46 29//29
f 40//40 26//26 27//27
f 26//26 46//46 27//27
f 27//27 28//28 40//40
f 46//46 28//28 27//27
f 45//45 55//55 56//56
f 56//56 52//52 45//45
f 8//8 38//38 19//19
f 19//19 18//18 8//8
f 20//20 18//18 19//19
f 19//19 12//12 20//20
f 34//34 30//30 35//35
f 35//35 15//15 34//34
f 34//34 15//15 30//30
f 30//30 15//15 11//11
f 11//11 15//15 4//4
f 1//1 3//3 11//11
f 3//3 10//10 11//11
f 11//11 10//10 18//18
f 18//18 20//20 11//11
f 11//11 20//20 12//12
f 12//12 13//13 11//11
f 40//40 30//30 11//11
f 11//11 14//14 40//40
f 11//11 13//13 14//14
f 35//35 30//30 49//49
f 49//49 50//50 35//35
f 30//30 50//50 49//49
f 57//57 15//15 35//35
f 35//35 50//50 57//57
f 57//57 50//50 58//58
f 58//58 47//47 57//57
f 58//58 41//41 59//59
f 59//59 47//47 58//58
f 55//55 42//42 48//48
f 32//32 39//39 48//48
f 48//48 39//39 36//36
f 36//36 52//52 53//53
f 52//52 56//56 53//53
f 53//53 56//56 55//55
f 53//53 48//48 36//36
f 55//55 48//48 53//53
f 36//36 38//38 17//17
f 1//1 11//11 2//2
f 2//2 11//11 4//4
f 18//18 10//10 9//9
f 9//9 8//8 18//18
f 9//9 10//10 3//3
f 31//31 12//12 19//19
f 31//31 13//13 12//12
f 19//19 39//39 31//31
f 31//31 39//39 32//32
f 31//31 32//32 14//14
f 14//14 13//13 31//31
f 15//15 57//57 51//51
f 51//51 57//57 47//47
f 54//54 59//59 41//41
f 47//47 59//59 54//54
f 54//54 41//41 40//40
f 40//40 29//29 54//54
f 29//29 47//47 54//54
f 32//32 48//48 33//33
f 33//33 48//48 42//42
f 33//33 42//42 21//21
f 14//14 32//32 33//33
f 33//33 21//21 14//14
f 5//5 2//2 4//4
f 38//38 8//8 7//7
f 7//7 17//17 38//38
f 8//8 5//5 7//7
f 7//7 5//5 17//17
f 15//15 51//51 16//16
f 4//4 15//15 16//16
f 16//16 5//5 4//4
f 17//17 5//5 16//16
f 37//37 47//47 29//29
f 37//37 51//51 47//47
f 29//29 52//52 37//37
f 37//37 16//16 51//51
f 17//17 16//16 37//37
f 37//37 52//52 36//36
f 36//36 17//17 37//37
f 2//2 5//5 6//6
f 1//1 2//2 6//6
f 8//8 9//9 6//6
f 6//6 5//5 8//8
f 6//6 3//3 1//1
f 6//6 9//9 3//3