# https://github.com/mikedh/trimesh
v -0.92076452 0.01564452 1.55276825
v 0.00357654 0.53570926 1.62901436
v -0.02352645 0.53521987 1.55276825
v -0.91460031 -0.11424937 1.55276825
v -0.92389558 0.53570926 1.55276825
v 0.00357657 0.14544035 1.71584575
v -0.02753811 0.27533425 1.55276825
v 0.00357657 0.53570926 2.24423251
v -0.86685195 -0.23484413 1.55276825
v -0.92692877 -0.18257337 1.68432655
v -0.95689989 -0.11424937 1.91206983
v -0.98646740 0.01564452 2.17943224
v -0.99642348 0.53571269 2.24416312
v 0.00357657 -0.39415251 1.90246478
v -0.03800750 0.14544035 1.55276825
v -0.04798770 0.43410432 2.55276825
v 0.00357657 0.00125535 2.24423251
v -0.92736907 -0.31109681 1.98552077
v -0.95373827 -0.24938005 2.05448127
v -0.94121410 0.43410432 2.44000386
v -0.89517807 0.43410432 2.45297378
v -0.40561093 0.43410432 2.55276825
v -0.20385468 -0.28359109 1.55276825
v -0.07225323 0.05607113 1.55276825
v -0.04798770 0.04980641 2.55276825
v 0.00357657 -0.37883347 2.15740806
v -0.81245017 -0.28510829 1.55276825
v -0.77223592 -0.39390770 1.99736494
v -0.83877963 -0.32895781 1.79103728
v -0.93885361 -0.30349852 2.17014541
v -0.87448385 -0.36581464 2.11874318
v -0.92795613 -0.18291590 2.37588887
v -0.97630377 0.27714521 2.34206938
v -0.92859213 -0.06755804 2.42483165
v -0.38897729 -0.01036851 2.55276825
v 0.00357657 -0.44275249 1.93109640
v -0.22440210 -0.31119476 1.55276825
v -0.20669217 -0.11141062 2.55276825
v 0.00357657 -0.45449881 2.09427173
v -0.70394014 -0.32032242 1.55276825
v -0.56085939 -0.34336470 1.55276840
v -0.66852945 -0.41978317 2.13457618
v -0.89141106 -0.31694542 2.26207225
v -0.96946685 -0.11270765 2.30621872
v -0.85819268 -0.28031198 2.33732182
v -0.87693000 -0.11229157 2.43119423
v -0.25140731 -0.33713436 1.55276825
v -0.30267806 -0.17532987 2.55276825
v 0.00357657 -0.45719069 2.02506659
v -0.26089828 -0.46428733 2.11874318
v -0.69421681 -0.38564879 2.23800457
v -0.84434763 -0.18883809 2.42757253
v -0.10752633 -0.45841417 1.99736494
v -0.36347555 -0.36439797 1.55276879
v -0.34387078 -0.13744820 2.55276825
v -0.47339912 -0.43928984 2.03889907
v -0.62524836 -0.32176014 2.34887241
v -0.33124267 -0.43872699 2.22116834
v -0.54318092 -0.22143386 2.46427964
v -0.23988607 -0.38666426 2.28576675
vn -0.60056059 -0.02229557 -0.79926834
vn 0.65215715 0.74037989 -0.16287623
vn 0.37807420 0.63876248 -0.67010626
vn -0.59409753 -0.16015253 -0.78828884
vn -0.46279279 0.63439756 -0.61916280
vn 0.98245112 -0.06320891 -0.17548341
vn 0.54018757 -0.04956379 -0.84008382
vn 0.60085163 0.78201622 0.16561385
vn -0.42499292 -0.48235276 -0.76597443
vn -0.89187355 -0.39245791 -0.22480740
vn -0.98533440 -0.10756243 -0.13246297
vn -0.99684825 -0.07892105 -0.00806377
vn -0.62224220 0.76213627 0.17878181
vn 0.89047573 -0.24785025 -0.38160611
vn 0.52549019 -0.11970148 -0.84233700
vn 0.45191534 0.52770951 0.71923237
vn 0.99169677 -0.01946583 0.12711647
vn -0.64413704 -0.75148923 -0.14265836
vn -0.93860629 -0.33918384 -0.06302819
vn -0.48050993 0.45139531 0.75189925
vn -0.14415996 0.52742272 0.83728322
vn -0.04919818 0.59800728 0.79997927
vn 0.33419574 -0.29851243 -0.89398185
vn 0.34391534 -0.21340361 -0.91442941
vn 0.55839169 -0.18157825 0.80946159
vn 0.80201129 -0.40374103 0.44019436
vn -0.23107685 -0.64130846 -0.73166040
vn -0.17132896 -0.97998216 -0.10139703
vn -0.31149966 -0.93148567 -0.18788933
vn -0.72343765 -0.67559890 0.14214114
vn -0.32232549 -0.94454300 0.06280759
vn -0.60822490 -0.51542248 0.60365730
vn -0.93514959 -0.03447590 0.35257149
vn -0.54908966 -0.16228339 0.81985648
vn -0.08725912 -0.03400090 0.99560524
vn 0.61968127 -0.74202592 -0.25571989
vn 0.26461549 -0.38606570 -0.88370352
vn 0.19716738 -0.38687216 0.90080795
vn 0.59642480 -0.76612803 0.23942702
vn -0.09649556 -0.66942616 -0.73658484
vn -0.05418089 -0.67291446 -0.73773339
vn -0.10970132 -0.98924174 0.09678019
vn -0.38545783 -0.83842900 0.38530387
vn -0.93302574 -0.23609950 0.27151426
vn -0.23602591 -0.77631843 0.58448393
vn -0.16908064 -0.16022074 0.97249219
vn 0.15775884 -0.56953634 -0.80668489
vn 0.05229614 -0.49896568 0.86504241
vn 0.60983872 -0.79162470 -0.03777654
vn -0.01165760 -0.99740050 0.07110796
vn -0.11999747 -0.92151349 0.36934197
vn -0.21643419 -0.49226822 0.84310631
vn -0.00159178 -0.99420228 -0.10751415
vn -0.00323951 -0.68142686 -0.73187905
vn -0.09080090 -0.12366748 0.98816069
vn -0.06491403 -0.99384572 -0.08975994
vn -0.08024706 -0.80979944 0.58119297
vn -0.01481414 -0.92787882 0.37258750
vn -0.09720836 -0.71881728 0.68836927
vn 0.10615005 -0.83098916 0.54606702
f 13//13 2//2 5//5
f 3//3 5//5 2//2
f 33//33 20//20 13//13
f 13//13 44//44 33//33
f 20//20 33//33 34//34
f 34//34 33//33 44//44
f 52//52 34//34 32//32
f 32//32 34//34 44//44
f 56//56 53//53 50//50
f 54//54 53//53 56//56
f 24//24 15//15 14//14
f 14//14 15//15 6//6
f 8//8 2//2 13//13
f 6//6 2//2 8//8
f 22//22 8//8 13//13
f 16//16 8//8 22//22
f 39//39 48//48 60//60
f 9//9 10//10 4//4
f 46//46 34//34 52//52
f 31//31 51//51 43//43
f 7//7 2//2 6//6
f 6//6 15//15 7//7
f 7//7 3//3 2//2
f 42//42 51//51 31//31
f 42//42 56//56 50//50
f 54//54 56//56 41//41
f 24//24 14//14 23//23
f 36//36 53//53 54//54
f 36//36 23//23 14//14
f 25//25 26//26 17//17
f 50//50 39//39 58//58
f 39//39 60//60 58//58
f 58//58 42//42 50//50
f 51//51 42//42 58//58
f 58//58 57//57 51//51
f 58//58 60//60 48//48
f 48//48 57//57 58//58
f 5//5 3//3 1//1
f 13//13 5//5 1//1
f 1//1 4//4 10//10
f 13//13 1//1 12//12
f 12//12 44//44 13//13
f 12//12 19//19 44//44
f 18//18 29//29 31//31
f 18//18 10//10 9//9
f 18//18 19//19 10//10
f 9//9 27//27 18//18
f 27//27 29//29 18//18
f 59//59 48//48 52//52
f 59//59 57//57 48//48
f 51//51 57//57 45//45
f 45//45 43//43 51//51
f 45//45 59//59 52//52
f 57//57 59//59 45//45
f 52//52 32//32 45//45
f 32//32 43//43 45//45
f 28//28 42//42 31//31
f 31//31 29//29 28//28
f 56//56 42//42 28//28
f 28//28 41//41 56//56
f 41//41 28//28 40//40
f 40//40 29//29 27//27
f 40//40 28//28 29//29
f 53//53 36//36 49//49
f 49//49 39//39 50//50
f 50//50 53//53 49//49
f 47//47 36//36 54//54
f 54//54 41//41 47//47
f 41//41 40//40 47//47
f 26//26 25//25 38//38
f 39//39 26//26 38//38
f 38//38 48//48 39//39
f 52//52 48//48 55//55
f 55//55 46//46 52//52
f 34//34 46//46 55//55
f 55//55 35//35 34//34
f 20//20 34//34 21//21
f 34//34 35//35 21//21
f 21//21 35//35 22//22
f 13//13 20//20 21//21
f 21//21 22//22 13//13
f 10//10 19//19 11//11
f 19//19 12//12 11//11
f 11//11 1//1 10//10
f 11//11 12//12 1//1
f 19//19 18//18 30//30
f 44//44 19//19 30//30
f 31//31 43//43 30//30
f 30//30 18//18 31//31
f 30//30 32//32 44//44
f 30//30 43//43 32//32
f 23//23 36//36 37//37
f 36//36 47//47 37//37
f 17//17 8//8 25//25
f 25//25 8//8 16//16
f 6//6 8//8 49//49
f 49//49 14//14 6//6
f 49//49 26//26 39//39
f 49//49 8//8 17//17
f 17//17 26//26 49//49
f 49//49 36//36 14//14
f 55//55 25//25 16//16
f 16//16 22//22 55//55
f 48//48 38//38 55//55
f 22//22 35//35 55//55
f 55//55 38//38 25//25
f 9//9 4//4 37//37
f 37//37 27//27 9//9
f 37//37 15//15 24//24
f 3//3 7//7 37//37
f 24//24 23//23 37//37
f 37//37 7//7 15//15
f 37//37 1//1 3//3
f 4//4 1//1 37//37
f 37//37 40//40 27//27
f 37//37 47//47 40//40