# https://github.com/mikedh/trimesh
v 0.33993737 0.50028559 -1.48934731
v 0.16313983 0.49950207 -1.48934731
v -0.25359752 0.45370714 -2.24741679
v 0.02373804 0.48863047 -1.48934731
v -0.25359727 0.46150036 -2.03858531
v 0.56284324 0.48046450 -1.71678183
v 0.59841571 0.48867944 -1.52422810
v 0.66953012 0.44717017 -1.87421016
v 0.60586804 0.43845942 -2.11257857
v 0.47275576 0.45413019 -2.07865174
v -0.25359727 0.44357687 -1.92455005
v -0.05330493 0.45826830 -1.48934731
v 0.38172617 0.43036693 -2.26222843
v -0.03740938 0.42249478 -2.34422031
v -0.25359727 0.38285256 -1.89108796
v -0.09725961 0.40675054 -1.48934731
v -0.09177753 0.41654477 -1.48934731
v 0.72677991 0.40675054 -1.93044505
v 0.73557821 0.35895459 -2.03775365
v 0.25251763 0.38314638 -2.36513412
v -0.25344813 0.32242154 -2.48934733
v -0.09735760 -0.30979678 -1.48934731
v 0.74640251 0.41767337 -1.48935257
v 0.74509855 -0.23790700 -1.95620205
v 0.66967616 0.35918066 -2.16521774
v 0.52197228 0.40011491 -2.24662256
v 0.46524248 0.35895459 -2.29889482
v -0.00662931 0.08558124 -2.48890487
v -0.25359727 -0.12503439 -1.88603074
v -0.09735760 -0.40538862 -1.48934731
v 0.58746382 0.35895459 -2.23275344
v -0.25359727 -0.31880750 -2.48890468
v -0.25359727 -0.40710264 -1.89470812
v -0.06475864 -0.45318464 -1.48934731
v 0.58746382 -0.11822126 -2.23275344
v 0.64732627 -0.35759273 -2.18637616
v 0.55354334 -0.35759273 -2.25320248
v 0.01081598 0.00090130 -2.48890468
v 0.46514465 -0.19045385 -2.29889482
v -0.25359727 -0.44936485 -1.94766530
v 0.72718478 -0.40460343 -2.07777049
v 0.65031204 -0.44079487 -2.03775365
v 0.23186177 -0.21425389 -2.39385082
v -0.20773359 -0.28800458 -2.48890468
v -0.06130175 -0.16812296 -2.48890468
v 0.29686380 -0.36973760 -2.35241459
v 0.24079473 -0.43854220 -2.27159683
v -0.25356383 -0.41415338 -2.38805768
v 0.03651328 -0.48937433 -1.48934731
v 0.74627638 -0.43507731 -1.48934812
v 0.64296329 -0.48573212 -1.48934734
v 0.50709235 -0.44532475 -2.13508231
v 0.41137601 -0.40333185 -2.29617974
v -0.25359727 -0.44696528 -2.29434517
v 0.18115248 -0.49960936 -1.48934731
v 0.56950013 -0.47386883 -1.79870033
v 0.33983953 -0.45142167 -2.16044794
v -0.25359727 -0.46160764 -2.08141580
v -0.25359727 -0.45509449 -2.21612024
v 0.42052179 -0.49971439 -1.48935037
vn 0.20850909 0.54446667 0.81245308
vn -0.24843246 0.53955761 0.80446187
vn -0.94107956 0.28562271 -0.18107715
vn -0.76070957 0.31707472 0.56637848
vn -0.97424447 0.22501067 -0.01476147
vn 0.78863830 0.60065324 -0.13139755
vn 0.89474726 0.35585550 0.26980399
vn 0.97604764 0.21099977 -0.05301048
vn 0.94779201 0.25984578 -0.18485257
vn 0.57794388 0.77666317 -0.25054979
vn -0.99590963 0.07482899 0.05064211
vn -0.87332847 0.11022722 0.47449693
vn 0.75684955 0.43590199 -0.48699919
vn 0.06324511 0.57305079 -0.81707579
vn -0.99900430 0.00431875 0.04440450
vn -0.88326696 0.01753827 0.46854229
vn -0.87458125 0.04657274 0.48263716
vn 0.99620551 0.07625540 -0.04194880
vn 0.99704623 0.03459712 -0.06857014
vn 0.73175354 0.18732562 -0.65532119
vn -0.80464790 0.11202691 -0.58308809
vn -0.87488225 0.00000251 0.48433567
vn 0.92104298 0.07401840 0.38236253
vn 0.99988619 -0.00130199 -0.01503022
vn 0.98294883 0.04477946 -0.17834346
vn 0.92672115 0.14563551 -0.34637870
vn 0.89499725 0.04851667 -0.44342536
vn 0.59975589 0.01394440 -0.80006151
vn -0.99913018 -0.00007600 0.04169995
vn -0.88481154 -0.02151218 0.46545221
vn 0.95306643 0.03790514 -0.30037907
vn -0.80469546 -0.10415550 -0.58447998
vn -0.99873143 -0.01244617 0.04879162
vn -0.88030446 -0.10833453 0.46187410
vn 0.95429453 -0.00004743 -0.29886778
vn 0.97056243 -0.04073575 -0.23737981
vn 0.93395719 -0.05243053 -0.35351804
vn 0.64294801 -0.00134390 -0.76590864
vn 0.90653537 -0.00259419 -0.42212190
vn -0.99364466 -0.10465560 0.04144259
vn 0.98618915 -0.09750898 -0.13387668
vn 0.94469860 -0.29987507 -0.13273843
vn 0.85712177 -0.01607019 -0.51486311
vn 0.44796519 -0.04368928 -0.89298288
vn 0.54515648 -0.02380922 -0.83799614
vn 0.76816885 -0.12808736 -0.62730394
vn 0.59141414 -0.57227573 -0.56809313
vn -0.87623016 -0.22830673 -0.42437807
vn -0.73961744 -0.33416766 0.58420717
vn 0.92576467 -0.06865743 0.37181439
vn 0.82708757 -0.30093951 0.47472261
vn 0.85391201 -0.43168377 -0.29066027
vn 0.85207041 -0.20646888 -0.48098505
vn -0.93879480 -0.28640179 -0.19141145
vn -0.21009099 -0.54622654 0.81086271
vn 0.76943248 -0.62299881 -0.14087630
vn 0.43874542 -0.84819761 -0.29675456
vn -0.97007499 -0.24137285 -0.02633727
vn -0.95898517 -0.27451211 -0.07064383
vn 0.22363023 -0.55356904 0.80221621
f 7//7 1//1 23//23
f 23//23 1//1 50//50
f 43//43 46//46 45//45
f 36//36 31//31 25//25
f 23//23 50//50 24//24
f 24//24 19//19 23//23
f 8//8 7//7 23//23
f 51//51 55//55 60//60
f 1//1 55//55 51//51
f 51//51 50//50 1//1
f 56//56 51//51 60//60
f 42//42 51//51 56//56
f 2//2 1//1 3//3
f 16//16 15//15 29//29
f 29//29 15//15 3//3
f 11//11 15//15 16//16
f 3//3 15//15 11//11
f 35//35 31//31 36//36
f 43//43 39//39 37//37
f 37//37 46//46 43//43
f 37//37 35//35 36//36
f 39//39 27//27 37//37
f 31//31 35//35 37//37
f 37//37 27//27 31//31
f 32//32 54//54 3//3
f 19//19 25//25 9//9
f 41//41 24//24 50//50
f 50//50 51//51 41//41
f 41//41 51//51 42//42
f 41//41 37//37 36//36
f 19//19 24//24 41//41
f 36//36 25//25 41//41
f 41//41 25//25 19//19
f 23//23 19//19 18//18
f 18//18 8//8 23//23
f 19//19 9//9 18//18
f 18//18 9//9 8//8
f 4//4 2//2 5//5
f 5//5 2//2 3//3
f 3//3 11//11 5//5
f 22//22 29//29 30//30
f 16//16 29//29 22//22
f 33//33 40//40 30//30
f 30//30 29//29 33//33
f 3//3 40//40 33//33
f 33//33 29//29 3//3
f 4//4 5//5 12//12
f 12//12 5//5 11//11
f 38//38 39//39 43//43
f 38//38 27//27 39//39
f 43//43 45//45 38//38
f 54//54 47//47 57//57
f 57//57 56//56 60//60
f 46//46 37//37 53//53
f 37//37 41//41 53//53
f 44//44 45//45 46//46
f 46//46 32//32 44//44
f 26//26 25//25 31//31
f 26//26 9//9 25//25
f 13//13 9//9 26//26
f 31//31 27//27 26//26
f 7//7 8//8 6//6
f 8//8 9//9 6//6
f 1//1 7//7 6//6
f 3//3 1//1 6//6
f 10//10 13//13 3//3
f 10//10 9//9 13//13
f 3//3 6//6 10//10
f 10//10 6//6 9//9
f 30//30 40//40 34//34
f 40//40 49//49 34//34
f 55//55 49//49 58//58
f 58//58 49//49 40//40
f 58//58 40//40 3//3
f 17//17 11//11 16//16
f 17//17 12//12 11//11
f 21//21 32//32 3//3
f 21//21 38//38 45//45
f 21//21 44//44 32//32
f 45//45 44//44 21//21
f 52//52 57//57 47//47
f 47//47 53//53 52//52
f 42//42 56//56 52//52
f 56//56 57//57 52//52
f 52//52 41//41 42//42
f 52//52 53//53 41//41
f 48//48 53//53 47//47
f 48//48 47//47 54//54
f 54//54 32//32 48//48
f 48//48 32//32 46//46
f 46//46 53//53 48//48
f 60//60 55//55 59//59
f 55//55 58//58 59//59
f 59//59 57//57 60//60
f 54//54 57//57 59//59
f 3//3 54//54 59//59
f 59//59 58//58 3//3
f 13//13 26//26 20//20
f 20//20 26//26 27//27
f 38//38 21//21 28//28
f 21//21 20//20 28//28
f 27//27 38//38 28//28
f 28//28 20//20 27//27
f 14//14 21//21 3//3
f 14//14 20//20 21//21
f 3//3 13//13 14//14
f 13//13 20//20 14//14
f 30//30 34//34 17//17
f 17//17 55//55 1//1
f 1//1 2//2 17//17
f 17//17 22//22 30//30
f 17//17 2//2 4//4
f 17//17 49//49 55//55
f 16//16 22//22 17//17
f 4//4 12//12 17//17
f 17//17 34//34 49//49