# https://github.com/mikedh/trimesh
v -0.50920020 -0.38194704 0.36727652
v 0.42863014 -0.89918339 -0.32401725
v 0.42847857 -0.84341757 -0.39463054
v -0.08991014 -0.67104721 -0.49810729
v -0.50911228 -0.38506979 -0.40226269
v 0.43764609 -0.49655770 -0.47902060
v -0.13567471 -0.53674012 -0.49321830
v -0.38988192 -0.00000069 -0.07877208
v -0.50911116 -0.25420062 0.13280217
v -0.48731837 -0.49831972 0.47999152
v 0.42908971 -0.92341850 0.28127519
v 0.42901319 -0.95720210 0.20012177
v -0.44967375 -0.79798086 -0.43849732
v -0.50908553 -0.85221875 0.38293946
v -0.41959981 0.00991150 0.00043581
v -0.32038776 0.00000069 -0.13343393
v -0.22947668 0.00000058 -0.17231094
v -0.11966581 0.00000042 -0.19699631
v 0.00000081 0.00000023 -0.20545698
v 0.11966737 0.00000002 -0.19699609
v 0.22947805 -0.00000019 -0.17231050
v 0.32038882 -0.00000038 -0.13343334
v 0.43110848 -0.77839166 -0.44967073
v 0.42856402 -0.56201252 0.49703545
v 0.48824988 -0.93882956 0.20257664
v 0.43669418 -0.66979720 0.49670317
v 0.48826046 -0.45805462 0.43705552
v 0.43366815 -0.07775176 0.09503676
v 0.48057828 -0.20540193 -0.05421197
v 0.32038776 -0.00000068 0.13343393
v 0.22947668 -0.00000057 0.17231094
v -0.38491219 0.00000055 0.08356652
v -0.22947805 0.00000019 0.17231050
v -0.11966737 -0.00000002 0.19699609
v -0.00000081 -0.00000023 0.20545698
v 0.11966581 -0.00000042 0.19699631
v 0.43524887 -0.65394019 -0.49755340
v 0.48805647 -0.59746686 -0.49986234
v 0.48825299 -0.86083636 -0.34649349
v 0.43259159 -0.96804857 -0.16970574
v 0.48829008 -0.42661728 -0.43425474
v 0.48358167 -0.99008848 -0.00339165
v 0.40142072 -0.00003761 -0.06664663
v 0.48825733 -0.24818703 0.13670328
v 0.48640327 -0.76528778 0.45668070
v 0.38491150 -0.00000073 0.08356724
v 0.46024181 -0.48635861 0.47350874
v 0.42920753 -0.82568874 0.41196941
v 0.42929969 -0.88026812 0.35105855
v 0.42895477 -0.97905764 0.11235796
v -0.50889226 -0.64063354 0.50013768
v -0.32034447 0.00000037 0.13346240
v -0.50911281 -0.44430774 -0.44974282
v -0.50871841 -0.24681578 -0.16927756
v -0.51170993 -0.60837747 -0.47521456
v -0.50910665 -0.71654952 -0.45608560
v -0.50911822 -0.96477972 -0.17501239
v -0.46787792 -0.89823819 -0.32749456
v -0.50913243 -0.98422581 0.06461374
v -0.49250436 -0.98672871 -0.04106168
vn -0.98001433 0.09027602 0.17726297
vn 0.69225540 -0.51214134 -0.50842276
vn 0.63758313 -0.38344338 -0.66817582
vn -0.09918950 -0.11201188 -0.98874404
vn -0.96157350 0.11838977 -0.24771003
vn 0.50287624 0.18787556 -0.84369323
vn -0.11015852 0.12043504 -0.98659034
vn -0.93457941 0.30318900 -0.18611221
vn -0.99910358 0.03446392 0.02458197
vn -0.84160455 0.11749502 0.52715909
vn 0.69824619 -0.52701996 0.48446075
vn 0.60577528 -0.68879815 0.39823788
vn -0.73196900 -0.26261404 -0.62869329
vn -0.89401508 -0.24931412 0.37226269
vn -0.92187288 0.38747551 0.00362106
vn -0.81752510 0.46851016 -0.33488945
vn -0.64066981 0.59273228 -0.48806827
vn -0.35717976 0.68447724 -0.63554191
vn 0.00876428 0.71449318 -0.69958751
vn 0.36210278 0.69076571 -0.62587883
vn 0.63532930 0.61285990 -0.46985043
vn 0.80498810 0.50833953 -0.30591679
vn 0.75637498 -0.21382347 -0.61820418
vn 0.68024855 0.04958627 0.73130234
vn 0.97821215 -0.17422218 0.11290537
vn 0.72643371 -0.06060737 0.68455884
vn 0.97636588 0.08450771 0.19891736
vn 0.99477128 0.07439756 0.06996508
vn 0.99922300 0.03552432 -0.01707076
vn 0.80132028 0.50758918 0.31660549
vn 0.64272977 0.60373194 0.47159960
vn -0.93221053 0.30514238 0.19460641
vn -0.65000051 0.58071067 0.49017798
vn -0.36371076 0.67901805 0.63769034
vn 0.00560348 0.71384834 0.70027791
vn 0.36879336 0.68742435 0.62565104
vn 0.52855452 -0.12775893 -0.83923046
vn 0.89018915 0.01156235 -0.45544439
vn 0.97282911 -0.13704273 -0.18660870
vn 0.80684918 -0.52252660 -0.27560905
vn 0.92138607 0.12953002 -0.36642828
vn 0.92546121 -0.37863017 -0.01267849
vn 0.92691197 0.36551690 -0.08503880
vn 0.99922443 0.02958123 0.02599023
vn 0.89021675 -0.14321954 0.43243763
vn 0.91189257 0.39228748 0.12067506
vn 0.80858513 0.12297989 0.57538338
vn 0.48403176 -0.42559597 0.76457918
vn 0.75241514 -0.40923885 0.51613468
vn 0.63935984 -0.72628588 0.25244369
vn -0.87797144 -0.04718091 0.47638232
vn -0.82083767 0.45887428 0.34008810
vn -0.89451844 0.10773347 -0.43385512
vn -0.99857615 0.04157291 -0.03342696
vn -0.91072519 -0.00199575 -0.41300804
vn -0.91908422 -0.06464307 -0.38872287
vn -0.92117189 -0.34418691 -0.18159768
vn -0.83410938 -0.35575096 -0.42154809
vn -0.92336406 -0.36476423 0.11977420
vn -0.82676021 -0.55798737 -0.07153774
f 15//15 9//9 1//1
f 55//55 51//51 1//1
f 1//1 9//9 55//55
f 14//14 51//51 55//55
f 55//55 59//59 14//14
f 19//19 18//18 15//15
f 54//54 9//9 15//15
f 15//15 5//5 54//54
f 55//55 9//9 54//54
f 54//54 5//5 55//55
f 40//40 39//39 42//42
f 50//50 59//59 42//42
f 41//41 19//19 20//20
f 20//20 19//19 15//15
f 53//53 7//7 55//55
f 55//55 5//5 53//53
f 18//18 19//19 53//53
f 7//7 53//53 6//6
f 6//6 19//19 41//41
f 6//6 53//53 19//19
f 38//38 39//39 23//23
f 23//23 37//37 38//38
f 41//41 39//39 38//38
f 38//38 6//6 41//41
f 7//7 6//6 38//38
f 55//55 7//7 4//4
f 4//4 37//37 23//23
f 7//7 38//38 4//4
f 4//4 38//38 37//37
f 8//8 5//5 15//15
f 15//15 16//16 8//8
f 8//8 16//16 5//5
f 5//5 16//16 17//17
f 18//18 53//53 17//17
f 17//17 53//53 5//5
f 15//15 18//18 17//17
f 17//17 16//16 15//15
f 51//51 14//14 45//45
f 10//10 1//1 51//51
f 43//43 22//22 15//15
f 41//41 22//22 43//43
f 57//57 59//59 55//55
f 57//57 58//58 40//40
f 39//39 40//40 2//2
f 40//40 58//58 2//2
f 21//21 22//22 41//41
f 41//41 20//20 21//21
f 15//15 22//22 21//21
f 21//21 20//20 15//15
f 13//13 4//4 23//23
f 51//51 45//45 26//26
f 26//26 45//45 47//47
f 35//35 10//10 47//47
f 47//47 45//45 27//27
f 41//41 44//44 27//27
f 29//29 44//44 41//41
f 41//41 43//43 29//29
f 56//56 57//57 55//55
f 58//58 57//57 56//56
f 56//56 13//13 58//58
f 55//55 4//4 56//56
f 4//4 13//13 56//56
f 42//42 59//59 60//60
f 59//59 57//57 60//60
f 60//60 40//40 42//42
f 60//60 57//57 40//40
f 23//23 39//39 3//3
f 39//39 2//2 3//3
f 3//3 13//13 23//23
f 3//3 2//2 58//58
f 58//58 13//13 3//3
f 51//51 26//26 24//24
f 24//24 26//26 47//47
f 24//24 10//10 51//51
f 47//47 10//10 24//24
f 14//14 11//11 49//49
f 12//12 14//14 59//59
f 12//12 11//11 14//14
f 59//59 50//50 12//12
f 47//47 27//27 30//30
f 48//48 45//45 14//14
f 14//14 49//49 48//48
f 48//48 49//49 45//45
f 11//11 12//12 25//25
f 25//25 50//50 42//42
f 25//25 12//12 50//50
f 42//42 39//39 25//25
f 45//45 49//49 25//25
f 25//25 49//49 11//11
f 25//25 27//27 45//45
f 25//25 39//39 41//41
f 41//41 27//27 25//25
f 1//1 10//10 52//52
f 10//10 33//33 52//52
f 52//52 33//33 15//15
f 10//10 35//35 34//34
f 34//34 33//33 10//10
f 34//34 35//35 15//15
f 15//15 33//33 34//34
f 46//46 43//43 15//15
f 15//15 30//30 46//46
f 46//46 30//30 27//27
f 31//31 30//30 15//15
f 47//47 30//30 31//31
f 15//15 1//1 32//32
f 32//32 52//52 15//15
f 1//1 52//52 32//32
f 43//43 46//46 28//28
f 44//44 29//29 28//28
f 28//28 29//29 43//43
f 28//28 27//27 44//44
f 28//28 46//46 27//27
f 15//15 35//35 36//36
f 36//36 31//31 15//15
f 36//36 35//35 47//47
f 47//47 31//31 36//36