# https://github.com/mikedh/trimesh
v -0.50626469 -2.44804193 -0.89658115
v -0.48132549 -2.48489144 -0.81555958
v -0.50547949 -2.41894991 -0.72752770
v -0.26541993 -1.83042549 -0.15909222
v 0.35758004 -2.30623488 -0.87406601
v -0.14416688 -2.52131057 -0.89658024
v -0.26542775 -1.83044915 0.06193962
v -0.22275137 -1.75380294 -0.02713924
v -0.22275137 -1.76435456 -0.06414088
v 0.19904094 -1.76465037 -0.10437287
v 0.19904094 -1.73388301 -0.02655192
v 0.49373531 -2.30623749 -0.87406103
v -0.49395601 -2.41894991 -0.58808628
v 0.19904094 -1.84334384 0.05684858
v 0.19904094 -1.78062573 0.04143129
v -0.22275137 -1.79886922 0.04050137
v -0.45188856 -2.42814826 -0.20983158
v -0.41916377 -2.41894991 -0.02488784
v -0.39420852 -2.41894991 0.05518459
v -0.26541993 -1.85182459 0.06644168
v 0.19904094 -1.74685068 0.00119930
v 0.48193935 -2.40508521 -0.87385895
v 0.38604613 -2.56297471 -0.87406601
v 0.21941798 -2.68423832 -0.87406601
v 0.48450918 -2.30623488 -0.72762559
v 0.30913639 -2.33607383 0.10228658
v 0.36540912 -2.33581884 0.06330930
v 0.39241949 -2.33581884 0.01128179
v -0.38041738 -2.51916110 -0.18429227
v -0.34164348 -2.50231518 0.03892288
v -0.34713612 -2.41894991 0.09639536
v 0.41852464 -2.33581884 -0.14859375
v 0.04500034 -2.73388303 -0.89560896
v -0.40601332 -2.57349242 -0.70471675
v -0.01031387 -2.58895931 0.10341884
v -0.29463583 -2.48573434 0.10148966
v 0.41248843 -2.50272734 -0.68461529
v 0.28994479 -2.62373285 -0.60612902
v -0.35501412 -2.63009341 -0.89658024
v 0.26412025 -2.44419493 0.10124086
v 0.33238015 -2.43058630 0.06470416
v 0.38207042 -2.41046301 -0.05851234
v -0.21215765 -2.56275283 0.08638635
v 0.15979761 -2.69586851 -0.65063669
v -0.13994651 -2.72583462 -0.89658024
v 0.45119343 -2.34494012 -0.36857498
v -0.04305540 -2.62102096 0.06997787
v 0.11851139 -2.61023515 0.04381731
v 0.25083527 -2.55022891 0.04860158
v -0.20348754 -2.69829685 -0.70180457
v -0.06437131 -2.66283302 -0.07319555
v 0.36115512 -2.51612412 -0.32196865
v -0.22795039 -2.61037691 -0.02597683
v -0.18536441 -2.66363733 -0.26749093
v 0.20726759 -2.64351717 -0.32260186
v 0.10451994 -2.66450639 -0.19899383
v -0.29801772 -2.63730451 -0.51057124
v 0.01167486 -2.70302720 -0.41269856
v -0.07154747 -2.71846173 -0.59275584
v 0.26926116 -2.57087917 -0.10613790
vn -0.57212768 0.01216400 -0.82007436
vn -0.88055508 -0.46807956 0.07432547
vn -0.99813145 0.02321532 0.05652134
vn -0.53434478 0.46372992 -0.70670377
vn -0.01192826 0.20875676 -0.97789485
vn 0.00435778 0.00897153 -0.99995026
vn -0.47255168 0.25634787 0.84319670
vn -0.45223811 0.84498243 0.28545644
vn -0.28091203 0.56847714 -0.77325427
vn 0.20130566 0.50480486 -0.83943319
vn 0.49254951 0.86188075 0.12065053
vn 0.55215282 0.18595209 -0.81274171
vn -0.96652376 -0.07504204 0.24535794
vn 0.11770137 0.05848652 0.99132523
vn 0.31373399 0.21396503 0.92508916
vn -0.08250158 0.31744022 0.94468259
vn -0.91941942 -0.15358603 0.36204871
vn -0.83695522 -0.12861508 0.53194372
vn -0.55850108 -0.09726379 0.82378171
vn -0.16123972 0.04880872 0.98570759
vn 0.40892308 0.40055518 0.81996187
vn 0.60349018 -0.16085995 -0.78097611
vn 0.49957430 -0.35133698 -0.79182564
vn 0.34846757 -0.53049553 -0.77275148
vn 0.97257449 0.10463540 0.20772649
vn 0.14056505 0.00442459 0.99006156
vn 0.43254192 -0.00143234 0.90161269
vn 0.76906236 -0.00529177 0.63915184
vn -0.73956364 -0.55019732 0.38772224
vn -0.52356873 -0.40326923 0.75049964
vn -0.18881285 -0.03527340 0.98137938
vn 0.92455319 0.01959550 0.38054882
vn 0.08697487 -0.53682056 -0.83920144
vn -0.78661294 -0.58845083 0.18699120
vn 0.02587409 -0.17038836 0.98503723
vn -0.16381901 -0.13135120 0.97770660
vn 0.87336341 -0.42515310 0.23765771
vn 0.66719094 -0.70762332 0.23264886
vn -0.38488440 -0.41413035 -0.82483941
vn 0.11912063 -0.08234140 0.98945953
vn 0.46471531 -0.21408586 0.85918969
vn 0.81738461 -0.32014198 0.47894834
vn -0.17739310 -0.29439369 0.93907616
vn 0.37820448 -0.89743493 0.22709451
vn -0.14473935 -0.52665695 -0.83766520
vn 0.94727412 -0.04810269 0.31679310
vn -0.03394083 -0.47770167 0.87786624
vn 0.20940602 -0.50967424 0.83449463
vn 0.38400168 -0.39485922 0.83464298
vn -0.41563509 -0.89223108 0.17655362
vn -0.07255741 -0.81049587 0.58123306
vn 0.81356245 -0.47986549 0.32839801
vn -0.40626146 -0.64571968 0.64652743
vn -0.36147399 -0.85811436 0.36465915
vn 0.50228130 -0.78410112 0.36455305
vn 0.27403021 -0.84067952 0.46708178
vn -0.60034577 -0.74604537 0.28809941
vn 0.09096297 -0.94200819 0.32302678
vn -0.11212391 -0.96210444 0.24856240
vn 0.64201649 -0.62352806 0.44612507
f 10//10 11//11 12//12
f 8//8 4//4 7//7
f 1//1 12//12 6//6
f 12//12 33//33 6//6
f 12//12 11//11 25//25
f 5//5 10//10 12//12
f 4//4 10//10 5//5
f 5//5 12//12 1//1
f 1//1 4//4 5//5
f 16//16 8//8 7//7
f 9//9 10//10 4//4
f 4//4 8//8 9//9
f 11//11 10//10 9//9
f 9//9 8//8 11//11
f 1//1 13//13 3//3
f 3//3 13//13 7//7
f 3//3 4//4 1//1
f 7//7 4//4 3//3
f 20//20 14//14 7//7
f 26//26 14//14 20//20
f 7//7 19//19 20//20
f 19//19 31//31 20//20
f 46//46 25//25 11//11
f 11//11 32//32 46//46
f 33//33 23//23 24//24
f 35//35 48//48 49//49
f 15//15 16//16 7//7
f 7//7 14//14 15//15
f 15//15 27//27 28//28
f 26//26 27//27 15//15
f 15//15 14//14 26//26
f 56//56 48//48 51//51
f 51//51 58//58 56//56
f 26//26 20//20 36//36
f 36//36 20//20 31//31
f 35//35 26//26 36//36
f 36//36 43//43 35//35
f 36//36 30//30 43//43
f 36//36 31//31 19//19
f 19//19 30//30 36//36
f 45//45 6//6 33//33
f 1//1 6//6 45//45
f 45//45 39//39 1//1
f 12//12 25//25 22//22
f 25//25 46//46 22//22
f 22//22 33//33 12//12
f 22//22 23//23 33//33
f 42//42 32//32 28//28
f 42//42 46//46 32//32
f 33//33 24//24 44//44
f 44//44 58//58 33//33
f 56//56 58//58 44//44
f 38//38 24//24 23//23
f 28//28 27//27 41//41
f 41//41 42//42 28//28
f 49//49 42//42 41//41
f 41//41 27//27 26//26
f 16//16 15//15 21//21
f 11//11 8//8 21//21
f 8//8 16//16 21//21
f 21//21 15//15 28//28
f 21//21 32//32 11//11
f 28//28 32//32 21//21
f 35//35 43//43 47//47
f 47//47 48//48 35//35
f 47//47 51//51 48//48
f 43//43 30//30 53//53
f 54//54 51//51 53//53
f 53//53 47//47 43//43
f 51//51 47//47 53//53
f 18//18 30//30 19//19
f 18//18 19//19 7//7
f 7//7 13//13 17//17
f 17//17 18//18 7//7
f 39//39 45//45 50//50
f 33//33 58//58 59//59
f 59//59 45//45 33//33
f 58//58 51//51 59//59
f 59//59 51//51 54//54
f 54//54 50//50 59//59
f 59//59 50//50 45//45
f 60//60 38//38 52//52
f 52//52 38//38 23//23
f 52//52 49//49 60//60
f 52//52 42//42 49//49
f 37//37 22//22 46//46
f 46//46 42//42 37//37
f 42//42 52//52 37//37
f 23//23 22//22 37//37
f 37//37 52//52 23//23
f 55//55 38//38 60//60
f 56//56 44//44 55//55
f 55//55 44//44 24//24
f 24//24 38//38 55//55
f 60//60 49//49 55//55
f 55//55 48//48 56//56
f 55//55 49//49 48//48
f 40//40 41//41 26//26
f 49//49 41//41 40//40
f 40//40 26//26 35//35
f 35//35 49//49 40//40
f 29//29 53//53 30//30
f 30//30 18//18 29//29
f 18//18 17//17 29//29
f 53//53 29//29 57//57
f 54//54 53//53 57//57
f 57//57 50//50 54//54
f 39//39 50//50 57//57
f 2//2 13//13 1//1
f 2//2 17//17 13//13
f 1//1 39//39 2//2
f 39//39 57//57 34//34
f 34//34 57//57 29//29
f 34//34 2//2 39//39
f 34//34 29//29 17//17
f 17//17 2//2 34//34