# https://github.com/mikedh/trimesh
v -0.01488364 -1.52655089 10.21328801
v -0.01488364 -1.06556980 10.21328801
v 0.04304021 -1.52571854 10.41619077
v -0.01488364 -1.52028428 10.78494026
v 0.98511639 -0.52655090 10.21328801
v -0.01488364 -1.21577050 11.10282939
v 0.19654942 -1.51558448 10.75791904
v 0.09376945 -1.51910937 10.77833181
v -0.01488364 -1.50084837 10.87241588
v 0.93441166 -0.71092377 11.01716474
v 0.98511639 -0.69574702 11.05906722
v 0.98511639 -0.75674773 11.16005322
v 0.42188221 -1.47416661 10.61909354
v 0.51555882 -1.43578409 10.80168167
v 0.34643686 -1.46043415 10.87922037
v 0.09376945 -1.48997983 10.90868894
v -0.01488364 -1.38056037 11.17361278
v 0.28131840 -1.29155622 11.21248026
v -0.01488351 -1.29157333 11.20447255
v 0.98511639 -0.84555606 11.21316559
v 0.89055877 -0.84624151 11.19818643
v 0.21371000 -1.51333239 10.26585556
v 0.28787674 -1.50212119 10.55391510
v 0.42188221 -1.47406865 10.35837976
v 0.51555882 -1.44645679 10.21328801
v 0.54299127 -1.43725287 10.55391510
v 0.56743825 -1.42697191 10.75987710
v 0.43930589 -1.41698457 10.98240918
v 0.30559404 -1.43181872 11.02896205
v 0.09376945 -1.44547772 11.06822068
v -0.01488364 -1.44684846 11.07198995
v 0.87264577 -1.26472769 10.82165388
v 0.75919625 -1.34110098 10.77466045
v 0.91047854 -1.25924448 10.55391510
v 0.98511424 -1.20745359 10.21328800
v 0.98511639 -1.19163459 10.73711489
v 0.91018488 -1.25919554 10.21328801
v 0.11721307 -1.38056037 11.16541340
v 0.98511639 -0.91287226 11.21155019
v 0.36200067 -1.48765434 10.21328801
v 0.65250087 -1.33463862 11.00590590
v 0.48318314 -1.36895761 11.06861241
v 0.32820564 -1.38056037 11.12319321
v 0.73460248 -1.35687738 10.48873665
v 0.77664439 -1.27870498 10.97051432
v 0.80292670 -1.32276643 10.21328801
v 0.94021132 -1.18252854 10.94980796
v 0.98511639 -1.14114442 10.95634607
v 0.42188221 -1.29155622 11.20141723
v 0.60933328 -1.20245411 11.20954317
v 0.74993381 -1.01321004 11.21328796
v 0.60380274 -1.41519772 10.21328801
v 0.65974442 -1.28852091 11.09254958
v 0.51555882 -1.29155622 11.17302536
v 0.86743334 -1.17621307 11.08097278
v 0.70300989 -1.20245411 11.18173873
v 0.86711519 -1.04662333 11.20680189
v 0.70300989 -1.37351059 10.21328801
v 0.93744603 -1.06889886 11.16220708
vn -0.31629300 -0.31541183 -0.89469219
vn -0.42731972 0.30208201 -0.85214102
vn 0.02925640 -0.99937078 0.02005278
vn -0.56230616 -0.60006495 0.56897613
vn 0.27968373 0.57788268 -0.76669982
vn -0.45895092 0.23673438 0.85634157
vn 0.09855661 -0.72656382 0.67999384
vn 0.03106071 -0.72461895 0.68844942
vn -0.47133598 -0.38139424 0.79522376
vn -0.24954454 0.45092588 0.85696754
vn 0.28568214 0.33067585 0.89946606
vn 0.27946257 0.14140950 0.94968628
vn 0.25374484 -0.91743741 0.30646722
vn 0.17992827 -0.57127888 0.80079102
vn 0.11206480 -0.48448923 0.86758957
vn 0.02944748 -0.41951672 0.90726984
vn -0.31732803 -0.10265205 0.94274359
vn 0.00338613 -0.03632074 0.99933445
vn -0.31892540 0.03016454 0.94729968
vn 0.31123609 0.03754679 0.94959061
vn -0.03553015 0.07059604 0.99687201
vn 0.09880899 -0.79788039 -0.59466265
vn 0.19705440 -0.97816684 0.06602429
vn 0.27833727 -0.95940012 -0.04560452
vn 0.10983595 -0.31131817 -0.94393700
vn 0.35393675 -0.93423303 0.04401625
vn 0.28424443 -0.69467813 0.66077788
vn 0.10767397 -0.36165329 0.92607409
vn 0.06252381 -0.31656386 0.94650837
vn 0.02183394 -0.27137529 0.96222593
vn -0.36455864 -0.25232848 0.89634108
vn 0.36946238 -0.50689692 0.77881516
vn 0.36466624 -0.63695065 0.67919983
vn 0.58544321 -0.77786187 0.22844508
vn 0.37688547 -0.18349375 -0.90790274
vn 0.80122872 -0.39894608 0.44595354
vn 0.19333118 -0.27254079 -0.94252033
vn 0.01385182 -0.12683136 0.99182757
vn 0.33874104 -0.01985770 0.94067007
vn 0.07428402 -0.32042548 -0.94435661
vn 0.15471057 -0.31623397 0.93598115
vn 0.08250707 -0.22992271 0.96970518
vn 0.04161207 -0.17828868 0.98309795
vn 0.47118006 -0.87880550 0.07543367
vn 0.19736293 -0.31113167 0.92964776
vn 0.17504270 -0.28832719 -0.94139656
vn 0.27848911 -0.31487745 0.90735660
vn 0.56158730 -0.21206371 0.79978040
vn 0.02374320 -0.08265351 0.99629547
vn 0.02100161 -0.04264527 0.99886952
vn 0.00065725 -0.00106422 0.99999922
vn 0.13348452 -0.30594178 -0.94264601
vn 0.10458870 -0.19401271 0.97540775
vn 0.05428464 -0.13313922 0.98960958
vn 0.15189477 -0.20237858 0.96745588
vn 0.06878389 -0.10985517 0.99156473
vn 0.03519533 -0.04025229 0.99856950
vn 0.15302444 -0.30118469 -0.94120736
vn 0.16763034 -0.11148590 0.97952589
f 2//2 35//35 1//1
f 5//5 35//35 2//2
f 2//2 6//6 5//5
f 39//39 20//20 51//51
f 1//1 35//35 40//40
f 35//35 25//25 40//40
f 6//6 17//17 19//19
f 10//10 11//11 5//5
f 5//5 6//6 10//10
f 6//6 11//11 10//10
f 25//25 26//26 13//13
f 18//18 19//19 17//17
f 51//51 20//20 18//18
f 20//20 19//19 18//18
f 12//12 11//11 6//6
f 6//6 19//19 12//12
f 31//31 30//30 17//17
f 7//7 13//13 14//14
f 59//59 48//48 39//39
f 1//1 40//40 22//22
f 29//29 43//43 30//30
f 28//28 42//42 29//29
f 29//29 42//42 43//43
f 16//16 31//31 9//9
f 30//30 31//31 16//16
f 16//16 29//29 30//30
f 7//7 29//29 16//16
f 35//35 46//46 58//58
f 37//37 46//46 35//35
f 24//24 40//40 25//25
f 25//25 13//13 24//24
f 24//24 13//13 40//40
f 20//20 12//12 21//21
f 21//21 19//19 20//20
f 21//21 12//12 19//19
f 17//17 30//30 38//38
f 30//30 43//43 38//38
f 38//38 43//43 49//49
f 38//38 18//18 17//17
f 49//49 18//18 38//38
f 36//36 35//35 5//5
f 36//36 48//48 47//47
f 15//15 14//14 28//28
f 7//7 14//14 15//15
f 28//28 29//29 15//15
f 15//15 29//29 7//7
f 50//50 18//18 49//49
f 50//50 39//39 51//51
f 51//51 18//18 50//50
f 47//47 48//48 55//55
f 48//48 59//59 55//55
f 3//3 4//4 1//1
f 1//1 22//22 3//3
f 3//3 22//22 7//7
f 23//23 22//22 40//40
f 7//7 22//22 23//23
f 40//40 13//13 23//23
f 23//23 13//13 7//7
f 52//52 26//26 25//25
f 52//52 25//25 35//35
f 35//35 58//58 52//52
f 34//34 37//37 35//35
f 35//35 36//36 34//34
f 46//46 37//37 34//34
f 27//27 13//13 26//26
f 27//27 14//14 13//13
f 26//26 52//52 27//27
f 27//27 52//52 58//58
f 57//57 59//59 39//39
f 39//39 50//50 57//57
f 8//8 3//3 7//7
f 4//4 3//3 8//8
f 7//7 16//16 8//8
f 9//9 4//4 8//8
f 8//8 16//16 9//9
f 46//46 34//34 33//33
f 59//59 57//57 56//56
f 56//56 57//57 50//50
f 56//56 55//55 59//59
f 56//56 53//53 55//55
f 56//56 50//50 49//49
f 55//55 53//53 41//41
f 41//41 42//42 28//28
f 41//41 53//53 42//42
f 27//27 33//33 41//41
f 28//28 14//14 41//41
f 14//14 27//27 41//41
f 44//44 58//58 46//46
f 46//46 33//33 44//44
f 44//44 27//27 58//58
f 44//44 33//33 27//27
f 32//32 36//36 47//47
f 32//32 34//34 36//36
f 32//32 33//33 34//34
f 54//54 56//56 49//49
f 53//53 56//56 54//54
f 42//42 53//53 54//54
f 49//49 43//43 54//54
f 43//43 42//42 54//54
f 45//45 41//41 33//33
f 33//33 32//32 45//45
f 45//45 32//32 47//47
f 47//47 55//55 45//45
f 55//55 41//41 45//45
f 6//6 2//2 4//4
f 4//4 2//2 1//1
f 9//9 31//31 4//4
f 4//4 17//17 6//6
f 4//4 31//31 17//17
f 20//20 39//39 36//36
f 36//36 12//12 20//20
f 5//5 11//11 36//36
f 11//11 12//12 36//36
f 39//39 48//48 36//36