# https://github.com/mikedh/trimesh
v -1.45621431 -0.43457141 -0.81290700
v -1.02477902 -0.43461876 -0.81290488
v -1.49356018 -0.43442415 -0.45333857
v -1.38612463 -0.09854484 -0.83462928
v -1.17976044 0.37517529 -0.83463414
v -0.88769874 -0.43452142 -0.31225144
v -1.19292102 -0.43454434 0.16315492
v -1.55937015 -0.40878670 -0.26966163
v -1.71698877 -0.09875369 -0.83463554
v -1.68993711 -0.19347308 -0.80598952
v -1.17976083 0.51002949 -0.83463432
v -1.18054615 0.55941952 -0.33474656
v -1.18007109 0.56163102 -0.15939749
v -0.93042442 -0.43452155 0.15130159
v -1.03800828 -0.43454868 0.15874455
v -1.47039615 -0.32087221 0.16536449
v -1.49862702 -0.43446148 -0.11482365
v -1.40999715 -0.43836896 -0.81229692
v -1.26503603 0.48707514 -0.83463417
v -1.18032028 0.53229480 0.15094222
v -1.37986027 0.46170367 0.15143396
v -1.17976044 0.46210919 0.16339387
v -1.37715737 0.36992280 0.16459524
v -1.43266660 -0.43438774 0.15330362
v -1.58984594 -0.38079585 -0.04005476
v -1.67467084 -0.33445170 -0.28323361
v -1.59555321 -0.36932938 -0.53899994
v -1.60423608 -0.29672447 -0.81289689
v -1.18081808 0.53731411 -0.63671044
v -1.40724187 0.48838308 -0.27182678
v -1.18058424 0.55419370 0.02397427
v -1.67295177 0.12992473 0.16525596
v -1.74458370 -0.21406832 0.15380395
v -1.76247014 -0.21526590 -0.54187227
v -1.73997781 -0.00142290 -0.83279010
v -1.48648474 0.43699476 0.01623216
v -1.77019405 0.18342123 0.15373553
v -1.74983739 -0.25387570 0.02763563
v -1.84668300 -0.06030192 -0.47983066
v -1.79933776 0.08266478 -0.63602723
v -1.43816912 0.41456818 -0.83463061
v -1.43493783 0.44780691 -0.63107374
v -1.83757853 -0.04482401 0.13360687
v -1.76064458 -0.26610067 -0.15005504
v -1.61281508 0.34533798 0.10303074
v -1.82368331 0.15010348 0.05882722
v -1.83818668 -0.15519229 -0.06535137
v -1.82520025 -0.15304432 -0.36436001
v -1.69450618 0.15980509 -0.83462965
v -1.58739000 0.30701533 -0.83462545
v -1.60641627 0.38154247 -0.36740058
v -1.87288625 -0.03644863 0.02065727
v -1.82847161 0.12254639 -0.44086506
v -1.75139426 0.19721615 -0.62041096
v -1.60846807 0.32722127 -0.72043621
v -1.76050687 0.26787544 -0.15163823
v -1.75400194 0.26060673 -0.37594096
v -1.88769870 0.04389237 -0.17560707
v -1.88596978 -0.03168332 -0.12571955
v -1.84745241 0.14388880 -0.26438469
vn -0.87707020 -0.44163398 -0.18896373
vn 0.92593448 -0.34426530 -0.15532788
vn -0.84723716 -0.53120894 -0.00250186
vn 0.46240336 -0.10799651 -0.88006811
vn 0.88233572 -0.00163759 -0.47061768
vn 0.94862742 -0.31639279 -0.00127503
vn 0.07058135 -0.89252625 0.44543818
vn -0.96179867 -0.27375761 -0.00028512
vn -0.97826581 -0.07310195 -0.19404154
vn -0.99550957 -0.09129478 -0.02501921
vn 0.76661921 0.60044217 -0.22751747
vn 0.71313099 0.70097102 -0.00915486
vn 0.70738720 0.70680918 0.00491239
vn 0.94605755 -0.30327266 0.11402106
vn 0.54893868 -0.74972605 0.36956350
vn -0.76071063 -0.17565905 0.62487057
vn -0.81961476 -0.57290688 0.00305923
vn -0.18057539 -0.93726767 -0.29819765
vn -0.89105041 0.38473589 -0.24084738
vn 0.68355051 0.70287921 0.19677274
vn -0.94174745 0.30313377 0.14567652
vn 0.93328679 0.18009306 0.31071250
vn -0.75596527 0.19065134 0.62623364
vn -0.83662347 -0.52298793 0.16292575
vn -0.97169196 -0.23614790 0.00699254
vn -0.98289811 -0.18413374 -0.00246185
vn -0.98093425 -0.19426920 -0.00524065
vn -0.98745760 -0.14251700 -0.06794397
vn 0.69747698 0.71643559 -0.01568128
vn -0.94360305 0.33107869 -0.00043052
vn 0.67364087 0.73884719 0.01768660
vn -0.85845503 0.02756226 0.51214772
vn -0.98347456 -0.11679784 0.13833312
vn -0.99409841 -0.10819363 -0.00790558
vn -0.99119693 0.00399171 -0.13233560
vn -0.96007340 0.27967122 0.00656289
vn -0.98658595 0.10704016 0.12325000
vn -0.98844008 -0.15130486 0.00964652
vn -0.99968157 -0.02433291 -0.00668336
vn -0.99935936 0.03439494 -0.00989264
vn -0.94421822 0.25661992 -0.20639323
vn -0.95386505 0.30012932 -0.00799066
vn -0.99821245 -0.01754232 0.05713289
vn -0.98914849 -0.14691728 0.00076397
vn -0.97949304 0.20038271 0.02097997
vn -0.99673020 0.08032000 0.00880977
vn -0.99664943 -0.08173069 0.00316502
vn -0.99694093 -0.07809793 -0.00308229
vn -0.98006456 0.07194938 -0.18519379
vn -0.97058659 0.14754351 -0.19024349
vn -0.97450623 0.22433154 -0.00360072
vn -0.99980558 -0.01818134 0.00763221
vn -0.99852339 0.05399264 -0.00598601
vn -0.99520379 0.09740899 -0.00899519
vn -0.98471690 0.17389716 -0.00961224
vn -0.98823970 0.15289398 0.00239169
vn -0.99093940 0.13422391 -0.00480170
vn -0.99964926 0.02647927 -0.00045188
vn -0.99963616 -0.02696749 0.00055818
vn -0.99724762 0.07409371 -0.00270321
f 20//20 14//14 6//6
f 6//6 13//13 31//31
f 31//31 20//20 6//6
f 6//6 14//14 18//18
f 30//30 31//31 13//13
f 41//41 49//49 50//50
f 58//58 52//52 46//46
f 46//46 43//43 37//37
f 52//52 43//43 46//46
f 32//32 23//23 37//37
f 14//14 20//20 22//22
f 23//23 32//32 16//16
f 16//16 22//22 23//23
f 3//3 18//18 17//17
f 1//1 18//18 3//3
f 1//1 28//28 9//9
f 2//2 11//11 6//6
f 6//6 18//18 2//2
f 2//2 1//1 9//9
f 18//18 1//1 2//2
f 35//35 49//49 9//9
f 40//40 49//49 35//35
f 6//6 11//11 29//29
f 55//55 41//41 50//50
f 55//55 57//57 51//51
f 51//51 30//30 42//42
f 42//42 55//55 51//51
f 41//41 55//55 42//42
f 30//30 29//29 42//42
f 9//9 49//49 19//19
f 49//49 41//41 19//19
f 19//19 11//11 9//9
f 41//41 42//42 19//19
f 19//19 29//29 11//11
f 19//19 42//42 29//29
f 53//53 40//40 58//58
f 47//47 43//43 52//52
f 24//24 17//17 18//18
f 28//28 1//1 34//34
f 4//4 2//2 9//9
f 12//12 30//30 13//13
f 12//12 29//29 30//30
f 12//12 13//13 6//6
f 6//6 29//29 12//12
f 36//36 30//30 51//51
f 31//31 30//30 36//36
f 51//51 57//57 56//56
f 56//56 36//36 51//51
f 45//45 36//36 56//56
f 56//56 46//46 37//37
f 37//37 45//45 56//56
f 57//57 55//55 54//54
f 50//50 49//49 54//54
f 54//54 55//55 50//50
f 54//54 49//49 40//40
f 40//40 53//53 54//54
f 60//60 53//53 58//58
f 60//60 56//56 57//57
f 57//57 54//54 60//60
f 60//60 54//54 53//53
f 58//58 46//46 60//60
f 46//46 56//56 60//60
f 43//43 47//47 33//33
f 33//33 47//47 38//38
f 38//38 24//24 33//33
f 33//33 24//24 16//16
f 33//33 16//16 32//32
f 37//37 43//43 33//33
f 33//33 32//32 37//37
f 25//25 24//24 38//38
f 17//17 24//24 25//25
f 7//7 24//24 18//18
f 16//16 24//24 7//7
f 22//22 16//16 7//7
f 38//38 47//47 44//44
f 44//44 25//25 38//38
f 9//9 28//28 10//10
f 28//28 34//34 10//10
f 48//48 44//44 47//47
f 34//34 44//44 48//48
f 11//11 2//2 5//5
f 2//2 4//4 5//5
f 9//9 11//11 5//5
f 5//5 4//4 9//9
f 20//20 31//31 21//21
f 31//31 36//36 21//21
f 21//21 36//36 45//45
f 21//21 45//45 37//37
f 37//37 23//23 21//21
f 21//21 22//22 20//20
f 23//23 22//22 21//21
f 15//15 18//18 14//14
f 15//15 7//7 18//18
f 14//14 22//22 15//15
f 22//22 7//7 15//15
f 8//8 1//1 3//3
f 3//3 17//17 8//8
f 17//17 25//25 8//8
f 27//27 34//34 1//1
f 1//1 8//8 27//27
f 59//59 48//48 47//47
f 59//59 52//52 58//58
f 59//59 47//47 52//52
f 34//34 48//48 39//39
f 9//9 10//10 39//39
f 39//39 10//10 34//34
f 39//39 35//35 9//9
f 40//40 35//35 39//39
f 58//58 40//40 39//39
f 39//39 59//59 58//58
f 48//48 59//59 39//39
f 26//26 44//44 34//34
f 34//34 27//27 26//26
f 26//26 27//27 8//8
f 25//25 44//44 26//26
f 26//26 8//8 25//25