# https://github.com/mikedh/trimesh
v -0.03296750 -2.40215682 0.16785073
v -0.82809645 -1.63222844 0.16703303
v -0.03296750 -2.16443760 0.16285637
v -0.03296750 -2.04677894 0.15849853
v -0.70997844 -1.63222853 0.16226879
v -0.74731395 -1.89144504 0.16509652
v -0.43162125 -2.18689063 0.16858518
v -0.63964218 -1.63222853 0.15502210
v -0.95637377 -1.68541555 0.15125827
v -0.38905703 -2.44789661 0.15744580
v -0.15698656 -2.60124500 0.13837416
v -0.04717188 -2.63222842 0.03393313
v -0.03296750 -2.02438869 0.14144999
v -0.63611558 -1.63222853 0.14806915
v -0.37117923 -2.51027712 0.14667508
v -0.17744213 -2.61489302 0.00860507
v -0.03296750 -1.80871641 -0.83141481
v -0.60731491 -1.63222853 -0.31944301
v -0.60492121 -2.29844796 0.15106434
v -0.26680126 -2.57445616 -0.06959906
v -0.03296750 -2.61097020 -0.13228268
v -0.03322793 -2.61814911 0.15993835
v -0.70096599 -1.63222853 -0.83141481
v -0.91439317 -1.87294449 0.00406482
v -0.76840957 -2.07529761 0.15498506
v -0.10207922 -2.60416192 -0.16003938
v -1.01322566 -1.63229117 0.04844970
v -0.46102495 -2.46461091 -0.09243330
v -0.35527566 -2.51854082 -0.18523157
v -0.65540014 -2.30080655 -0.02874772
v -0.63447785 -2.32255744 -0.18470870
v -0.73142584 -2.18101999 -0.34746594
v -0.48652858 -2.41465197 -0.30739164
v -0.37671391 -2.44309230 -0.41733509
v -0.95840675 -1.63222852 -0.83141466
v -0.96658824 -1.69711234 -0.67475321
v -1.03296749 -1.63223203 -0.19391373
v -0.97437952 -1.80118302 -0.21039569
v -0.87783519 -1.97464569 -0.11712820
v -0.07462555 -2.57690438 -0.27192917
v -0.17277628 -2.55355334 -0.32540681
v -0.86814322 -1.83771975 -0.83141468
v -0.78488213 -2.02569229 -0.67515411
v -0.82124416 -2.07792170 -0.19921703
v -0.60994611 -2.26848876 -0.48522806
v -0.48722961 -2.33175476 -0.55408961
v -0.15698656 -2.46721229 -0.53297677
v -0.88863547 -1.87570822 -0.65981907
v -0.87822707 -1.97598157 -0.32231354
v -0.80535603 -2.05495374 -0.50826046
v -0.15007184 -2.31801141 -0.83140743
v -0.28393862 -2.29243282 -0.83139009
v -0.03296777 -2.32753379 -0.83139549
v -0.71603667 -2.05109760 -0.83141184
v -0.92814450 -1.84174044 -0.51432746
v -0.43397232 -2.23006289 -0.83141448
v -0.03296794 -2.47399478 -0.54964579
v -1.02228655 -1.63224132 -0.49283424
v -0.36092015 -2.39178375 -0.56802698
v -0.56820940 -2.16068489 -0.83141347
vn 0.93158503 -0.22119428 0.28848297
vn -0.17923436 0.97022832 0.16288660
vn 0.89995306 0.37163946 0.22796624
vn 0.54401417 0.83159251 0.11181448
vn 0.05242501 0.99512072 0.08358454
vn -0.35769993 -0.82656953 0.43454986
vn -0.17884049 -0.78531335 0.59270483
vn 0.09149592 0.99499584 0.04014681
vn -0.88358215 0.44710534 0.13920990
vn -0.16327128 -0.97495650 0.15100434
vn -0.07022339 -0.99747934 0.01018038
vn 0.10837669 -0.99410985 0.00031924
vn 0.53059358 0.84755941 0.01065316
vn 0.07345992 0.99729551 0.00230245
vn -0.14132473 -0.98930068 0.03621451
vn -0.06823402 -0.99766934 0.00001432
vn 0.47360458 0.87205924 -0.12333440
vn 0.03678097 0.99932335 0.00010731
vn -0.24017865 -0.96797946 0.07300677
vn -0.09695459 -0.99528763 -0.00152987
vn 0.42289719 -0.90617462 -0.00235014
vn 0.36381765 -0.92697516 0.09139896
vn 0.02876793 0.99182744 -0.12430102
vn -0.41278743 -0.91080979 0.00566226
vn -0.34881047 -0.93153962 0.10278709
vn -0.03134574 -0.99950266 -0.00344650
vn -0.74968000 0.66159425 0.01652092
vn -0.15582244 -0.98778507 -0.00012431
vn -0.11274741 -0.99361893 -0.00307248
vn -0.25497280 -0.96694430 0.00275623
vn -0.22422345 -0.97453637 -0.00164688
vn -0.26274627 -0.96485923 -0.00332490
vn -0.15260178 -0.98827861 -0.00425149
vn -0.10874381 -0.99405275 -0.00582412
vn -0.71398399 0.68445551 -0.14747040
vn -0.50525906 -0.86293730 -0.00724494
vn -0.68976888 0.72402633 0.00218479
vn -0.46303346 -0.88634078 0.00018668
vn -0.37328320 -0.92771206 0.00316184
vn 0.02132712 -0.99975948 -0.00511180
vn -0.05029755 -0.99871901 -0.00552162
vn -0.37430503 -0.91467359 -0.15253845
vn -0.27863229 -0.96038142 -0.00561947
vn -0.33053818 -0.94379257 -0.00030206
vn -0.19532574 -0.98072425 -0.00527346
vn -0.14118811 -0.98995988 -0.00673379
vn -0.04584444 -0.99892004 -0.00755287
vn -0.38461015 -0.92305972 -0.00598166
vn -0.36554593 -0.93079029 -0.00236943
vn -0.29556435 -0.95531276 -0.00438568
vn -0.03093351 -0.99033351 -0.13521336
vn -0.06832804 -0.98884877 -0.13232302
vn 0.42934995 -0.89498505 -0.12108006
vn -0.23054476 -0.96351146 -0.13599549
vn -0.41687680 -0.90895353 -0.00414917
vn -0.10511637 -0.98496278 -0.13710894
vn 0.41059393 -0.91178957 -0.00723941
vn -0.73695869 0.67591069 -0.00605263
vn -0.09254082 -0.99568106 -0.00744452
vn -0.14171228 -0.98053155 -0.13592465
f 37//37 2//2 35//35
f 9//9 6//6 2//2
f 17//17 13//13 4//4
f 14//14 18//18 2//2
f 17//17 18//18 14//14
f 14//14 13//13 17//17
f 42//42 36//36 35//35
f 23//23 18//18 17//17
f 17//17 42//42 23//23
f 23//23 42//42 35//35
f 2//2 18//18 23//23
f 23//23 35//35 2//2
f 21//21 53//53 17//17
f 17//17 53//53 51//51
f 27//27 2//2 37//37
f 27//27 9//9 2//2
f 3//3 2//2 1//1
f 3//3 4//4 2//2
f 2//2 4//4 5//5
f 37//37 35//35 58//58
f 35//35 36//36 58//58
f 22//22 21//21 1//1
f 22//22 10//10 15//15
f 17//17 51//51 56//56
f 56//56 42//42 17//17
f 60//60 42//42 56//56
f 53//53 21//21 57//57
f 57//57 51//51 53//53
f 1//1 2//2 7//7
f 2//2 6//6 7//7
f 7//7 22//22 1//1
f 10//10 22//22 7//7
f 6//6 9//9 25//25
f 25//25 7//7 6//6
f 10//10 7//7 25//25
f 8//8 5//5 4//4
f 8//8 4//4 13//13
f 13//13 14//14 8//8
f 8//8 14//14 2//2
f 2//2 5//5 8//8
f 54//54 42//42 60//60
f 55//55 58//58 36//36
f 52//52 56//56 51//51
f 15//15 10//10 19//19
f 10//10 25//25 19//19
f 9//9 27//27 24//24
f 24//24 25//25 9//9
f 33//33 28//28 31//31
f 29//29 28//28 33//33
f 36//36 42//42 48//48
f 48//48 55//55 36//36
f 38//38 27//27 37//37
f 38//38 24//24 27//27
f 37//37 58//58 38//38
f 58//58 55//55 38//38
f 11//11 22//22 15//15
f 15//15 16//16 11//11
f 11//11 16//16 22//22
f 15//15 28//28 20//20
f 20//20 16//16 15//15
f 20//20 28//28 29//29
f 29//29 41//41 20//20
f 20//20 41//41 16//16
f 21//21 22//22 12//12
f 22//22 16//16 12//12
f 40//40 57//57 21//21
f 40//40 41//41 57//57
f 16//16 41//41 26//26
f 21//21 12//12 26//26
f 26//26 12//12 16//16
f 26//26 40//40 21//21
f 41//41 40//40 26//26
f 57//57 41//41 47//47
f 51//51 57//57 47//47
f 47//47 52//52 51//51
f 45//45 54//54 60//60
f 45//45 33//33 31//31
f 60//60 56//56 59//59
f 56//56 52//52 59//59
f 52//52 47//47 59//59
f 59//59 47//47 41//41
f 54//54 45//45 50//50
f 46//46 45//45 60//60
f 33//33 45//45 46//46
f 60//60 59//59 46//46
f 43//43 48//48 42//42
f 43//43 50//50 48//48
f 42//42 54//54 43//43
f 54//54 50//50 43//43
f 24//24 38//38 39//39
f 38//38 44//44 39//39
f 25//25 24//24 39//39
f 31//31 44//44 32//32
f 32//32 44//44 50//50
f 32//32 45//45 31//31
f 32//32 50//50 45//45
f 30//30 19//19 25//25
f 25//25 39//39 30//30
f 30//30 39//39 44//44
f 30//30 44//44 31//31
f 15//15 19//19 30//30
f 30//30 28//28 15//15
f 31//31 28//28 30//30
f 49//49 38//38 55//55
f 49//49 44//44 38//38
f 50//50 44//44 49//49
f 55//55 48//48 49//49
f 48//48 50//50 49//49
f 33//33 46//46 34//34
f 34//34 46//46 59//59
f 29//29 33//33 34//34
f 34//34 41//41 29//29
f 34//34 59//59 41//41
f 17//17 4//4 3//3
f 1//1 21//21 3//3
f 3//3 21//21 17//17