# https://github.com/mikedh/trimesh
v 0.47164053 -0.47056182 -0.75913926
v 0.42389782 -0.60027687 -0.75913548
v 0.34691676 -0.70735023 -0.75913990
v 0.24522089 -0.78242922 -0.75914487
v 0.08288513 -0.83950255 -0.75914818
v 0.15591766 -0.82018313 -0.75914863
v -0.01026724 -0.84590112 -0.75914886
v -0.10871519 -0.83369098 -0.75914779
v -0.22497503 -0.79313760 -0.75914549
v -0.40007159 -0.63708168 -0.75914907
v -0.46785491 -0.76574429 -0.07779008
v -0.44579135 -0.55452469 -0.75912236
v -0.49225814 -0.40060505 -0.38465735
v -0.47139846 -0.45602773 -0.75915509
v 0.44433460 -0.80830523 -0.11926127
v 0.50774187 -0.47740525 -0.21852018
v 0.48822905 -0.73755296 -0.13745653
v 0.33478659 -0.88974472 0.04822008
v -0.14248900 -0.88480955 -0.28356292
v 0.40589088 -0.87497310 0.06384123
v 0.37643656 -0.84588114 0.10855169
v 0.22383834 0.06167475 0.20688932
v 0.08950991 -0.84583759 0.23393109
v -0.03940203 -0.86515009 0.23803492
v 0.36103005 -0.88328000 0.01116665
v -0.33129997 -0.84421340 0.15133125
v 0.40644989 -0.85610027 -0.05364904
v -0.43460944 -0.85197045 -0.00265627
v -0.33113992 -0.72033048 -0.75912820
v -0.48287907 -0.65755051 -0.11166855
v -0.45054570 -0.82674075 0.00920897
v -0.34848788 -0.89048698 0.00437923
v -0.14216817 0.10356047 -0.28457666
v -0.34040163 0.10913087 -0.01657079
v 0.36931213 0.10887727 0.07332689
v 0.49632984 -0.08483132 -0.18689437
v -0.47079856 -0.31663539 -0.76065811
v -0.37841111 -0.11366565 -0.75855319
v -0.31517417 -0.04925136 -0.75915650
v 0.31918606 -0.05220098 -0.75915579
v 0.39008650 -0.12877502 -0.75914297
v 0.08558967 0.05723307 -0.75914731
v 0.24525514 0.00139547 -0.75834307
v -0.02990133 0.06534711 -0.75950636
v -0.24090506 0.00213111 -0.75915563
v -0.15904947 0.04139417 -0.74225634
v -0.38742943 0.06731817 0.10230228
v -0.15917462 -0.84568636 0.22223388
v 0.20220702 -0.89006618 0.20963900
v 0.31013689 0.05717097 0.16147497
v 0.41131589 0.06246129 0.04889663
v 0.36719096 0.06173996 0.11668169
v 0.44397515 0.03106158 -0.11096737
v -0.01331699 0.06387750 0.23934192
v -0.48002396 -0.08916873 -0.10501100
v -0.44831621 0.03488056 -0.03349280
v -0.43752658 -0.20850402 -0.75904600
v 0.39315355 0.08287804 -0.04421262
v 0.27111934 0.10951300 0.13226597
v -0.21830147 0.10563660 0.20391993
vn 0.88155330 -0.05114944 -0.46930535
vn 0.77787266 -0.36925844 -0.50849025
vn 0.63779918 -0.57341094 -0.51421018
vn 0.44711008 -0.72556821 -0.52310932
vn 0.14265672 -0.84716564 -0.51181974
vn 0.29251116 -0.79733205 -0.52791933
vn -0.02028184 -0.86090438 -0.50836236
vn -0.20312043 -0.83274887 -0.51504506
vn -0.40790457 -0.75187380 -0.51797650
vn -0.73083930 -0.44884468 -0.51421043
vn -0.96226706 -0.27174370 -0.01405252
vn -0.82309599 -0.29095889 -0.48770473
vn -0.99995343 -0.00311758 -0.00913340
vn -0.88386870 -0.10037798 -0.45683737
vn 0.77734683 -0.62722033 -0.04823439
vn 0.99962316 -0.01744935 0.02119080
vn 0.96546337 -0.25970741 0.02079779
vn 0.12120180 -0.99261535 0.00498822
vn -0.05233393 -0.99819677 -0.02940008
vn 0.77340816 -0.62179405 0.12333687
vn 0.90043665 -0.27814557 0.33443815
vn 0.52557171 0.62366526 0.57863288
vn 0.30303814 -0.32907634 0.89435823
vn -0.15139595 -0.79829329 0.58292975
vn 0.25159352 -0.96702572 -0.03952156
vn -0.71807180 -0.60331474 0.34696429
vn 0.56380846 -0.82431653 -0.05120823
vn -0.69055409 -0.72307202 0.01737569
vn -0.60637628 -0.60521913 -0.51576895
vn -0.99783622 -0.05980703 0.02731302
vn -0.93715353 -0.32427410 0.12880050
vn -0.26718225 -0.96323400 0.02817642
vn -0.04266799 0.99869725 -0.02798666
vn -0.33633715 0.94171686 -0.00683274
vn 0.52431669 0.84561319 0.10015157
vn 0.97333921 0.22926716 0.00688090
vn -0.86896415 0.11279033 -0.48185024
vn -0.71277507 0.50539006 -0.48634616
vn -0.57854682 0.62868973 -0.51964680
vn 0.58992789 0.61071388 -0.52821741
vn 0.78533250 0.37828923 -0.49005115
vn 0.17908756 0.84597184 -0.50225421
vn 0.42617033 0.76181254 -0.48787345
vn -0.05744294 0.86215665 -0.50337483
vn -0.43407272 0.73430523 -0.52189722
vn -0.31690219 0.93725591 -0.14534222
vn -0.82220810 0.52198630 0.22694525
vn -0.51123731 -0.64036065 0.57321432
vn 0.45893674 -0.77492773 0.43458496
vn 0.79982536 0.43532851 0.41324144
vn 0.93825875 0.32850018 0.10843502
vn 0.88769094 0.35072273 0.29832594
vn 0.81640525 0.57707527 -0.02160096
vn 0.02477005 0.69943239 0.71426940
vn -0.99114790 0.12862149 0.03289923
vn -0.88388899 0.46606127 0.03907876
vn -0.81287026 0.33859586 -0.47391432
vn 0.54342647 0.83871460 -0.03529157
vn 0.24269051 0.95661380 0.16121834
vn -0.46761918 0.76547573 0.44201721
f 47//47 34//34 56//56
f 32//32 49//49 24//24
f 32//32 24//24 26//26
f 26//26 24//24 48//48
f 35//35 58//58 42//42
f 59//59 50//50 35//35
f 35//35 34//34 59//59
f 35//35 33//33 34//34
f 42//42 58//58 43//43
f 1//1 36//36 16//16
f 41//41 36//36 1//1
f 41//41 1//1 37//37
f 48//48 24//24 54//54
f 31//31 26//26 47//47
f 47//47 56//56 31//31
f 31//31 30//30 11//11
f 44//44 35//35 42//42
f 33//33 35//35 44//44
f 46//46 34//34 44//44
f 34//34 33//33 44//44
f 42//42 43//43 40//40
f 40//40 44//44 42//42
f 41//41 37//37 40//40
f 37//37 44//44 40//40
f 53//53 36//36 41//41
f 41//41 40//40 53//53
f 58//58 35//35 53//53
f 53//53 43//43 58//58
f 53//53 40//40 43//43
f 52//52 35//35 50//50
f 17//17 1//1 16//16
f 16//16 36//36 17//17
f 55//55 37//37 13//13
f 13//13 30//30 55//55
f 30//30 31//31 55//55
f 55//55 31//31 56//56
f 49//49 50//50 22//22
f 22//22 50//50 59//59
f 59//59 54//54 22//22
f 23//23 24//24 49//49
f 23//23 54//54 24//24
f 49//49 22//22 23//23
f 23//23 22//22 54//54
f 48//48 54//54 60//60
f 47//47 26//26 60//60
f 60//60 26//26 48//48
f 60//60 34//34 47//47
f 59//59 34//34 60//60
f 60//60 54//54 59//59
f 32//32 26//26 28//28
f 26//26 31//31 28//28
f 28//28 9//9 32//32
f 28//28 31//31 11//11
f 5//5 37//37 6//6
f 5//5 7//7 37//37
f 9//9 37//37 8//8
f 37//37 7//7 8//8
f 32//32 9//9 8//8
f 8//8 19//19 32//32
f 7//7 19//19 8//8
f 21//21 52//52 50//50
f 20//20 52//52 21//21
f 21//21 50//50 49//49
f 49//49 20//20 21//21
f 35//35 52//52 51//51
f 51//51 53//53 35//35
f 36//36 53//53 51//51
f 51//51 17//17 36//36
f 51//51 52//52 20//20
f 20//20 17//17 51//51
f 10//10 12//12 37//37
f 11//11 12//12 10//10
f 10//10 28//28 11//11
f 13//13 37//37 14//14
f 37//37 12//12 14//14
f 14//14 30//30 13//13
f 11//11 30//30 14//14
f 14//14 12//12 11//11
f 45//45 44//44 37//37
f 37//37 39//39 45//45
f 46//46 44//44 45//45
f 45//45 34//34 46//46
f 45//45 56//56 34//34
f 45//45 39//39 56//56
f 57//57 39//39 37//37
f 57//57 55//55 56//56
f 37//37 55//55 57//57
f 7//7 5//5 18//18
f 18//18 19//19 7//7
f 18//18 20//20 49//49
f 18//18 49//49 32//32
f 32//32 19//19 18//18
f 1//1 17//17 2//2
f 2//2 37//37 1//1
f 2//2 3//3 37//37
f 6//6 37//37 4//4
f 37//37 3//3 4//4
f 4//4 27//27 6//6
f 4//4 3//3 27//27
f 27//27 3//3 15//15
f 15//15 17//17 20//20
f 20//20 27//27 15//15
f 15//15 2//2 17//17
f 3//3 2//2 15//15
f 9//9 28//28 29//29
f 28//28 10//10 29//29
f 29//29 37//37 9//9
f 29//29 10//10 37//37
f 56//56 39//39 38//38
f 38//38 57//57 56//56
f 39//39 57//57 38//38
f 20//20 18//18 25//25
f 25//25 18//18 5//5
f 25//25 5//5 6//6
f 6//6 27//27 25//25
f 25//25 27//27 20//20