# https://github.com/mikedh/trimesh
v -1.12664561 1.65984414 -13.16956878
v -1.05186108 1.65759269 -13.16956878
v -1.05186108 1.59915499 -13.86295914
v -1.23013507 1.65827799 -13.16956878
v -0.97727232 1.64574860 -13.16956878
v -1.13592027 1.57500175 -14.04648665
v -1.27601891 1.59700149 -13.86295914
v -0.99234670 1.56861465 -14.03258770
v -1.31624986 1.65025135 -13.16956878
v -1.35305481 1.63870083 -13.16956878
v -1.42216199 1.58828969 -13.16956878
v -0.91403828 1.60727950 -13.16956878
v -0.94252297 1.55628109 -13.97562048
v -1.05186108 1.48041964 -14.12684693
v -1.16394000 1.48041964 -14.12899995
v -1.27601891 1.48041964 -14.12479115
v -1.32917074 1.56724433 -14.02974872
v -0.88462369 1.45653563 -14.07293906
v -1.39421702 1.61454317 -13.16957026
v -1.42216199 1.51976973 -13.86295914
v -0.82780115 1.46935859 -13.86295914
v -0.78345900 1.41013784 -14.02485502
v -1.05186108 1.32487937 -14.16942530
v -0.83230388 1.33319965 -14.12763013
v -1.27601891 1.32487937 -14.16678290
v -1.42216199 1.32487937 -14.13712475
v -1.42216199 1.45712298 -14.08143063
v -1.35276116 1.49157865 -14.08583497
v -0.76123573 1.45676094 -13.16947393
v -1.42216243 1.12156830 -13.16956943
v -0.64484255 0.65984415 -13.16946260
v -0.71332403 1.33280813 -13.86295914
v -0.75311450 1.16924115 -14.13125126
v -0.52905457 0.70252225 -14.13369916
v -0.52905457 0.65984411 -14.13164339
v -0.71591800 1.25146514 -14.08514953
v -0.59963003 1.02114010 -14.09572067
v -1.42216199 1.21211505 -14.06469270
v -0.65385859 1.29972278 -13.16947101
v -1.42216199 1.16777288 -13.86295914
v -0.61627057 0.65984411 -13.89203015
v -0.61861981 0.65984411 -13.86295914
v -0.42216248 0.65984413 -13.16942530
v -0.64955164 1.23227956 -13.86295914
v -0.66007432 1.20257124 -14.05382773
v -0.50115719 0.77857942 -14.07149474
v -0.57975927 0.65984411 -14.08984822
v -0.55176401 0.97415504 -14.05138036
v -0.59483361 0.65984411 -14.06498653
v -0.59179918 1.19508298 -13.16947101
v -0.44428571 0.65984411 -13.86295914
v -0.59126079 1.11550192 -13.86295914
v -0.48657223 0.80040792 -14.03043363
v -0.47352900 0.65984411 -14.04501828
v -0.54197545 0.99862640 -13.86295914
v -0.55450480 1.11628500 -13.16947101
v -0.46415647 0.85101482 -13.16947101
v -0.50468107 0.89467183 -13.86295914
v -0.52034274 1.01830145 -13.16947101
vn 0.00045617 0.53323897 0.84596454
vn 0.01161747 0.53585044 0.84423299
vn 0.02128207 0.92700383 -0.37444754
vn -0.00589071 0.53397793 0.84547790
vn 0.04734954 0.54690115 0.83585713
vn 0.00021736 0.54397875 -0.83909897
vn -0.02477646 0.92590142 -0.37695183
vn 0.04372298 0.55629239 -0.82983557
vn -0.02662845 0.54122609 0.84045538
vn -0.05664410 0.54040539 0.83949596
vn -0.26743856 0.40109484 0.87612759
vn 0.09240875 0.51660465 0.85122280
vn 0.11705784 0.76943674 -0.62790490
vn 0.00967904 0.16634076 -0.98602083
vn -0.00092896 0.15510575 -0.98789744
vn -0.01028975 0.17037833 -0.98532499
vn -0.05988882 0.58067896 -0.81192689
vn 0.04762557 0.26977326 -0.96174539
vn -0.09140668 0.52811819 0.84423693
vn -0.49460812 0.74058588 -0.45485753
vn 0.19961412 0.92548074 -0.32193104
vn 0.14397202 0.53936930 -0.82967031
vn 0.00369264 0.03230222 -0.99947133
vn 0.03219046 0.12432627 -0.99171909
vn -0.00957059 0.00190905 -0.99995238
vn -0.23328277 -0.02416373 -0.97210867
vn -0.27247437 0.29329186 -0.91637198
vn -0.02801499 0.22032528 -0.97502407
vn 0.13284892 0.47886308 0.86777953
vn -0.25321246 -0.42259787 0.87022669
vn -0.03701960 -0.50430128 0.86273389
vn 0.29597817 0.86330213 -0.40878644
vn 0.02099902 0.04791360 -0.99863073
vn 0.05580618 0.02525121 -0.99812226
vn 0.03903523 -0.44498828 -0.89468524
vn 0.06302177 0.18121535 -0.98142206
vn 0.06769401 0.13427836 -0.98862877
vn -0.28648730 -0.38770340 -0.87613418
vn 0.15826297 0.43496245 0.88643133
vn -0.48325590 -0.78327613 -0.39107830
vn -0.07305176 -0.98984802 -0.12191937
vn -0.07175536 -0.99484406 -0.07166917
vn 0.31316752 -0.38896834 0.86638891
vn 0.33052781 0.80769150 -0.48824769
vn 0.16449888 0.39242430 -0.90495485
vn 0.11304651 0.10610714 -0.98790777
vn -0.04247597 -0.70283932 -0.71007935
vn 0.20661528 0.34483841 -0.91563999
vn -0.07330061 -0.86088933 -0.50348444
vn 0.18353365 0.41587539 0.89070930
vn 0.50999017 -0.64869624 -0.56489221
vn 0.37553640 0.75517058 -0.53729862
vn 0.29776979 0.31630054 -0.90071478
vn 0.20244264 -0.45465767 -0.86735424
vn 0.44240495 0.74413830 -0.50053577
vn 0.21074646 0.37742749 0.90173966
vn 0.24485777 0.29281132 0.92428686
vn 0.51180128 0.71803531 -0.47168289
vn 0.21762181 0.32429221 0.92058422
f 31//31 43//43 30//30
f 11//11 20//20 30//30
f 30//30 43//43 11//11
f 43//43 29//29 11//11
f 43//43 31//31 42//42
f 42//42 31//31 30//30
f 47//47 38//38 35//35
f 30//30 38//38 40//40
f 4//4 29//29 1//1
f 4//4 9//9 29//29
f 10//10 11//11 29//29
f 29//29 9//9 10//10
f 9//9 17//17 10//10
f 1//1 29//29 2//2
f 29//29 5//5 2//2
f 12//12 5//5 29//29
f 13//13 5//5 12//12
f 23//23 35//35 25//25
f 20//20 17//17 27//27
f 30//30 20//20 27//27
f 39//39 29//29 43//43
f 23//23 14//14 24//24
f 49//49 38//38 47//47
f 49//49 40//40 38//38
f 20//20 11//11 19//19
f 11//11 10//10 19//19
f 19//19 17//17 20//20
f 19//19 10//10 17//17
f 3//3 2//2 5//5
f 1//1 2//2 3//3
f 8//8 5//5 13//13
f 8//8 3//3 5//5
f 26//26 38//38 30//30
f 30//30 27//27 26//26
f 26//26 35//35 38//38
f 26//26 25//25 35//35
f 25//25 26//26 16//16
f 16//16 26//26 27//27
f 43//43 56//56 50//50
f 50//50 39//39 43//43
f 51//51 57//57 43//43
f 43//43 42//42 51//51
f 59//59 56//56 43//43
f 43//43 57//57 59//59
f 18//18 24//24 14//14
f 14//14 8//8 18//18
f 21//21 12//12 29//29
f 13//13 12//12 21//21
f 40//40 49//49 41//41
f 41//41 42//42 30//30
f 30//30 40//40 41//41
f 7//7 17//17 9//9
f 9//9 4//4 7//7
f 7//7 4//4 1//1
f 1//1 3//3 7//7
f 15//15 14//14 23//23
f 23//23 25//25 15//15
f 25//25 16//16 15//15
f 28//28 27//27 17//17
f 17//17 16//16 28//28
f 28//28 16//16 27//27
f 39//39 50//50 44//44
f 57//57 51//51 53//53
f 24//24 37//37 33//33
f 23//23 24//24 33//33
f 6//6 8//8 14//14
f 14//14 15//15 6//6
f 3//3 8//8 6//6
f 6//6 16//16 17//17
f 6//6 15//15 16//16
f 17//17 7//7 6//6
f 6//6 7//7 3//3
f 52//52 50//50 56//56
f 52//52 44//44 50//50
f 29//29 39//39 32//32
f 39//39 44//44 32//32
f 54//54 53//53 51//51
f 34//34 33//33 37//37
f 34//34 54//54 35//35
f 34//34 35//35 23//23
f 23//23 33//33 34//34
f 58//58 59//59 57//57
f 57//57 53//53 58//58
f 56//56 59//59 58//58
f 22//22 21//21 29//29
f 29//29 32//32 22//22
f 13//13 21//21 22//22
f 22//22 8//8 13//13
f 22//22 18//18 8//8
f 24//24 18//18 22//22
f 22//22 32//32 44//44
f 53//53 54//54 46//46
f 54//54 34//34 46//46
f 48//48 53//53 46//46
f 46//46 37//37 48//48
f 46//46 34//34 37//37
f 48//48 52//52 55//55
f 55//55 53//53 48//48
f 55//55 58//58 53//53
f 55//55 52//52 56//56
f 56//56 58//58 55//55
f 36//36 37//37 24//24
f 24//24 22//22 36//36
f 45//45 22//22 44//44
f 45//45 52//52 48//48
f 44//44 52//52 45//45
f 45//45 36//36 22//22
f 48//48 37//37 45//45
f 37//37 36//36 45//45
f 54//54 49//49 47//47
f 47//47 35//35 54//54
f 54//54 51//51 42//42
f 42//42 41//41 54//54
f 54//54 41//41 49//49