# https://github.com/mikedh/trimesh
v 0.14065468 0.59077760 -0.60945749
v 0.32163946 0.62730686 -0.60944944
v 0.48092329 0.72358004 -0.60944944
v 0.91587017 1.03430221 -0.06192728
v -0.08317848 0.82155608 -0.60944944
v -0.08322203 0.57570370 -0.30556410
v 0.57480984 0.81247411 -0.60944944
v 0.63376592 0.93400199 -0.60913308
v 0.63893468 1.07357899 -0.60944944
v 0.91666720 0.57565468 0.29437981
v 0.60896311 1.19942496 -0.60943435
v 0.90228642 1.07377641 -0.18108150
v -0.07699858 1.19963989 -0.49076010
v -0.08330295 0.57566371 -0.60972846
v 0.91667278 0.57565063 -0.41134692
v 0.54847459 1.28364753 -0.60944944
v 0.89234964 1.26271967 -0.05982311
v -0.05630488 1.32579944 0.00291023
v -0.08332722 1.19384196 0.13276387
v 0.01638618 1.40269953 0.01964567
v 0.87467549 1.02756482 0.22405507
v 0.52537021 1.29075508 -0.60944944
v 0.70403835 1.53685507 -0.08076685
v 0.80100860 1.42496006 -0.08962390
v 0.03763060 1.40378539 -0.38200436
v -0.03540315 1.32575006 -0.38396171
v 0.00502970 1.29317366 0.13371070
v 0.18575374 1.46621117 0.05727587
v 0.32281431 1.54465370 -0.03056062
v -0.00338973 0.96674318 0.25893276
v 0.18732015 0.84194098 0.32450424
v 0.34306116 0.57566396 0.38831812
v -0.08303424 0.57577866 0.31570375
v 0.90975144 1.08939832 0.13670793
v 0.59419405 1.57565063 -0.04729603
v 0.07157750 1.40042904 -0.42200787
v -0.00862799 1.26285388 -0.60942656
v 0.02040004 1.28966921 -0.60944944
v 0.35017739 1.46395304 0.14384005
v 0.50894731 1.57115902 0.03218498
v 0.34170903 1.09707354 0.29357799
v 0.18330621 1.21642167 0.22653847
v 0.82414978 1.41637790 0.01799413
v 0.72587007 1.06115618 0.29195706
v 0.85258813 0.57565841 0.34145090
v 0.74179724 0.57565529 0.37876760
v 0.22802825 1.32129098 -0.60944642
v 0.45224539 1.31244226 -0.60944748
v 0.44264428 1.56568027 -0.06403144
v 0.59592568 1.41516246 0.17981570
v 0.51841917 1.16961158 0.27972969
v 0.70479088 1.53807668 0.04461421
v 0.57409998 0.83644988 0.35601162
v 0.59693524 0.57565351 0.39027150
v 0.80611469 1.32042247 0.15247691
vn 0.14761993 -0.95240774 -0.26669805
vn 0.40361877 -0.86628345 -0.29435501
vn 0.68663798 -0.64506750 -0.33528525
vn 0.99925686 0.03852871 -0.00112841
vn -0.97765018 0.03628977 -0.20708255
vn -0.86299763 -0.50520797 0.00001600
vn 0.84838205 -0.42463811 -0.31611764
vn 0.95416778 -0.13341436 -0.26788890
vn 0.96321355 0.10035527 -0.24929597
vn 0.83733021 -0.54534041 0.03849625
vn 0.92441297 0.30587071 -0.22782398
vn 0.98676746 0.16135323 -0.01597215
vn -0.98236245 0.18677637 -0.00886590
vn -0.74582627 -0.64411332 -0.16988588
vn 0.83504133 -0.54912281 -0.03420692
vn 0.69114840 0.68601150 -0.22738099
vn 0.97764059 0.21015403 -0.00735901
vn -0.93638010 0.35096166 0.00426852
vn -0.95859899 0.28246525 0.03607427
vn -0.72792887 0.68539597 0.01875958
vn 0.96211189 0.26688396 0.05580027
vn 0.38341584 0.87872038 -0.28432867
vn 0.63031394 0.77601483 -0.02247911
vn 0.90400331 0.42704322 -0.02030024
vn -0.61911538 0.78518865 -0.01322616
vn -0.91317240 0.40752349 -0.00638625
vn -0.75690326 0.64987435 0.06899838
vn -0.51814019 0.85445721 0.03786325
vn -0.40329732 0.91505813 0.00446048
vn -0.87824037 0.46294245 0.11990887
vn -0.75254829 0.61462358 0.23645068
vn -0.57084179 -0.73435783 0.36723048
vn -0.87053239 -0.47752686 0.11891787
vn 0.98865255 0.14950174 0.01467508
vn 0.18521272 0.98266146 -0.00852705
vn -0.30614835 0.95152021 -0.02970657
vn -0.90963401 0.36116735 -0.20524161
vn -0.56186043 0.79500730 -0.22864001
vn -0.31878724 0.94340533 0.09143892
vn -0.07400937 0.99668124 0.03389871
vn -0.46606710 0.85497367 0.22759941
vn -0.61856249 0.77332003 0.13912792
vn 0.91559911 0.40198766 0.00917533
vn 0.76599994 0.62175661 0.16328751
vn 0.84974277 -0.51834077 0.09622930
vn 0.78729627 -0.57148621 0.23144781
vn -0.07107999 0.95972124 -0.27181386
vn 0.21737594 0.93921738 -0.26574126
vn -0.16884284 0.98551416 -0.01593537
vn 0.33154931 0.93504475 0.12556423
vn 0.08246273 0.97418546 0.21014897
vn 0.58439756 0.81061392 0.03720984
vn 0.26013317 0.89906748 0.35214827
vn 0.28940040 -0.86512336 0.40964495
vn 0.86219110 0.50315524 0.05883292
f 15//15 54//54 14//14
f 19//19 20//20 18//18
f 25//25 18//18 20//20
f 19//19 18//18 13//13
f 35//35 52//52 23//23
f 29//29 25//25 20//20
f 15//15 7//7 8//8
f 9//9 14//14 16//16
f 9//9 7//7 14//14
f 9//9 8//8 7//7
f 15//15 8//8 9//9
f 19//19 14//14 6//6
f 6//6 33//33 19//19
f 14//14 33//33 6//6
f 32//32 14//14 54//54
f 32//32 33//33 14//14
f 19//19 33//33 30//30
f 37//37 14//14 5//5
f 5//5 13//13 37//37
f 5//5 14//14 19//19
f 19//19 13//13 5//5
f 18//18 25//25 26//26
f 26//26 13//13 18//18
f 26//26 25//25 37//37
f 37//37 13//13 26//26
f 50//50 52//52 40//40
f 40//40 39//39 50//50
f 40//40 52//52 35//35
f 53//53 32//32 54//54
f 41//41 32//32 53//53
f 51//51 44//44 50//50
f 50//50 39//39 51//51
f 51//51 39//39 41//41
f 41//41 53//53 51//51
f 51//51 53//53 44//44
f 55//55 52//52 50//50
f 50//50 44//44 55//55
f 28//28 29//29 20//20
f 39//39 40//40 28//28
f 28//28 40//40 29//29
f 25//25 29//29 49//49
f 49//49 36//36 25//25
f 49//49 40//40 35//35
f 29//29 40//40 49//49
f 47//47 49//49 35//35
f 36//36 49//49 47//47
f 37//37 25//25 38//38
f 25//25 36//36 38//38
f 36//36 47//47 38//38
f 38//38 14//14 37//37
f 38//38 47//47 14//14
f 15//15 14//14 1//1
f 1//1 2//2 15//15
f 14//14 2//2 1//1
f 14//14 7//7 3//3
f 3//3 2//2 14//14
f 3//3 7//7 15//15
f 15//15 2//2 3//3
f 11//11 9//9 16//16
f 15//15 9//9 11//11
f 41//41 39//39 42//42
f 42//42 30//30 41//41
f 33//33 32//32 31//31
f 31//31 30//30 33//33
f 31//31 32//32 41//41
f 41//41 30//30 31//31
f 43//43 23//23 52//52
f 52//52 55//55 43//43
f 46//46 53//53 54//54
f 44//44 53//53 46//46
f 46//46 45//45 44//44
f 21//21 55//55 44//44
f 44//44 45//45 21//21
f 14//14 47//47 48//48
f 48//48 47//47 35//35
f 35//35 23//23 48//48
f 19//19 30//30 27//27
f 30//30 42//42 27//27
f 27//27 42//42 39//39
f 39//39 28//28 27//27
f 27//27 20//20 19//19
f 27//27 28//28 20//20
f 23//23 43//43 24//24
f 16//16 23//23 24//24
f 24//24 11//11 16//16
f 34//34 43//43 55//55
f 55//55 21//21 34//34
f 16//16 14//14 22//22
f 14//14 48//48 22//22
f 22//22 23//23 16//16
f 22//22 48//48 23//23
f 43//43 34//34 17//17
f 17//17 24//24 43//43
f 11//11 24//24 17//17
f 10//10 21//21 45//45
f 10//10 34//34 21//21
f 45//45 46//46 10//10
f 10//10 54//54 15//15
f 10//10 46//46 54//54
f 4//4 17//17 34//34
f 4//4 10//10 15//15
f 34//34 10//10 4//4
f 15//15 11//11 12//12
f 11//11 17//17 12//12
f 12//12 4//4 15//15
f 17//17 4//4 12//12