# https://github.com/mikedh/trimesh
v 0.43895246 -2.33695000 -0.83498776
v 0.50013129 -1.59306646 -0.25040829
v 0.43225491 -1.85642644 -0.19536816
v 0.47065741 -1.59328482 -0.87985238
v 0.46147212 -2.15974171 -0.88410899
v 0.45187434 -1.59330299 -0.97782602
v 0.37887202 -1.59326897 -1.06468521
v 0.20521315 -1.59328466 -1.15820425
v 0.09303140 -1.59328482 -1.18491331
v -0.03792989 -1.59328238 -1.19364944
v 0.37661899 -2.07607488 -0.21988320
v 0.25691740 -2.33929422 -0.20056777
v 0.42630606 -2.26330679 -1.00460838
v -0.17715808 -1.59328499 -1.17166919
v 0.24224586 -2.28242289 -1.14932591
v -0.03847367 -2.37449438 -1.18902100
v 0.41396656 -2.46981582 -0.88459539
v 0.19411988 -2.45578758 -0.21929671
v 0.34931751 -2.51696844 -0.81866447
v -0.49986869 -1.59318683 -0.24543969
v -0.43890249 -2.33665629 -0.83498776
v -0.24035520 -2.25335248 -1.14952878
v -0.37069773 -1.59328482 -1.07964164
v -0.40680614 -1.59328482 -1.04142362
v -0.44073749 -1.59327386 -0.98702882
v -0.46916737 -1.59318881 -0.91525445
v -0.45914102 -2.20471923 -0.92250500
v 0.31408261 -2.27841084 -1.10469694
v 0.13981050 -2.52289068 -0.24568764
v 0.41385739 -2.44759776 -0.95558790
v -0.46771021 -1.70876865 -0.19830603
v -0.43215052 -2.11733534 -0.52401441
v 0.13183354 -2.31203094 -1.18554966
v 0.20045205 -2.46581889 -1.12886298
v 0.03340834 -2.48278598 -0.19364940
v 0.49088553 -1.59780959 -0.19477535
v 0.06648210 -2.57502073 -0.23703029
v -0.01551541 -2.59181264 -0.22969682
v -0.31195480 -2.52771836 -0.99134311
v -0.20364744 -2.52926572 -1.04374505
v -0.06959867 -2.52998766 -1.09704011
v 0.02350035 -2.59306646 -0.24654643
v 0.32497929 -2.52646571 -0.99266361
v -0.37628096 -2.06881394 -0.20723886
v -0.40346649 -2.47435559 -0.86362868
v -0.40895894 -2.42201571 -0.80234119
v 0.11436883 -2.52808523 -1.11099045
v -0.48167871 -1.59318667 -0.19476407
v -0.17466732 -2.47074075 -0.19730416
v -0.06556927 -2.57655860 -0.23634514
v -0.34936540 -2.52391857 -0.86773209
v -0.41954693 -2.46596168 -0.90783752
v -0.17767246 -2.48176906 -1.13166001
v -0.34936540 -2.51682159 -0.81866447
v -0.24465335 -2.36242712 -0.19902993
v -0.31991112 -2.23945223 -0.24568764
v -0.11647109 -2.54672675 -0.24568764
v -0.30868147 -2.38382549 -1.10753462
v -0.40258755 -2.32243591 -1.02937547
vn 0.31556486 -0.94881120 0.01327155
vn 0.45321600 0.89080293 0.03264035
vn 0.21529388 -0.94913449 0.22976568
vn 0.25885870 0.96579996 -0.01492036
vn 0.63634595 -0.77063634 -0.03440152
vn 0.26673978 0.96180012 -0.06156637
vn 0.20708841 0.97055519 -0.12303257
vn 0.11678865 0.98117335 -0.15381568
vn 0.04775763 0.98431678 -0.16982251
vn -0.02095571 0.98186701 -0.18840920
vn 0.16788566 -0.98472477 0.04616850
vn 0.10786187 -0.98052223 0.16414009
vn 0.44249443 -0.88363086 -0.15295480
vn -0.10066622 0.97900738 -0.17723110
vn 0.31394041 -0.89272221 -0.32324676
vn -0.03309708 -0.97032836 -0.23951503
vn 0.15428181 -0.98802640 -0.00097865
vn 0.06411534 -0.99648004 0.05400704
vn 0.04162317 -0.99911950 0.00526671
vn -0.46816284 0.88270250 0.04074123
vn -0.30921863 -0.95084275 0.01678976
vn -0.30587971 -0.85644670 -0.41585653
vn -0.20510826 0.96959383 -0.13348562
vn -0.23407738 0.96798759 -0.09059691
vn -0.24828710 0.96664549 -0.06284908
vn -0.26531982 0.96377104 -0.02740036
vn -0.60254650 -0.79521670 -0.06758785
vn 0.32163526 -0.92219987 -0.21470483
vn 0.05164384 -0.99854502 0.01551617
vn 0.19113515 -0.98098305 -0.03375798
vn -0.25545946 -0.94902974 0.18461588
vn -0.22752339 -0.97350290 0.02291768
vn 0.11477748 -0.94189479 -0.31569026
vn 0.07075930 -0.99439429 -0.07856922
vn 0.02038570 -0.96806139 0.24988313
vn 0.44792998 0.85639976 0.25678433
vn 0.03152659 -0.99882614 0.03677524
vn -0.00347589 -0.99908446 0.04263985
vn -0.04595145 -0.99875402 -0.01946471
vn -0.01040109 -0.99989049 -0.01052708
vn -0.00443893 -0.99983450 -0.01764291
vn 0.01071912 -0.99991555 0.00734820
vn 0.05226799 -0.99828373 -0.02641317
vn -0.17719016 -0.97713953 0.11748183
vn -0.09292520 -0.99560446 0.01169076
vn -0.16704993 -0.98572470 0.02100319
vn 0.00967979 -0.99934881 -0.03476007
vn -0.32320591 0.91731566 0.23252940
vn -0.06657355 -0.98311963 0.17042228
vn -0.02847987 -0.99940398 0.01950841
vn -0.03242029 -0.99947420 0.00050301
vn -0.16781501 -0.98573396 -0.01291077
vn -0.05163351 -0.99516363 -0.08356633
vn -0.04821127 -0.99881060 0.00728403
vn -0.11306912 -0.97943838 0.16708034
vn -0.13515673 -0.99054853 0.02337247
vn -0.04689583 -0.99882329 0.01236196
vn -0.21582710 -0.96331396 -0.15951453
vn -0.33371633 -0.93423053 -0.12588375
f 20//20 2//2 26//26
f 48//48 2//2 20//20
f 48//48 36//36 2//2
f 2//2 36//36 1//1
f 1//1 5//5 2//2
f 30//30 5//5 1//1
f 30//30 28//28 13//13
f 13//13 5//5 30//30
f 6//6 5//5 13//13
f 4//4 6//6 2//2
f 2//2 5//5 4//4
f 4//4 5//5 6//6
f 20//20 26//26 27//27
f 36//36 48//48 35//35
f 35//35 48//48 49//49
f 3//3 12//12 11//11
f 3//3 1//1 36//36
f 36//36 35//35 3//3
f 3//3 35//35 12//12
f 11//11 12//12 17//17
f 17//17 3//3 11//11
f 1//1 3//3 17//17
f 30//30 1//1 17//17
f 6//6 13//13 7//7
f 7//7 13//13 28//28
f 2//2 6//6 7//7
f 49//49 48//48 55//55
f 20//20 27//27 21//21
f 21//21 27//27 52//52
f 52//52 32//32 21//21
f 25//25 27//27 26//26
f 49//49 50//50 38//38
f 38//38 35//35 49//49
f 12//12 35//35 18//18
f 18//18 17//17 12//12
f 30//30 17//17 43//43
f 9//9 7//7 8//8
f 10//10 26//26 9//9
f 9//9 26//26 2//2
f 2//2 7//7 9//9
f 9//9 33//33 10//10
f 8//8 33//33 9//9
f 31//31 55//55 48//48
f 44//44 55//55 31//31
f 31//31 48//48 20//20
f 31//31 32//32 44//44
f 20//20 21//21 31//31
f 31//31 21//21 32//32
f 56//56 55//55 44//44
f 15//15 33//33 8//8
f 15//15 7//7 28//28
f 8//8 7//7 15//15
f 52//52 27//27 59//59
f 59//59 58//58 52//52
f 27//27 25//25 59//59
f 52//52 58//58 39//39
f 42//42 38//38 39//39
f 14//14 26//26 10//10
f 10//10 33//33 16//16
f 16//16 14//14 10//10
f 57//57 50//50 49//49
f 49//49 54//54 57//57
f 57//57 54//54 50//50
f 50//50 54//54 51//51
f 51//51 38//38 50//50
f 51//51 39//39 38//38
f 52//52 39//39 51//51
f 35//35 38//38 37//37
f 37//37 18//18 35//35
f 37//37 38//38 42//42
f 29//29 18//18 37//37
f 42//42 41//41 47//47
f 47//47 43//43 42//42
f 46//46 56//56 44//44
f 46//46 32//32 52//52
f 44//44 32//32 46//46
f 58//58 59//59 23//23
f 26//26 14//14 23//23
f 53//53 39//39 58//58
f 53//53 47//47 41//41
f 16//16 47//47 53//53
f 14//14 16//16 22//22
f 58//58 23//23 22//22
f 22//22 23//23 14//14
f 22//22 53//53 58//58
f 16//16 53//53 22//22
f 19//19 43//43 17//17
f 29//29 37//37 19//19
f 42//42 43//43 19//19
f 19//19 37//37 42//42
f 19//19 18//18 29//29
f 17//17 18//18 19//19
f 43//43 47//47 34//34
f 34//34 15//15 28//28
f 33//33 15//15 34//34
f 34//34 28//28 30//30
f 30//30 43//43 34//34
f 34//34 16//16 33//33
f 34//34 47//47 16//16
f 55//55 56//56 45//45
f 56//56 46//46 45//45
f 45//45 46//46 52//52
f 49//49 55//55 45//45
f 45//45 54//54 49//49
f 52//52 51//51 45//45
f 45//45 51//51 54//54
f 24//24 59//59 25//25
f 24//24 23//23 59//59
f 24//24 25//25 26//26
f 26//26 23//23 24//24
f 40//40 53//53 41//41
f 39//39 53//53 40//40
f 40//40 41//41 42//42
f 42//42 39//39 40//40