# https://github.com/mikedh/trimesh
v -0.90141933 1.01197914 2.34100798
v -1.27088065 0.91473527 2.33998377
v -1.40754503 1.24079723 2.34231854
v -1.08050466 0.56825519 2.33975674
v -0.79094891 0.99679336 2.31967493
v -1.06044319 1.20214652 2.31350799
v -0.80558057 0.51855202 2.32091661
v -0.40820071 0.38128529 1.70448382
v -0.76206549 1.06638591 2.26979246
v -0.40820071 0.50586683 1.70193256
v -0.62280953 1.24076092 1.96481430
v -0.81133844 1.13453471 2.30055519
v -1.36846016 0.72090659 2.31934651
v -0.89427546 0.47364747 2.30580503
v -0.40820071 0.28472486 1.67877452
v -1.32434937 0.53529137 2.31405993
v -0.40820071 0.54999758 1.68731155
v -0.61038122 1.24076092 1.92006842
v -1.00762890 0.44391782 2.25239945
v -0.40820071 0.26744364 1.64040698
v -0.40820071 0.57457701 1.58795820
v -1.40019763 0.82538759 1.90252828
v -1.40794886 1.24076081 2.19973178
v -1.06983275 0.27575712 1.64830426
v -1.12522703 0.42531845 2.19992615
v -1.34384814 0.47950549 2.19992615
v -1.25196892 0.44470654 2.21549187
v -0.62329883 1.24076092 1.83955536
v -0.40820071 0.57845799 1.47069665
v -0.80179701 1.10651365 1.38782850
v -0.63132344 1.24076092 1.81448391
v -0.79663975 0.25298328 1.47142604
v -0.40794888 0.24165307 1.47133527
v -1.38774486 0.57334438 2.20867782
v -1.34508366 0.48233692 1.91140874
v -1.25325350 0.37646461 1.55302504
v -1.17073238 0.31464982 1.57054066
v -0.59707212 0.59217563 1.36270806
v -0.79230447 1.06648353 1.38105782
v -0.92069790 1.15952911 1.39999620
v -0.86413433 1.24076092 1.72588154
v -1.38532569 1.24165303 1.80346202
v -1.31243484 1.00429041 1.43070994
v -1.30842256 0.64250615 1.43061186
v -1.37616667 0.57479670 1.81399330
v -0.72985867 0.59221496 1.34231852
v -1.28070344 0.41584788 1.47064755
v -0.90137041 1.06648353 1.35682044
v -1.28655062 1.08630332 1.40946551
v -1.28070344 0.98126090 1.37988024
v -1.24789557 0.59217563 1.36864473
v -1.03558651 0.27271593 1.47064755
v -1.12986624 0.30292761 1.47064755
v -1.10937359 1.15635601 1.40652170
v -1.08512855 1.12256840 1.37902165
v -1.16999835 1.06648353 1.35696763
v -1.21323921 0.59176286 1.35712238
vn 0.18018376 0.06690820 0.98135473
vn -0.12799585 -0.03196071 0.99125959
vn -0.66617839 0.48973434 0.56246478
vn -0.03527729 -0.15424184 0.98740314
vn 0.71407464 0.03946242 0.69895645
vn 0.27840964 0.60380321 0.74693357
vn 0.61779342 -0.25659148 0.74329813
vn 0.97936618 -0.02620376 0.20038776
vn 0.91313001 0.09324456 0.39686148
vn 0.98447237 0.01214473 0.17511896
vn 0.76392777 0.59923050 0.23945179
vn 0.61895146 0.38098159 0.68684214
vn -0.75992623 -0.05988185 0.64724515
vn 0.16874776 -0.62738805 0.76020289
vn 0.87218463 -0.38822701 0.29761345
vn -0.63500788 -0.32679252 0.69997974
vn 0.99205744 0.06000015 0.11055324
vn 0.79417771 0.60514980 0.05545706
vn -0.03960623 -0.82946846 0.55714758
vn 0.80202055 -0.57129356 0.17431784
vn 0.99723156 0.07353818 0.01101637
vn -0.99851662 -0.01373732 -0.05268630
vn -0.84164108 0.53997830 -0.00798314
vn -0.39077065 -0.90860530 0.14742694
vn -0.11894616 -0.89875692 0.42200452
vn -0.86019426 -0.47085341 0.19586450
vn -0.42391347 -0.78814045 0.44624209
vn 0.73379611 0.67230878 -0.09769435
vn 0.92796146 0.09153368 -0.36126046
vn 0.62681452 0.40681731 -0.66453234
vn 0.68408210 0.69784969 -0.21222038
vn -0.07273773 -0.80427567 -0.58978799
vn 0.71052602 -0.56740771 -0.41617456
vn -0.98412569 -0.13055607 0.12021541
vn -0.96109555 -0.27577457 -0.01561200
vn -0.88318369 -0.46650956 -0.04853237
vn -0.75150452 -0.65957293 -0.01430028
vn 0.48397549 0.01209873 -0.87499791
vn 0.53889555 0.15251507 -0.82845081
vn 0.18708121 0.71369950 -0.67500640
vn 0.05307687 0.98078993 -0.18770713
vn -0.80498927 0.57550816 -0.14416183
vn -0.96792048 0.03493216 -0.24881658
vn -0.95393948 -0.04460939 -0.29666389
vn -0.99285065 -0.10109966 -0.06345433
vn 0.09121279 -0.10376636 -0.99041041
vn -0.86439027 -0.31278138 -0.39369692
vn 0.13902005 0.18334059 -0.97316990
vn -0.78569525 0.33293640 -0.52137926
vn -0.73375187 0.03770232 -0.67837064
vn -0.70428877 -0.13557622 -0.69684748
vn -0.27798658 -0.75631120 -0.59221350
vn -0.57749045 -0.61485553 -0.53708236
vn -0.26487837 0.74131285 -0.61668040
vn -0.09630890 0.41680609 -0.90387902
vn -0.27533478 0.23176469 -0.93299297
vn -0.28543635 -0.15435365 -0.94588638
f 22//22 3//3 23//23
f 33//33 46//46 38//38
f 38//38 29//29 33//33
f 33//33 29//29 21//21
f 21//21 29//29 18//18
f 18//18 29//29 28//28
f 29//29 31//31 28//28
f 9//9 12//12 5//5
f 32//32 46//46 33//33
f 10//10 9//9 5//5
f 3//3 22//22 34//34
f 47//47 53//53 36//36
f 42//42 22//22 23//23
f 42//42 41//41 54//54
f 23//23 3//3 42//42
f 42//42 31//31 41//41
f 42//42 28//28 31//31
f 18//18 28//28 42//42
f 30//30 31//31 29//29
f 33//33 15//15 20//20
f 17//17 21//21 18//18
f 33//33 21//21 17//17
f 17//17 10//10 33//33
f 9//9 10//10 11//11
f 12//12 9//9 11//11
f 11//11 17//17 18//18
f 10//10 17//17 11//11
f 11//11 6//6 12//12
f 3//3 6//6 11//11
f 11//11 42//42 3//3
f 18//18 42//42 11//11
f 8//8 10//10 5//5
f 8//8 15//15 33//33
f 33//33 10//10 8//8
f 3//3 4//4 1//1
f 5//5 12//12 1//1
f 1//1 6//6 3//3
f 12//12 6//6 1//1
f 2//2 4//4 3//3
f 16//16 4//4 2//2
f 7//7 8//8 5//5
f 15//15 8//8 7//7
f 5//5 1//1 7//7
f 7//7 1//1 4//4
f 3//3 34//34 13//13
f 13//13 34//34 16//16
f 13//13 2//2 3//3
f 16//16 2//2 13//13
f 24//24 32//32 33//33
f 33//33 20//20 24//24
f 35//35 47//47 36//36
f 16//16 34//34 26//26
f 26//26 27//27 16//16
f 34//34 35//35 26//26
f 26//26 35//35 36//36
f 26//26 24//24 27//27
f 51//51 57//57 53//53
f 53//53 47//47 51//51
f 29//29 38//38 39//39
f 39//39 30//30 29//29
f 40//40 55//55 54//54
f 54//54 41//41 40//40
f 41//41 31//31 40//40
f 31//31 30//30 40//40
f 14//14 4//4 16//16
f 14//14 7//7 4//4
f 14//14 20//20 15//15
f 15//15 7//7 14//14
f 36//36 53//53 37//37
f 53//53 24//24 37//37
f 37//37 26//26 36//36
f 24//24 26//26 37//37
f 52//52 24//24 53//53
f 32//32 24//24 52//52
f 53//53 57//57 52//52
f 52//52 57//57 46//46
f 46//46 32//32 52//52
f 47//47 35//35 45//45
f 45//45 34//34 22//22
f 45//45 35//35 34//34
f 22//22 42//42 43//43
f 48//48 38//38 46//46
f 48//48 39//39 38//38
f 30//30 39//39 48//48
f 55//55 40//40 48//48
f 48//48 40//40 30//30
f 16//16 27//27 19//19
f 19//19 14//14 16//16
f 20//20 14//14 19//19
f 44//44 51//51 47//47
f 47//47 45//45 44//44
f 44//44 45//45 22//22
f 22//22 43//43 44//44
f 54//54 55//55 56//56
f 55//55 48//48 56//56
f 46//46 57//57 56//56
f 56//56 48//48 46//46
f 25//25 24//24 20//20
f 20//20 19//19 25//25
f 27//27 24//24 25//25
f 25//25 19//19 27//27
f 51//51 44//44 50//50
f 50//50 44//44 43//43
f 57//57 51//51 50//50
f 50//50 56//56 57//57
f 49//49 50//50 43//43
f 56//56 50//50 49//49
f 49//49 43//43 42//42
f 49//49 42//42 54//54
f 54//54 56//56 49//49