# https://github.com/mikedh/trimesh
v 0.27475446 0.55087422 -0.50620272
v 0.49910051 -0.00936719 0.33842835
v 0.49535760 -0.10090871 0.33815636
v 0.26134752 0.66410869 -0.55535746
v 0.49711954 0.49303332 0.33842835
v 0.45968726 -0.20258231 0.31736201
v 0.44395611 -0.17139881 0.25713011
v 0.44224354 -0.04999232 0.16653503
v 0.41376599 0.12759095 0.02179060
v 0.27495019 0.43049535 -0.47979563
v 0.25826489 0.66410869 -0.50879889
v 0.24177529 0.66410869 -0.46426787
v 0.19108332 0.66410869 -0.45220169
v 0.41273843 -0.27063788 0.33842835
v 0.34582599 0.01154276 -0.03119666
v 0.27543949 0.31109518 -0.40057437
v 0.35842559 0.13160350 -0.12285495
v 0.13569405 0.66410853 -0.44923386
v 0.35377719 -0.10421178 0.10556138
v 0.22308388 0.30923578 -0.45625673
v 0.23688225 0.58058057 -0.59903700
v -0.49888646 -0.03937681 0.33842833
v -0.17423174 0.66410869 -0.45677596
v -0.24576813 0.66410869 -0.46654260
v -0.26766508 0.66427912 -0.54907367
v -0.50089949 0.49338363 0.33842837
v 0.35603911 -0.29121529 0.33842836
v 0.12866483 0.66410869 -0.65751027
v 0.20767074 0.39332968 -0.54712380
v -0.49681720 -0.10081399 0.33842809
v -0.24400662 0.66410869 -0.61450140
v 0.18641046 0.28599186 -0.44296046
v 0.10106344 0.35629847 -0.55053595
v -0.46832845 -0.08003814 0.24644861
v -0.46778595 -0.23847835 0.33842274
v -0.35000231 0.32482140 -0.22686374
v -0.25107708 0.55050723 -0.57738808
v -0.28050877 0.43069117 -0.47949891
v 0.20562931 -0.32993972 0.33843321
v 0.14999814 0.48093043 -0.60705472
v 0.03535590 0.18184701 -0.34288925
v -0.32263793 0.22110472 -0.26183828
v -0.22991464 0.42256805 -0.56406088
v -0.03037609 0.31951194 -0.52281836
v -0.05117155 0.35231032 -0.55423245
v -0.19683763 -0.33572088 0.33842835
v 0.04928275 -0.28632147 0.26118514
v -0.22946204 0.58659642 -0.62059632
v -0.23725421 0.28256645 -0.42596770
v -0.14737731 0.51076479 -0.62055536
v -0.04867610 -0.22654808 0.18161774
v -0.08576541 0.27811344 -0.46456459
v -0.11698307 0.31275897 -0.50511474
v -0.38267627 -0.29517087 0.33842815
v -0.16899618 0.35398636 -0.53728296
v -0.23426945 0.16468321 -0.28480849
v -0.12577832 -0.24875208 0.21594941
v -0.26243849 -0.32397003 0.33842814
v -0.42610624 -0.28214156 0.33842591
v -0.17474551 0.66410869 -0.66156683
vn 0.97598626 -0.20385576 -0.07677013
vn 0.92250195 -0.08876077 0.37564834
vn 0.73025266 -0.62474189 0.27645727
vn 0.46186701 0.88541018 -0.05222728
vn 0.44633072 0.87405711 0.19186728
vn 0.39986732 -0.91646054 -0.01435999
vn 0.35155255 -0.93485648 -0.04953947
vn 0.67155303 -0.73810726 -0.06491685
vn 0.94650613 -0.31546080 -0.06790169
vn 0.67026102 -0.73810475 -0.07714618
vn 0.06104095 0.99813460 0.00115224
vn 0.03162202 0.99948998 0.00445194
vn 0.00363052 0.99997784 0.00558035
vn 0.17655781 -0.96823217 0.17707005
vn 0.18801822 -0.98109468 -0.04585176
vn 0.36883168 -0.92779291 -0.05624514
vn 0.50688448 -0.85986716 -0.06079953
vn 0.00035987 0.99998474 0.00551246
vn 0.10432368 -0.99369506 -0.04106939
vn 0.15693366 -0.98644343 -0.04797062
vn 0.90720916 -0.30860444 -0.28589305
vn -0.92149663 -0.08655356 0.37861913
vn -0.00188224 0.99998312 0.00549699
vn -0.03637608 0.99932808 0.00449010
vn -0.45534355 0.88962615 -0.03503658
vn -0.45214542 0.87095252 0.19237003
vn 0.06548068 -0.98127210 0.18115559
vn 0.34946207 0.78729515 -0.50797895
vn 0.24992850 -0.96492509 -0.08034497
vn -0.82579506 -0.46650228 0.31691978
vn -0.51072853 0.85414369 -0.09795367
vn 0.05523698 -0.99766906 -0.04006649
vn 0.04411458 -0.99655460 -0.07023411
vn -0.76692808 -0.63826125 -0.06666251
vn -0.41231361 -0.89075164 0.19120407
vn -0.98665859 -0.14964050 -0.06412920
vn -0.82570251 -0.55554016 -0.09793106
vn -0.75943550 -0.64657049 -0.07214101
vn 0.03360349 -0.98326494 0.17905545
vn 0.14008015 -0.97949267 -0.14481598
vn 0.01991662 -0.99906748 -0.03830784
vn -0.46167142 -0.88510552 -0.05871717
vn -0.31783904 -0.94346781 -0.09405762
vn -0.00029760 -0.99902057 -0.04424724
vn -0.01581804 -0.99666580 -0.08004425
vn -0.02189865 -0.98340411 0.18010220
vn 0.00833992 -0.99936120 -0.03475122
vn -0.52848137 -0.82886348 -0.18355593
vn -0.16497568 -0.98522989 -0.04588115
vn -0.07643938 -0.98708738 -0.14076762
vn -0.00425194 -0.99929259 -0.03736641
vn -0.01800066 -0.99911024 -0.03814050
vn -0.03825703 -0.99838050 -0.04210425
vn -0.05717742 -0.98162660 0.18204382
vn -0.08208981 -0.99466576 -0.06246027
vn -0.06293218 -0.99723268 -0.03957940
vn -0.01687044 -0.99916781 -0.03713582
vn -0.04432829 -0.98231226 0.18192751
vn -0.14044472 -0.97532400 0.17034783
vn -0.39309181 0.75475502 -0.52518920
f 39//39 5//5 26//26
f 2//2 5//5 39//39
f 26//26 23//23 24//24
f 22//22 39//39 26//26
f 22//22 30//30 39//39
f 59//59 30//30 35//35
f 28//28 4//4 21//21
f 28//28 50//50 60//60
f 2//2 39//39 14//14
f 30//30 22//22 36//36
f 30//30 59//59 54//54
f 46//46 39//39 54//54
f 39//39 30//30 54//54
f 59//59 56//56 54//54
f 57//57 51//51 46//46
f 47//47 39//39 46//46
f 46//46 51//51 47//47
f 21//21 4//4 1//1
f 1//1 10//10 21//21
f 1//1 5//5 2//2
f 1//1 4//4 5//5
f 12//12 13//13 5//5
f 26//26 5//5 18//18
f 5//5 13//13 18//18
f 18//18 23//23 26//26
f 6//6 14//14 7//7
f 7//7 8//8 6//6
f 35//35 30//30 34//34
f 25//25 22//22 26//26
f 25//25 36//36 22//22
f 26//26 24//24 25//25
f 25//25 24//24 23//23
f 60//60 31//31 25//25
f 25//25 28//28 60//60
f 4//4 28//28 25//25
f 13//13 12//12 25//25
f 23//23 18//18 25//25
f 25//25 18//18 13//13
f 46//46 54//54 58//58
f 58//58 54//54 56//56
f 9//9 8//8 10//10
f 9//9 1//1 2//2
f 10//10 1//1 9//9
f 17//17 8//8 7//7
f 10//10 8//8 17//17
f 21//21 10//10 29//29
f 55//55 43//43 45//45
f 45//45 43//43 50//50
f 27//27 14//14 39//39
f 39//39 47//47 41//41
f 41//41 33//33 39//39
f 5//5 4//4 11//11
f 11//11 12//12 5//5
f 4//4 25//25 11//11
f 11//11 25//25 12//12
f 3//3 6//6 8//8
f 3//3 9//9 2//2
f 8//8 9//9 3//3
f 2//2 14//14 3//3
f 14//14 6//6 3//3
f 38//38 25//25 31//31
f 36//36 25//25 38//38
f 30//30 36//36 38//38
f 38//38 34//34 30//30
f 48//48 31//31 60//60
f 60//60 50//50 48//48
f 50//50 43//43 48//48
f 49//49 59//59 35//35
f 35//35 43//43 49//49
f 49//49 43//43 55//55
f 55//55 56//56 49//49
f 49//49 56//56 59//59
f 40//40 28//28 21//21
f 21//21 29//29 40//40
f 40//40 29//29 33//33
f 50//50 28//28 40//40
f 40//40 45//45 50//50
f 33//33 45//45 40//40
f 10//10 17//17 16//16
f 16//16 29//29 10//10
f 16//16 17//17 7//7
f 39//39 33//33 32//32
f 32//32 27//27 39//39
f 55//55 45//45 53//53
f 53//53 57//57 46//46
f 53//53 56//56 55//55
f 46//46 58//58 53//53
f 53//53 58//58 56//56
f 35//35 34//34 42//42
f 34//34 38//38 42//42
f 42//42 43//43 35//35
f 42//42 38//38 43//43
f 43//43 38//38 37//37
f 37//37 48//48 43//43
f 37//37 38//38 31//31
f 31//31 48//48 37//37
f 29//29 16//16 20//20
f 33//33 29//29 20//20
f 20//20 32//32 33//33
f 57//57 53//53 52//52
f 15//15 16//16 7//7
f 15//15 20//20 16//16
f 7//7 14//14 15//15
f 27//27 32//32 19//19
f 32//32 20//20 19//19
f 14//14 27//27 19//19
f 19//19 15//15 14//14
f 20//20 15//15 19//19
f 44//44 53//53 45//45
f 44//44 52//52 53//53
f 44//44 45//45 33//33
f 33//33 41//41 44//44
f 44//44 47//47 51//51
f 44//44 41//41 47//47
f 51//51 57//57 44//44
f 57//57 52//52 44//44