# https://github.com/mikedh/trimesh
v -0.74489951 -0.53115103 11.11136514
v -0.01001676 -1.08210558 10.27013585
v -1.01001674 -0.53115203 10.27023412
v -0.78498222 -0.53115103 11.21346000
v -0.01001676 -1.21945264 11.15903562
v -0.01001676 -1.53115104 10.27013585
v -0.67333064 -0.53115105 10.27015750
v -0.97931020 -0.63051471 10.27023378
v -0.84774591 -0.53115103 11.26837404
v -0.01001676 -1.29541932 11.26122841
v -0.01001676 -1.53105327 10.67293515
v -0.07280489 -1.52696613 10.27013585
v -0.98126547 -0.61808201 10.67420790
v -0.95413628 -0.60743590 10.99157770
v -0.99395010 -0.53115103 10.88554313
v -0.38171080 -1.43266852 10.27013585
v -0.69680021 -1.16854708 10.27023378
v -0.77222419 -1.06389705 10.27023378
v -0.74837007 -1.09896802 10.50909908
v -0.72221853 -0.84882114 11.26602465
v -0.65945484 -0.84882114 11.26925494
v -0.15705194 -1.29541932 11.27013585
v -0.09428825 -1.29541932 11.26915701
v -0.01001676 -1.38469983 11.23019858
v -0.89468428 -0.84833165 10.60740072
v -0.91793958 -0.77647657 10.84947200
v -0.93279954 -0.53115103 11.15272216
v -0.34544082 -1.45009385 10.67293515
v -0.38014662 -1.43306010 10.67293515
v -0.65945484 -1.20467046 10.27023378
v -0.69689797 -1.16874286 10.67293515
v -0.69494271 -1.16629550 10.82622411
v -0.81871036 -0.98646191 10.81858930
v -0.87222166 -0.89728579 10.27026908
v -0.65945484 -0.93810165 11.26064083
v -0.21991342 -1.29541932 11.26514375
v -0.85696006 -0.61579370 11.23520298
v -0.01001676 -1.48310906 11.00567321
v -0.06290641 -1.52356429 10.83209758
v -0.13212245 -1.52018688 10.81252044
v -0.84723268 -0.86979519 10.99693704
v -0.90476607 -0.68609472 11.09460231
v -0.35536374 -1.44470954 10.27013585
v -0.25129527 -1.48768558 10.67293515
v -0.37907120 -1.43188538 10.81809965
v -0.73761617 -1.09434247 10.87325828
v -0.69768011 -1.08132244 11.08650210
v -0.65945484 -1.14446480 11.01318608
v -0.76759267 -0.88260726 11.19913202
v -0.75639274 -0.99143619 11.07683002
v -0.65945484 -1.02748002 11.20416084
v -0.28267713 -1.29541932 11.22755540
v -0.16494630 -1.38469983 11.19826342
v -0.15754077 -1.44048789 11.09741658
v -0.17870641 -1.47639094 10.93879277
v -0.34544082 -1.44010854 10.85842864
v -0.17019139 -1.51151838 10.27014927
v -0.29489746 -1.42131263 11.03697235
v -0.49667983 -1.23071055 11.11278466
v -0.27739793 -1.38881141 11.13397672
vn 0.15107913 0.67464282 0.72251793
vn 0.29659752 0.29073026 -0.90967347
vn -0.29052550 0.26503873 -0.91942885
vn 0.06050313 0.43174928 0.89996218
vn 0.34455968 0.25319916 0.90397390
vn 0.21693163 -0.32354554 -0.92100975
vn 0.08910966 0.38564751 -0.91833298
vn -0.21702718 -0.15279321 -0.96413352
vn -0.03280941 0.28343333 0.95843054
vn 0.22272094 0.02765892 0.97448980
vn 0.51369124 -0.79842945 0.31405689
vn -0.01713320 -0.32716242 -0.94481279
vn -0.76112385 -0.46889660 0.44813665
vn -0.27873032 -0.16719455 0.94570365
vn -0.43717367 0.40860586 0.80119937
vn -0.09866851 -0.31376008 -0.94436176
vn -0.15101029 -0.26485129 -0.95239156
vn -0.17332966 -0.22851322 -0.95798671
vn -0.58001120 -0.81131897 0.07313370
vn -0.03180520 -0.03854213 0.99875069
vn -0.00158584 -0.00292703 0.99999446
vn -0.00194221 -0.03223653 0.99947838
vn 0.00317375 -0.01892141 0.99981594
vn 0.21432659 -0.13852795 0.96688889
vn -0.72267711 -0.65834601 0.21051918
vn -0.45558138 -0.37363971 0.80798451
vn -0.15271213 0.27610417 0.94891806
vn -0.20662437 -0.97233936 0.10891526
vn -0.30622970 -0.94990358 0.06250254
vn -0.12465923 -0.28671202 -0.94987172
vn -0.47655170 -0.86740877 0.14317997
vn -0.31720047 -0.58948616 0.74289295
vn -0.42540643 -0.50882356 0.74841697
vn -0.19825184 -0.20220261 -0.95906742
vn -0.02578768 -0.04765311 0.99853101
vn -0.01710117 -0.06655685 0.99763607
vn -0.07560821 -0.05487191 0.99562667
vn 0.29113703 -0.35798776 0.88717754
vn -0.00077569 -0.65010224 0.75984635
vn -0.06421194 -0.71275052 0.69847228
vn -0.22021769 -0.22467485 0.94922357
vn -0.17720337 -0.13875442 0.97434397
vn -0.06481007 -0.31158832 -0.94800442
vn -0.16572220 -0.95988735 0.22616901
vn -0.20377782 -0.62809320 0.75098171
vn -0.27493207 -0.37900299 0.88361139
vn -0.13476085 -0.22212075 0.96566137
vn -0.13411069 -0.31037687 0.94110601
vn -0.10005051 -0.10855790 0.98904251
vn -0.17468048 -0.21222928 0.96148087
vn -0.05573606 -0.10945062 0.99242836
vn -0.03804800 -0.10608941 0.99362840
vn -0.01866366 -0.15594748 0.98758901
vn -0.02711475 -0.29713321 0.95445096
vn -0.05192862 -0.41411447 0.90874233
vn -0.11831751 -0.55972920 0.82018546
vn -0.04047626 -0.32667202 -0.94427065
vn -0.08158389 -0.34643097 0.93452108
vn -0.07810582 -0.19938861 0.97680278
vn -0.05019351 -0.19562961 0.97939250
f 16//16 7//7 2//2
f 3//3 7//7 16//16
f 15//15 7//7 3//3
f 2//2 7//7 1//1
f 7//7 15//15 1//1
f 9//9 10//10 4//4
f 24//24 10//10 23//23
f 22//22 24//24 23//23
f 23//23 9//9 22//22
f 10//10 9//9 23//23
f 5//5 1//1 4//4
f 4//4 10//10 5//5
f 2//2 1//1 5//5
f 43//43 12//12 57//57
f 36//36 24//24 22//22
f 36//36 53//53 24//24
f 22//22 20//20 36//36
f 48//48 45//45 58//58
f 48//48 47//47 32//32
f 32//32 45//45 48//48
f 11//11 12//12 6//6
f 11//11 38//38 39//39
f 58//58 45//45 56//56
f 44//44 43//43 57//57
f 17//17 18//18 16//16
f 16//16 30//30 17//17
f 31//31 45//45 32//32
f 31//31 17//17 30//30
f 32//32 33//33 31//31
f 22//22 9//9 21//21
f 21//21 20//20 22//22
f 9//9 20//20 21//21
f 41//41 33//33 50//50
f 50//50 33//33 47//47
f 32//32 47//47 46//46
f 46//46 33//33 32//32
f 47//47 33//33 46//46
f 18//18 33//33 34//34
f 26//26 33//33 41//41
f 9//9 27//27 37//37
f 37//37 20//20 9//9
f 35//35 20//20 51//51
f 51//51 36//36 35//35
f 35//35 36//36 20//20
f 53//53 36//36 60//60
f 54//54 38//38 24//24
f 24//24 53//53 54//54
f 53//53 60//60 54//54
f 54//54 60//60 58//58
f 39//39 38//38 54//54
f 12//12 11//11 40//40
f 40//40 11//11 39//39
f 57//57 12//12 40//40
f 40//40 44//44 57//57
f 58//58 56//56 40//40
f 40//40 56//56 45//45
f 45//45 44//44 40//40
f 39//39 54//54 40//40
f 28//28 44//44 45//45
f 43//43 44//44 28//28
f 16//16 43//43 28//28
f 19//19 33//33 18//18
f 19//19 31//31 33//33
f 18//18 17//17 19//19
f 17//17 31//31 19//19
f 18//18 34//34 8//8
f 3//3 16//16 8//8
f 16//16 18//18 8//8
f 42//42 26//26 41//41
f 42//42 37//37 27//27
f 52//52 36//36 51//51
f 51//51 60//60 52//52
f 52//52 60//60 36//36
f 51//51 47//47 59//59
f 59//59 60//60 51//51
f 58//58 60//60 59//59
f 59//59 48//48 58//58
f 47//47 48//48 59//59
f 55//55 54//54 58//58
f 58//58 40//40 55//55
f 55//55 40//40 54//54
f 16//16 28//28 29//29
f 29//29 28//28 45//45
f 29//29 30//30 16//16
f 45//45 31//31 29//29
f 29//29 31//31 30//30
f 25//25 8//8 34//34
f 25//25 34//34 33//33
f 33//33 26//26 25//25
f 13//13 26//26 15//15
f 13//13 15//15 3//3
f 3//3 8//8 13//13
f 13//13 25//25 26//26
f 8//8 25//25 13//13
f 14//14 27//27 15//15
f 14//14 42//42 27//27
f 15//15 26//26 14//14
f 26//26 42//42 14//14
f 41//41 50//50 49//49
f 49//49 42//42 41//41
f 51//51 20//20 49//49
f 20//20 37//37 49//49
f 37//37 42//42 49//49
f 49//49 47//47 51//51
f 49//49 50//50 47//47
f 2//2 6//6 43//43
f 43//43 16//16 2//2
f 6//6 12//12 43//43
f 27//27 1//1 15//15
f 4//4 1//1 27//27
f 27//27 9//9 4//4
f 2//2 5//5 11//11
f 11//11 6//6 2//2
f 11//11 10//10 24//24
f 11//11 5//5 10//10
f 24//24 38//38 11//11