# https://github.com/mikedh/trimesh
v -0.15237555 1.04712475 -1.61818577
v -0.12136703 1.07666295 -1.60678206
v -0.27138199 1.13577809 -1.60445142
v -0.23487165 1.13166735 -1.60102424
v -0.02537893 1.00689137 -1.61026167
v -0.53546927 0.99403625 -1.60983366
v -0.86641049 0.51174007 -1.32548485
v -0.53544147 1.08387287 -1.60892966
v -0.53545834 1.04154141 -1.61806512
v -0.35937838 1.13920477 -1.60758236
v -0.33612902 1.13867035 -1.60874489
v 0.08053090 0.89013340 -1.60300633
v 0.11779953 0.83447811 -1.60288401
v 0.13355863 0.79434389 -1.60630989
v 0.13355867 0.74247515 -1.61595561
v 0.13355863 0.67560525 -1.61130189
v 0.13355863 0.45525843 -1.51185323
v 0.13355863 0.43479979 -1.49854123
v 0.13355863 0.43156947 -1.49482169
v 0.13355863 0.42305318 -1.46761031
v 0.13355863 0.41903974 -1.45253642
v 0.13357042 0.42009667 -1.36837507
v -0.86641049 0.88949142 -1.09056687
v -0.82706168 1.28437329 -0.88070672
v -0.86627609 0.73057868 -1.32559895
v -0.70774272 1.39077785 -0.90419849
v -0.70774272 1.41525010 -0.86484973
v -0.44556933 1.13164782 -1.60405432
v -0.50023151 1.41515214 -0.94511341
v -0.45372896 1.41708602 -0.94610435
v -0.00810523 1.41903978 -0.86168993
v 0.13355863 1.26587233 -0.90038108
v -0.86641049 0.53376495 -1.27693518
v 0.13355863 0.44096672 -1.34838940
v -0.86641049 0.64496618 -1.11170947
v -0.86641049 0.60610448 -1.15928039
v -0.86641049 0.56597020 -1.21977175
v -0.86641049 0.54962284 -1.24502544
v -0.86642957 0.66469465 -1.09067303
v -0.82706168 1.28437329 -0.70099438
v -0.70774272 1.41662042 -0.86054291
v -0.64261146 1.41754229 -0.89650937
v -0.26515536 1.38873166 -1.02743176
v -0.00754891 1.41893672 -0.94559127
v 0.13355863 0.91582372 -0.98289584
v -0.00719659 1.30953059 -0.66653974
v -0.70774272 1.34154003 -0.61818580
v -0.70778830 1.39920315 -0.64701363
v -0.70774272 1.41808881 -0.69570873
v -0.00719659 1.41896977 -0.73358929
v 0.13355882 1.26585304 -0.72853547
v -0.00719659 1.30992209 -0.66634397
v -0.00719659 1.34163799 -0.65508750
v -0.00719659 1.38911388 -0.65870914
v -0.00719659 1.41270494 -0.69130402
v -0.70774271 1.41896977 -0.77811713
vn 0.03622821 0.25817867 -0.96541768
vn 0.15072872 0.79161365 -0.59213908
vn 0.04531990 0.82905702 -0.55732447
vn 0.08827631 0.86154371 -0.49994973
vn 0.22816021 0.69350730 -0.68336707
vn -0.18986649 -0.45364372 -0.87072274
vn -0.47578112 -0.83680958 -0.27089122
vn -0.28493175 0.71816035 -0.63486975
vn -0.27630510 0.08671363 -0.95715006
vn -0.02494936 0.81347691 -0.58106183
vn 0.00654396 0.77432685 -0.63275201
vn 0.33362321 0.70848084 -0.62189263
vn 0.42874409 0.67361760 -0.60201149
vn 0.68954281 0.40119848 -0.60296806
vn 0.61752253 0.01601067 -0.78639023
vn 0.52612265 -0.41228591 -0.74378444
vn 0.50352595 -0.63631129 -0.58443953
vn 0.47093805 -0.76111417 -0.44600737
vn 0.44802054 -0.85789175 -0.25159360
vn 0.47766498 -0.86952577 -0.12554323
vn 0.46060227 -0.88563753 -0.05909071
vn 0.44280389 -0.87633861 0.18961898
vn -0.98010393 0.19814730 -0.01157327
vn -0.61740069 0.77210502 -0.15056638
vn -0.80726317 0.30735220 -0.50384601
vn -0.28262874 0.91428256 -0.29018683
vn -0.20344409 0.95897772 -0.19741387
vn -0.07536741 0.82249199 -0.56376119
vn -0.02530620 0.98753834 -0.15533069
vn -0.00778064 0.99387728 -0.11021530
vn 0.02203091 0.99975727 -0.00019046
vn 0.70165840 0.70576276 -0.09784893
vn -0.52672553 -0.82724932 0.19549624
vn 0.54563910 -0.72849449 0.41421462
vn -0.52099336 -0.78162152 0.34297773
vn -0.52228636 -0.79950251 0.29666936
vn -0.53096009 -0.80580418 0.26222318
vn -0.52053758 -0.82093004 0.23476477
vn -0.52265308 -0.72810699 0.44350194
vn -0.73093485 0.21953777 0.64617135
vn -0.17998711 0.98120965 -0.06951453
vn -0.04065124 0.99178434 -0.12129012
vn -0.00142709 0.98088323 -0.19459203
vn 0.18481273 0.97414228 -0.12996566
vn 0.57572988 -0.68587443 0.44509704
vn 0.06663407 -0.76938653 0.63529856
vn -0.18073622 -0.05382697 0.98205757
vn -0.17886442 0.88217584 0.43562979
vn -0.16874295 0.98111411 0.09455647
vn 0.16718413 0.98530284 0.03503962
vn 0.72381194 0.11205403 0.68083784
vn 0.09480384 -0.64167977 0.76109086
vn 0.16681899 -0.21148283 0.96304020
vn 0.20084464 0.70132989 0.68395746
vn 0.17158137 0.96449485 0.20077229
vn -0.17298890 0.98492137 -0.00217432
f 39//39 46//46 47//47
f 47//47 46//46 52//52
f 39//39 22//22 34//34
f 34//34 46//46 39//39
f 52//52 46//46 51//51
f 39//39 47//47 40//40
f 39//39 37//37 36//36
f 36//36 37//37 22//22
f 22//22 37//37 38//38
f 38//38 37//37 39//39
f 1//1 3//3 2//2
f 2//2 5//5 1//1
f 45//45 34//34 22//22
f 22//22 51//51 45//45
f 46//46 34//34 45//45
f 45//45 51//51 46//46
f 22//22 7//7 21//21
f 21//21 20//20 22//22
f 7//7 20//20 21//21
f 7//7 6//6 16//16
f 44//44 56//56 31//31
f 5//5 2//2 44//44
f 44//44 12//12 5//5
f 48//48 40//40 47//47
f 35//35 22//22 39//39
f 39//39 36//36 35//35
f 35//35 36//36 22//22
f 33//33 7//7 22//22
f 22//22 38//38 33//33
f 39//39 7//7 33//33
f 33//33 38//38 39//39
f 50//50 55//55 51//51
f 50//50 44//44 31//31
f 31//31 56//56 50//50
f 51//51 55//55 54//54
f 54//54 48//48 47//47
f 55//55 48//48 54//54
f 9//9 16//16 6//6
f 9//9 6//6 7//7
f 14//14 12//12 13//13
f 7//7 16//16 17//17
f 17//17 16//16 22//22
f 27//27 8//8 26//26
f 32//32 14//14 13//13
f 13//13 12//12 32//32
f 12//12 44//44 32//32
f 32//32 50//50 51//51
f 44//44 50//50 32//32
f 32//32 51//51 22//22
f 22//22 14//14 32//32
f 4//4 2//2 3//3
f 3//3 44//44 4//4
f 4//4 44//44 2//2
f 30//30 44//44 43//43
f 28//28 9//9 8//8
f 28//28 8//8 27//27
f 49//49 56//56 40//40
f 40//40 48//48 49//49
f 49//49 48//48 55//55
f 49//49 50//50 56//56
f 55//55 50//50 49//49
f 52//52 51//51 53//53
f 51//51 54//54 53//53
f 53//53 47//47 52//52
f 53//53 54//54 47//47
f 15//15 9//9 1//1
f 16//16 9//9 15//15
f 1//1 5//5 15//15
f 5//5 12//12 15//15
f 12//12 14//14 15//15
f 22//22 16//16 15//15
f 15//15 14//14 22//22
f 25//25 9//9 7//7
f 8//8 9//9 25//25
f 19//19 20//20 7//7
f 22//22 20//20 19//19
f 11//11 3//3 1//1
f 1//1 9//9 11//11
f 11//11 44//44 3//3
f 43//43 44//44 11//11
f 42//42 28//28 27//27
f 29//29 28//28 42//42
f 27//27 41//41 42//42
f 42//42 30//30 29//29
f 42//42 41//41 56//56
f 56//56 44//44 42//42
f 44//44 30//30 42//42
f 24//24 26//26 8//8
f 8//8 25//25 24//24
f 27//27 26//26 24//24
f 24//24 41//41 27//27
f 40//40 56//56 24//24
f 56//56 41//41 24//24
f 39//39 40//40 23//23
f 23//23 7//7 39//39
f 23//23 25//25 7//7
f 40//40 24//24 23//23
f 23//23 24//24 25//25
f 7//7 17//17 18//18
f 18//18 19//19 7//7
f 18//18 17//17 22//22
f 22//22 19//19 18//18
f 9//9 28//28 10//10
f 10//10 11//11 9//9
f 10//10 28//28 29//29
f 29//29 30//30 10//10
f 10//10 30//30 43//43
f 43//43 11//11 10//10