# https://github.com/mikedh/trimesh
v 0.60023125 0.60938511 -0.08451990
v 0.54068336 0.92093135 -0.31796337
v 0.54515125 0.87263019 -0.50914941
v 0.49425353 1.02143500 -0.87399203
v 0.48376879 1.01372817 -0.88955398
v 0.45307296 1.28109271 -0.88939694
v 0.48774087 1.18617507 -0.85565767
v 0.55169080 0.82213529 0.01433363
v 0.58634783 0.60938513 -0.24561642
v 0.21758050 1.51029611 -0.18439208
v 0.21794127 1.52261554 0.02415176
v 0.30299466 1.43728372 -0.08039902
v 0.40154378 1.29476776 -0.08039902
v 0.45882936 1.28245280 -0.84811544
v 0.49167702 1.08822729 -0.16399815
v 0.41180729 1.30130061 -0.88939495
v 0.13672750 1.56544758 -0.08974429
v 0.47805644 1.05771672 0.07909428
v 0.55962731 0.60959977 -0.36817538
v 0.43087416 0.60938514 -0.73158785
v 0.04446817 1.60931190 -0.03365727
v 0.28134029 0.60931194 -0.73122663
v 0.34827860 1.01318583 -0.88940553
v 0.28434106 1.29868618 -0.89549884
v -0.01716429 1.56072799 -0.21126042
v 0.34863852 1.37731872 -0.03250491
v 0.57120471 0.60952197 0.09916763
v -0.23159518 0.73464709 -0.70765351
v 0.12708896 1.56686268 0.09717608
v 0.42818032 1.23930421 -0.06655800
v 0.27988165 0.60938523 -0.56080176
v -0.39976877 0.75921579 -0.18876329
v -0.33796566 0.91488781 -0.66270368
v -0.23262834 0.76577187 -0.72775676
v 0.20740384 1.09370585 -0.88939946
v -0.33796566 1.18237322 -0.66270368
v -0.23159891 1.28433714 -0.72594382
v -0.27831366 1.42203206 -0.27497257
v -0.18652460 1.46594287 -0.32022876
v -0.10164450 1.49859747 -0.33103572
v -0.05670221 1.60527290 0.06744101
v 0.41503219 1.19983235 0.09880506
v 0.44748430 0.60935251 0.10298446
v -0.39959418 0.77757977 0.08839378
v -0.39965786 0.85903227 -0.52746256
v -0.23299238 1.19443758 -0.73677749
v -0.23159518 0.91215836 -0.73771737
v 0.19856503 1.25707251 -0.88965695
v -0.39965753 1.16932842 -0.52739925
v -0.07939712 1.54819536 -0.23087281
v 0.29944932 1.36627840 0.10447202
v 0.47002100 0.77276504 0.10437147
v -0.39975420 0.92287906 0.10280016
v -0.19237670 1.53529150 -0.09931588
v -0.22469098 1.34867838 0.10450117
v -0.39865730 1.22973315 -0.43810147
v -0.18704335 1.53107079 0.09578508
v -0.32313663 1.40590449 -0.05591509
v -0.39974501 1.23023604 0.09755362
v -0.39974509 1.28601969 -0.14956837
vn 0.54921484 -0.83567772 0.00241119
vn 0.55863825 0.82941101 0.00082136
vn 0.89199806 0.45194371 -0.00929227
vn 0.88459170 -0.46343294 -0.05222481
vn 0.48186953 -0.85666099 -0.18421104
vn 0.30384435 0.94472393 -0.12318808
vn 0.67103689 0.74122681 -0.01709718
vn 0.57028473 0.82139028 0.00966145
vn 0.42100707 -0.90704678 -0.00437886
vn 0.09503559 0.99547214 -0.00185977
vn 0.13555371 0.99075786 0.00490416
vn 0.16751391 0.98586950 0.00064327
vn 0.26550351 0.96410608 0.00271207
vn 0.24592987 0.96928593 -0.00181567
vn 0.43355734 0.90112200 0.00267892
vn 0.05009214 0.99660156 -0.06539200
vn 0.07161707 0.99743006 -0.00206826
vn 0.44419124 0.89541378 0.03046803
vn 0.28300207 -0.95909168 -0.00727796
vn 0.17415774 -0.98448457 -0.02142928
vn 0.02010677 0.99979696 -0.00132466
vn -0.02217748 -0.99949862 -0.02259798
vn -0.03055230 -0.98838875 -0.14884297
vn -0.04448663 0.98563126 -0.16294774
vn -0.00169788 0.99998544 -0.00512295
vn 0.22149866 0.97514841 0.00489185
vn 0.54063673 -0.82968143 0.13907069
vn -0.15483948 -0.98780539 -0.01628637
vn 0.06618055 0.99313927 0.09640813
vn 0.32807878 0.94463743 0.00494315
vn -0.01678566 -0.99985911 0.00007924
vn -0.38560278 -0.92266476 0.00049138
vn -0.69302813 -0.71784127 -0.06645244
vn -0.30809978 -0.94832380 -0.07587160
vn -0.27745109 -0.93814960 -0.20711404
vn -0.55705284 0.82890485 -0.05107714
vn -0.24276638 0.96894121 -0.04708948
vn -0.14423569 0.98953212 -0.00471604
vn -0.08216245 0.99659766 -0.00651402
vn -0.04429225 0.99899081 -0.00745347
vn -0.02762693 0.99953818 0.01265645
vn 0.32490005 0.93800879 0.12074551
vn -0.00244070 -0.99248014 0.12238139
vn -0.34924162 -0.93502035 0.06137777
vn -0.51916867 -0.85454358 -0.01480439
vn -0.75679859 0.62744961 -0.18320175
vn -0.87215268 -0.43638473 -0.22117430
vn -0.33669442 0.92321118 -0.18525114
vn -0.60073627 0.79921389 -0.01931576
vn -0.04193400 0.99910271 -0.00594296
vn 0.19348918 0.96940585 0.15104383
vn 0.34497227 0.30431258 0.88791215
vn -0.75648753 -0.59079212 0.28051969
vn -0.09911117 0.99507373 -0.00229094
vn -0.14699888 0.85792613 0.49229471
vn -0.46670186 0.88439343 -0.00613418
vn -0.11184192 0.98975428 0.08875727
vn -0.20242020 0.97929697 0.00187224
vn -0.53879607 0.83143738 0.13568597
vn -0.53587465 0.84429444 -0.00229476
f 32//32 22//22 31//31
f 23//23 20//20 22//22
f 56//56 37//37 36//36
f 57//57 54//54 58//58
f 1//1 22//22 9//9
f 22//22 20//20 9//9
f 9//9 3//3 1//1
f 4//4 3//3 9//9
f 34//34 23//23 22//22
f 36//36 45//45 49//49
f 49//49 56//56 36//36
f 49//49 45//45 32//32
f 37//37 56//56 38//38
f 58//58 54//54 38//38
f 56//56 49//49 60//60
f 58//58 38//38 60//60
f 60//60 38//38 56//56
f 60//60 49//49 32//32
f 24//24 16//16 6//6
f 14//14 6//6 10//10
f 13//13 14//14 26//26
f 14//14 12//12 26//26
f 13//13 26//26 30//30
f 30//30 26//26 42//42
f 30//30 14//14 13//13
f 30//30 15//15 14//14
f 54//54 57//57 41//41
f 21//21 50//50 41//41
f 41//41 50//50 54//54
f 1//1 27//27 43//43
f 43//43 22//22 1//1
f 43//43 31//31 22//22
f 43//43 44//44 32//32
f 32//32 31//31 43//43
f 8//8 27//27 1//1
f 1//1 2//2 8//8
f 8//8 2//2 15//15
f 19//19 20//20 4//4
f 4//4 9//9 19//19
f 19//19 9//9 20//20
f 36//36 37//37 46//46
f 33//33 45//45 36//36
f 33//33 34//34 45//45
f 36//36 46//46 33//33
f 32//32 45//45 28//28
f 45//45 34//34 28//28
f 28//28 22//22 32//32
f 28//28 34//34 22//22
f 54//54 50//50 39//39
f 37//37 38//38 39//39
f 39//39 38//38 54//54
f 24//24 37//37 40//40
f 40//40 50//50 24//24
f 37//37 39//39 40//40
f 40//40 39//39 50//50
f 25//25 16//16 24//24
f 24//24 50//50 25//25
f 21//21 16//16 25//25
f 25//25 50//50 21//21
f 4//4 6//6 7//7
f 7//7 6//6 14//14
f 7//7 3//3 4//4
f 14//14 15//15 7//7
f 15//15 2//2 7//7
f 1//1 3//3 7//7
f 7//7 2//2 1//1
f 5//5 6//6 4//4
f 4//4 20//20 5//5
f 20//20 23//23 5//5
f 5//5 23//23 24//24
f 24//24 6//6 5//5
f 17//17 6//6 16//16
f 17//17 10//10 6//6
f 17//17 16//16 21//21
f 29//29 17//17 21//21
f 21//21 41//41 29//29
f 29//29 41//41 57//57
f 59//59 57//57 58//58
f 58//58 60//60 59//59
f 59//59 60//60 32//32
f 52//52 27//27 42//42
f 52//52 43//43 27//27
f 15//15 30//30 18//18
f 18//18 8//8 15//15
f 18//18 30//30 42//42
f 42//42 27//27 18//18
f 27//27 8//8 18//18
f 24//24 23//23 35//35
f 23//23 34//34 35//35
f 34//34 33//33 47//47
f 47//47 33//33 46//46
f 47//47 35//35 34//34
f 11//11 26//26 12//12
f 11//11 12//12 14//14
f 14//14 10//10 11//11
f 10//10 17//17 11//11
f 17//17 29//29 11//11
f 55//55 29//29 57//57
f 57//57 59//59 55//55
f 24//24 35//35 48//48
f 48//48 37//37 24//24
f 48//48 46//46 37//37
f 48//48 47//47 46//46
f 35//35 47//47 48//48
f 51//51 11//11 29//29
f 51//51 52//52 42//42
f 42//42 26//26 51//51
f 26//26 11//11 51//51
f 29//29 55//55 51//51
f 51//51 55//55 52//52
f 43//43 52//52 53//53
f 52//52 55//55 53//53
f 44//44 43//43 53//53
f 53//53 55//55 59//59
f 32//32 44//44 53//53
f 53//53 59//59 32//32