# https://github.com/mikedh/trimesh
v -1.47308315 -2.20147523 -0.27876467
v -1.51204545 -2.20157311 -0.21927193
v -1.47308315 -1.20157314 -0.44863221
v -1.68678846 -1.20157314 -0.33610475
v -2.08071898 -1.20157314 -0.19069971
v -1.59966161 -2.20157311 -0.18854705
v -2.10352843 -1.20157314 -0.18492658
v -2.12232431 -1.26667351 -0.17523945
v -1.53681283 -2.20157311 -0.96351862
v -1.64146291 -2.06217011 -1.08113427
v -1.47308314 -2.20156338 -0.96412866
v -1.47308315 -1.20157385 -1.17269681
v -1.75766456 -2.08899361 -0.17641366
v -2.17553190 -1.20157598 -0.17424708
v -1.63485501 -2.20157311 -0.18399700
v -1.75149711 -2.06921870 -1.06175997
v -1.47308315 -2.04102482 -1.09590960
v -1.91895004 -1.20157367 -1.17295115
v -1.89491370 -2.19932151 -0.17402855
v -1.83461022 -1.99472053 -1.09590960
v -1.73194266 -2.20157311 -0.91422672
v -1.87641151 -2.20157311 -0.86292888
v -1.73803656 -1.98551826 -1.11053817
v -1.47308317 -1.53508120 -1.16894731
v -2.16955526 -1.20157754 -1.17075199
v -1.91679327 -1.58698677 -1.16347501
v -1.89476686 -1.83206751 -1.14424750
v -2.00788478 -1.87470091 -1.09590960
v -1.91596120 -2.20157311 -0.83866210
v -1.64146291 -1.90220942 -1.13548992
v -1.47308315 -1.95194018 -1.12648772
v -1.47308317 -1.68485248 -1.15869855
v -2.14904977 -1.57670778 -1.14522602
v -1.47308315 -1.84856284 -1.14581310
v -2.43744914 -1.20157314 -0.18962338
v -2.34927082 -1.20157600 -0.17295114
v -2.10450739 -1.76828869 -1.09590960
v -1.92868760 -2.20157311 -0.82525664
v -2.22465801 -1.20157414 -1.15781503
v -2.05360184 -1.76598821 -1.12516674
v -2.32991120 -1.56872930 -0.18238250
v -2.11077274 -2.04396181 -0.17709857
v -2.47308315 -1.20157314 -0.21927193
v -2.04185439 -2.20157311 -0.18835134
v -2.20617164 -1.52061380 -1.11053817
v -1.94591706 -2.20157311 -0.80363181
v -2.16862882 -1.64660493 -1.06665248
v -2.25262300 -1.40441212 -1.09590960
v -2.41550679 -1.40478782 -0.21930506
v -2.34777716 -1.61155847 -0.21927193
v -2.29285796 -1.74303181 -0.21927193
v -2.21101750 -1.93069689 -0.21927193
v -2.31205729 -1.20157402 -1.12717642
v -1.95343185 -2.20157308 -0.77415461
v -2.11454169 -1.78319329 -1.04475855
v -2.32080695 -1.54448801 -0.50663273
v -2.12349906 -1.79790200 -0.97658159
v -2.12506540 -2.06393226 -0.35489195
v -2.13522212 -2.08250798 -0.25579441
v -2.07803135 -2.20155996 -0.19492053
vn 0.64963283 -0.76020697 0.00790867
vn 0.78339324 -0.62016733 0.04107935
vn 0.59289975 0.80526649 0.00397210
vn 0.39347158 0.91913809 0.01911246
vn 0.36226780 0.93164357 0.02832487
vn 0.75793242 -0.64791307 0.07580964
vn 0.34251604 0.93869546 0.03916120
vn 0.70070525 0.69168726 0.17487392
vn -0.04590219 -0.99891375 -0.00801975
vn -0.05245869 -0.99842319 -0.01998038
vn 0.57544700 -0.81781581 -0.00616813
vn 0.60453567 0.79066154 -0.09690693
vn 0.89249493 0.25764641 0.37023119
vn 0.17118493 0.97948696 0.10630626
vn 0.52574182 -0.84274879 0.11562878
vn -0.16119497 -0.98682909 -0.01358405
vn 0.57168415 -0.82017880 -0.02199914
vn -0.04300435 0.98978807 -0.13590515
vn -0.02122892 -0.99264130 0.11921654
vn -0.24056068 -0.97037289 -0.02251711
vn -0.07996621 -0.99678276 -0.00543536
vn -0.15456710 -0.98796396 -0.00601853
vn -0.09999341 -0.99435300 -0.03554467
vn 0.87763863 -0.45649735 -0.14615267
vn -0.59696665 0.78951673 -0.14245752
vn -0.29583154 -0.93353448 -0.20247735
vn -0.25168687 -0.96459950 -0.07874977
vn -0.42422826 -0.90536991 -0.01832242
vn -0.22815378 -0.97361118 -0.00520842
vn -0.04464024 -0.99720696 -0.05987928
vn 0.58725557 -0.80842910 -0.03966463
vn 0.77850671 -0.61910402 -0.10313832
vn -0.66727190 -0.74165201 -0.06856024
vn 0.65391384 -0.75248988 -0.07845804
vn -0.72538665 0.68692040 0.04421044
vn -0.44368466 0.88709473 0.12730621
vn -0.64051157 -0.76783171 -0.01339412
vn -0.25162614 -0.96781333 -0.00465168
vn -0.70189619 0.70994988 -0.05755779
vn -0.48979031 -0.87120402 -0.03330157
vn -0.84428170 -0.52924316 0.08420259
vn -0.69054669 -0.70958482 0.14012373
vn -0.74878259 0.66276754 0.00798934
vn -0.23299209 -0.97163499 0.04049864
vn -0.80027997 -0.59951309 -0.01166297
vn -0.34447585 -0.93879237 -0.00229826
vn -0.79608389 -0.60516657 -0.00488527
vn -0.84013748 -0.54235342 -0.00466706
vn -0.87259293 -0.48838009 0.00815279
vn -0.82215286 -0.56922525 0.00687686
vn -0.78606396 -0.61811112 0.00648725
vn -0.76581509 -0.64305316 0.00314357
vn -0.77849701 0.62719577 -0.02383029
vn -0.34847885 -0.93731478 -0.00186992
vn -0.71922245 -0.69476189 -0.00499789
vn -0.83115591 -0.55602799 -0.00356683
vn -0.74784661 -0.66386071 -0.00379568
vn -0.72174447 -0.69215137 -0.00337706
vn -0.72028525 -0.69367173 -0.00294775
vn -0.40334892 -0.91486493 0.01821564
f 43//43 3//3 18//18
f 12//12 3//3 11//11
f 12//12 18//18 3//3
f 11//11 3//3 1//1
f 43//43 18//18 53//53
f 2//2 1//1 3//3
f 3//3 4//4 2//2
f 11//11 1//1 2//2
f 2//2 44//44 46//46
f 60//60 44//44 42//42
f 34//34 12//12 11//11
f 11//11 31//31 34//34
f 5//5 2//2 4//4
f 5//5 7//7 6//6
f 6//6 2//2 5//5
f 37//37 47//47 45//45
f 15//15 2//2 6//6
f 15//15 44//44 2//2
f 43//43 53//53 49//49
f 17//17 31//31 11//11
f 10//10 17//17 11//11
f 18//18 12//12 24//24
f 12//12 34//34 24//24
f 24//24 25//25 18//18
f 37//37 45//45 33//33
f 33//33 45//45 53//53
f 56//56 49//49 53//53
f 50//50 49//49 56//56
f 59//59 58//58 60//60
f 57//57 56//56 47//47
f 60//60 58//58 54//54
f 54//54 44//44 60//60
f 54//54 46//46 44//44
f 58//58 57//57 54//54
f 35//35 36//36 7//7
f 6//6 7//7 8//8
f 8//8 15//15 6//6
f 11//11 2//2 9//9
f 2//2 21//21 9//9
f 9//9 21//21 16//16
f 9//9 10//10 11//11
f 16//16 10//10 9//9
f 38//38 46//46 37//37
f 2//2 46//46 38//38
f 38//38 29//29 2//2
f 16//16 21//21 22//22
f 22//22 21//21 2//2
f 2//2 29//29 22//22
f 25//25 24//24 26//26
f 26//26 33//33 25//25
f 39//39 33//33 53//53
f 25//25 33//33 39//39
f 39//39 53//53 18//18
f 18//18 25//25 39//39
f 20//20 10//10 16//16
f 16//16 22//22 20//20
f 20//20 22//22 29//29
f 48//48 45//45 47//47
f 47//47 56//56 48//48
f 53//53 45//45 48//48
f 48//48 56//56 53//53
f 50//50 56//56 51//51
f 56//56 57//57 51//51
f 51//51 60//60 50//50
f 55//55 47//47 37//37
f 55//55 57//57 47//47
f 37//37 46//46 55//55
f 46//46 54//54 55//55
f 55//55 54//54 57//57
f 41//41 35//35 43//43
f 43//43 49//49 41//41
f 41//41 49//49 50//50
f 50//50 60//60 41//41
f 60//60 42//42 41//41
f 42//42 36//36 41//41
f 36//36 35//35 41//41
f 7//7 36//36 14//14
f 14//14 8//8 7//7
f 32//32 24//24 34//34
f 34//34 26//26 32//32
f 32//32 26//26 24//24
f 37//37 33//33 40//40
f 52//52 57//57 58//58
f 52//52 51//51 57//57
f 58//58 59//59 52//52
f 52//52 59//59 60//60
f 60//60 51//51 52//52
f 19//19 36//36 42//42
f 19//19 14//14 36//36
f 19//19 42//42 44//44
f 44//44 15//15 19//19
f 37//37 40//40 28//28
f 28//28 20//20 29//29
f 28//28 38//38 37//37
f 29//29 38//38 28//28
f 27//27 26//26 34//34
f 33//33 26//26 27//27
f 27//27 40//40 33//33
f 20//20 28//28 27//27
f 27//27 28//28 40//40
f 8//8 14//14 13//13
f 14//14 19//19 13//13
f 15//15 8//8 13//13
f 13//13 19//19 15//15
f 30//30 34//34 31//31
f 30//30 27//27 34//34
f 20//20 27//27 23//23
f 27//27 30//30 23//23
f 23//23 30//30 31//31
f 31//31 17//17 23//23
f 17//17 10//10 23//23
f 10//10 20//20 23//23
f 7//7 5//5 35//35
f 35//35 3//3 43//43
f 35//35 4//4 3//3
f 35//35 5//5 4//4