# https://github.com/mikedh/trimesh
v -0.50494832 -0.72122733 -0.88997407
v -0.50299607 -0.36160543 -1.21533447
v -0.48737233 -0.50850180 -1.41272083
v -0.50274385 -0.71791802 -1.28936048
v -0.48850328 0.05404752 -1.09821589
v -0.49157967 -0.01910701 -1.26452198
v -0.44497212 -0.20324497 -1.58981706
v -0.47373171 -0.76852497 -0.89750638
v 0.27021930 -0.71472170 -0.73892510
v -0.50171662 -0.42080720 -1.31388082
v -0.21212377 -0.69260932 -1.72913606
v -0.26753270 -0.69260932 -1.72394818
v -0.42079301 0.04822861 -1.51731161
v -0.30370105 0.10713814 -1.51731161
v -0.45049216 -0.65299163 -1.59031148
v -0.34594026 -0.82689799 -0.91952501
v 0.28104520 -0.20535758 -0.73872936
v -0.18283849 0.13035858 -1.08544023
v 0.48486738 -0.20535758 -0.73872936
v 0.01088977 -0.69260932 -1.73872889
v -0.31848569 -0.69654268 -1.70226992
v -0.36092760 0.09600434 -1.51691779
v -0.37774161 -0.76744561 -1.41926082
v 0.45130708 -0.71472170 -0.73872936
v -0.07127598 -0.84734448 -1.08616480
v 0.21108869 0.12575217 -0.75271267
v 0.47431214 -0.00356991 -0.75292277
v 0.37158207 0.08787446 -0.75304671
v 0.48244025 -0.71480437 -0.73872885
v 0.45140552 -0.20555239 -1.52240171
v 0.41410536 -0.67312704 -1.52240171
v 0.36889931 -0.74866591 -1.52757533
v -0.19118550 -0.73702891 -1.65121914
v -0.00228238 0.13137399 -1.51708533
v 0.42747647 0.06296827 -1.48901500
v 0.47145805 0.00947106 -1.48921843
v -0.27103267 -0.74864521 -1.59961506
v 0.18377203 -0.83332006 -0.88751549
v 0.10538793 0.14837409 -1.33257734
v -0.18509901 0.13190803 -1.29676306
v 0.48437532 -0.31251010 -0.73872936
v 0.47512410 -0.01813290 -1.48921843
v 0.47000640 -0.18723906 -1.48921843
v 0.43211574 -0.70420127 -1.47639539
v 0.13821749 -0.84261302 -1.09518485
v 0.32052058 0.10713138 -1.48964246
v 0.00817360 -0.85162595 -0.89020905
v 0.49079704 -0.03123472 -1.26491353
v 0.46877618 -0.69606742 -1.31390530
v 0.45101185 -0.70420127 -1.41267189
v 0.44225271 -0.73530594 -1.36309283
v 0.37673141 -0.77957333 -1.21178609
v 0.34446284 -0.79965834 -0.94191543
v 0.40323026 -0.77542725 -0.98732519
v 0.48009415 -0.40552579 -1.28613023
v 0.47202197 -0.71258491 -1.08743193
v 0.49505169 0.01972250 -1.11047184
vn -0.55119977 -0.01694959 0.83420113
vn -0.99995808 0.00230392 -0.00886199
vn -0.87164593 0.00014142 -0.49013606
vn -0.86584846 -0.06205923 -0.49644244
vn -0.72222075 0.08273775 0.68669619
vn -0.94230926 0.01110859 -0.33455919
vn -0.39568724 0.00659827 -0.91836162
vn -0.60662462 -0.08919453 0.78996893
vn -0.02404956 -0.01287790 0.99962782
vn -0.95839083 0.00157275 -0.28545499
vn -0.02151201 -0.02028914 -0.99956270
vn -0.07316652 -0.02121845 -0.99709400
vn -0.44969062 0.03198809 -0.89261140
vn -0.26505102 0.13951998 -0.95408707
vn -0.53690500 -0.01472615 -0.84351417
vn -0.58506701 -0.23750374 0.77542799
vn -0.02815960 0.00034557 0.99960338
vn -0.44224856 0.25588553 0.85961550
vn 0.47248196 0.00052990 0.88134018
vn 0.06195572 -0.02581520 -0.99774499
vn -0.24652352 -0.03866035 -0.96836539
vn -0.44359533 0.12126356 -0.88798555
vn -0.48960221 -0.14007542 -0.86062103
vn -0.00025088 -0.00543292 0.99998521
vn -0.16348114 -0.33502539 -0.92791805
vn 0.13068346 0.15334353 0.97949354
vn 0.47602975 0.01959729 0.87921080
vn 0.44356779 0.09810228 0.89085552
vn 0.51694629 -0.04163137 0.85500489
vn 0.30109648 0.00016582 -0.95359367
vn 0.35254829 -0.00489463 -0.93578082
vn 0.33924288 -0.09005988 -0.93637785
vn -0.01401731 -0.08522915 -0.99626277
vn -0.03397307 0.12340685 -0.99177446
vn 0.50230114 0.07452459 -0.86147528
vn 0.51031697 0.02106495 -0.85972836
vn -0.15999831 -0.10477750 -0.98154074
vn 0.34040651 -0.18349734 0.92219962
vn 0.36036807 0.61377954 -0.70243116
vn -0.73806072 0.54793840 -0.39373834
vn 0.47457866 -0.00019653 0.88021307
vn 0.59006539 0.00414256 -0.80734483
vn 0.75168842 -0.00216212 -0.65951486
vn 0.56671926 -0.02417372 -0.82355626
vn 0.39049756 -0.33554579 -0.85727515
vn 0.40931522 0.13316874 -0.90262237
vn 0.00647953 -0.22704743 0.97386215
vn 0.98921104 0.00089573 -0.14649474
vn 0.95729634 -0.01988719 -0.28842367
vn 0.81273641 -0.02694353 -0.58200823
vn 0.86249754 -0.09255033 -0.49752631
vn 0.80623984 -0.20757436 -0.55397672
vn 0.80073327 -0.23530850 0.55086854
vn 0.98175080 -0.16220186 0.09927701
vn 0.98702651 -0.00251910 -0.16053761
vn 0.99211512 -0.04728816 -0.11606647
vn 0.99636707 0.06508407 0.05492464
f 9//9 26//26 1//1
f 1//1 26//26 5//5
f 20//20 31//31 32//32
f 30//30 31//31 20//20
f 26//26 9//9 17//17
f 8//8 9//9 1//1
f 1//1 4//4 8//8
f 29//29 9//9 47//47
f 6//6 5//5 13//13
f 29//29 49//49 55//55
f 44//44 32//32 31//31
f 7//7 6//6 13//13
f 7//7 11//11 12//12
f 12//12 11//11 33//33
f 20//20 32//32 33//33
f 33//33 11//11 20//20
f 23//23 4//4 15//15
f 23//23 8//8 4//4
f 46//46 35//35 20//20
f 20//20 34//34 46//46
f 18//18 5//5 26//26
f 20//20 35//35 36//36
f 36//36 30//30 20//20
f 36//36 35//35 57//57
f 24//24 9//9 29//29
f 29//29 17//17 24//24
f 24//24 17//17 9//9
f 41//41 29//29 57//57
f 26//26 17//17 19//19
f 57//57 27//27 19//19
f 19//19 41//41 57//57
f 19//19 17//17 29//29
f 29//29 41//41 19//19
f 45//45 47//47 25//25
f 45//45 33//33 32//32
f 9//9 8//8 16//16
f 16//16 47//47 9//9
f 25//25 47//47 16//16
f 16//16 23//23 25//25
f 8//8 23//23 16//16
f 2//2 4//4 1//1
f 1//1 5//5 2//2
f 5//5 6//6 2//2
f 56//56 49//49 29//29
f 15//15 7//7 21//21
f 21//21 7//7 12//12
f 21//21 23//23 15//15
f 12//12 33//33 21//21
f 6//6 7//7 10//10
f 4//4 2//2 10//10
f 10//10 2//2 6//6
f 14//14 34//34 20//20
f 20//20 11//11 14//14
f 11//11 7//7 14//14
f 26//26 46//46 39//39
f 39//39 46//46 34//34
f 39//39 18//18 26//26
f 57//57 29//29 48//48
f 29//29 55//55 48//48
f 26//26 19//19 28//28
f 28//28 19//19 27//27
f 28//28 27//27 57//57
f 57//57 35//35 28//28
f 28//28 46//46 26//26
f 35//35 46//46 28//28
f 52//52 45//45 32//32
f 47//47 45//45 38//38
f 29//29 47//47 38//38
f 43//43 50//50 44//44
f 31//31 30//30 43//43
f 43//43 44//44 31//31
f 49//49 50//50 43//43
f 43//43 55//55 49//49
f 37//37 21//21 33//33
f 23//23 21//21 37//37
f 25//25 23//23 37//37
f 37//37 45//45 25//25
f 33//33 45//45 37//37
f 3//3 7//7 15//15
f 3//3 10//10 7//7
f 15//15 4//4 3//3
f 4//4 10//10 3//3
f 22//22 7//7 13//13
f 22//22 14//14 7//7
f 13//13 5//5 22//22
f 5//5 18//18 22//22
f 18//18 39//39 40//40
f 40//40 22//22 18//18
f 14//14 22//22 40//40
f 34//34 14//14 40//40
f 40//40 39//39 34//34
f 51//51 52//52 32//32
f 32//32 44//44 51//51
f 44//44 50//50 51//51
f 51//51 50//50 49//49
f 49//49 56//56 51//51
f 54//54 52//52 51//51
f 29//29 54//54 51//51
f 51//51 56//56 29//29
f 53//53 38//38 45//45
f 53//53 52//52 54//54
f 45//45 52//52 53//53
f 53//53 54//54 29//29
f 29//29 38//38 53//53
f 30//30 36//36 42//42
f 42//42 43//43 30//30
f 42//42 36//36 57//57
f 57//57 48//48 42//42
f 42//42 48//48 55//55
f 55//55 43//43 42//42