# https://github.com/mikedh/trimesh
v -0.49752868 -0.00812457 0.90985628
v -0.49948416 -0.00287244 0.94332062
v -0.43187876 0.43370272 0.07469300
v -0.41865601 -0.44190292 0.07470878
v -0.41997299 -0.45007633 0.17686379
v -0.49588503 0.03184445 0.94378569
v -0.41885722 0.40097445 -0.01116661
v -0.41015151 -0.47046991 0.88465242
v -0.41997299 0.45007613 0.89136262
v -0.43178690 0.45037117 0.78775261
v -0.39363335 0.43372930 -0.05151735
v -0.41020009 -0.46674241 -0.04986210
v -0.41664989 -0.46847220 0.78361395
v -0.36456217 -0.41738266 -0.05513778
v -0.41446473 0.47519955 -0.00585446
v -0.36297977 0.45792754 -0.05613391
v 0.41482272 -0.47390212 0.94202452
v -0.49651488 -0.02320568 0.94349027
v -0.38576810 0.48198888 0.94191338
v -0.16028347 -0.46642317 -0.05621430
v -0.36654114 -0.48654347 -0.03215294
v -0.36669858 0.49698262 0.84373510
v -0.03206512 -0.27515009 0.94332084
v 0.02961054 0.49595676 0.86445858
v 0.32642918 0.46647955 -0.05607537
v 0.37200449 -0.46616784 -0.05615635
v -0.35201634 -0.49654949 0.88560285
v -0.38387463 -0.48337123 0.94142745
v -0.32389781 -0.50007395 0.17944116
v 0.39610278 0.43340881 0.94261308
v 0.36455864 0.41738246 -0.05513778
v 0.30612362 -0.48286788 -0.03077336
v 0.35135316 0.49290081 -0.01560335
v 0.37332653 -0.49387215 0.88707120
v 0.49534793 -0.03539670 0.94341922
v -0.27700718 -0.49852953 0.07470878
v -0.02185393 -0.49363526 0.00469717
v 0.39362982 0.33960042 -0.03730473
v 0.39362982 -0.27001647 -0.04909565
v 0.42907244 -0.46248843 -0.00241906
v 0.37146695 -0.49690424 0.08082750
v -0.33363448 0.49716363 0.17528640
v 0.30441010 0.49992609 0.10912248
v 0.33371177 -0.49718243 0.79802623
v 0.43172476 -0.45007633 0.77257310
v 0.41996946 0.45007613 0.17686379
v 0.41996946 0.45007613 0.78989252
v 0.41362960 0.46560410 0.00894982
v 0.42401708 -0.48872657 -0.00091420
v 0.50051583 0.00069878 0.94336665
v 0.41046148 0.46900220 0.88463543
v 0.37115424 0.49431102 0.87118743
v 0.43136376 -0.45261462 0.16447247
vn -0.79095184 -0.01055834 -0.61178731
vn -0.34411446 -0.00020030 0.93892768
vn -0.71517260 0.04008522 -0.69779748
vn -0.90870947 -0.03729925 -0.41575939
vn -0.98387300 -0.08855835 -0.15540704
vn -0.29734960 0.01031588 0.95471294
vn -0.26255461 0.00117496 -0.96491642
vn -0.46167321 -0.12120542 0.87873039
vn -0.32882656 0.04876833 0.94313029
vn -0.84587850 0.16232469 0.50807506
vn -0.07600575 0.00450792 -0.99709719
vn -0.27482254 -0.08940980 -0.95732881
vn -0.93910462 -0.27524433 0.20572573
vn -0.00463837 -0.00058012 -0.99998907
vn -0.28779708 0.14534832 -0.94659744
vn -0.01794202 0.03108706 -0.99935563
vn 0.24134093 -0.09092003 0.96617188
vn -0.29053639 -0.01382164 0.95676411
vn -0.18092225 0.10786771 0.97756417
vn -0.00023561 -0.01524700 -0.99988373
vn -0.14002955 -0.17134770 -0.97520854
vn -0.29384709 0.41752864 0.85983936
vn -0.00003540 -0.00011493 0.99999999
vn 0.00205222 0.31514454 0.94904147
vn 0.02125531 0.01923861 -0.99958896
vn 0.03069443 -0.02093390 -0.99930957
vn -0.16069853 -0.33207095 0.92946483
vn -0.17897264 -0.12168861 0.97629948
vn -0.31321329 -0.82184073 -0.47589415
vn 0.08415801 0.01541250 0.99633322
vn 0.04561118 0.00399809 -0.99895127
vn 0.00276767 -0.07289093 -0.99733608
vn 0.14030083 0.17901407 -0.97379137
vn 0.13871516 -0.24887471 0.95855072
vn 0.27842612 -0.01270296 0.96037364
vn -0.01893618 -0.42421711 -0.90536251
vn 0.00243867 -0.19632330 -0.98053619
vn 0.10541876 0.00101844 -0.99442740
vn 0.06805147 0.00023118 -0.99768178
vn 0.34521800 -0.01690157 -0.93837033
vn 0.10997036 -0.57707668 -0.80925214
vn -0.14112375 0.50399894 -0.85209692
vn 0.09168706 0.74105768 -0.66515186
vn 0.07091098 -0.85407430 0.51529479
vn 0.92586131 -0.08886845 0.36726453
vn 0.99000992 0.08012866 -0.11601617
vn 0.95619111 0.08915444 0.27883696
vn 0.35077014 0.10124362 -0.93097263
vn 0.31427992 -0.16263611 -0.93529548
vn 0.35711043 0.00200954 0.93406001
vn 0.33721787 0.10613045 0.93542527
vn 0.17011908 0.21090173 0.96259023
vn 0.99825150 -0.05399087 -0.02406108
f 50//50 6//6 35//35
f 18//18 6//6 2//2
f 28//28 6//6 18//18
f 10//10 19//19 15//15
f 50//50 51//51 30//30
f 30//30 6//6 50//50
f 19//19 6//6 30//30
f 51//51 48//48 52//52
f 19//19 30//30 52//52
f 52//52 30//30 51//51
f 15//15 19//19 22//22
f 22//22 42//42 15//15
f 43//43 42//42 22//22
f 47//47 51//51 50//50
f 47//47 48//48 51//51
f 23//23 6//6 28//28
f 23//23 35//35 6//6
f 20//20 16//16 25//25
f 20//20 12//12 14//14
f 14//14 16//16 20//20
f 12//12 16//16 14//14
f 3//3 10//10 15//15
f 6//6 10//10 3//3
f 2//2 6//6 3//3
f 15//15 7//7 3//3
f 3//3 1//1 2//2
f 3//3 12//12 1//1
f 3//3 7//7 12//12
f 9//9 6//6 19//19
f 19//19 10//10 9//9
f 9//9 10//10 6//6
f 24//24 52//52 43//43
f 43//43 22//22 24//24
f 19//19 52//52 24//24
f 24//24 22//22 19//19
f 11//11 16//16 12//12
f 12//12 7//7 11//11
f 15//15 16//16 11//11
f 11//11 7//7 15//15
f 50//50 48//48 46//46
f 46//46 47//47 50//50
f 48//48 47//47 46//46
f 20//20 25//25 26//26
f 40//40 26//26 39//39
f 49//49 26//26 40//40
f 40//40 48//48 50//50
f 50//50 35//35 40//40
f 31//31 25//25 48//48
f 39//39 26//26 31//31
f 31//31 26//26 25//25
f 48//48 25//25 33//33
f 43//43 52//52 33//33
f 33//33 52//52 48//48
f 33//33 42//42 43//43
f 15//15 42//42 33//33
f 33//33 16//16 15//15
f 33//33 25//25 16//16
f 28//28 18//18 8//8
f 8//8 13//13 28//28
f 18//18 13//13 8//8
f 12//12 13//13 5//5
f 5//5 13//13 18//18
f 5//5 18//18 2//2
f 32//32 26//26 49//49
f 49//49 37//37 32//32
f 28//28 13//13 21//21
f 21//21 13//13 12//12
f 21//21 32//32 37//37
f 21//21 12//12 20//20
f 20//20 26//26 21//21
f 26//26 32//32 21//21
f 41//41 49//49 34//34
f 41//41 37//37 49//49
f 34//34 49//49 17//17
f 49//49 45//45 17//17
f 28//28 34//34 17//17
f 17//17 45//45 35//35
f 17//17 23//23 28//28
f 35//35 23//23 17//17
f 53//53 45//45 49//49
f 49//49 40//40 53//53
f 35//35 45//45 53//53
f 53//53 40//40 35//35
f 39//39 31//31 38//38
f 38//38 31//31 48//48
f 38//38 40//40 39//39
f 48//48 40//40 38//38
f 4//4 5//5 2//2
f 12//12 5//5 4//4
f 2//2 1//1 4//4
f 1//1 12//12 4//4
f 28//28 21//21 27//27
f 27//27 34//34 28//28
f 44//44 41//41 34//34
f 34//34 27//27 44//44
f 29//29 27//27 21//21
f 41//41 44//44 29//29
f 29//29 44//44 27//27
f 37//37 41//41 36//36
f 41//41 29//29 36//36
f 36//36 21//21 37//37
f 36//36 29//29 21//21