# https://github.com/mikedh/trimesh
v -1.27542059 0.64685558 -1.17206754
v -1.27542059 -0.35313932 -1.16798058
v -2.01739442 0.16360108 -1.16536524
v -1.49907169 0.63511797 -1.16471655
v -1.27542059 0.64685558 -0.26766699
v -1.27542059 -0.35313933 -0.44682404
v -1.86702227 0.47499102 -1.13550264
v -1.31046674 0.64685558 -0.21832534
v -1.27542059 -0.32622088 -0.33482643
v -1.46044136 -0.35313933 -0.33482643
v -2.04948693 -0.01725615 -1.16618928
v -2.00076060 0.35033164 -1.13584438
v -1.53298501 0.64673041 -1.11153263
v -1.27541506 -0.15653059 -0.28153548
v -1.27542059 -0.31281063 -0.31128142
v -1.80140837 -0.35313933 -0.18993437
v -2.13549478 -0.06782258 -1.12161161
v -2.09284069 0.20598076 -1.12047419
v -2.07447927 0.28340794 -0.96946950
v -1.61947274 0.64682873 -0.86119099
v -2.06606522 -0.26620002 -1.10049099
v -1.82118302 -0.35313933 -0.18425617
v -2.10938407 -0.17047838 -1.11849847
v -2.13439367 0.09504418 -1.11735857
v -2.16900267 0.31541637 -0.21832534
v -2.00600813 0.39920609 -0.84361289
v -1.89643954 0.46956107 -1.03314736
v -1.83821671 0.55357101 -0.78232747
v -1.84617066 0.52107312 -0.96035869
v -1.38189884 0.64685558 -0.18866819
v -2.20483208 -0.25799493 -0.21832534
v -2.23919318 -0.18066564 -0.21832534
v -1.27542059 -0.26425959 -0.29551951
v -1.47013287 0.64685558 -0.17358503
v -1.89519133 -0.35313933 -0.17368288
v -2.27541505 -0.02584998 -0.21832806
v -2.15847902 0.03585635 -0.99927395
v -2.27472887 0.05151797 -0.21832534
v -2.25693133 0.12963533 -0.21853467
v -2.23178896 0.19814207 -0.22329384
v -2.22184158 0.19102722 -0.17602332
v -2.13395637 0.36063934 -0.21832534
v -2.17147604 0.24451846 -0.49216551
v -2.06571922 0.43807176 -0.21832754
v -2.00708496 0.47746529 -0.34309894
v -2.14385742 -0.35313885 -0.20092160
v -1.99348144 -0.35313935 -1.16778322
v -2.26757750 -0.08123690 -0.21640686
v -1.49323608 0.64685558 -0.17299763
v -1.92759457 -0.35313933 -0.17309548
v -1.97628703 0.52080710 -0.19228450
v -2.17472948 -0.26886019 -0.18491696
v -2.08970810 0.01265756 -0.17206756
v -2.03801974 -0.35313933 -0.17299763
v -2.18622600 -0.07046530 -0.17321790
v -1.88247185 0.59189380 -0.19444173
v -1.76202047 0.64686067 -0.40012574
v -1.71121382 0.64685391 -0.17266427
vn 0.86811405 0.46264673 -0.17982214
vn 0.89586842 -0.41635798 -0.15513161
vn -0.97217374 0.08555273 -0.21808014
vn -0.77482235 0.59830969 -0.20414661
vn 0.91358009 0.40653384 0.01008245
vn 0.90748259 -0.42008776 0.00127119
vn -0.95653242 0.28104824 -0.07783068
vn 0.91877934 0.39212881 0.04560180
vn 0.94596060 -0.32391828 0.01534556
vn 0.32376593 -0.94591896 0.02032109
vn -0.97640860 0.00621015 -0.21584181
vn -0.98022727 0.18365694 -0.07365212
vn -0.69272636 0.72100881 -0.01662799
vn 0.99697680 -0.04578176 0.06277969
vn 0.96062404 -0.27496662 0.03993497
vn 0.60420117 -0.79434463 0.06290916
vn -0.99921786 -0.02391530 -0.03149160
vn -0.99509617 0.09400370 -0.03077208
vn -0.99104455 0.13344560 -0.00479189
vn -0.67888413 0.73421380 -0.00681434
vn -0.99208184 -0.12542459 -0.00650339
vn 0.80860072 -0.57134751 0.14045244
vn -0.99692205 -0.07610505 -0.01882670
vn -0.99865259 0.04167237 -0.03092589
vn -0.98933627 0.14525614 0.01069604
vn -0.97991718 0.19934537 -0.00487200
vn -0.97051118 0.24098017 -0.00605038
vn -0.94558261 0.32531145 -0.00678221
vn -0.94516630 0.32650364 -0.00748591
vn 0.90492978 0.41059591 0.11186194
vn -0.99372765 -0.11159834 0.00715315
vn -0.99709415 -0.07508493 0.01286511
vn 0.99334963 -0.09792889 0.06055114
vn 0.77412851 0.58117930 0.25090968
vn 0.61697922 -0.73415051 0.28347783
vn -0.99967173 -0.01486056 0.02087085
vn -0.99996515 0.00688993 -0.00471499
vn -0.99973123 0.01869292 0.01371289
vn -0.99809727 0.06150013 0.00442458
vn -0.99538803 0.09591897 0.00149252
vn -0.98312404 0.08734073 0.16074429
vn -0.98498992 0.17209614 0.01333294
vn -0.99378585 0.11121568 -0.00455694
vn -0.97951554 0.20130110 0.00521336
vn -0.97193429 0.23520612 -0.00467034
vn -0.87192792 -0.48818165 0.03768797
vn -0.85064483 -0.49363499 -0.18090844
vn -0.99888745 -0.03991787 0.02510845
vn 0.17964150 0.91417612 0.36333311
vn 0.10183095 -0.92908241 0.35557886
vn -0.96889840 0.23556799 0.07578657
vn -0.98853845 -0.11206161 0.10116289
vn -0.25345595 0.02062264 0.96712708
vn -0.62760495 -0.72548173 0.28246821
vn -0.97438656 -0.03333131 0.22239572
vn -0.93064816 0.36293231 0.04662762
vn -0.74468644 0.66740416 -0.00371457
vn -0.62219028 0.73839008 0.26011410
f 2//2 1//1 14//14
f 2//2 47//47 1//1
f 14//14 1//1 5//5
f 57//57 5//5 1//1
f 57//57 34//34 30//30
f 36//36 17//17 48//48
f 48//48 41//41 36//36
f 37//37 17//17 36//36
f 1//1 47//47 11//11
f 11//11 3//3 1//1
f 47//47 17//17 11//11
f 1//1 3//3 4//4
f 17//17 37//37 24//24
f 24//24 11//11 17//17
f 3//3 11//11 24//24
f 54//54 46//46 47//47
f 47//47 2//2 6//6
f 6//6 2//2 14//14
f 14//14 9//9 6//6
f 23//23 31//31 32//32
f 32//32 48//48 23//23
f 23//23 48//48 17//17
f 23//23 17//17 47//47
f 8//8 57//57 30//30
f 5//5 57//57 8//8
f 8//8 30//30 14//14
f 14//14 5//5 8//8
f 7//7 3//3 12//12
f 7//7 4//4 3//3
f 12//12 3//3 18//18
f 3//3 24//24 18//18
f 38//38 37//37 36//36
f 38//38 24//24 37//37
f 36//36 41//41 38//38
f 47//47 35//35 50//50
f 50//50 54//54 47//47
f 46//46 54//54 52//52
f 52//52 48//48 32//32
f 52//52 31//31 46//46
f 32//32 31//31 52//52
f 47//47 6//6 10//10
f 10//10 6//6 9//9
f 15//15 9//9 14//14
f 14//14 33//33 15//15
f 21//21 23//23 47//47
f 31//31 23//23 21//21
f 47//47 46//46 21//21
f 46//46 31//31 21//21
f 12//12 42//42 26//26
f 56//56 58//58 57//57
f 55//55 52//52 54//54
f 41//41 48//48 55//55
f 48//48 52//52 55//55
f 4//4 7//7 13//13
f 1//1 4//4 13//13
f 12//12 18//18 19//19
f 41//41 42//42 25//25
f 25//25 42//42 12//12
f 12//12 19//19 25//25
f 40//40 18//18 24//24
f 41//41 25//25 40//40
f 49//49 35//35 34//34
f 49//49 50//50 35//35
f 34//34 57//57 49//49
f 57//57 58//58 49//49
f 54//54 50//50 53//53
f 53//53 55//55 54//54
f 53//53 49//49 58//58
f 50//50 49//49 53//53
f 53//53 58//58 41//41
f 41//41 55//55 53//53
f 47//47 10//10 16//16
f 16//16 10//10 9//9
f 9//9 15//15 16//16
f 27//27 26//26 45//45
f 27//27 7//7 12//12
f 12//12 26//26 27//27
f 51//51 42//42 41//41
f 41//41 58//58 51//51
f 58//58 56//56 51//51
f 29//29 13//13 7//7
f 7//7 27//27 29//29
f 20//20 57//57 1//1
f 1//1 13//13 20//20
f 13//13 29//29 20//20
f 43//43 19//19 18//18
f 18//18 40//40 43//43
f 43//43 25//25 19//19
f 43//43 40//40 25//25
f 39//39 38//38 41//41
f 41//41 40//40 39//39
f 24//24 38//38 39//39
f 39//39 40//40 24//24
f 22//22 35//35 47//47
f 47//47 16//16 22//22
f 30//30 34//34 22//22
f 34//34 35//35 22//22
f 14//14 30//30 22//22
f 22//22 33//33 14//14
f 22//22 15//15 33//33
f 22//22 16//16 15//15
f 42//42 51//51 44//44
f 44//44 51//51 45//45
f 44//44 26//26 42//42
f 45//45 26//26 44//44
f 28//28 27//27 45//45
f 28//28 29//29 27//27
f 45//45 51//51 28//28
f 28//28 51//51 56//56
f 28//28 56//56 57//57
f 57//57 20//20 28//28
f 28//28 20//20 29//29