# https://github.com/mikedh/trimesh
v 0.96422894 -0.78154798 0.12426424
v 0.50109831 -1.26078652 0.12526221
v -0.03565366 -1.22586126 0.12023883
v -0.03577087 -1.40943422 -0.39100346
v -0.03565498 -1.37286345 0.12426676
v -0.03565496 -1.45672065 -0.23944966
v -0.03565496 -1.48169981 -0.12852012
v -0.03565496 -1.49404241 -0.01352921
v -0.03565496 -1.48831202 0.10214679
v -0.03565627 -1.46277975 0.11808001
v 0.64900391 -1.30403891 0.11815419
v 0.96422894 -0.57838394 0.10733360
v 0.96422865 -0.60679185 0.11751153
v -0.03565463 -1.15364197 0.11624230
v 0.06810194 -1.49526694 0.00300991
v 0.13780814 -1.48135272 0.11451115
v 0.96412684 -1.04815242 0.11699260
v 0.96422894 -0.49805870 -0.23450751
v -0.03570121 -1.40772670 -0.40237076
v 0.09788312 -1.47238156 -0.15682746
v 0.31619019 -1.46810680 0.03777387
v 0.36622338 -1.44028842 0.11347171
v 0.96422894 -0.50119334 -0.24292385
v 0.65845279 -0.49655727 -0.86786410
v 0.65843965 -0.49526694 -0.79507603
v 0.65801873 -0.49656141 -0.67112737
v -0.03575575 -0.87979692 -0.71734716
v 0.11516456 -1.43290101 -0.31741838
v 0.24292257 -1.43766784 -0.25995230
v 0.96422894 -0.79673141 -0.31681164
v 0.65843965 -0.50746268 -0.87473780
v -0.03575289 -0.89821547 -0.83950658
v -0.03575276 -0.88045768 -0.82350119
v 0.43937553 -1.19541876 -0.87473780
v 0.65844034 -1.20120077 -0.87473659
v -0.03575119 -1.35107601 -0.54111826
v 0.54440231 -1.20962279 -0.87473780
v -0.03575289 -1.25885853 -0.73857143
v -0.03575289 -1.21442253 -0.82375034
v 0.27948218 -1.43504752 -0.24688738
v 0.32703000 -1.45753742 -0.11954758
v 0.67559746 -1.32242517 0.03639964
v 0.96398164 -1.09752564 0.04541572
v -0.03575288 -1.19502141 -0.84244705
v -0.03575289 -1.11127319 -0.85193539
v 0.93648702 -1.15081881 -0.31311335
v 0.79496453 -1.25900597 -0.28608797
v 0.54340922 -1.37454857 -0.24034680
v 0.41788800 -1.41166970 -0.23203787
v -0.03575289 -1.30251090 -0.64967367
v 0.54430702 -1.38295856 -0.16788617
v 0.42386093 -0.79766199 -0.87473780
v -0.03575289 -0.98907110 -0.84929303
v 0.38568621 -1.04659670 -0.87473780
v 0.96420989 -1.13371607 -0.09480559
v 0.77234175 -1.28458892 -0.19395472
v 0.71066418 -1.31021707 -0.25139516
v 0.74384774 -1.30181021 -0.04395084
v 0.96422329 -1.13878245 -0.22023044
v 0.96422911 -1.11942562 -0.31681113
vn 0.96978066 0.13002644 0.20644272
vn 0.22913935 -0.76475919 0.60219476
vn -0.96329753 0.21311375 0.16321888
vn -0.99967303 -0.02556916 -0.00021235
vn -0.95912060 -0.19460474 0.20546696
vn -0.65909246 -0.75204337 -0.00528184
vn -0.65831660 -0.75273389 -0.00330937
vn -0.67042751 -0.74197380 -0.00135602
vn -0.65046900 -0.75939779 0.01432063
vn -0.69909305 -0.70587281 0.11407225
vn 0.46076190 -0.87823978 0.12803653
vn 0.45967455 0.88739692 0.03501448
vn 0.58942539 0.79569891 0.13943081
vn -0.80232411 0.58870095 0.09852518
vn 0.04045294 -0.99918140 -0.00030358
vn 0.08962192 -0.98994768 0.10941438
vn 0.86719213 -0.48386813 0.11768364
vn 0.56109619 0.82773529 0.00503593
vn -0.64991651 -0.75996450 -0.00790500
vn 0.04946282 -0.99876064 -0.00553236
vn 0.20163609 -0.97945889 0.00178100
vn 0.24014115 -0.96538629 0.10179163
vn 0.87043690 0.49223324 -0.00678561
vn 0.30701553 0.95128719 -0.02818070
vn -0.19539746 0.98072408 -0.00032996
vn -0.22651334 0.97400375 0.00289870
vn -0.82573016 0.56406132 0.00212842
vn 0.04405688 -0.99899158 -0.00864988
vn 0.09817292 -0.99514317 -0.00722187
vn 0.99832573 0.05670574 -0.01141017
vn 0.48776219 0.85901123 -0.15552414
vn -0.83777519 0.54224253 -0.06407621
vn -0.82029346 0.57189351 -0.00751300
vn -0.20117864 -0.95140662 -0.23313642
vn 0.68060965 -0.71958183 -0.13774067
vn -0.67023291 -0.74209981 -0.00870170
vn 0.01379328 -0.98492102 -0.17245386
vn -0.68444572 -0.72899082 -0.01031701
vn -0.68392240 -0.72940771 -0.01464728
vn 0.14433117 -0.98950511 -0.00693853
vn 0.16908793 -0.98559645 -0.00298390
vn 0.43030103 -0.90265792 0.00705062
vn 0.86418247 -0.50313333 0.00674640
vn -0.70692458 -0.70429118 -0.06505043
vn -0.96267374 -0.22385916 -0.15213925
vn 0.59603919 -0.80293511 -0.00570047
vn 0.46227485 -0.88672566 -0.00442328
vn 0.26332772 -0.96469421 -0.00485742
vn 0.19543056 -0.98069795 -0.00619947
vn -0.67853746 -0.73450467 -0.00947631
vn 0.29281044 -0.95616880 -0.00180757
vn -0.65828380 0.52464379 -0.53982528
vn -0.96301971 0.23636890 -0.12931662
vn -0.66507098 -0.07164423 -0.74333552
vn 0.86827092 -0.49608852 0.00134131
vn 0.44312601 -0.89645911 -0.00063648
vn 0.35375694 -0.93532841 -0.00409816
vn 0.44066605 -0.89766498 0.00331929
vn 0.86418594 -0.50317198 -0.00078246
vn 0.91379921 -0.40606121 -0.00923568
f 4//4 14//14 27//27
f 27//27 32//32 4//4
f 25//25 18//18 24//24
f 24//24 31//31 32//32
f 60//60 35//35 30//30
f 35//35 31//31 30//30
f 2//2 17//17 1//1
f 45//45 44//44 4//4
f 26//26 18//18 25//25
f 25//25 27//27 26//26
f 26//26 27//27 14//14
f 47//47 57//57 35//35
f 40//40 29//29 35//35
f 4//4 9//9 10//10
f 8//8 9//9 4//4
f 32//32 27//27 33//33
f 33//33 24//24 32//32
f 33//33 27//27 25//25
f 25//25 24//24 33//33
f 23//23 30//30 31//31
f 31//31 24//24 23//23
f 23//23 24//24 18//18
f 23//23 18//18 60//60
f 60//60 30//30 23//23
f 4//4 50//50 36//36
f 37//37 36//36 50//50
f 37//37 31//31 35//35
f 4//4 32//32 53//53
f 53//53 45//45 4//4
f 32//32 31//31 53//53
f 18//18 26//26 12//12
f 13//13 1//1 12//12
f 14//14 13//13 12//12
f 12//12 26//26 14//14
f 60//60 18//18 12//12
f 12//12 1//1 60//60
f 46//46 35//35 60//60
f 46//46 47//47 35//35
f 21//21 42//42 22//22
f 58//58 42//42 21//21
f 35//35 57//57 48//48
f 29//29 40//40 41//41
f 5//5 10//10 2//2
f 2//2 1//1 5//5
f 5//5 14//14 4//4
f 4//4 10//10 5//5
f 9//9 8//8 15//15
f 15//15 41//41 21//21
f 44//44 37//37 39//39
f 4//4 44//44 39//39
f 4//4 36//36 19//19
f 36//36 37//37 19//19
f 19//19 6//6 4//4
f 11//11 22//22 42//42
f 11//11 17//17 2//2
f 2//2 22//22 11//11
f 16//16 10//10 9//9
f 21//21 22//22 16//16
f 2//2 10//10 16//16
f 16//16 22//22 2//2
f 16//16 15//15 21//21
f 9//9 15//15 16//16
f 57//57 47//47 56//56
f 56//56 58//58 57//57
f 47//47 46//46 56//56
f 42//42 58//58 43//43
f 17//17 11//11 43//43
f 43//43 11//11 42//42
f 51//51 48//48 57//57
f 51//51 58//58 21//21
f 57//57 58//58 51//51
f 21//21 41//41 51//51
f 51//51 41//41 48//48
f 35//35 48//48 49//49
f 48//48 41//41 49//49
f 49//49 40//40 35//35
f 49//49 41//41 40//40
f 14//14 5//5 3//3
f 3//3 5//5 1//1
f 3//3 13//13 14//14
f 3//3 1//1 13//13
f 7//7 15//15 8//8
f 7//7 8//8 4//4
f 4//4 6//6 7//7
f 38//38 37//37 50//50
f 38//38 39//39 37//37
f 38//38 50//50 4//4
f 4//4 39//39 38//38
f 45//45 54//54 34//34
f 44//44 45//45 34//34
f 34//34 37//37 44//44
f 31//31 37//37 34//34
f 45//45 53//53 52//52
f 52//52 54//54 45//45
f 52//52 53//53 31//31
f 6//6 19//19 28//28
f 28//28 19//19 37//37
f 35//35 29//29 28//28
f 28//28 37//37 35//35
f 55//55 43//43 58//58
f 17//17 43//43 55//55
f 55//55 1//1 17//17
f 41//41 15//15 20//20
f 15//15 7//7 20//20
f 29//29 41//41 20//20
f 20//20 28//28 29//29
f 20//20 7//7 6//6
f 6//6 28//28 20//20
f 58//58 56//56 59//59
f 59//59 55//55 58//58
f 59//59 56//56 46//46
f 59//59 46//46 60//60
f 60//60 1//1 59//59
f 1//1 55//55 59//59
f 52//52 34//34 54//54
f 31//31 34//34 52//52