# https://github.com/mikedh/trimesh
v 0.61378221 -0.22599564 -0.23638956
v 0.99648283 0.09477096 -0.23650601
v 0.84131586 0.09474042 -0.23649647
v 0.98835548 0.27993294 -0.35224829
v 0.97958186 0.33503634 -0.35218407
v 0.96546075 0.38923245 -0.35218407
v 0.94761977 0.44367048 -0.35218407
v 0.93247063 0.48053611 -0.35217643
v 0.76984610 0.48054317 -0.35218407
v 0.98885108 0.14499616 -0.36237718
v 0.99421681 0.20182040 -0.35467958
v 0.75180634 0.00761669 -1.23004774
v 0.74954743 0.04410341 -1.22560669
v 0.91629397 0.48054317 -0.37386085
v 0.29829543 -0.40595009 -0.33378569
v 0.77890733 -0.22520067 -0.23619754
v 0.96709843 -0.00559733 -0.23692184
v 0.30622475 0.48054317 -0.61426283
v 0.94958619 0.01630937 -0.45209034
v 0.75128157 -0.03139642 -1.22632052
v 0.67298715 0.14472655 -1.22680391
v -0.00350870 -0.44117754 -0.53264458
v -0.00350870 -0.50814839 -0.53264458
v 0.30622475 0.48054317 -0.71927052
v -0.00350870 -0.28429921 -1.04515642
v -0.00184365 -0.32980510 -0.86539116
v 0.63317098 -0.12261620 -1.23619755
v 0.51617326 0.24209264 -1.22858401
v 0.02879595 -0.39201397 -1.22454040
v 0.44463325 0.48054317 -0.66861385
v 0.30622475 0.31989046 -1.22747629
v -0.00349503 -0.28362677 -1.13314127
v 0.89690882 -0.09057012 -0.47353893
v 0.59433193 -0.20054156 -1.23456343
v 0.06403754 -0.35475412 -1.23540330
v 0.56814211 0.15972581 -1.23572096
v 0.59847077 0.19626776 -1.22815318
v 0.34978719 0.31166427 -1.22444260
v 0.08900023 -0.49401870 -0.53264458
v 0.29763244 -0.48717408 -0.33437024
v -0.00351721 -0.39325138 -1.23420790
v 0.12182489 -0.37003383 -1.22875787
v 0.34215153 -0.46227533 -0.40542189
v 0.58737348 0.48054317 -0.60868462
v 0.70773291 0.48054317 -0.54336064
v -0.00350870 -0.35446378 -1.23109726
v -0.00350870 -0.30556633 -1.17103347
v 0.70507347 -0.11419714 -1.20657133
v 0.80676524 -0.20248135 -0.44591518
v 0.67082123 -0.15076958 -1.22509247
v 0.30622435 0.29850314 -1.23481602
v 0.86241805 0.49185162 -0.40841978
v 0.22311364 -0.34814898 -1.20682712
v 0.29829543 -0.47050150 -0.43135572
v 0.31738458 -0.32165580 -1.20682712
v 0.40394719 -0.28876566 -1.23035064
v 0.45591048 -0.43325294 -0.33435225
v 0.51188084 -0.24891188 -1.21881447
v 0.70334697 -0.29760389 -0.37321131
vn -0.71621768 -0.01726897 0.69766326
vn 0.92897863 0.01829690 0.36968084
vn -0.62650305 0.07777873 0.77552846
vn 0.99985942 0.01247317 -0.01120502
vn 0.99977077 0.02124544 0.00265357
vn 0.99950417 0.02812946 0.01414769
vn 0.99892983 0.03537074 0.02980116
vn 0.91957136 0.26861023 0.28677005
vn -0.75094426 0.37380908 0.54437991
vn 0.99954112 -0.01008434 -0.02856325
vn 0.99977512 0.00291618 -0.02100472
vn 0.92813033 0.00329948 -0.37224078
vn 0.96213939 0.03635138 -0.27012290
vn 0.97995520 0.15727309 -0.12228234
vn -0.94554066 0.01702559 0.32505845
vn 0.90687992 -0.12120842 0.40358064
vn 0.93915656 -0.04376006 0.34069050
vn -0.95600151 0.26970021 0.11542490
vn 0.99915672 -0.02746594 -0.03052000
vn 0.96067211 -0.03514440 -0.27545230
vn 0.92509880 0.08129760 -0.37092171
vn -0.99339439 0.01437923 0.11384561
vn -0.91028750 -0.40621566 0.07978407
vn -0.89238306 0.42125445 -0.16185538
vn -0.99981323 0.01891507 0.00396566
vn -0.99963645 0.02371758 0.01282358
vn 0.43192594 -0.02415963 -0.90158543
vn 0.87198623 0.16127130 -0.46220297
vn 0.85037259 -0.46548986 -0.24532763
vn 0.65202700 0.71076612 -0.26395514
vn -0.73793326 0.40504466 -0.53980861
vn -0.99956420 0.02453006 -0.01642225
vn 0.99790598 -0.06011081 -0.02388201
vn 0.89560835 -0.13274763 -0.42457479
vn -0.00231442 -0.01537133 -0.99987918
vn 0.29530413 0.03240022 -0.95485376
vn 0.89747337 0.12634244 -0.42258625
vn 0.87469706 0.25374116 -0.41294125
vn 0.87409612 -0.46902115 -0.12639279
vn -0.22588311 -0.68163070 0.69595720
vn -0.82854135 -0.31843066 -0.46056611
vn 0.86272917 -0.30714155 -0.40169946
vn 0.96083486 -0.26515784 -0.08054621
vn 0.76034308 0.59986895 -0.24906955
vn 0.87389087 0.42939106 -0.22789926
vn -0.96856372 0.01746041 -0.24815209
vn -0.99934603 0.02179158 -0.02885547
vn 0.99642894 -0.06327490 -0.05590757
vn 0.99556627 -0.09184188 -0.02031907
vn 0.96639482 -0.08618519 -0.24218414
vn -0.70873479 0.10820002 -0.69712822
vn 0.83106712 0.55078260 -0.07723972
vn 0.94186460 -0.31034070 -0.12876228
vn 0.93601661 -0.33586681 -0.10519689
vn 0.94959793 -0.28568878 -0.12901816
vn 0.86924646 -0.22194518 -0.44175890
vn 0.96605857 -0.22098622 0.13377567
vn 0.97206227 -0.18964957 -0.13830398
vn 0.99035481 -0.13851663 -0.00323821
f 24//24 18//18 52//52
f 52//52 18//18 9//9
f 52//52 9//9 8//8
f 29//29 23//23 41//41
f 41//41 42//42 29//29
f 41//41 23//23 22//22
f 22//22 25//25 41//41
f 35//35 34//34 41//41
f 41//41 25//25 47//47
f 32//32 25//25 18//18
f 18//18 24//24 32//32
f 32//32 47//47 25//25
f 10//10 11//11 2//2
f 4//4 11//11 12//12
f 4//4 5//5 2//2
f 2//2 11//11 4//4
f 13//13 4//4 12//12
f 5//5 4//4 13//13
f 23//23 29//29 39//39
f 39//39 40//40 23//23
f 29//29 40//40 39//39
f 56//56 42//42 41//41
f 41//41 34//34 56//56
f 12//12 11//11 20//20
f 11//11 10//10 20//20
f 59//59 34//34 50//50
f 34//34 20//20 50//50
f 18//18 25//25 26//26
f 26//26 22//22 18//18
f 25//25 22//22 26//26
f 34//34 35//35 27//27
f 12//12 20//20 27//27
f 27//27 20//20 34//34
f 51//51 35//35 41//41
f 5//5 13//13 6//6
f 2//2 5//5 6//6
f 52//52 8//8 14//14
f 9//9 1//1 3//3
f 2//2 8//8 3//3
f 3//3 8//8 9//9
f 15//15 1//1 9//9
f 40//40 1//1 15//15
f 15//15 9//9 18//18
f 18//18 22//22 15//15
f 23//23 40//40 15//15
f 15//15 22//22 23//23
f 16//16 57//57 59//59
f 16//16 17//17 2//2
f 16//16 1//1 40//40
f 40//40 57//57 16//16
f 2//2 3//3 16//16
f 16//16 3//3 1//1
f 42//42 56//56 55//55
f 33//33 20//20 19//19
f 19//19 20//20 10//10
f 19//19 17//17 33//33
f 19//19 10//10 2//2
f 2//2 17//17 19//19
f 59//59 50//50 49//49
f 49//49 50//50 33//33
f 49//49 16//16 59//59
f 33//33 17//17 49//49
f 17//17 16//16 49//49
f 48//48 20//20 33//33
f 33//33 50//50 48//48
f 48//48 50//50 20//20
f 52//52 38//38 45//45
f 45//45 44//44 52//52
f 31//31 45//45 38//38
f 44//44 45//45 31//31
f 31//31 32//32 24//24
f 47//47 32//32 31//31
f 7//7 13//13 8//8
f 7//7 6//6 13//13
f 7//7 8//8 2//2
f 2//2 6//6 7//7
f 43//43 57//57 40//40
f 56//56 57//57 43//43
f 43//43 55//55 56//56
f 58//58 56//56 34//34
f 58//58 57//57 56//56
f 58//58 34//34 59//59
f 59//59 57//57 58//58
f 30//30 31//31 24//24
f 44//44 31//31 30//30
f 30//30 24//24 52//52
f 52//52 44//44 30//30
f 46//46 51//51 41//41
f 46//46 31//31 51//51
f 41//41 47//47 46//46
f 47//47 31//31 46//46
f 28//28 31//31 38//38
f 51//51 31//31 28//28
f 28//28 38//38 52//52
f 52//52 14//14 28//28
f 14//14 37//37 28//28
f 21//21 13//13 12//12
f 8//8 13//13 21//21
f 21//21 14//14 8//8
f 21//21 37//37 14//14
f 12//12 27//27 36//36
f 36//36 21//21 12//12
f 37//37 21//21 36//36
f 51//51 28//28 36//36
f 36//36 28//28 37//37
f 36//36 27//27 35//35
f 35//35 51//51 36//36
f 55//55 43//43 54//54
f 54//54 43//43 40//40
f 54//54 29//29 42//42
f 54//54 40//40 29//29
f 42//42 55//55 53//53
f 53//53 54//54 42//42
f 55//55 54//54 53//53