# https://github.com/mikedh/trimesh
v 1.29884756 0.29484451 0.27141378
v 1.15329897 0.29484451 0.23627286
v 1.21870661 -0.42492721 0.26098900
v 1.35553254 0.11811396 0.25071101
v 1.22197458 -0.52502016 0.24166267
v 1.29865206 -0.36821993 0.26868526
v 1.09228928 -0.41205313 0.21980358
v 1.01410304 -0.51923910 0.17881399
v 1.39604280 0.09288076 0.19587055
v 1.38045443 0.35337870 0.21192379
v 0.88923718 -0.51453086 0.05934450
v 1.35110345 -0.56921758 0.24399760
v 1.58627970 0.37733670 -0.08753295
v 1.43040200 0.38917475 0.09469960
v 0.97736772 0.34231307 0.14153788
v 0.90376882 0.35967163 0.02102228
v 0.88266464 -0.07135578 0.07167811
v 0.99450150 -0.02092002 0.17697250
v 1.51051561 -0.59168382 -0.72858508
v 1.34786534 -0.59127912 0.19918533
v 1.58381041 -0.54424443 -0.09140753
v 1.58950032 0.35204135 -0.08196184
v 1.65586540 0.36684125 -0.72858619
v 1.55025901 0.39003914 -0.17055223
v 1.70492730 0.29494610 -0.72858595
v 1.67756214 0.34692934 -0.72858619
v 1.45942253 0.40725362 -0.06991351
v 1.00909423 0.40544512 -0.00886344
v 0.77568389 0.32279965 -0.14812417
v 0.94513422 -0.22914916 0.14603451
v 0.92167226 -0.54797896 0.07079713
v 1.50907079 -0.59040213 -0.07001140
v 1.67726896 -0.52183841 -0.72858619
v 1.68535631 -0.50116632 -0.72848831
v 1.69446993 -0.46220075 -0.72858619
v 1.54034525 0.40489950 -0.72858619
v 1.69972058 -0.08302316 -0.72856811
v 1.26981144 0.40831622 0.21594639
v 0.77431562 0.32495755 -0.17974123
v 0.80466166 -0.02060737 -0.07138179
v 0.81287122 -0.47169079 -0.04945540
v 0.97952393 -0.58338270 0.02290658
v 1.56184653 -0.58559579 -0.71302239
v 1.62082823 -0.56509536 -0.72858619
v 0.83091818 0.37311435 -0.15397742
v 0.77499976 0.32397666 -0.21449066
v 0.70540882 -0.11706031 -0.30072221
v 0.70648908 -0.21688204 -0.26832777
v 0.70492733 -0.55250597 -0.30015321
v 1.09514795 -0.53370712 -0.72858619
v 1.17803089 -0.58946311 -0.72858379
v 1.04228326 -0.58792381 -0.72858102
v 1.40966432 0.40773183 -0.70098243
v 0.86459018 0.38048779 -0.24507992
v 1.07064145 0.24442714 -0.72858619
v 1.06595028 -0.10893586 -0.72858619
v 1.06184551 -0.46259311 -0.72858619
v 1.22360435 0.40750841 -0.72676985
v 1.12897805 0.37339236 -0.72857306
v 1.07936474 0.31832291 -0.72849967
vn 0.25215114 0.16573582 0.95338945
vn -0.59258551 0.16023460 0.78940946
vn -0.34921020 -0.07894515 0.93371296
vn 0.82951142 0.00230905 0.55848498
vn -0.41786214 -0.32025836 0.85019163
vn 0.29284749 -0.02106536 0.95592709
vn -0.64756166 -0.03049306 0.76140270
vn -0.72377095 -0.35373306 0.59247661
vn 0.94857442 -0.00181759 0.31654899
vn 0.82978522 0.27254296 0.48700804
vn -0.93080576 -0.14448585 0.33574467
vn 0.50434487 -0.46817707 0.72556632
vn 0.89495059 0.41746563 0.15743538
vn 0.73300194 0.62811305 0.26111712
vn -0.81545610 0.33857956 0.46946271
vn -0.85281240 0.43763040 0.28493972
vn -0.94423896 0.01472252 0.32893164
vn -0.78473664 0.01620543 0.61961745
vn 0.12357167 -0.69177832 -0.71145822
vn 0.32790117 -0.87861830 0.34714652
vn 0.95838755 -0.23517103 0.16182673
vn 0.97872161 0.04348603 0.20053171
vn 0.67255887 0.46681984 -0.57423323
vn 0.54578995 0.83753740 0.02538555
vn 0.86763435 0.07820268 -0.49101423
vn 0.81054375 0.24791632 -0.53061882
vn 0.31989240 0.94518535 0.06552493
vn -0.40928454 0.90154916 0.14033985
vn -0.96779229 0.19798851 0.15549480
vn -0.87281258 -0.01038673 0.48794500
vn -0.78729875 -0.49544456 0.36700867
vn 0.61213562 -0.78181638 0.11854586
vn 0.82187031 -0.25203402 -0.51088947
vn 0.86247019 -0.10452563 -0.49519649
vn 0.86094283 -0.03850461 -0.50724238
vn 0.29140536 0.68347248 -0.66928938
vn 0.99229160 -0.00542073 -0.12380632
vn 0.03334974 0.77853932 0.62670912
vn -0.97131344 0.23767306 0.00785666
vn -0.97176940 0.00909328 0.23575737
vn -0.96577480 -0.06130364 0.25203353
vn -0.42101229 -0.88708503 0.18928496
vn 0.50318382 -0.85292620 -0.13900700
vn 0.64153376 -0.48625132 -0.59329089
vn -0.77460420 0.62902184 0.06572572
vn -0.95937553 0.25235257 -0.12616169
vn -0.99216523 0.03280722 -0.12054813
vn -0.99271407 0.00201872 0.12047696
vn -0.91608393 -0.39722993 -0.05475957
vn -0.00006232 -0.00002731 -1.00000000
vn -0.01576304 -0.67809267 -0.73480736
vn -0.57509583 -0.51992037 -0.63162298
vn 0.02367118 0.99917847 -0.03289460
vn -0.69005766 0.71168001 -0.13165106
vn -0.66730548 0.02524164 -0.74435627
vn -0.00032008 0.00000168 -0.99999995
vn -0.00030579 -0.00000024 -0.99999995
vn -0.22127811 0.70083392 -0.67813554
vn -0.59677525 0.41795977 -0.68495907
vn -0.71843774 0.15700964 -0.67763943
f 22//22 21//21 25//25
f 12//12 20//20 32//32
f 32//32 21//21 12//12
f 32//32 20//20 19//19
f 42//42 31//31 49//49
f 20//20 31//31 42//42
f 49//49 52//52 42//42
f 42//42 52//52 20//20
f 1//1 3//3 6//6
f 6//6 3//3 12//12
f 25//25 21//21 37//37
f 37//37 35//35 25//25
f 21//21 35//35 37//37
f 21//21 32//32 44//44
f 12//12 21//21 9//9
f 21//21 22//22 9//9
f 22//22 10//10 9//9
f 59//59 36//36 55//55
f 59//59 55//55 60//60
f 25//25 35//35 26//26
f 19//19 20//20 51//51
f 20//20 52//52 51//51
f 36//36 59//59 58//58
f 49//49 31//31 11//11
f 11//11 41//41 49//49
f 12//12 3//3 5//5
f 21//21 44//44 33//33
f 43//43 32//32 19//19
f 19//19 44//44 43//43
f 43//43 44//44 32//32
f 13//13 10//10 22//22
f 13//13 22//22 25//25
f 25//25 26//26 13//13
f 1//1 10//10 38//38
f 12//12 9//9 4//4
f 4//4 9//9 10//10
f 4//4 10//10 1//1
f 1//1 6//6 4//4
f 4//4 6//6 12//12
f 50//50 51//51 52//52
f 50//50 44//44 19//19
f 19//19 51//51 50//50
f 27//27 36//36 53//53
f 36//36 58//58 53//53
f 53//53 38//38 27//27
f 58//58 38//38 53//53
f 17//17 29//29 40//40
f 40//40 41//41 17//17
f 17//17 11//11 30//30
f 41//41 11//11 17//17
f 40//40 29//29 48//48
f 49//49 41//41 48//48
f 48//48 41//41 40//40
f 39//39 29//29 45//45
f 8//8 11//11 31//31
f 30//30 11//11 8//8
f 12//12 5//5 8//8
f 3//3 7//7 8//8
f 8//8 5//5 3//3
f 8//8 20//20 12//12
f 8//8 31//31 20//20
f 34//34 33//33 35//35
f 34//34 35//35 21//21
f 21//21 33//33 34//34
f 36//36 13//13 23//23
f 23//23 13//13 26//26
f 24//24 36//36 27//27
f 27//27 13//13 24//24
f 24//24 13//13 36//36
f 28//28 38//38 58//58
f 14//14 13//13 27//27
f 27//27 38//38 14//14
f 10//10 13//13 14//14
f 14//14 38//38 10//10
f 57//57 50//50 52//52
f 1//1 38//38 2//2
f 2//2 3//3 1//1
f 2//2 7//7 3//3
f 46//46 59//59 60//60
f 46//46 39//39 45//45
f 47//47 48//48 29//29
f 29//29 39//39 47//47
f 39//39 46//46 47//47
f 47//47 46//46 60//60
f 60//60 55//55 47//47
f 49//49 48//48 47//47
f 47//47 52//52 49//49
f 55//55 52//52 47//47
f 45//45 28//28 54//54
f 54//54 28//28 58//58
f 54//54 58//58 59//59
f 54//54 46//46 45//45
f 59//59 46//46 54//54
f 56//56 52//52 55//55
f 56//56 57//57 52//52
f 7//7 2//2 18//18
f 30//30 8//8 18//18
f 18//18 8//8 7//7
f 38//38 28//28 15//15
f 15//15 2//2 38//38
f 15//15 18//18 2//2
f 29//29 17//17 15//15
f 15//15 17//17 30//30
f 30//30 18//18 15//15
f 16//16 28//28 45//45
f 16//16 15//15 28//28
f 45//45 29//29 16//16
f 29//29 15//15 16//16
f 35//35 33//33 56//56
f 55//55 36//36 56//56
f 56//56 26//26 35//35
f 36//36 23//23 56//56
f 56//56 33//33 44//44
f 44//44 50//50 56//56
f 56//56 23//23 26//26
f 50//50 57//57 56//56