# https://github.com/mikedh/trimesh
v 0.01313089 0.53766811 1.55276825
v 0.00362030 -0.37577025 1.89125686
v 0.01048361 0.21134226 1.63430700
v -0.04618767 -0.00035100 2.24433045
v -0.04618767 0.43595743 2.24433045
v 0.00362030 0.53796173 2.24423251
v 0.00362030 0.53796173 1.62902119
v 0.02842624 0.15476024 1.55276825
v 0.00362030 -0.41600407 1.91367270
v 0.00362030 -0.44468672 1.93109640
v 0.00362030 -0.46025188 1.99736494
v 0.00362030 -0.45819610 2.05276825
v 0.00362030 -0.45653196 2.09427173
v -0.04618767 0.05006369 2.55276825
v -0.04618767 0.43595743 2.55276825
v 0.88673147 0.01570336 1.55276825
v 0.05671286 0.07341119 1.55276825
v 0.22412842 -0.29980537 1.55276825
v 0.25824888 -0.34224188 1.55276825
v 0.34002026 -0.36089059 1.55276825
v 0.24138478 -0.46201381 2.11874318
v 0.24138478 -0.45134350 2.19969465
v 0.17226149 -0.44889607 2.19294052
v 0.28030947 -0.18762020 2.55276825
v 0.63494625 0.43595743 2.55276825
v 0.88879035 0.43595743 2.42806181
v 0.92837696 0.42151819 2.35489243
v 0.88369332 0.53796257 1.55276824
v 0.95381233 0.53798624 2.24381144
v 0.93835325 -0.11478776 2.05805406
v 0.88447633 -0.07778443 1.55276825
v 0.19106205 -0.44212932 1.93551957
v 0.48103664 -0.41640790 1.95401386
v 0.60683886 -0.41366086 2.13531031
v 0.33993140 -0.43401646 2.21995394
v 0.34002026 -0.32736222 2.38264300
v 0.38129812 -0.18463444 2.55276825
v 0.63212125 0.13287499 2.55276825
v 0.88830012 -0.02849532 2.42762139
v 0.92898973 0.01570336 2.36159760
v 0.94967769 -0.11478776 2.24012131
v 0.92251869 -0.24527913 2.11874318
v 0.87702475 -0.14356821 1.55276825
v 0.90805669 -0.11539962 1.78353375
v 0.53028253 -0.33481902 1.55277070
v 0.72077735 -0.35602032 2.24262968
v 0.52405484 -0.28617381 2.40251372
v 0.90859592 -0.17369485 2.32851214
v 0.89420752 -0.21596011 1.80749121
v 0.88310369 -0.31262937 1.98615702
v 0.82633436 -0.23314027 1.55276825
v 0.60249259 -0.07768640 2.55276825
v 0.86741613 -0.32491480 2.17867368
v 0.78706642 -0.36147782 1.99398787
v 0.78515453 -0.31184620 1.68755682
v 0.73358173 -0.29520437 1.55276825
v 0.81069581 -0.27846463 2.33311278
v 0.83256033 -0.17308305 2.42106303
v 0.51150478 -0.15543778 2.55276825
v 0.71404580 -0.31704674 1.63929307
vn -0.44717242 0.63401205 -0.63092436
vn -0.87934912 -0.25077458 -0.40479283
vn -0.97404621 -0.06653952 -0.21634804
vn -0.99485065 -0.08932371 -0.04789008
vn -0.93759722 0.34603113 -0.03426232
vn -0.34626865 0.93339339 0.09420620
vn -0.61136417 0.78523258 -0.09820213
vn -0.54562801 -0.10498372 -0.83142558
vn -0.83425603 -0.31396466 -0.45325828
vn -0.57224548 -0.76146400 -0.30447936
vn -0.52444954 -0.84792122 -0.07734521
vn -0.55388135 -0.83213679 0.02763731
vn -0.52817652 -0.81946970 0.22248364
vn -0.60662826 -0.24791676 0.75534061
vn -0.50897590 0.54661872 0.66494474
vn 0.58570367 -0.00734177 -0.81049202
vn -0.34875170 -0.22907802 -0.90878793
vn -0.29809681 -0.32580487 -0.89721206
vn -0.16255820 -0.57557464 -0.80142914
vn 0.01034394 -0.68265848 -0.73066436
vn 0.03443029 -0.99932130 0.01309528
vn 0.00040122 -0.94753465 0.31965283
vn -0.09996425 -0.91592965 0.38869015
vn -0.08582700 -0.50289067 0.86007831
vn 0.10908041 0.57986617 0.80737643
vn 0.45444125 0.45461777 0.76603253
vn 0.84822203 0.13013878 0.51340363
vn 0.44378879 0.64435875 -0.62277870
vn 0.60387612 0.77549008 0.18425191
vn 0.98132633 -0.14006600 -0.13183382
vn 0.58773773 -0.06726275 -0.80625063
vn 0.03542472 -0.98957846 -0.13956922
vn 0.08270561 -0.98958879 -0.11778711
vn 0.11503872 -0.98931743 0.08953833
vn 0.06337332 -0.93764554 0.34176697
vn 0.01113297 -0.84261436 0.53840236
vn 0.03171643 -0.48032224 0.87651846
vn 0.15584983 -0.01637753 0.98764498
vn 0.53950366 -0.17505133 0.82358535
vn 0.86142164 -0.08425396 0.50085331
vn 0.94889337 -0.26259795 0.17505341
vn 0.83626511 -0.54741375 0.03160467
vn 0.56149543 -0.28771329 -0.77585047
vn 0.96941572 -0.18209811 -0.16454008
vn 0.06257641 -0.67221422 -0.73770742
vn 0.13959864 -0.92797120 0.34551654
vn 0.08946373 -0.83100096 0.54902972
vn 0.67463826 -0.54168233 0.50144140
vn 0.85469587 -0.47920373 -0.19964656
vn 0.56046552 -0.82042320 -0.11306715
vn 0.35899910 -0.54031549 -0.76103799
vn 0.15897104 -0.19636589 0.96755808
vn 0.43544167 -0.87607820 0.20706893
vn 0.19658258 -0.97810172 -0.06835429
vn 0.27649999 -0.94022982 -0.19878544
vn 0.13801639 -0.66210713 -0.73659054
vn 0.27151237 -0.80665666 0.52496293
vn 0.35227171 -0.53294787 0.76933167
vn 0.08160667 -0.44617701 0.89121626
vn 0.10962784 -0.98049252 -0.16314458
f 29//29 28//28 7//7
f 7//7 6//6 29//29
f 5//5 7//7 4//4
f 29//29 6//6 25//25
f 1//1 7//7 28//28
f 15//15 25//25 6//6
f 18//18 17//17 28//28
f 28//28 19//19 18//18
f 28//28 56//56 20//20
f 20//20 19//19 28//28
f 28//28 17//17 8//8
f 8//8 1//1 28//28
f 13//13 12//12 21//21
f 13//13 14//14 4//4
f 4//4 12//12 13//13
f 13//13 24//24 14//14
f 13//13 23//23 24//24
f 10//10 18//18 19//19
f 19//19 20//20 10//10
f 53//53 54//54 50//50
f 34//34 54//54 53//53
f 54//54 34//34 33//33
f 33//33 34//34 21//21
f 58//58 52//52 59//59
f 39//39 52//52 58//58
f 29//29 25//25 26//26
f 25//25 39//39 26//26
f 16//16 28//28 29//29
f 16//16 31//31 28//28
f 22//22 13//13 21//21
f 23//23 13//13 22//22
f 21//21 34//34 22//22
f 22//22 34//34 35//35
f 17//17 18//18 9//9
f 18//18 10//10 9//9
f 9//9 8//8 17//17
f 9//9 10//10 4//4
f 32//32 33//33 21//21
f 20//20 33//33 32//32
f 55//55 50//50 54//54
f 54//54 33//33 55//55
f 30//30 16//16 29//29
f 31//31 16//16 30//30
f 46//46 34//34 53//53
f 35//35 34//34 46//46
f 45//45 20//20 56//56
f 45//45 33//33 20//20
f 38//38 39//39 25//25
f 38//38 52//52 39//39
f 39//39 58//58 48//48
f 29//29 26//26 27//27
f 36//36 22//22 35//35
f 36//36 37//37 24//24
f 24//24 23//23 36//36
f 23//23 22//22 36//36
f 8//8 9//9 2//2
f 2//2 9//9 4//4
f 11//11 10//10 20//20
f 20//20 32//32 11//11
f 11//11 32//32 21//21
f 21//21 12//12 11//11
f 11//11 12//12 4//4
f 4//4 10//10 11//11
f 50//50 55//55 51//51
f 51//51 55//55 56//56
f 51//51 56//56 28//28
f 53//53 50//50 42//42
f 42//42 48//48 53//53
f 57//57 46//46 53//53
f 53//53 48//48 57//57
f 57//57 48//48 58//58
f 57//57 58//58 59//59
f 60//60 55//55 33//33
f 33//33 45//45 60//60
f 56//56 55//55 60//60
f 60//60 45//45 56//56
f 29//29 27//27 40//40
f 39//39 48//48 40//40
f 40//40 26//26 39//39
f 40//40 27//27 26//26
f 4//4 7//7 3//3
f 3//3 2//2 4//4
f 7//7 1//1 3//3
f 1//1 8//8 3//3
f 8//8 2//2 3//3
f 50//50 51//51 43//43
f 28//28 31//31 43//43
f 43//43 51//51 28//28
f 59//59 37//37 47//47
f 47//47 57//57 59//59
f 37//37 36//36 47//47
f 46//46 57//57 47//47
f 35//35 46//46 47//47
f 47//47 36//36 35//35
f 48//48 42//42 41//41
f 41//41 40//40 48//48
f 41//41 42//42 30//30
f 41//41 30//30 29//29
f 29//29 40//40 41//41
f 49//49 42//42 50//50
f 50//50 43//43 49//49
f 30//30 42//42 49//49
f 30//30 49//49 44//44
f 44//44 49//49 43//43
f 31//31 30//30 44//44
f 44//44 43//43 31//31
f 7//7 5//5 15//15
f 6//6 7//7 15//15
f 15//15 5//5 4//4
f 4//4 14//14 15//15
f 25//25 15//15 38//38
f 38//38 37//37 59//59
f 14//14 24//24 38//38
f 38//38 15//15 14//14
f 24//24 37//37 38//38
f 59//59 52//52 38//38