# https://github.com/mikedh/trimesh
v 0.49999199 0.45632269 -0.01345439
v 0.29888765 0.45565742 0.82285888
v 0.49999682 -0.45630218 0.71140456
v -0.15268025 -0.45548852 0.84557364
v 0.25999780 -0.45620557 0.83043089
v -0.33108236 -0.45613471 -0.11018222
v 0.47861368 -0.45610646 -0.04378149
v 0.43208575 0.45985327 -0.07431063
v 0.25619954 -0.45552256 -0.12718407
v 0.14940748 0.44421049 -0.14028879
v 0.49999232 -0.45632245 -0.01063240
v -0.15643822 -0.46094587 -0.13960792
v -0.50000319 0.45610768 -0.01067335
v -0.46213373 0.45005172 -0.05835291
v -0.37840822 0.46123105 -0.09611634
v 0.34738496 0.45611894 -0.10699179
v -0.10375745 0.43228899 -0.14381092
v 0.49999424 0.45630004 0.70446125
v 0.25567099 0.49955074 0.79331478
v 0.04911306 0.49961243 0.81906600
v -0.22194299 0.49955391 -0.10303724
v -0.38820972 0.49959716 -0.01752326
v 0.38832024 0.49955352 -0.02026869
v 0.19306647 0.50031510 -0.10615909
v -0.38831820 0.49955179 0.72138298
v -0.25513593 0.49955103 0.79522333
v 0.38832019 0.49955107 0.72881488
v -0.49999412 0.45629836 0.71441684
v -0.46677713 0.45630463 0.75756633
v 0.46645523 0.45599430 0.75821810
v 0.10190376 0.45455161 0.84841310
v 0.19497758 0.45628534 0.83986614
v 0.49120788 0.45621700 0.73235573
v 0.40673842 0.45688089 0.79083447
v -0.03632781 0.45737562 0.85199388
v -0.34451253 0.45571364 0.81164705
v -0.42069061 0.45566415 0.78490463
v -0.17837026 0.45588004 0.84219085
v 0.01749787 0.45120670 -0.14753343
v 0.42396042 -0.45780960 0.78372390
v 0.17133040 -0.45676506 0.84239528
v -0.43708785 -0.44074161 -0.07341831
v -0.23527049 -0.45640474 -0.12983804
v -0.24410442 0.46033021 -0.12926907
v -0.49999432 -0.45630329 0.71209182
v -0.41320160 -0.45627529 0.78736851
v -0.27019123 -0.45767967 0.82861776
v 0.01465746 -0.46045157 0.85246662
v -0.47821986 -0.45672272 0.75075504
v 0.38828339 -0.49955633 0.76501817
v 0.48629896 -0.46331892 0.73963632
v -0.26816326 -0.49957471 0.79138659
v -0.38829126 -0.49955336 -0.03947554
v 0.38828969 -0.49955332 -0.06430648
v -0.38833166 -0.49955592 0.72325199
v 0.35923001 -0.45986043 -0.10273776
v -0.05249997 -0.45665892 -0.14611086
v 0.11513028 -0.45659404 -0.14373927
v -0.05250469 -0.49968491 -0.12271794
v -0.49999252 -0.45607487 -0.02073608
vn 0.93602837 0.34969819 -0.03952300
vn 0.81116116 0.49187768 0.31634464
vn 0.95145416 -0.30751087 0.01311677
vn -0.50435541 -0.71154250 0.48921661
vn 0.75451253 -0.55953148 0.34298012
vn -0.82353897 -0.50387348 -0.26056683
vn 0.95383669 -0.28493401 -0.09491145
vn 0.89590012 0.42053538 -0.14322350
vn 0.71720214 -0.58568745 -0.37761263
vn 0.64324464 0.55245231 -0.53012525
vn 0.93638467 -0.35037048 -0.02059793
vn -0.57150472 -0.66892716 -0.47530917
vn -0.93303766 0.35829029 -0.03269255
vn -0.93026628 0.34871697 -0.11402245
vn -0.86490490 0.45705812 -0.20745454
vn 0.84397649 0.45821317 -0.27882677
vn -0.56767700 0.33220815 -0.75324669
vn 0.93244191 0.36115150 0.01103040
vn 0.27710640 0.95606691 0.09564571
vn 0.04540249 0.99088487 0.12682974
vn -0.23394689 0.96447559 -0.12270164
vn -0.40260968 0.91495208 -0.02771519
vn 0.39739252 0.91725835 -0.02676400
vn 0.24070325 0.95890830 -0.15018928
vn -0.39030212 0.92036874 0.02419987
vn -0.28162977 0.95391933 0.10354996
vn 0.39843452 0.91674637 0.02874079
vn -0.93424632 0.35546953 0.02872674
vn -0.91648816 0.38718857 0.10067007
vn 0.91951898 0.37705419 0.11097295
vn 0.39363303 0.72148555 0.56965923
vn 0.63486278 0.63576543 0.43903481
vn 0.93446414 0.35240396 0.05087463
vn 0.88521041 0.42501931 0.18910611
vn -0.16951884 0.79649016 0.58040227
vn -0.84521577 0.45554144 0.27944999
vn -0.89316328 0.41746932 0.16726840
vn -0.61202850 0.64972047 0.45087075
vn 0.05861037 0.79827209 -0.59943849
vn 0.92566458 -0.32457473 0.19441277
vn 0.51476719 -0.73238682 0.44567285
vn -0.94137726 -0.29791842 -0.15828291
vn -0.73510843 -0.56955545 -0.36772570
vn -0.70975249 0.57474599 -0.40733089
vn -0.93387362 -0.35700771 0.02062893
vn -0.89051976 -0.41518793 0.18599337
vn -0.77591465 -0.53271237 0.33789643
vn 0.07885640 -0.85580771 0.51124831
vn -0.92149775 -0.37693930 0.09358767
vn 0.47304599 -0.87683575 0.08594512
vn 0.92933131 -0.36429959 0.06024215
vn -0.27790399 -0.95551335 0.09881093
vn -0.46337695 -0.88412753 -0.06000258
vn 0.55322912 -0.82777381 -0.09342409
vn -0.38868374 -0.92106185 0.02387508
vn 0.87690995 -0.41227723 -0.24709597
vn -0.15600283 -0.72180754 -0.67428258
vn 0.44735276 -0.72257847 -0.52702548
vn -0.05642478 -0.98632899 -0.15482687
vn -0.93651561 -0.34760449 -0.04593070
f 28//28 22//22 13//13
f 14//14 60//60 13//13
f 13//13 22//22 14//14
f 50//50 52//52 59//59
f 53//53 6//6 59//59
f 21//21 22//22 24//24
f 24//24 39//39 21//21
f 21//21 39//39 44//44
f 24//24 20//20 27//27
f 1//1 27//27 18//18
f 1//1 18//18 3//3
f 22//22 28//28 25//25
f 24//24 22//22 25//25
f 60//60 14//14 42//42
f 42//42 53//53 60//60
f 6//6 53//53 42//42
f 59//59 52//52 55//55
f 55//55 53//53 59//59
f 55//55 52//52 49//49
f 15//15 14//14 22//22
f 22//22 21//21 15//15
f 15//15 21//21 44//44
f 44//44 6//6 15//15
f 15//15 42//42 14//14
f 6//6 42//42 15//15
f 19//19 27//27 20//20
f 24//24 27//27 23//23
f 27//27 1//1 23//23
f 11//11 1//1 3//3
f 7//7 1//1 11//11
f 3//3 51//51 11//11
f 59//59 9//9 54//54
f 7//7 11//11 54//54
f 54//54 50//50 59//59
f 54//54 51//51 50//50
f 54//54 11//11 51//51
f 59//59 6//6 43//43
f 43//43 12//12 59//59
f 43//43 6//6 44//44
f 44//44 12//12 43//43
f 58//58 9//9 59//59
f 44//44 39//39 17//17
f 17//17 12//12 44//44
f 52//52 50//50 48//48
f 45//45 55//55 49//49
f 49//49 28//28 45//45
f 60//60 53//53 45//45
f 53//53 55//55 45//45
f 13//13 60//60 45//45
f 45//45 28//28 13//13
f 3//3 18//18 33//33
f 33//33 51//51 3//3
f 18//18 27//27 33//33
f 29//29 25//25 28//28
f 29//29 37//37 25//25
f 29//29 28//28 49//49
f 49//49 37//37 29//29
f 25//25 37//37 26//26
f 26//26 20//20 24//24
f 24//24 25//25 26//26
f 46//46 37//37 49//49
f 49//49 52//52 46//46
f 52//52 47//47 46//46
f 7//7 54//54 56//56
f 56//56 54//54 9//9
f 9//9 16//16 56//56
f 10//10 16//16 9//9
f 10//10 58//58 39//39
f 9//9 58//58 10//10
f 10//10 39//39 24//24
f 24//24 16//16 10//10
f 8//8 1//1 7//7
f 7//7 56//56 8//8
f 8//8 56//56 16//16
f 8//8 23//23 1//1
f 24//24 23//23 8//8
f 8//8 16//16 24//24
f 39//39 58//58 57//57
f 57//57 17//17 39//39
f 12//12 17//17 57//57
f 59//59 12//12 57//57
f 57//57 58//58 59//59
f 4//4 47//47 52//52
f 52//52 48//48 4//4
f 38//38 47//47 4//4
f 19//19 2//2 34//34
f 27//27 19//19 34//34
f 38//38 26//26 36//36
f 36//36 26//26 37//37
f 36//36 47//47 38//38
f 36//36 46//46 47//47
f 37//37 46//46 36//36
f 50//50 51//51 40//40
f 40//40 5//5 50//50
f 2//2 5//5 40//40
f 40//40 34//34 2//2
f 48//48 31//31 35//35
f 38//38 4//4 35//35
f 35//35 4//4 48//48
f 35//35 31//31 20//20
f 20//20 26//26 35//35
f 35//35 26//26 38//38
f 41//41 31//31 48//48
f 41//41 48//48 50//50
f 50//50 5//5 41//41
f 32//32 19//19 20//20
f 20//20 31//31 32//32
f 32//32 2//2 19//19
f 31//31 41//41 32//32
f 32//32 5//5 2//2
f 32//32 41//41 5//5
f 34//34 40//40 30//30
f 30//30 33//33 27//27
f 27//27 34//34 30//30
f 51//51 33//33 30//30
f 30//30 40//40 51//51