# https://github.com/mikedh/trimesh
v -0.46887256 0.45258361 -0.11280330
v -0.27449218 0.45258063 -0.27938361
v -0.46450146 -0.45309979 -0.12478801
v 0.05146713 -0.45235474 -0.33511589
v 0.48584204 -0.45473646 0.06946195
v -0.48584249 -0.45473633 0.06946106
v -0.49752252 -0.45319513 -0.00327206
v -0.37941145 -0.45269147 -0.21720640
v -0.27455029 -0.45263545 -0.27783270
v -0.14954431 -0.45251846 -0.31924115
v 0.25899079 -0.45325530 -0.28644428
v 0.41736700 -0.45299295 -0.18704318
v 0.49059382 -0.45231406 -0.06392546
v -0.13617377 -0.52713730 -0.11335298
v 0.16964492 -0.52777092 -0.09058156
v -0.17780768 -0.53196006 0.02589788
v 0.49753148 -0.45274440 0.00168398
v 0.13533470 -0.52697015 0.12736586
v -0.42946545 0.45256374 -0.16851125
v 0.04543517 0.45258567 -0.33304457
v 0.48519719 0.45369515 0.06635693
v -0.49750185 0.45226742 -0.00576659
v 0.48994312 0.45253758 -0.05797566
v 0.41827872 0.45260869 -0.18334892
v 0.32071659 0.45257784 -0.25474926
v 0.21135704 0.45258322 -0.30298666
v -0.09050475 0.45258233 -0.32785886
v -0.16519988 0.45257944 -0.31458255
v -0.37926786 0.45257137 -0.21585338
v -0.49144105 0.45288767 0.04906747
v -0.45519841 0.45262815 0.12771373
v 0.49752598 0.45252460 0.00032921
v 0.49994612 0.03378460 0.66487870
v 0.07881003 0.46118796 0.66487856
v -0.00000196 -0.46898081 0.65954709
v -0.16028445 -0.44353368 0.66412542
v -0.27367645 -0.39359378 0.66392376
v -0.36799814 -0.31656968 0.66485271
v -0.48616041 -0.11568973 0.65954682
v -0.49966124 0.03562936 0.66488409
v -0.47319470 0.16598193 0.65124393
v -0.30803224 0.36875962 0.65954733
v -0.12720742 0.45467733 0.65365062
v -0.00098696 0.46803996 0.64730219
v 0.45926251 0.18734369 0.65954840
v 0.49998769 -0.03839812 0.65937135
v 0.24298534 -0.43429753 0.57567304
v 0.48609440 -0.11278188 0.66487769
v 0.43842502 -0.23449222 0.65640495
v 0.34151762 -0.34429620 0.66391189
v 0.08175752 -0.46200721 0.66487215
v 0.48615600 0.11417513 0.65959580
v 0.41922633 0.25362435 0.66487772
v 0.34363638 0.34499378 0.65358294
v 0.21068485 0.42570268 0.66400825
v -0.23654704 0.41063968 0.66482686
v -0.39664164 0.28624942 0.66430424
v -0.50001229 -0.03490929 0.66487715
v -0.44213682 -0.22232288 0.66487644
v -0.08226166 -0.46238181 0.66147749
vn -0.73726109 0.65690771 -0.15785545
vn -0.48176876 0.73270199 -0.48067312
vn -0.79774818 -0.56762902 -0.20345796
vn 0.11407424 -0.70068315 -0.70429411
vn 0.70928282 -0.70177992 0.06650429
vn -0.71996263 -0.69059024 0.06883995
vn -0.82008834 -0.57071295 -0.04173542
vn -0.69305483 -0.60310496 -0.39489164
vn -0.53545752 -0.64774002 -0.54195767
vn -0.29026013 -0.68886168 -0.66424291
vn 0.50600699 -0.65013701 -0.56681460
vn 0.74357587 -0.57838491 -0.33550831
vn 0.81900939 -0.56044319 -0.12299208
vn -0.09951895 -0.99041815 -0.09574902
vn 0.12903762 -0.98920940 -0.06938344
vn -0.14257838 -0.98970801 0.01222506
vn 0.81100605 -0.58493086 -0.01118376
vn 0.12145123 -0.99168258 0.04260580
vn -0.67719274 0.68588392 -0.26640804
vn 0.09521840 0.78132339 -0.61682024
vn 0.62825914 0.77601348 0.05561949
vn -0.76059297 0.64789912 -0.04153397
vn 0.75063428 0.65042645 -0.11616198
vn 0.68663673 0.66892041 -0.28473758
vn 0.54496781 0.72127282 -0.42752264
vn 0.36639027 0.75392714 -0.54529994
vn -0.14259782 0.78818770 -0.59868690
vn -0.30749357 0.77240939 -0.55572605
vn -0.60977947 0.70466465 -0.36279020
vn -0.67940882 0.73263646 0.04058899
vn -0.41531536 0.90537615 0.08835819
vn 0.75965199 0.65013735 -0.01582023
vn 0.83572297 0.04888001 0.54697154
vn 0.11940434 0.80379624 0.58279861
vn -0.01381578 -0.93591808 0.35194670
vn -0.26934693 -0.75319684 0.60012228
vn -0.44859074 -0.66505877 0.59704537
vn -0.59425658 -0.50959718 0.62222973
vn -0.91616891 -0.22203242 0.33367069
vn -0.83494913 0.06548164 0.54641753
vn -0.89823198 0.29819230 0.32289420
vn -0.59952634 0.69275917 0.40081529
vn -0.19952662 0.90456679 0.37675993
vn -0.03433294 0.98726034 0.15536499
vn 0.85424336 0.31920869 0.41033413
vn 0.97195499 -0.06543177 0.22588088
vn 0.43030814 -0.89179844 0.13975137
vn 0.79762118 -0.18605187 0.57374660
vn 0.80429646 -0.41948387 0.42088061
vn 0.53739640 -0.58571966 0.60674343
vn 0.17563206 -0.78298734 0.59672791
vn 0.89332781 0.22056159 0.39155845
vn 0.67033965 0.41362366 0.61608459
vn 0.64068203 0.66529954 0.38327933
vn 0.34945299 0.72854779 0.58915255
vn -0.36989942 0.69092181 0.62112919
vn -0.65358776 0.45626661 0.60385746
vn -0.83624114 -0.04867016 0.54619774
vn -0.72389812 -0.34777454 0.59583923
vn -0.13671048 -0.86543871 0.48200217
f 44//44 19//19 1//1
f 48//48 17//17 46//46
f 22//22 7//7 58//58
f 1//1 7//7 22//22
f 40//40 22//22 58//58
f 56//56 40//40 34//34
f 57//57 40//40 56//56
f 58//58 7//7 39//39
f 44//44 1//1 30//30
f 1//1 22//22 30//30
f 30//30 31//31 44//44
f 22//22 40//40 30//30
f 27//27 20//20 4//4
f 44//44 20//20 27//27
f 29//29 19//19 44//44
f 44//44 2//2 29//29
f 44//44 34//34 21//21
f 21//21 23//23 44//44
f 54//54 53//53 21//21
f 43//43 34//34 44//44
f 43//43 56//56 34//34
f 44//44 31//31 43//43
f 31//31 56//56 43//43
f 42//42 56//56 31//31
f 57//57 56//56 42//42
f 31//31 30//30 42//42
f 42//42 30//30 57//57
f 8//8 29//29 2//2
f 19//19 29//29 8//8
f 7//7 16//16 6//6
f 6//6 39//39 7//7
f 35//35 16//16 18//18
f 48//48 50//50 49//49
f 60//60 16//16 35//35
f 60//60 6//6 16//16
f 41//41 40//40 57//57
f 57//57 30//30 41//41
f 41//41 30//30 40//40
f 28//28 2//2 44//44
f 44//44 27//27 28//28
f 34//34 53//53 55//55
f 55//55 53//53 54//54
f 55//55 21//21 34//34
f 54//54 21//21 55//55
f 34//34 40//40 33//33
f 33//33 53//53 34//34
f 33//33 40//40 48//48
f 33//33 48//48 46//46
f 26//26 20//20 44//44
f 44//44 25//25 26//26
f 4//4 20//20 26//26
f 44//44 23//23 24//24
f 24//24 25//25 44//44
f 25//25 24//24 12//12
f 4//4 14//14 10//10
f 10//10 27//27 4//4
f 10//10 28//28 27//27
f 2//2 28//28 10//10
f 8//8 14//14 3//3
f 3//3 7//7 1//1
f 3//3 16//16 7//7
f 3//3 14//14 16//16
f 3//3 1//1 19//19
f 19//19 8//8 3//3
f 16//16 14//14 15//15
f 15//15 18//18 16//16
f 15//15 14//14 4//4
f 35//35 18//18 51//51
f 51//51 47//47 50//50
f 51//51 60//60 35//35
f 51//51 50//50 48//48
f 48//48 40//40 51//51
f 5//5 15//15 17//17
f 18//18 15//15 5//5
f 50//50 47//47 5//5
f 5//5 51//51 18//18
f 47//47 51//51 5//5
f 5//5 49//49 50//50
f 17//17 48//48 5//5
f 48//48 49//49 5//5
f 53//53 33//33 52//52
f 23//23 21//21 32//32
f 21//21 52//52 32//32
f 32//32 52//52 33//33
f 46//46 17//17 32//32
f 32//32 33//33 46//46
f 9//9 14//14 8//8
f 9//9 10//10 14//14
f 9//9 8//8 2//2
f 2//2 10//10 9//9
f 11//11 15//15 4//4
f 12//12 15//15 11//11
f 4//4 26//26 11//11
f 11//11 26//26 25//25
f 25//25 12//12 11//11
f 17//17 15//15 13//13
f 13//13 15//15 12//12
f 13//13 32//32 17//17
f 23//23 32//32 13//13
f 13//13 24//24 23//23
f 13//13 12//12 24//24
f 60//60 51//51 36//36
f 36//36 51//51 38//38
f 6//6 60//60 36//36
f 59//59 40//40 58//58
f 59//59 51//51 40//40
f 38//38 51//51 59//59
f 58//58 39//39 59//59
f 39//39 6//6 59//59
f 6//6 38//38 59//59
f 45//45 21//21 53//53
f 53//53 52//52 45//45
f 45//45 52//52 21//21
f 37//37 38//38 6//6
f 6//6 36//36 37//37
f 37//37 36//36 38//38