# https://github.com/mikedh/trimesh
v 0.26791230 0.50004536 6.42028483
v 0.33153798 0.50004536 6.43594654
v 0.33134222 -0.49995462 6.43594654
v 0.26781441 -0.49995462 6.42048056
v -0.26810964 -0.49995462 6.42048056
v -0.26801176 0.50004536 6.42038278
v 0.38508144 0.50004536 6.51611489
v 0.38498355 -0.49995462 6.51591916
v -0.33173533 -0.49995462 6.43614226
v -0.33153956 0.50004536 6.43594654
v 0.43940801 0.50004536 6.61135759
v 0.43921219 -0.49995462 6.61116187
v -0.38518090 0.50004536 6.51611489
v -0.38518090 -0.49995462 6.51611489
v 0.47386372 0.50004536 6.73645550
v 0.47494047 0.30016282 6.73645550
v 0.47503833 -0.00024829 6.73645550
v 0.47503833 -0.30026786 6.73645550
v 0.47366800 -0.49995462 6.73616183
v -0.43940954 0.50004536 6.61135759
v -0.43950750 -0.49995462 6.61155349
v 0.49872666 0.50004536 6.92674536
v 0.49999923 0.30016282 6.92674536
v 0.49999923 -0.30026786 6.92674536
v 0.49872666 -0.49995462 6.92625596
v -0.47503996 0.30016282 6.73645550
v -0.47386535 0.50004536 6.73645550
v -0.47396321 -0.49995462 6.73645550
v -0.47503996 -0.30026786 6.73645550
v 0.49999923 0.30016282 7.11732872
v 0.49999923 -0.30026786 7.11732872
v 0.49716052 -0.49995462 7.11683932
v -0.50000076 0.30016282 6.92674536
v -0.49882615 0.50004536 6.92674536
v -0.49882615 -0.49995462 6.92674536
v -0.49990290 -0.30026786 6.92674536
v -0.50000076 -0.00024829 6.92674536
v 0.49716037 0.50004536 7.11734272
v 0.47141665 0.30016282 7.24869142
v 0.46427095 -0.30026786 7.28040628
v 0.46172592 -0.49995462 7.27570782
v -0.50000076 0.30016282 7.11723077
v -0.49990290 -0.30026786 7.11723077
v -0.50000076 -0.00024829 7.11723077
v 0.46162806 0.50004536 7.27727397
v 0.46427095 0.30016282 7.28128730
v 0.40994440 0.50004536 7.42028487
v 0.40896552 -0.49995462 7.42028487
v -0.47132032 0.30016282 7.24869142
v -0.46427249 0.30016282 7.28040628
v -0.49725991 0.50004536 7.11723856
v -0.49725993 -0.49995462 7.11723755
v -0.47073297 -0.33903059 7.24859330
v -0.47122236 -0.30026786 7.24869142
v -0.47132032 -0.00024829 7.24869142
v -0.40886919 0.50004536 7.42028487
v -0.40877133 -0.49995462 7.42028487
v -0.46427249 -0.30026786 7.28040628
v -0.46162960 0.50004536 7.27609927
v -0.46162960 -0.49995462 7.27609927
vn 0.02725172 0.71017749 -0.70349504
vn 0.17584827 0.69008995 -0.70203507
vn 0.17506829 -0.69005141 -0.70226786
vn 0.02697186 -0.71044918 -0.70323145
vn -0.02728124 -0.71028142 -0.70338897
vn -0.02716755 0.71027027 -0.70340462
vn 0.28730255 0.77711570 -0.55995395
vn 0.28722936 -0.77678459 -0.56045071
vn -0.17580285 -0.69014312 -0.70199419
vn -0.17550787 0.69003660 -0.70217268
vn 0.37707328 0.78919909 -0.48474791
vn 0.37680790 -0.78943771 -0.48456570
vn -0.28740427 0.77695055 -0.56013090
vn -0.28750674 -0.77703686 -0.55995856
vn 0.45186735 0.84491829 -0.28623238
vn 0.84117875 0.00626737 -0.54072085
vn 0.83984274 0.00013666 -0.54282976
vn 0.84052636 -0.00685406 -0.54172730
vn 0.45098259 -0.84531581 -0.28645397
vn -0.37705296 0.78937219 -0.48448179
vn -0.37705754 -0.78935745 -0.48450224
vn 0.48880521 0.86704803 -0.09642184
vn 0.97965482 0.01063866 -0.20040771
vn 0.97973233 -0.01061531 -0.20002967
vn 0.48894136 -0.86687993 -0.09723958
vn -0.84099900 0.00621234 -0.54100100
vn -0.45164225 0.84508237 -0.28610323
vn -0.45208735 -0.84479326 -0.28625404
vn -0.84132311 -0.00581570 -0.54050124
vn 0.94816070 0.02008502 0.31715592
vn 0.94750710 -0.02076308 0.31905985
vn 0.48667356 -0.85674272 0.17070662
vn -0.97970486 0.01003768 -0.20019400
vn -0.48919530 0.86677786 -0.09687154
vn -0.48947026 -0.86665974 -0.09653892
vn -0.97985495 -0.00976969 -0.19947136
vn -0.97976791 -0.00038748 -0.20013668
vn 0.48674612 0.85679064 0.17025868
vn 0.82268260 0.02116618 0.56810679
vn 0.72737235 -0.01802881 0.68600614
vn 0.40776324 -0.83328051 0.37332657
vn -0.94793375 0.01927611 0.31788370
vn -0.94793132 -0.01902344 0.31790616
vn -0.94892428 -0.00053985 0.31550343
vn 0.40851637 0.83369201 0.37158042
vn 0.72867050 0.01604091 0.68467656
vn 0.21510012 0.66630921 0.71397757
vn 0.21374752 -0.66668100 0.71403672
vn -0.82025891 0.02227051 0.57155870
vn -0.72469461 0.01742442 0.68884984
vn -0.48703640 0.85639325 0.17142387
vn -0.48733761 -0.85624364 0.17131516
vn -0.81840394 -0.04470044 0.57290214
vn -0.82267856 -0.01937687 0.56817648
vn -0.82102916 -0.00025160 0.57088620
vn -0.21358800 0.66650715 0.71424673
vn -0.21337308 -0.66653621 0.71428384
vn -0.72574008 -0.01662497 0.68776809
vn -0.40725788 0.83302753 0.37444113
vn -0.40713782 -0.83292613 0.37479708
f 23//23 22//22 30//30
f 52//52 48//48 57//57
f 38//38 30//30 22//22
f 38//38 56//56 47//47
f 5//5 4//4 52//52
f 52//52 9//9 5//5
f 52//52 19//19 25//25
f 18//18 25//25 19//19
f 58//58 57//57 56//56
f 51//51 59//59 56//56
f 56//56 38//38 51//51
f 47//47 46//46 45//45
f 45//45 38//38 47//47
f 46//46 38//38 45//45
f 30//30 38//38 39//39
f 39//39 38//38 46//46
f 35//35 28//28 52//52
f 20//20 51//51 38//38
f 52//52 28//28 21//21
f 30//30 39//39 31//31
f 41//41 48//48 52//52
f 25//25 18//18 24//24
f 24//24 31//31 25//25
f 4//4 5//5 1//1
f 43//43 35//35 52//52
f 59//59 51//51 50//50
f 56//56 59//59 50//50
f 50//50 58//58 56//56
f 52//52 57//57 60//60
f 57//57 58//58 60//60
f 51//51 20//20 27//27
f 14//14 9//9 52//52
f 52//52 21//21 14//14
f 14//14 21//21 20//20
f 25//25 31//31 32//32
f 52//52 25//25 32//32
f 32//32 41//41 52//52
f 40//40 39//39 46//46
f 40//40 31//31 39//39
f 48//48 41//41 40//40
f 40//40 32//32 31//31
f 41//41 32//32 40//40
f 47//47 48//48 40//40
f 40//40 46//46 47//47
f 15//15 22//22 23//23
f 15//15 38//38 22//22
f 10//10 5//5 9//9
f 12//12 18//18 19//19
f 12//12 19//19 52//52
f 52//52 8//8 12//12
f 52//52 4//4 3//3
f 3//3 8//8 52//52
f 4//4 1//1 3//3
f 53//53 43//43 52//52
f 52//52 60//60 53//53
f 53//53 60//60 58//58
f 35//35 43//43 36//36
f 26//26 27//27 20//20
f 20//20 21//21 26//26
f 51//51 27//27 34//34
f 33//33 42//42 34//34
f 42//42 51//51 34//34
f 16//16 15//15 23//23
f 9//9 14//14 13//13
f 13//13 10//10 9//9
f 13//13 14//14 20//20
f 13//13 20//20 38//38
f 38//38 10//10 13//13
f 6//6 1//1 5//5
f 5//5 10//10 6//6
f 38//38 1//1 6//6
f 6//6 10//10 38//38
f 54//54 53//53 58//58
f 43//43 53//53 54//54
f 29//29 21//21 28//28
f 29//29 26//26 21//21
f 17//17 16//16 23//23
f 15//15 16//16 11//11
f 16//16 17//17 11//11
f 38//38 15//15 11//11
f 11//11 7//7 38//38
f 11//11 12//12 8//8
f 8//8 7//7 11//11
f 11//11 17//17 18//18
f 18//18 12//12 11//11
f 2//2 3//3 1//1
f 2//2 1//1 38//38
f 38//38 7//7 2//2
f 8//8 3//3 2//2
f 2//2 7//7 8//8
f 49//49 51//51 42//42
f 49//49 50//50 51//51
f 37//37 29//29 36//36
f 55//55 44//44 43//43
f 43//43 54//54 55//55
f 55//55 54//54 58//58
f 47//47 56//56 57//57
f 57//57 48//48 47//47
f 30//30 31//31 24//24
f 23//23 30//30 24//24
f 27//27 26//26 34//34
f 34//34 26//26 33//33
f 35//35 36//36 29//29
f 28//28 35//35 29//29
f 23//23 24//24 17//17
f 17//17 24//24 18//18
f 33//33 26//26 37//37
f 26//26 29//29 37//37
f 37//37 42//42 33//33
f 37//37 44//44 42//42
f 43//43 44//44 37//37
f 37//37 36//36 43//43
f 42//42 44//44 55//55
f 55//55 49//49 42//42
f 58//58 50//50 55//55
f 50//50 49//49 55//55