# https://github.com/mikedh/trimesh
v -0.00167053 0.49998947 2.58709885
v -0.41628615 0.49986880 2.92530516
v 0.12138121 0.49988654 3.49764317
v 0.43217876 0.49992234 3.19299145
v 0.22501306 0.49408643 2.61514966
v -0.32986460 0.49989560 3.39442635
v 0.39382650 0.49966089 2.89165584
v 0.49831585 0.47319658 3.13314377
v -0.22629770 0.49350941 2.61508865
v 0.31273360 0.45907732 2.61515165
v -0.28267724 0.47854774 2.61514967
v -0.48693297 0.47225291 3.19358115
v -0.50112645 0.43228283 3.11201467
v 0.00427885 0.41371686 3.58709888
v 0.11926341 0.47273438 3.56804893
v 0.49879747 0.42764152 3.00484026
v -0.31289050 0.42414010 2.61514960
v -0.47116547 0.47557937 2.88883349
v -0.49311559 0.47088319 2.97566084
v -0.32239574 0.42970346 3.46478687
v -0.24542930 0.47117712 3.51784085
v -0.10780706 0.47406511 3.57221715
v 0.20208952 0.47397383 3.54227697
v 0.29900887 0.43126917 3.48465340
v 0.47581574 0.43986304 3.24318277
v 0.46047140 0.46480402 2.85557280
v -0.49511472 -0.44396633 3.16248326
v -0.18023354 0.42792761 3.55219161
v 0.19316890 -0.41454610 3.54889024
v 0.39625287 0.47219022 3.39010353
v 0.46143580 -0.46708461 3.27899994
v -0.44647714 0.43741963 2.83441939
v -0.46254253 -0.49983553 3.00676181
v -0.50120250 -0.42816284 3.02874313
v -0.38974281 0.47383097 3.39714236
v -0.46190719 0.42541653 3.27811046
v 0.00387073 -0.42254687 3.58546940
v 0.10298176 -0.47255848 3.57365697
v 0.40888859 -0.43113491 3.36840476
v 0.46282979 -0.47150586 2.85821728
v 0.31285384 -0.42428951 2.61514957
v -0.46109410 -0.45990723 2.86405498
v -0.46428782 -0.49481418 3.19345256
v -0.41812191 -0.40237627 2.78494951
v -0.31286018 -0.41636157 2.61514975
v -0.46133449 -0.42734538 3.27820991
v 0.49776207 -0.43108482 3.00153493
v -0.36822214 -0.49375403 3.38464742
v -0.28594787 -0.47933463 2.61516291
v -0.19029050 -0.42431556 3.54813561
v -0.28341018 -0.45745728 3.49503594
v 0.33762906 -0.48741061 3.45110876
v 0.49602658 -0.43109363 3.14786807
v 0.28265337 -0.47856251 2.61514967
v -0.19606536 -0.49988919 2.61515105
v 0.07506619 -0.50001053 3.50730889
v -0.10071039 -0.48277683 3.57386558
v -0.38576834 -0.43347850 3.40246133
v 0.46543195 -0.49991273 3.02444999
v 0.22194452 -0.49486875 2.61514987
vn -0.00079460 0.68332434 -0.73011453
vn -0.19555611 0.97912794 -0.05537403
vn 0.05050449 0.97917038 0.19665877
vn 0.27491752 0.95666977 0.09593389
vn 0.15105801 0.79615108 -0.58593936
vn -0.20037127 0.95682967 0.21054297
vn 0.21857514 0.97155320 -0.09115529
vn 0.82310983 0.56365339 0.06917411
vn -0.12421488 0.84092716 -0.52669932
vn 0.50077284 0.43882878 -0.74609374
vn -0.36264175 0.59326697 -0.71869692
vn -0.76812912 0.61276294 0.18573969
vn -0.99187252 0.11647316 0.05121428
vn 0.01534703 0.09481663 0.99537645
vn 0.15237231 0.55306656 0.81908489
vn 0.97703065 0.16569010 -0.13400709
vn -0.54235426 0.14391711 -0.82773167
vn -0.76330554 0.57035930 -0.30340552
vn -0.82543428 0.55483140 -0.10402099
vn -0.62156210 0.07377800 0.77988292
vn -0.40001759 0.55376772 0.73029257
vn -0.15005412 0.61005990 0.77801714
vn 0.34885655 0.57440295 0.74051358
vn 0.58800944 0.13067388 0.79822881
vn 0.90675826 0.22791022 0.35474834
vn 0.77882217 0.52703994 -0.34009548
vn -0.95584385 -0.25680429 0.14287788
vn -0.35316913 0.05752716 0.93378916
vn 0.40400056 -0.10542147 0.90866378
vn 0.62483575 0.58833013 0.51327180
vn 0.77537171 -0.54151985 0.32489225
vn -0.85951767 0.08648978 -0.50373495
vn -0.52538589 -0.84816383 -0.06773309
vn -0.97207836 -0.21772937 -0.08750765
vn -0.67007626 0.52198558 0.52775833
vn -0.89961172 0.10501864 0.42387480
vn 0.00538451 -0.07183990 0.99740164
vn 0.17450067 -0.54993499 0.81677477
vn 0.80118178 -0.07827844 0.59327922
vn 0.75642291 -0.55559666 -0.34516189
vn 0.51785898 -0.13811075 -0.84424375
vn -0.80753382 -0.46997745 -0.35638507
vn -0.57169774 -0.80297617 0.16849619
vn -0.84974359 -0.03292146 -0.52616729
vn -0.52041796 -0.11292787 -0.84641151
vn -0.88237824 -0.20845697 0.42184633
vn 0.97359654 -0.20785204 -0.09437854
vn -0.45964345 -0.80554263 0.37393712
vn -0.34578299 -0.58159173 -0.73633225
vn -0.38052251 -0.08959926 0.92042088
vn -0.50749872 -0.41082904 0.75740646
vn 0.49596969 -0.65489028 0.57020416
vn 0.96293226 -0.24300921 0.11708107
vn 0.32442570 -0.58190896 -0.74574119
vn -0.04775658 -0.71798157 -0.69442190
vn 0.03690169 -0.98066725 0.19217180
vn -0.15795332 -0.63558323 0.75570147
vn -0.75466021 -0.18530469 0.62940459
vn 0.53549720 -0.84431738 -0.01925909
vn 0.06613637 -0.71145878 -0.69960873
f 34//34 33//33 27//27
f 48//48 33//33 56//56
f 30//30 31//31 25//25
f 43//43 27//27 33//33
f 33//33 48//48 43//43
f 27//27 43//43 46//46
f 46//46 43//43 48//48
f 56//56 59//59 52//52
f 52//52 59//59 31//31
f 40//40 59//59 54//54
f 47//47 59//59 40//40
f 54//54 41//41 40//40
f 40//40 41//41 10//10
f 16//16 47//47 40//40
f 33//33 49//49 55//55
f 56//56 33//33 55//55
f 55//55 59//59 56//56
f 30//30 25//25 8//8
f 8//8 47//47 16//16
f 34//34 27//27 13//13
f 30//30 8//8 4//4
f 57//57 50//50 51//51
f 57//57 28//28 50//50
f 57//57 48//48 56//56
f 51//51 48//48 57//57
f 57//57 37//37 14//14
f 14//14 37//37 38//38
f 37//37 57//57 38//38
f 38//38 52//52 29//29
f 56//56 52//52 38//38
f 38//38 57//57 56//56
f 51//51 20//20 58//58
f 58//58 48//48 51//51
f 58//58 46//46 48//48
f 42//42 49//49 33//33
f 42//42 45//45 49//49
f 42//42 33//33 34//34
f 39//39 31//31 30//30
f 30//30 52//52 39//39
f 39//39 52//52 31//31
f 16//16 40//40 26//26
f 26//26 40//40 10//10
f 26//26 8//8 16//16
f 10//10 5//5 26//26
f 54//54 59//59 60//60
f 59//59 55//55 60//60
f 53//53 25//25 31//31
f 53//53 8//8 25//25
f 47//47 8//8 53//53
f 31//31 59//59 53//53
f 53//53 59//59 47//47
f 29//29 52//52 24//24
f 24//24 23//23 29//29
f 24//24 52//52 30//30
f 30//30 23//23 24//24
f 14//14 38//38 15//15
f 29//29 23//23 15//15
f 15//15 38//38 29//29
f 44//44 42//42 32//32
f 45//45 42//42 44//44
f 32//32 17//17 44//44
f 44//44 17//17 45//45
f 12//12 13//13 27//27
f 12//12 46//46 36//36
f 27//27 46//46 12//12
f 21//21 20//20 51//51
f 51//51 50//50 21//21
f 50//50 28//28 21//21
f 30//30 4//4 3//3
f 3//3 23//23 30//30
f 3//3 15//15 23//23
f 35//35 12//12 36//36
f 6//6 12//12 35//35
f 35//35 58//58 20//20
f 20//20 21//21 35//35
f 35//35 21//21 6//6
f 36//36 46//46 35//35
f 46//46 58//58 35//35
f 13//13 12//12 19//19
f 34//34 13//13 19//19
f 19//19 42//42 34//34
f 22//22 21//21 28//28
f 22//22 57//57 14//14
f 28//28 57//57 22//22
f 14//14 15//15 22//22
f 15//15 3//3 22//22
f 6//6 21//21 22//22
f 22//22 3//3 6//6
f 1//1 3//3 4//4
f 6//6 3//3 1//1
f 1//1 5//5 10//10
f 10//10 41//41 1//1
f 1//1 41//41 54//54
f 54//54 60//60 1//1
f 1//1 60//60 55//55
f 49//49 45//45 1//1
f 1//1 55//55 49//49
f 45//45 17//17 1//1
f 1//1 17//17 11//11
f 11//11 9//9 1//1
f 32//32 42//42 18//18
f 42//42 19//19 18//18
f 11//11 17//17 18//18
f 18//18 17//17 32//32
f 5//5 1//1 7//7
f 7//7 1//1 4//4
f 7//7 26//26 5//5
f 7//7 4//4 8//8
f 8//8 26//26 7//7
f 2//2 9//9 11//11
f 11//11 18//18 2//2
f 6//6 1//1 2//2
f 2//2 1//1 9//9
f 2//2 12//12 6//6
f 2//2 19//19 12//12
f 2//2 18//18 19//19