# https://github.com/mikedh/trimesh
v 0.50002089 -1.08933201 1.83995081
v 0.49845468 -0.89148573 1.83995081
v 0.49776951 -1.20298842 1.83995081
v 0.48866614 -1.08923407 0.83995081
v 0.48758939 -0.49481416 1.71739798
v 0.48602323 -0.49481416 1.76467675
v 0.47094881 -0.68336041 1.83995081
v 0.48758939 -0.97508826 0.83995081
v 0.48651263 -0.89148573 0.83995081
v 0.49326676 -1.29217095 1.83995081
v 0.47887756 -1.28737408 0.83995081
v 0.46732705 -0.75932710 0.83995081
v 0.45401461 -0.69471629 0.83995081
v 0.40888932 -0.48316461 0.83995081
v 0.45137169 -0.49481416 1.80402672
v 0.39978595 -0.49481416 1.83995081
v 0.45156746 -1.42618955 1.83995081
v 0.44403026 -1.42119689 0.83995081
v -0.40894539 -0.48316461 0.83995081
v 0.35808666 -0.48316461 0.85571038
v -0.39974417 -0.49481416 1.83995081
v 0.36670060 -1.46945926 1.83995081
v 0.36660272 -1.45594970 0.83995081
v -0.40718347 -0.48316461 0.84053811
v -0.45407068 -0.69471629 0.83995081
v -0.48754760 -0.49481416 1.71749584
v -0.48598144 -0.49481416 1.76477462
v -0.45132991 -0.49481416 1.80412472
v -0.35804487 -0.48316461 0.85571038
v -0.47090703 -0.68336041 1.83995081
v 0.26196294 -1.47729089 1.83995081
v 0.26186506 -1.45594970 0.83995081
v 0.15712738 -1.48238139 1.83995081
v 0.05238972 -1.48316461 1.83995081
v -0.48656875 -0.89148573 0.83995081
v -0.49831503 -0.89148573 1.83995081
v -0.48392584 -0.77127032 1.83995081
v 0.20146958 -1.44224445 0.83995081
v 0.00932003 -1.48316461 1.83995081
v -0.05225005 -1.48306676 1.83995081
v -0.15708560 -1.48218570 1.83995081
v -0.26182327 -1.47621404 1.83995081
v -0.30479507 -1.47317929 1.83995081
v -0.36665881 -1.46857820 1.83995081
v -0.49997910 -1.08933201 1.83995081
v -0.49909811 -0.96490716 1.83995081
v -0.46728526 -1.08923407 0.83995081
v -0.49322497 -1.29177939 1.83995081
v 0.15712738 -1.43216120 0.83995081
v -0.39837378 -1.45320867 1.83995081
v -0.44408638 -1.42119689 1.76477462
v -0.36665881 -1.44899914 1.71749584
v -0.43243796 -1.21150532 0.83995081
v -0.47766116 -1.35208283 1.83995081
v -0.36665881 -1.26045289 0.83995081
v -0.45152568 -1.42618955 1.83995081
vn 0.91472809 -0.01941913 0.40360306
vn 0.90714469 0.12838062 0.40075794
vn 0.90888106 -0.11484101 0.40093236
vn 0.91393496 -0.06431008 -0.40073320
vn 0.47250795 0.88132637 -0.00027780
vn 0.44890622 0.89332642 0.02123932
vn 0.73703874 0.51887291 0.43306443
vn 0.91050493 0.03622194 -0.41190865
vn 0.89283963 0.23533611 -0.38399779
vn 0.80436675 -0.49111409 0.33436668
vn 0.82623157 -0.44122489 -0.35023133
vn 0.78787141 0.48932219 -0.37392840
vn 0.74299925 0.55631769 -0.37210582
vn 0.32185692 0.92496634 -0.20210244
vn 0.29527765 0.95330865 0.06335405
vn 0.16438016 0.95963656 0.22820350
vn 0.36514259 -0.90455622 0.22011117
vn 0.37864120 -0.89921131 -0.21920276
vn -0.32188051 0.92495728 -0.20210632
vn 0.00034779 0.99999986 0.00039824
vn -0.16417134 0.95966270 0.22824388
vn 0.07836022 -0.97263595 0.21872125
vn 0.06088355 -0.97381502 -0.21903766
vn -0.00053896 0.99999980 0.00033617
vn -0.77029766 0.51793732 -0.37199791
vn -0.47265284 0.88124867 -0.00026796
vn -0.44892179 0.89332109 0.02113432
vn -0.29545359 0.95324614 0.06347421
vn -0.00034584 0.99999986 0.00039802
vn -0.72222553 0.53768177 0.43507309
vn 0.01668440 -0.97296669 0.23034201
vn -0.02592597 -0.97324217 -0.22831451
vn 0.00729573 -0.97329827 0.22942809
vn 0.00092709 -0.97310495 0.23036037
vn -0.92286641 0.09818849 -0.37239308
vn -0.90731946 0.12426375 0.40165897
vn -0.80884823 0.36861240 0.45813693
vn -0.06156499 -0.96848324 -0.24135028
vn -0.00023202 -0.97307007 0.23050941
vn -0.00144403 -0.97313094 0.23024787
vn -0.00969805 -0.97358528 0.22811762
vn -0.01765827 -0.97331919 0.22877488
vn -0.01982942 -0.97323918 0.22893731
vn -0.07796894 -0.97355940 0.21471595
vn -0.91535077 -0.04489058 0.40014724
vn -0.91238654 0.02885898 0.40831111
vn -0.78333360 -0.51357025 -0.35019147
vn -0.83591983 -0.42983566 0.34129070
vn -0.07294932 -0.96816840 -0.23943340
vn -0.13337278 -0.96400188 0.23002627
vn -0.28149811 -0.95949929 -0.01095099
vn -0.10075805 -0.99485664 -0.01039659
vn -0.41633260 -0.87612228 -0.24305744
vn -0.64337541 -0.69978504 0.31043353
vn -0.14227683 -0.96135568 -0.23569590
vn -0.34866872 -0.91251441 0.21388681
f 1//1 2//2 7//7
f 1//1 7//7 16//16
f 1//1 16//16 21//21
f 1//1 21//21 30//30
f 1//1 30//30 37//37
f 1//1 37//37 36//36
f 1//1 36//36 46//46
f 1//1 46//46 45//45
f 1//1 45//45 48//48
f 1//1 48//48 54//54
f 1//1 54//54 56//56
f 1//1 56//56 50//50
f 1//1 50//50 44//44
f 1//1 44//44 43//43
f 1//1 43//43 42//42
f 1//1 42//42 41//41
f 1//1 41//41 40//40
f 1//1 40//40 39//39
f 1//1 39//39 34//34
f 1//1 34//34 33//33
f 1//1 33//33 31//31
f 1//1 31//31 22//22
f 1//1 22//22 17//17
f 1//1 17//17 10//10
f 1//1 10//10 3//3
f 1//1 3//3 4//4
f 1//1 4//4 2//2
f 2//2 5//5 6//6
f 2//2 6//6 7//7
f 2//2 4//4 8//8
f 2//2 8//8 9//9
f 2//2 9//9 5//5
f 3//3 10//10 11//11
f 3//3 11//11 4//4
f 4//4 11//11 18//18
f 4//4 18//18 23//23
f 4//4 23//23 32//32
f 4//4 32//32 38//38
f 4//4 38//38 49//49
f 4//4 49//49 55//55
f 4//4 55//55 53//53
f 4//4 53//53 47//47
f 4//4 47//47 35//35
f 4//4 35//35 25//25
f 4//4 25//25 19//19
f 4//4 19//19 14//14
f 4//4 14//14 13//13
f 4//4 13//13 12//12
f 4//4 12//12 9//9
f 4//4 9//9 8//8
f 5//5 9//9 12//12
f 5//5 12//12 13//13
f 5//5 13//13 14//14
f 5//5 14//14 6//6
f 6//6 14//14 15//15
f 6//6 15//15 7//7
f 7//7 15//15 16//16
f 10//10 17//17 18//18
f 10//10 18//18 11//11
f 14//14 19//19 24//24
f 14//14 24//24 29//29
f 14//14 29//29 20//20
f 14//14 20//20 16//16
f 14//14 16//16 15//15
f 16//16 20//20 29//29
f 16//16 29//29 21//21
f 17//17 22//22 18//18
f 18//18 22//22 23//23
f 19//19 25//25 26//26
f 19//19 26//26 27//27
f 19//19 27//27 28//28
f 19//19 28//28 21//21
f 19//19 21//21 24//24
f 21//21 29//29 24//24
f 21//21 28//28 30//30
f 22//22 31//31 23//23
f 23//23 31//31 33//33
f 23//23 33//33 34//34
f 23//23 34//34 39//39
f 23//23 39//39 32//32
f 25//25 35//35 26//26
f 26//26 36//36 27//27
f 26//26 35//35 36//36
f 27//27 36//36 37//37
f 27//27 37//37 30//30
f 27//27 30//30 28//28
f 32//32 39//39 40//40
f 32//32 40//40 41//41
f 32//32 41//41 42//42
f 32//32 42//42 43//43
f 32//32 43//43 44//44
f 32//32 44//44 38//38
f 35//35 45//45 46//46
f 35//35 46//46 36//36
f 35//35 47//47 48//48
f 35//35 48//48 45//45
f 38//38 44//44 49//49
f 44//44 50//50 51//51
f 44//44 51//51 52//52
f 44//44 52//52 49//49
f 47//47 53//53 54//54
f 47//47 54//54 48//48
f 49//49 52//52 55//55
f 50//50 56//56 51//51
f 51//51 56//56 53//53
f 51//51 53//53 55//55
f 51//51 55//55 52//52
f 53//53 56//56 54//54