# https://github.com/mikedh/trimesh
v 0.27312209 -0.19798151 0.55483593
v -0.48656857 0.26805218 0.29201917
v -0.45184420 0.26805050 0.26588568
v 0.40898739 -0.19798151 0.55483593
v 0.28672822 -0.19798151 0.56511368
v -0.48607917 0.20286033 1.16553005
v -0.48764533 0.20286033 1.13430524
v -0.49674870 0.60722601 0.21527863
v -0.47266882 0.52764498 0.21527863
v -0.38173303 0.26805218 0.26588434
v -0.43754171 0.47042986 0.21528336
v 0.22995451 0.49827927 0.21527863
v 0.48651287 0.36544841 0.55493381
v 0.48749172 0.20286033 1.13430524
v 0.48602342 0.20286033 1.16553005
v 0.45117615 0.20286033 1.19166488
v 0.40056924 0.20286033 1.21525479
v 0.35808685 -0.19798151 0.56511368
v -0.39974400 0.20286033 1.21525479
v -0.45132976 0.20286033 1.19156702
v -0.47100475 0.28018999 1.21525479
v -0.49841276 0.36544841 1.21525479
v -0.48858776 0.26770993 0.31983645
v -0.49567194 0.65372170 0.21527863
v -0.49997892 0.44649775 1.21525479
v -0.36665863 0.47185013 0.21527863
v 0.22995451 0.79947342 0.21527863
v 0.48866634 0.44649775 0.55493381
v 0.49845493 0.36544841 1.21525479
v 0.47294080 0.28266493 1.21527863
v -0.49449732 0.69003730 0.21527863
v -0.49772755 0.49289557 1.21525479
v 0.15712758 0.80123541 0.21527863
v 0.22995451 0.79252360 0.26079439
v 0.45156769 0.58451654 1.21525479
v 0.44403048 0.58246097 0.55493381
v 0.47877989 0.52764498 0.55493381
v 0.49326695 0.52960269 1.21525479
v 0.50002108 0.44649775 1.21525479
v -0.47638849 0.72684236 0.21527863
v -0.49332270 0.52950480 1.21525479
v 0.05238991 0.80192065 0.21527863
v 0.15702969 0.60761756 1.21525479
v 0.26307950 0.60543896 1.21525479
v 0.36660291 0.60233173 1.21525479
v 0.39851363 0.59577338 1.21525479
v 0.47770313 0.55426987 1.21525479
v -0.46033522 0.75826364 0.21527863
v -0.45162339 0.58451654 1.21525479
v -0.05234775 0.80201851 0.21527863
v 0.05229203 0.60791121 1.21525479
v -0.44898047 0.75845936 0.26079439
v -0.36675652 0.60194018 1.21525479
v -0.36665863 0.78948913 0.26079439
v -0.19633757 0.80123541 0.21527863
v -0.26192098 0.79242574 0.26079439
v -0.15708541 0.60751966 1.21525479
v -0.05234775 0.60781332 1.21525479
v -0.36191758 0.79640738 0.21527967
v -0.26192098 0.60497464 1.21525479
vn -0.32334830 -0.94333263 -0.07462854
vn -0.90564790 -0.42121775 -0.04875953
vn -0.68266566 -0.69120981 -0.23705819
vn 0.72541089 -0.68460933 -0.07133800
vn -0.15844609 -0.98631078 0.04567138
vn -0.85988122 -0.50902151 0.03874792
vn -0.91398211 -0.40575325 0.00100390
vn -0.95917756 -0.02732176 -0.28148168
vn -0.90094904 -0.19048817 -0.38987830
vn 0.08564043 -0.93314335 -0.34915499
vn -0.66218648 -0.51197922 -0.54716208
vn 0.87169528 -0.34210677 -0.35087077
vn 0.99813371 -0.04961023 -0.03560803
vn 0.99543703 -0.09540893 0.00150061
vn 0.90446173 -0.42378639 0.04851887
vn 0.74332437 -0.65942353 0.11238100
vn 0.43322426 -0.81916137 0.37588747
vn 0.06803762 -0.99628876 0.05272180
vn -0.43039955 -0.82354526 0.36949890
vn -0.70252169 -0.70401052 0.10407912
vn -0.90038543 -0.25953548 0.34920970
vn -0.95826789 -0.05601727 0.28032966
vn -0.95970126 -0.28098759 -0.00441324
vn -0.95848202 0.01610323 -0.28469793
vn -0.95966714 0.00751527 0.28103825
vn 0.03330809 -0.61308986 -0.78931071
vn 0.71852053 0.64899085 -0.25007824
vn 0.99919818 0.02387466 -0.03214026
vn 0.95882359 -0.05387177 0.27884612
vn 0.90389601 -0.25252465 0.34525833
vn -0.95394311 0.15098255 -0.25922349
vn -0.95822227 0.04753814 0.28204645
vn 0.02017955 0.94148579 -0.33644806
vn 0.22336696 0.97442581 0.02452622
vn 0.66865182 0.68841941 0.28103997
vn 0.90663931 0.42185429 -0.00664286
vn 0.97971870 0.19918698 -0.02181334
vn 0.94624178 0.19447263 0.25847029
vn 0.96062651 0.01788542 0.27726668
vn -0.91765062 0.27650199 -0.28541896
vn -0.93770904 0.22670404 0.26326228
vn 0.00442554 0.94198561 -0.33562408
vn 0.01779976 0.92475347 0.38015022
vn 0.03894834 0.92366954 0.38120548
vn 0.18203811 0.91619168 0.35700832
vn 0.30533345 0.87712692 0.37070184
vn 0.87521658 0.38959152 0.28673051
vn -0.78706931 0.56207541 -0.25415179
vn -0.67957973 0.67657822 0.28357241
vn -0.00269309 0.94207968 -0.33537833
vn 0.00146614 0.92417314 0.38197101
vn -0.66458771 0.74700500 0.01751319
vn -0.17750668 0.91640270 0.35874429
vn -0.30774292 0.95120185 0.02256849
vn -0.02208635 0.94178202 -0.33549787
vn -0.02938825 0.99921083 0.02672151
vn -0.02055132 0.92486886 0.37973048
vn -0.00287792 0.92406128 0.38223354
vn -0.29031111 0.90764283 -0.30315664
vn -0.04091300 0.92325612 0.38200034
f 1//1 2//2 3//3
f 3//3 10//10 1//1
f 10//10 3//3 11//11
f 5//5 6//6 1//1
f 41//41 49//49 48//48
f 2//2 23//23 8//8
f 7//7 23//23 2//2
f 7//7 2//2 1//1
f 1//1 6//6 7//7
f 39//39 38//38 30//30
f 30//30 19//19 17//17
f 49//49 41//41 30//30
f 30//30 53//53 49//49
f 30//30 21//21 19//19
f 50//50 51//51 42//42
f 10//10 11//11 26//26
f 26//26 12//12 10//10
f 6//6 21//21 22//22
f 22//22 7//7 6//6
f 22//22 30//30 25//25
f 21//21 30//30 22//22
f 23//23 7//7 22//22
f 25//25 8//8 22//22
f 22//22 8//8 23//23
f 19//19 21//21 20//20
f 20//20 21//21 6//6
f 20//20 5//5 19//19
f 6//6 5//5 20//20
f 39//39 30//30 29//29
f 29//29 30//30 15//15
f 16//16 30//30 17//17
f 15//15 30//30 16//16
f 28//28 38//38 39//39
f 37//37 38//38 28//28
f 39//39 29//29 28//28
f 28//28 29//29 13//13
f 28//28 13//13 12//12
f 15//15 16//16 4//4
f 12//12 13//13 4//4
f 17//17 18//18 4//4
f 4//4 16//16 17//17
f 1//1 10//10 4//4
f 10//10 12//12 4//4
f 35//35 34//34 46//46
f 34//34 45//45 46//46
f 46//46 30//30 35//35
f 46//46 45//45 30//30
f 51//51 30//30 43//43
f 43//43 42//42 51//51
f 34//34 42//42 43//43
f 27//27 28//28 12//12
f 37//37 28//28 27//27
f 27//27 36//36 37//37
f 27//27 34//34 35//35
f 35//35 36//36 27//27
f 47//47 36//36 35//35
f 35//35 30//30 47//47
f 47//47 30//30 38//38
f 47//47 38//38 37//37
f 37//37 36//36 47//47
f 58//58 51//51 50//50
f 50//50 57//57 58//58
f 58//58 30//30 51//51
f 58//58 57//57 30//30
f 48//48 59//59 55//55
f 48//48 49//49 52//52
f 52//52 59//59 48//48
f 9//9 26//26 11//11
f 9//9 11//11 3//3
f 9//9 3//3 2//2
f 2//2 8//8 9//9
f 32//32 31//31 25//25
f 41//41 31//31 32//32
f 25//25 30//30 32//32
f 32//32 30//30 41//41
f 24//24 8//8 25//25
f 25//25 31//31 24//24
f 40//40 41//41 48//48
f 40//40 31//31 41//41
f 14//14 29//29 15//15
f 13//13 29//29 14//14
f 15//15 4//4 14//14
f 14//14 4//4 13//13
f 30//30 45//45 44//44
f 44//44 43//43 30//30
f 44//44 45//45 34//34
f 34//34 43//43 44//44
f 33//33 42//42 34//34
f 34//34 27//27 33//33
f 50//50 55//55 56//56
f 56//56 57//57 50//50
f 57//57 56//56 60//60
f 53//53 30//30 60//60
f 30//30 57//57 60//60
f 54//54 55//55 59//59
f 54//54 56//56 55//55
f 49//49 53//53 54//54
f 53//53 60//60 54//54
f 54//54 60//60 56//56
f 54//54 52//52 49//49
f 59//59 52//52 54//54
f 17//17 19//19 5//5
f 5//5 18//18 17//17
f 18//18 5//5 4//4
f 4//4 5//5 1//1
f 12//12 26//26 33//33
f 33//33 27//27 12//12
f 50//50 42//42 33//33
f 8//8 24//24 33//33
f 33//33 55//55 50//50
f 33//33 9//9 8//8
f 33//33 40//40 48//48
f 48//48 55//55 33//33
f 26//26 9//9 33//33
f 33//33 24//24 31//31
f 31//31 40//40 33//33