# https://github.com/mikedh/trimesh
v 0.57351628 0.37278771 1.63411621
v 0.57351628 0.48471038 0.86013426
v 0.40965675 0.37278771 1.63411621
v 0.69450224 0.36387698 1.63411621
v 0.67088286 0.45905384 0.98862359
v 0.70331189 0.47041407 0.86013426
v 0.35984532 0.48482929 0.86008053
v 0.35983323 0.37092724 1.63411621
v 0.74892631 0.32950703 1.63411621
v 0.70987014 0.47511418 0.76812173
v 0.57360342 0.49453589 0.76764524
v 0.40975463 0.49930044 0.63411624
v 0.35994016 0.49522412 0.76794280
v 0.35983323 0.49939838 0.63411624
v -0.22326795 -0.21385156 1.32117571
v -0.22326795 -0.22726661 1.38930414
v 0.76429421 0.27878443 1.63411621
v 0.77339756 0.43105018 0.63411624
v 0.75798745 0.43104087 0.85888885
v 0.71975313 0.47370143 0.63411680
v 0.57351628 0.49587323 0.63411624
v -0.22326795 -0.20836803 1.22495413
v -0.22326795 -0.27720586 0.76812173
v -0.22326795 -0.24665479 0.94764405
v -0.22326795 -0.23196679 1.04386563
v -0.22326795 -0.31637391 0.63411624
v -0.22326795 -0.29326476 0.69754619
v -0.22326795 -0.27887050 1.41436287
v -0.02938220 -0.23073171 1.63411621
v 0.77652984 0.37974005 0.63411624
v 0.76419634 -0.27887050 1.63411621
v -0.22326795 -0.50046369 0.63411624
v -0.04707489 -0.27887050 1.63411621
v -0.22326795 -0.36582354 1.29690005
v 0.74892631 -0.32949520 1.63411621
v 0.77359331 -0.43094043 0.63411624
v 0.77672575 -0.38039717 0.63411624
v -0.22326795 -0.49507806 0.76812173
v -0.22326795 -0.39833301 1.21516558
v -0.01746677 -0.31015094 1.63411622
v 0.69450224 -0.36386515 1.63411621
v 0.70331189 -0.47040217 0.86013426
v 0.75774253 -0.43094022 0.86010147
v 0.70987014 -0.47510237 0.76812173
v -0.22326795 -0.41752533 1.16172002
v 0.06441618 -0.33546831 1.63411621
v 0.57351628 -0.37267796 1.63411621
v 0.66970723 -0.45859626 0.99242070
v 0.57351628 -0.48460063 0.86013426
v 0.72036236 -0.47347387 0.63411624
v 0.57143431 -0.49427106 0.77186930
v 0.41021646 -0.48480811 0.86005298
v -0.22327427 -0.48495421 0.85963437
v -0.22326795 -0.44513880 1.06412799
v 0.14624808 -0.35779410 1.63411621
v 0.25175444 -0.50060161 0.63411624
v 0.56334166 -0.49680068 0.63411627
v 0.40760326 -0.37267741 1.63411620
v 0.24589505 -0.36670483 1.63411621
v -0.22326815 -0.45853258 1.00600776
vn 0.15795279 0.40858581 0.89894858
vn 0.45006993 0.83001121 0.32942138
vn -0.07705990 0.40183341 0.91246462
vn 0.74651209 0.26274633 0.61129704
vn 0.78477241 0.56312483 0.25888741
vn 0.94444041 0.31002541 0.10916301
vn -0.91514463 0.37185922 0.15566320
vn -0.78437898 0.24668962 0.56911673
vn 0.87170183 0.06828199 0.48525612
vn 0.95794965 0.28418969 0.03960658
vn 0.57078643 0.80797600 0.14621094
vn 0.04300196 0.50649500 -0.86116993
vn -0.91910889 0.38444258 0.08627140
vn -0.79078361 0.32485530 -0.51877771
vn -0.99876037 0.04506479 0.02113962
vn -0.99293298 0.03963316 0.11186289
vn 0.87450436 0.01063959 0.48490094
vn 0.89163765 0.05644645 -0.44921721
vn 0.99562858 0.08661138 0.03495994
vn 0.83130332 0.23189007 -0.50513542
vn 0.40199806 0.47406204 -0.78336629
vn -0.99909916 0.04240428 -0.00165443
vn -0.99910317 0.03522812 -0.02349104
vn -0.99922037 0.03486838 -0.01851630
vn -0.99924288 0.03530032 -0.01635680
vn -0.87591052 0.01860827 -0.48211461
vn -0.99867693 0.03584852 -0.03686841
vn -0.98834125 -0.02209062 0.15064388
vn -0.76124159 0.03734650 0.64739206
vn 0.87522322 0.00286254 -0.48371079
vn 0.87445887 -0.01059948 0.48498386
vn -0.84462067 -0.27309956 -0.46046992
vn -0.79088377 -0.02224691 0.61156188
vn -0.98477087 -0.09930663 0.14270431
vn 0.87173590 -0.06822693 0.48520265
vn 0.89169133 -0.05634788 -0.44912302
vn 0.87528630 -0.00289671 -0.48359643
vn -0.95003043 -0.30302499 0.07495350
vn -0.98244874 -0.11983735 0.14294574
vn -0.74621555 -0.13364546 0.65215124
vn 0.74611281 -0.26321061 0.61158471
vn 0.94427243 -0.31047403 0.10934102
vn 0.99557511 -0.08710478 0.03525557
vn 0.95738677 -0.28611733 0.03933766
vn -0.97667012 -0.15466555 0.14897667
vn -0.60919135 -0.20116733 0.76708383
vn 0.15627866 -0.40842512 0.89931413
vn 0.77860738 -0.57006189 0.26229753
vn 0.44905135 -0.83013888 0.33048800
vn 0.83112175 -0.23283277 -0.50500053
vn 0.55784985 -0.81531663 0.15512040
vn 0.00617861 -0.92333516 0.38394533
vn -0.94833366 -0.29108929 0.12621527
vn -0.96910403 -0.19486250 0.15121506
vn -0.49896854 -0.30151948 0.81247548
vn 0.01620768 -0.51357504 -0.85789159
vn 0.37425325 -0.48644845 -0.78949504
vn -0.05646804 -0.39652398 0.91628603
vn -0.22135480 -0.36932655 0.90255191
vn -0.95809832 -0.24439050 0.14940177
f 14//14 56//56 26//26
f 26//26 56//56 32//32
f 26//26 32//32 53//53
f 53//53 32//32 38//38
f 32//32 56//56 38//38
f 47//47 41//41 40//40
f 37//37 56//56 30//30
f 30//30 56//56 18//18
f 17//17 9//9 40//40
f 40//40 31//31 17//17
f 17//17 18//18 9//9
f 17//17 30//30 18//18
f 17//17 31//31 37//37
f 37//37 30//30 17//17
f 28//28 34//34 40//40
f 28//28 16//16 53//53
f 53//53 34//34 28//28
f 55//55 59//59 40//40
f 40//40 9//9 4//4
f 9//9 6//6 4//4
f 40//40 8//8 29//29
f 29//29 8//8 16//16
f 16//16 28//28 29//29
f 9//9 18//18 19//19
f 19//19 6//6 9//9
f 23//23 24//24 14//14
f 53//53 24//24 23//23
f 51//51 38//38 56//56
f 49//49 51//51 42//42
f 40//40 59//59 58//58
f 58//58 47//47 40//40
f 58//58 59//59 53//53
f 53//53 47//47 58//58
f 52//52 47//47 53//53
f 49//49 47//47 52//52
f 53//53 38//38 52//52
f 38//38 51//51 52//52
f 52//52 51//51 49//49
f 53//53 16//16 15//15
f 15//15 22//22 53//53
f 16//16 8//8 15//15
f 8//8 7//7 15//15
f 25//25 24//24 53//53
f 53//53 22//22 25//25
f 14//14 24//24 25//25
f 25//25 22//22 14//14
f 40//40 4//4 1//1
f 33//33 28//28 40//40
f 40//40 29//29 33//33
f 33//33 29//29 28//28
f 21//21 20//20 18//18
f 18//18 56//56 21//21
f 6//6 19//19 10//10
f 20//20 21//21 10//10
f 18//18 20//20 10//10
f 10//10 19//19 18//18
f 14//14 26//26 27//27
f 27//27 23//23 14//14
f 27//27 26//26 53//53
f 53//53 23//23 27//27
f 40//40 41//41 35//35
f 35//35 31//31 40//40
f 41//41 42//42 35//35
f 35//35 42//42 43//43
f 37//37 31//31 36//36
f 31//31 35//35 36//36
f 36//36 35//35 43//43
f 36//36 56//56 37//37
f 36//36 50//50 56//56
f 56//56 50//50 57//57
f 57//57 51//51 56//56
f 48//48 42//42 41//41
f 49//49 42//42 48//48
f 41//41 47//47 48//48
f 48//48 47//47 49//49
f 43//43 42//42 44//44
f 50//50 36//36 44//44
f 44//44 36//36 43//43
f 44//44 42//42 51//51
f 44//44 57//57 50//50
f 51//51 57//57 44//44
f 40//40 34//34 39//39
f 39//39 34//34 53//53
f 53//53 45//45 39//39
f 46//46 55//55 40//40
f 46//46 45//45 55//55
f 40//40 39//39 46//46
f 46//46 39//39 45//45
f 53//53 59//59 60//60
f 59//59 55//55 60//60
f 13//13 15//15 7//7
f 14//14 22//22 13//13
f 22//22 15//15 13//13
f 3//3 8//8 40//40
f 40//40 1//1 3//3
f 3//3 7//7 8//8
f 3//3 1//1 7//7
f 7//7 1//1 2//2
f 2//2 13//13 7//7
f 12//12 56//56 14//14
f 12//12 21//21 56//56
f 14//14 13//13 12//12
f 55//55 45//45 54//54
f 54//54 60//60 55//55
f 54//54 45//45 53//53
f 53//53 60//60 54//54
f 5//5 1//1 4//4
f 5//5 2//2 1//1
f 5//5 4//4 6//6
f 6//6 2//2 5//5
f 6//6 10//10 11//11
f 11//11 2//2 6//6
f 11//11 10//10 21//21
f 13//13 2//2 11//11
f 21//21 12//12 11//11
f 11//11 12//12 13//13