# https://github.com/mikedh/trimesh
v 0.50780433 0.75683602 2.00209360
v 0.35448457 0.73131300 1.75321858
v 0.34443852 0.73555932 1.71032662
v 0.39990163 0.90089874 1.45419491
v 0.40835079 0.97234805 1.49830630
v 0.12157578 0.75688688 2.26567447
v 0.01616628 0.75693475 2.18037357
v -0.40557641 0.80954366 1.95983717
v -0.30087585 0.83617153 1.36476112
v 0.39513767 1.04447782 1.49830630
v 0.43456486 1.03209968 2.07973319
v 0.37428552 0.75687562 2.19643669
v 0.22799051 1.08717676 2.21691206
v 0.01616652 0.75693473 2.27630160
v -0.22201675 0.80593708 2.26939056
v -0.30573652 0.80903667 2.24040257
v -0.40555569 0.80954039 2.17506068
v -0.49219565 1.04477067 2.00320056
v -0.40126992 0.89436200 1.35402284
v -0.35781268 0.85276889 1.36205509
v 0.13913649 0.84648447 1.30073011
v 0.37447817 0.86037297 1.39245331
v 0.36787255 0.89934705 1.36134485
v 0.20408598 1.11592441 1.30302443
v 0.37458397 1.08244596 1.47637993
v 0.46060364 1.07549301 2.00203863
v 0.37384220 1.47430412 2.00156642
v 0.42323705 1.26049863 2.00172422
v 0.00426703 1.07494591 2.23050538
v -0.45605078 1.03569962 2.10633382
v -0.46175021 1.20290340 2.00716207
v -0.40126992 0.98640313 1.30556946
v -0.40126992 0.95067984 1.30556946
v -0.22225413 0.84875545 1.30698359
v 0.13371396 0.90051105 1.28207689
v 0.29342990 0.85249062 1.31800901
v 0.30684375 1.69584852 2.00166838
v 0.49128889 0.89131545 2.00700038
v 0.32993664 1.65138089 2.00181409
v 0.31049838 1.03529925 2.20495175
v -0.19734461 1.20299050 2.19726479
v -0.35308304 1.08633512 2.17969266
v -0.29128943 1.72948159 2.00377219
v 0.01616628 1.11592441 1.30302443
v 0.08996391 1.11592441 1.29147391
v 0.13371396 0.97244568 1.27630163
v 0.15100604 1.11440817 1.28880197
v 0.27911513 1.73131298 2.00534688
v 0.28263548 1.67312603 2.04674366
v -0.24269351 1.67502574 2.07534320
v -0.40511895 1.43181993 2.00150352
v -0.33812767 1.66752014 2.01093359
v -0.30908804 1.73078332 2.02007065
v -0.03177262 1.72884260 2.00178209
v 0.12994424 1.72892589 2.06366722
v 0.38132456 1.11357025 2.13081035
v -0.38657986 1.36512266 2.08170479
v -0.11990520 1.70186216 2.08219647
v 0.22036956 1.67613679 2.07832491
v 0.06163969 1.61994068 2.10724489
vn 0.66585922 -0.73595443 0.12248500
vn 0.07071026 -0.99680004 -0.03727927
vn 0.09706589 -0.99249088 -0.07443158
vn 0.95193346 -0.16524533 -0.25790825
vn 0.93540718 0.28066789 -0.21503242
vn 0.09428175 -0.80065068 0.59166667
vn -0.03722117 -0.99930362 -0.00262019
vn -0.35086861 -0.93625643 -0.01775168
vn -0.07096034 -0.99223573 -0.10214148
vn 0.80716247 0.54559579 -0.22541957
vn 0.80723947 0.35447791 0.47192146
vn 0.39126098 -0.76660168 0.50915293
vn 0.15753089 0.44219493 0.88297659
vn -0.00564086 -0.79808569 0.60251756
vn -0.17444364 -0.61888716 0.76586428
vn -0.31848245 -0.71098792 0.62694904
vn -0.49734464 -0.78252855 0.37456292
vn -0.99211923 -0.10553738 0.06753738
vn -0.57832193 -0.78955177 -0.20530889
vn -0.20265306 -0.96163693 -0.18489497
vn 0.02468177 -0.92236101 -0.38553984
vn 0.52097104 -0.81695305 -0.24733961
vn 0.77096427 -0.04618836 -0.63520132
vn 0.29268490 0.74410967 -0.60053006
vn 0.58134603 0.74841504 -0.31923614
vn 0.88537232 0.45073948 0.11379711
vn 0.82348438 0.54593990 0.15434735
vn 0.84833486 0.51234801 0.13351958
vn 0.01103933 0.47141225 0.88184388
vn -0.84149721 0.18422238 0.50788243
vn -0.84670422 0.52067918 0.10947674
vn -0.56501285 0.54757915 -0.61718518
vn -0.60467584 -0.46246791 -0.64845244
vn -0.05060293 -0.87020110 -0.49009120
vn 0.05810177 -0.47833975 -0.87625069
vn 0.28148678 -0.76068692 -0.58491077
vn 0.48817391 0.87232692 0.02705514
vn 0.92714403 0.33337887 0.17106281
vn 0.68004583 0.72271620 0.12336517
vn 0.41574995 0.36330828 0.83376200
vn -0.13171614 0.52510070 0.84078542
vn -0.43848835 0.44442235 0.78116371
vn -0.09575397 0.97687027 -0.19119535
vn -0.08386074 0.89771402 -0.43252389
vn -0.03784401 0.77727218 -0.62802531
vn 0.09343742 0.01144978 -0.99555932
vn 0.08425057 0.74187478 -0.66522451
vn 0.22653932 0.97384758 0.01734436
vn 0.42514909 0.73809017 0.52389994
vn -0.20500694 0.74644235 0.63308449
vn -0.80480273 0.58697645 0.08804099
vn -0.68416910 0.72194884 0.10345299
vn -0.33785869 0.92950588 0.14788619
vn -0.00057871 0.97193990 -0.23522861
vn 0.02797843 0.94759562 0.31824478
vn 0.66483522 0.45576867 0.59183532
vn -0.62442544 0.56777448 0.53640004
vn -0.03905631 0.86146274 0.50631665
vn 0.19611198 0.77722544 0.59788018
vn 0.02779182 0.63915206 0.76857808
f 54//54 43//43 48//48
f 48//48 47//47 54//54
f 54//54 47//47 43//43
f 24//24 47//47 48//48
f 46//46 47//47 24//24
f 51//51 31//31 57//57
f 1//1 12//12 2//2
f 9//9 2//2 8//8
f 32//32 31//31 51//51
f 18//18 31//31 32//32
f 39//39 27//27 10//10
f 5//5 23//23 10//10
f 10//10 23//23 25//25
f 23//23 24//24 25//25
f 25//25 39//39 10//10
f 6//6 12//12 40//40
f 14//14 2//2 6//6
f 6//6 2//2 12//12
f 27//27 39//39 11//11
f 11//11 12//12 1//1
f 51//51 57//57 52//52
f 52//52 32//32 51//51
f 30//30 31//31 18//18
f 30//30 57//57 31//31
f 14//14 16//16 17//17
f 18//18 8//8 17//17
f 17//17 30//30 18//18
f 7//7 2//2 14//14
f 7//7 8//8 2//2
f 14//14 17//17 7//7
f 7//7 17//17 8//8
f 44//44 32//32 43//43
f 19//19 8//8 18//18
f 49//49 59//59 40//40
f 48//48 59//59 49//49
f 4//4 5//5 1//1
f 23//23 5//5 4//4
f 46//46 24//24 36//36
f 36//36 24//24 23//23
f 39//39 25//25 37//37
f 48//48 49//49 37//37
f 37//37 49//49 39//39
f 37//37 24//24 48//48
f 37//37 25//25 24//24
f 26//26 5//5 10//10
f 40//40 59//59 13//13
f 13//13 6//6 40//40
f 14//14 6//6 13//13
f 13//13 29//29 14//14
f 15//15 16//16 14//14
f 14//14 29//29 15//15
f 60//60 13//13 59//59
f 29//29 13//13 60//60
f 32//32 44//44 45//45
f 45//45 47//47 46//46
f 46//46 32//32 45//45
f 43//43 47//47 45//45
f 45//45 44//44 43//43
f 56//56 49//49 40//40
f 40//40 12//12 56//56
f 12//12 11//11 56//56
f 56//56 11//11 39//39
f 39//39 49//49 56//56
f 46//46 36//36 35//35
f 35//35 36//36 21//21
f 21//21 34//34 35//35
f 21//21 36//36 3//3
f 3//3 34//34 21//21
f 1//1 2//2 3//3
f 3//3 2//2 9//9
f 9//9 34//34 3//3
f 20//20 34//34 9//9
f 9//9 8//8 20//20
f 8//8 19//19 20//20
f 38//38 11//11 1//1
f 38//38 26//26 11//11
f 1//1 5//5 38//38
f 5//5 26//26 38//38
f 27//27 11//11 28//28
f 11//11 26//26 28//28
f 10//10 27//27 28//28
f 28//28 26//26 10//10
f 16//16 15//15 42//42
f 57//57 30//30 42//42
f 42//42 17//17 16//16
f 30//30 17//17 42//42
f 55//55 60//60 59//59
f 55//55 59//59 48//48
f 33//33 35//35 34//34
f 33//33 32//32 46//46
f 46//46 35//35 33//33
f 18//18 32//32 33//33
f 33//33 19//19 18//18
f 33//33 20//20 19//19
f 34//34 20//20 33//33
f 1//1 3//3 22//22
f 22//22 3//3 36//36
f 22//22 36//36 23//23
f 22//22 4//4 1//1
f 23//23 4//4 22//22
f 57//57 42//42 50//50
f 41//41 42//42 15//15
f 41//41 50//50 42//42
f 41//41 15//15 29//29
f 29//29 60//60 41//41
f 60//60 55//55 58//58
f 58//58 41//41 60//60
f 50//50 41//41 58//58
f 50//50 58//58 53//53
f 53//53 58//58 55//55
f 43//43 32//32 53//53
f 32//32 52//52 53//53
f 53//53 52//52 57//57
f 57//57 50//50 53//53
f 48//48 43//43 53//53
f 53//53 55//55 48//48