# https://github.com/mikedh/trimesh
v 0.38344178 -0.49938110 0.58277679
v 0.27294555 -0.49909226 0.82398758
v 0.48446043 -0.49967432 0.58945151
v 0.57119706 -0.49917555 0.80045583
v 0.50011747 -0.33288436 0.89500838
v 0.22452121 -0.46806645 0.82479373
v 0.57118526 -0.49448149 0.61028695
v 0.49680847 -0.47713681 0.83903686
v 0.38360475 -0.44390609 0.49187125
v 0.59502854 -0.16242418 -0.05485633
v 0.49942512 -0.19695016 0.91257346
v 0.49895001 -0.02436770 0.91462085
v 0.25016423 0.46804402 0.82159256
v 0.30851424 0.43077567 0.44084591
v 0.30851424 0.39732221 0.44084591
v 0.64545429 -0.16295873 -0.04496708
v 0.82799304 -0.38573706 0.56815384
v 0.70111748 -0.14157946 -0.05084671
v 0.99433690 -0.28040426 0.49334773
v 0.72530785 -0.35522878 0.84297466
v 0.52776768 -0.16342514 -0.04777163
v 0.69788703 -0.11567097 -0.08537913
v 0.29109984 0.49843061 0.82162964
v 0.55924296 0.50032568 0.81736449
v 0.46804735 0.49961452 0.82156830
v 0.30851424 0.44906751 0.49187081
v 0.51248423 0.21359261 -0.01599010
v 0.51235704 0.08223742 -0.04401501
v 0.66272886 -0.19669985 0.89199764
v 0.72568245 -0.00912511 -0.07891265
v 0.84675872 -0.15340757 0.12383361
v 0.55569228 0.49966057 0.61591818
v 0.38489674 0.49943341 0.58392935
v 0.48546447 0.49933321 0.58879802
v 0.51305348 0.17636179 -0.04345814
v 0.92088730 -0.30897752 0.67286694
v 1.09784529 -0.21207292 0.49080460
v 0.74571390 0.35845962 0.81886540
v 0.64118589 0.47392541 0.65293670
v 0.57820058 0.48595071 0.59771634
v 0.63299423 0.16357505 -0.05258069
v 0.62885858 0.12579064 -0.07259167
v 1.19243078 -0.12894701 0.52981325
v 0.97308129 -0.06990828 0.22600619
v 0.64663160 -0.02739619 0.89812623
v 1.00035951 0.30435111 0.54444340
v 0.86120975 0.37103575 0.55968962
v 0.69704573 0.14204597 -0.05299164
v 1.22452121 -0.01707190 0.53000353
v 1.11411542 -0.10454026 0.65148900
v 0.71244909 0.10584741 -0.07467218
v 1.00043406 0.01378568 0.24442497
v 0.94948471 0.25509190 0.71709700
v 0.77259330 0.14097095 0.02042570
v 1.13147445 0.22113272 0.53583064
v 0.93006635 0.02764362 0.82923310
v 0.90061288 0.15428093 0.82071437
v 1.20933018 0.09786571 0.53179790
v 0.88770904 -0.18266302 0.83149930
v 1.04733953 0.08204768 0.73229477
vn -0.91466209 -0.39345780 -0.09265110
vn -0.90174438 -0.39157645 0.18309823
vn 0.64620544 -0.75003905 -0.14092535
vn 0.91900209 -0.38212212 0.09704561
vn 0.09788096 -0.29463227 0.95058463
vn -0.99194802 -0.07342380 0.10318952
vn 0.92718829 -0.37253672 -0.03922060
vn 0.79938735 -0.41308289 0.43628246
vn -0.99103701 -0.12045016 -0.05777024
vn 0.01977302 -0.79688011 -0.60381381
vn -0.64486355 -0.06004935 0.76193509
vn -0.71190298 0.05799230 0.69987930
vn -0.98957873 0.06385892 0.12905807
vn -0.96456288 0.24642704 -0.09429827
vn -0.99983659 -0.00130341 -0.01803055
vn 0.91513236 -0.37142151 -0.15677637
vn 0.98544299 -0.16831813 -0.02389813
vn 0.98299244 -0.16446556 -0.08171250
vn 0.98905172 -0.14415913 -0.03154107
vn 0.98497257 -0.10139045 0.13981781
vn -0.96784293 -0.18979150 -0.16510378
vn 0.80268042 -0.19231470 -0.56455222
vn -0.90437241 0.36226475 0.22555441
vn 0.89445049 0.38673223 0.22449165
vn 0.17155765 0.79599552 0.58048178
vn -0.98611949 0.16141190 -0.03891717
vn -0.77004962 0.57039938 -0.28577637
vn -0.99426345 -0.00132106 -0.10695065
vn 0.95894018 -0.04036413 0.28072132
vn 0.97764611 0.00843792 -0.21008779
vn 0.99528383 -0.08396544 -0.04857882
vn 0.87329040 0.48532035 -0.04275551
vn -0.84965959 0.52035722 -0.08548071
vn 0.64501637 0.74980849 -0.14744865
vn -0.96318991 0.15946254 -0.21641835
vn 0.99474115 -0.09728785 0.03201739
vn 0.99510259 -0.09627449 -0.02240652
vn 0.98115206 0.09454904 0.16852632
vn 0.97959819 0.20094286 -0.00305978
vn 0.96256133 0.26064155 -0.07444236
vn 0.85395600 0.40609177 -0.32534387
vn -0.69543161 0.24322707 -0.67617709
vn 0.99868382 -0.05128792 0.00042081
vn 0.99866688 -0.02421748 -0.04558486
vn 0.94581883 0.02812919 0.32347409
vn 0.98911827 0.14607861 -0.01749527
vn 0.98135949 0.18909281 -0.03431400
vn 0.97959522 0.16507488 -0.11464502
vn 0.99998660 -0.00515801 0.00044360
vn 0.99812227 -0.03436828 0.05070265
vn 0.95533146 0.08594136 -0.28276470
vn 0.99895010 0.00576913 -0.04544679
vn 0.99604128 0.07176776 0.05245153
vn 0.99479444 0.08861630 -0.05031070
vn 0.99642112 0.08445262 -0.00356373
vn 0.99011036 0.01053321 0.13989472
vn 0.98763037 0.05104479 0.14825884
vn 0.99952807 0.03070064 0.00105552
vn 0.99236208 -0.04087423 0.11639070
vn 0.99801143 0.02201516 0.05906373
f 13//13 14//14 6//6
f 12//12 13//13 6//6
f 6//6 14//14 15//15
f 15//15 21//21 6//6
f 24//24 39//39 32//32
f 19//19 37//37 17//17
f 17//17 37//37 36//36
f 36//36 4//4 17//17
f 36//36 50//50 59//59
f 57//57 53//53 38//38
f 59//59 50//50 56//56
f 2//2 3//3 4//4
f 6//6 2//2 5//5
f 22//22 21//21 42//42
f 17//17 4//4 7//7
f 4//4 3//3 7//7
f 3//3 16//16 7//7
f 25//25 12//12 24//24
f 24//24 32//32 33//33
f 60//60 53//53 57//57
f 57//57 56//56 60//60
f 60//60 50//50 49//49
f 60//60 56//56 50//50
f 37//37 19//19 31//31
f 43//43 36//36 37//37
f 50//50 36//36 43//43
f 49//49 50//50 43//43
f 43//43 44//44 49//49
f 37//37 31//31 43//43
f 22//22 44//44 43//43
f 43//43 31//31 22//22
f 20//20 36//36 59//59
f 4//4 36//36 20//20
f 57//57 38//38 45//45
f 45//45 56//56 57//57
f 24//24 12//12 45//45
f 45//45 38//38 24//24
f 3//3 2//2 1//1
f 1//1 2//2 6//6
f 28//28 42//42 21//21
f 35//35 42//42 28//28
f 21//21 15//15 28//28
f 28//28 15//15 14//14
f 14//14 35//35 28//28
f 30//30 44//44 22//22
f 49//49 44//44 52//52
f 44//44 30//30 52//52
f 27//27 32//32 40//40
f 27//27 35//35 14//14
f 14//14 33//33 27//27
f 53//53 60//60 55//55
f 24//24 38//38 55//55
f 55//55 38//38 53//53
f 18//18 19//19 17//17
f 17//17 7//7 18//18
f 18//18 7//7 16//16
f 18//18 16//16 22//22
f 22//22 31//31 18//18
f 18//18 31//31 19//19
f 14//14 13//13 26//26
f 26//26 33//33 14//14
f 4//4 20//20 8//8
f 8//8 20//20 5//5
f 8//8 2//2 4//4
f 8//8 5//5 2//2
f 59//59 56//56 29//29
f 56//56 45//45 29//29
f 29//29 20//20 59//59
f 5//5 20//20 29//29
f 10//10 16//16 3//3
f 3//3 1//1 10//10
f 10//10 1//1 21//21
f 10//10 21//21 22//22
f 22//22 16//16 10//10
f 6//6 21//21 9//9
f 9//9 1//1 6//6
f 21//21 1//1 9//9
f 34//34 33//33 32//32
f 32//32 27//27 34//34
f 34//34 27//27 33//33
f 40//40 32//32 47//47
f 47//47 32//32 39//39
f 41//41 42//42 35//35
f 35//35 27//27 41//41
f 41//41 27//27 40//40
f 49//49 52//52 58//58
f 58//58 60//60 49//49
f 58//58 55//55 60//60
f 23//23 26//26 13//13
f 33//33 26//26 23//23
f 13//13 12//12 23//23
f 12//12 25//25 23//23
f 23//23 25//25 24//24
f 24//24 33//33 23//23
f 11//11 45//45 12//12
f 11//11 29//29 45//45
f 5//5 29//29 11//11
f 11//11 12//12 6//6
f 6//6 5//5 11//11
f 46//46 39//39 24//24
f 46//46 47//47 39//39
f 24//24 55//55 46//46
f 42//42 41//41 51//51
f 22//22 42//42 51//51
f 51//51 30//30 22//22
f 51//51 52//52 30//30
f 51//51 58//58 52//52
f 40//40 47//47 48//48
f 48//48 41//41 40//40
f 47//47 46//46 48//48
f 48//48 51//51 41//41
f 54//54 46//46 55//55
f 54//54 48//48 46//46
f 51//51 48//48 54//54
f 55//55 58//58 54//54
f 58//58 51//51 54//54