# https://github.com/mikedh/trimesh
v -1.43894758 0.50373806 23.80042508
v -1.43767506 0.50373806 24.80042510
v -1.42827811 0.52282576 24.80042510
v -1.38188018 0.61571925 24.80042510
v -1.41525919 0.55111473 23.80042508
v -1.20950353 -0.27298471 23.80042508
v -1.35231873 0.42396126 24.80042510
v -1.05915119 -0.27298471 24.24188927
v -1.36445661 0.62746554 24.80042510
v -1.38188018 0.61571925 23.80042508
v -0.80807445 -0.27298471 23.80042508
v -1.33479722 0.40918052 24.80042510
v -0.84820756 -0.27298471 24.24188927
v -1.10310188 0.36239114 24.80042510
v -1.27900248 0.68482654 24.80042510
v -1.27900248 0.68482654 23.80042508
v -0.43904547 0.50373806 23.80042508
v -0.43894760 0.50373806 24.80042510
v -0.53233051 0.41701135 24.80042510
v -0.73289825 0.37394168 24.80042510
v -0.77273775 0.36875374 24.80042510
v -1.05229922 0.36258693 24.80042510
v -1.08450358 0.71243033 24.80042510
v -1.16682537 0.70078189 23.80042508
v -0.44031800 0.56834259 23.80042508
v -0.44129688 0.61571925 23.80042508
v -0.44129688 0.61571925 24.80042510
v -0.82745585 0.72447025 24.80042510
v -0.77479331 0.72701527 23.80042508
v -0.90586226 0.72084846 23.80042508
v -1.08450358 0.71243033 23.80042508
v -0.49513396 0.66397689 23.80042508
v -0.51882232 0.68512018 24.80042510
v -0.77479331 0.72691737 24.80042510
v -0.63618722 0.71105992 23.80042508
v -0.57549810 0.70401214 24.80042510
v -0.53467979 0.69931364 24.80042510
v -0.53467979 0.69931364 23.80042508
vn -0.24540757 0.00318826 -0.96941475
vn -0.24253686 0.00242924 0.97013915
vn -0.22123110 0.01433537 0.97511604
vn -0.23274301 0.02941843 0.97209323
vn -0.22310095 0.01470077 -0.97468449
vn -0.52196900 -0.15992342 -0.83783821
vn -0.03228385 -0.00454375 0.99946841
vn -0.06473208 -0.08186500 0.99453903
vn -0.19979139 0.03876921 0.97907117
vn -0.23255046 0.02961948 -0.97213320
vn 0.27925911 -0.10153382 -0.95483257
vn -0.02667020 -0.00482878 0.99963262
vn 0.14167280 -0.08488311 0.98626755
vn -0.00318397 -0.00360505 0.99998843
vn -0.18216475 0.07417121 0.98046654
vn -0.18222822 0.07414515 -0.98045672
vn 0.23652773 -0.00697520 -0.97159970
vn 0.23652076 -0.00733881 0.97159872
vn 0.03324915 -0.00535751 0.99943273
vn 0.00469951 -0.00330608 0.99998349
vn 0.00216017 -0.00334840 0.99999206
vn 0.00029688 -0.00310602 0.99999513
vn -0.06169400 0.08667644 0.99432442
vn -0.08410880 0.07738905 -0.99344685
vn 0.22548991 0.00059990 -0.97424532
vn 0.24558208 0.01755585 -0.96921681
vn 0.24558146 0.01757136 0.96921669
vn -0.02952688 0.08256690 0.99614802
vn 0.02340062 0.09411158 -0.99528660
vn -0.02979588 0.08262709 -0.99613502
vn -0.06163210 0.08666713 -0.99432907
vn 0.20986188 0.03060874 -0.97725181
vn 0.20972891 0.03058427 0.97728112
vn 0.02346140 0.09387448 0.99530756
vn 0.07006498 0.07929967 -0.99438547
vn 0.06980455 0.07919146 0.99441241
vn 0.19343587 0.07533213 0.97821656
vn 0.19348944 0.07530123 -0.97820834
f 1//1 2//2 3//3
f 1//1 3//3 4//4
f 1//1 4//4 5//5
f 1//1 5//5 10//10
f 1//1 10//10 16//16
f 1//1 16//16 24//24
f 1//1 24//24 31//31
f 1//1 31//31 30//30
f 1//1 30//30 29//29
f 1//1 29//29 35//35
f 1//1 35//35 38//38
f 1//1 38//38 32//32
f 1//1 32//32 26//26
f 1//1 26//26 25//25
f 1//1 25//25 17//17
f 1//1 17//17 11//11
f 1//1 11//11 6//6
f 1//1 6//6 2//2
f 2//2 7//7 12//12
f 2//2 12//12 14//14
f 2//2 14//14 22//22
f 2//2 22//22 21//21
f 2//2 21//21 20//20
f 2//2 20//20 19//19
f 2//2 19//19 18//18
f 2//2 18//18 27//27
f 2//2 27//27 33//33
f 2//2 33//33 37//37
f 2//2 37//37 36//36
f 2//2 36//36 34//34
f 2//2 34//34 28//28
f 2//2 28//28 23//23
f 2//2 23//23 15//15
f 2//2 15//15 9//9
f 2//2 9//9 4//4
f 2//2 4//4 3//3
f 2//2 6//6 8//8
f 2//2 8//8 7//7
f 4//4 9//9 10//10
f 4//4 10//10 5//5
f 6//6 11//11 13//13
f 6//6 13//13 8//8
f 7//7 8//8 12//12
f 8//8 13//13 14//14
f 8//8 14//14 12//12
f 9//9 15//15 16//16
f 9//9 16//16 10//10
f 11//11 17//17 18//18
f 11//11 18//18 13//13
f 13//13 18//18 19//19
f 13//13 19//19 20//20
f 13//13 20//20 21//21
f 13//13 21//21 22//22
f 13//13 22//22 14//14
f 15//15 23//23 24//24
f 15//15 24//24 16//16
f 17//17 25//25 18//18
f 18//18 25//25 26//26
f 18//18 26//26 27//27
f 23//23 28//28 29//29
f 23//23 29//29 30//30
f 23//23 30//30 31//31
f 23//23 31//31 24//24
f 26//26 32//32 27//27
f 27//27 32//32 33//33
f 28//28 34//34 29//29
f 29//29 34//34 36//36
f 29//29 36//36 37//37
f 29//29 37//37 35//35
f 32//32 38//38 37//37
f 32//32 37//37 33//33
f 35//35 37//37 38//38