# https://github.com/mikedh/trimesh
v 0.62241190 -0.32130588 0.51686113
v 0.27989522 -0.12821685 -0.03136596
v 0.61755251 -0.39497337 0.53528302
v 0.27984736 -0.14205242 -0.04698090
v 0.01463432 -0.36018947 0.01132491
v -0.37693200 -0.56339791 0.53817128
v -0.32930989 -0.55671213 0.73612816
v 0.01457036 -0.48768839 0.94660297
v 0.50200834 -0.32222856 0.67386377
v 0.57125655 -0.32222194 0.67384409
v 0.41271951 -0.37207282 0.06662698
v -0.21798453 -0.50206746 0.18500732
v -0.37693200 -0.65536512 0.53817128
v -0.37758806 -0.65372523 0.68067771
v -0.34002848 -0.61720443 0.72963052
v 0.61945296 -0.32225889 0.56348465
v 0.27073260 -0.45492017 0.92151686
v 0.41077263 -0.45631683 0.87595362
v 0.56499180 -0.60455583 0.54686307
v 0.58447603 -0.46748461 0.49524533
v 0.53148371 -0.67166935 0.53620147
v 0.49689805 -0.68380369 0.66813831
v 0.48112882 -0.36928046 0.20711969
v 0.46529166 -0.41446398 0.20067953
v 0.34165450 -0.37250398 -0.04323974
v 0.29649291 -0.42962801 -0.04121651
v 0.30533434 -0.36300959 -0.05339704
v 0.01451256 -0.41759220 0.00767462
v -0.21787349 -1.03595294 0.53807358
v 0.01470095 -0.69398129 0.92593356
v 0.54923697 -0.47793923 0.67131227
v 0.49759714 -0.76299430 0.55840953
v 0.37253361 -0.37165905 -0.00154613
v 0.42735657 -0.85828524 0.54247019
v 0.10649268 -0.70377572 0.04427323
v -0.21774578 -0.76665169 0.18869215
v -0.15383823 -1.12625688 0.58340210
v -0.15383888 -1.12743323 0.59619793
v 0.26665297 -0.74300729 0.90502830
v 0.40585154 -0.57037391 0.87199048
v 0.20370013 -1.12430013 0.58652821
v 0.22778111 -0.56364559 0.01558837
v 0.06109941 -0.75796426 0.07722107
v 0.01306662 -0.75985555 0.08160640
v -0.03665272 -0.80163215 0.11673325
v -0.08136906 -0.80223225 0.12824185
v -0.15371929 -0.79861165 0.16232338
v -0.09164147 -1.12740598 0.57737162
v 0.20265788 -1.12821682 0.61358794
v 0.43492704 -0.88169799 0.58075894
v 0.43311266 -0.86630972 0.65982827
v 0.40973262 -0.73565087 0.83067351
v 0.37437909 -0.74292970 0.85732705
v 0.32565040 -0.74317002 0.88765421
v 0.32520040 -0.93058190 0.49714115
v 0.36413716 -0.89114218 0.49615254
v 0.00257254 -0.79390302 0.10891799
v 0.14605319 -0.65733934 0.02777677
v 0.10114094 -1.12726491 0.57758270
v 0.25554768 -0.68953045 0.91868646
vn 0.84479796 0.53416227 -0.03141790
vn 0.12430432 0.98887560 -0.08169133
vn 0.96916129 -0.24639105 -0.00422367
vn 0.16781989 0.90854758 -0.38259348
vn -0.77734782 0.57637931 -0.25202630
vn -0.81494769 0.57921442 -0.01925911
vn -0.72846065 0.66850903 0.14980239
vn -0.46306251 0.74153988 0.48548092
vn -0.04304509 0.99763845 0.05352232
vn 0.69293876 0.71147782 0.11676982
vn 0.98779646 -0.11052140 -0.10974137
vn -0.86223360 0.49213699 -0.11980986
vn -0.96456189 -0.26109092 -0.03810359
vn -0.97819295 -0.18202991 0.10001835
vn -0.92522656 -0.31019603 0.21848165
vn 0.80585867 0.58965293 0.05386313
vn 0.34026018 0.84855014 0.40519830
vn 0.76158571 0.58434089 0.28023726
vn 0.90351610 -0.42847203 -0.00838872
vn 0.93087872 -0.35662890 -0.07925049
vn 0.83040301 -0.55164878 -0.07819504
vn 0.90871824 -0.41105211 0.07257631
vn 0.99462722 -0.03923608 -0.09579782
vn 0.88762684 -0.45185090 -0.08915919
vn 0.90742988 -0.29683575 -0.29742149
vn 0.26583687 -0.88837277 -0.37433218
vn 0.19146848 -0.35981122 -0.91316795
vn -0.85880997 -0.21329111 -0.46578142
vn -0.71147599 -0.70149051 -0.04138811
vn -0.44137078 -0.79068477 0.42427519
vn 0.95750793 -0.27269346 0.09389808
vn 0.80766758 -0.58871467 -0.03298662
vn 0.96858426 -0.21132131 -0.13110236
vn 0.68049928 -0.72663100 -0.09448872
vn 0.04008794 -0.95258935 -0.30160650
vn -0.84916310 -0.50241468 -0.16279289
vn -0.34496264 -0.93770806 -0.04128416
vn -0.39113247 -0.91668386 0.08189076
vn 0.25100048 -0.91225422 0.32371439
vn 0.93540406 -0.20947310 0.28485129
vn 0.31597021 -0.94717061 -0.05505152
vn 0.57962670 -0.80585148 -0.12098049
vn 0.13404982 -0.97646120 -0.16897977
vn -0.36852041 -0.87907388 -0.30236042
vn -0.12669502 -0.97853027 -0.16256346
vn -0.45917111 -0.85854172 -0.22818415
vn -0.57103211 -0.79423521 -0.20763613
vn -0.01882334 -0.99837956 -0.05370221
vn 0.25975255 -0.96321359 0.06890716
vn 0.68944895 -0.72382192 -0.02723924
vn 0.72700625 -0.68333504 0.06719482
vn 0.80637186 -0.57506826 0.13806127
vn 0.69181610 -0.69498475 0.19592521
vn 0.59707272 -0.74859573 0.28828562
vn 0.55200873 -0.82734753 -0.10383846
vn 0.60561032 -0.78924011 -0.10166707
vn 0.04517048 -0.99029725 -0.13141915
vn 0.16851185 -0.93060862 -0.32491744
vn 0.02140045 -0.99822337 -0.05560693
vn 0.52618508 -0.56255737 0.63769779
f 38//38 15//15 14//14
f 30//30 15//15 38//38
f 8//8 15//15 30//30
f 4//4 2//2 1//1
f 1//1 11//11 4//4
f 51//51 52//52 49//49
f 39//39 38//38 49//49
f 30//30 38//38 39//39
f 18//18 10//10 17//17
f 15//15 8//8 7//7
f 7//7 8//8 2//2
f 14//14 15//15 7//7
f 9//9 10//10 2//2
f 2//2 8//8 9//9
f 17//17 10//10 9//9
f 9//9 8//8 17//17
f 29//29 38//38 14//14
f 14//14 13//13 29//29
f 23//23 11//11 1//1
f 11//11 23//23 24//24
f 24//24 23//23 20//20
f 5//5 12//12 2//2
f 2//2 4//4 5//5
f 33//33 4//4 11//11
f 49//49 41//41 50//50
f 50//50 51//51 49//49
f 52//52 51//51 22//22
f 54//54 39//39 49//49
f 60//60 8//8 30//30
f 30//30 39//39 60//60
f 17//17 8//8 60//60
f 39//39 54//54 60//60
f 60//60 18//18 17//17
f 2//2 12//12 6//6
f 6//6 7//7 2//2
f 12//12 13//13 6//6
f 6//6 13//13 14//14
f 14//14 7//7 6//6
f 36//36 29//29 13//13
f 36//36 13//13 12//12
f 38//38 29//29 37//37
f 37//37 36//36 47//47
f 29//29 36//36 37//37
f 44//44 45//45 46//46
f 46//46 37//37 47//47
f 45//45 37//37 46//46
f 43//43 45//45 44//44
f 43//43 44//44 35//35
f 35//35 41//41 43//43
f 28//28 4//4 27//27
f 28//28 5//5 4//4
f 27//27 26//26 28//28
f 35//35 44//44 28//28
f 44//44 46//46 28//28
f 28//28 46//46 47//47
f 47//47 36//36 28//28
f 12//12 5//5 28//28
f 28//28 36//36 12//12
f 25//25 33//33 34//34
f 25//25 26//26 27//27
f 27//27 4//4 25//25
f 4//4 33//33 25//25
f 3//3 23//23 1//1
f 20//20 23//23 3//3
f 49//49 52//52 53//53
f 53//53 54//54 49//49
f 59//59 41//41 49//49
f 57//57 43//43 41//41
f 45//45 43//43 57//57
f 41//41 59//59 57//57
f 57//57 59//59 45//45
f 26//26 42//42 58//58
f 35//35 28//28 58//58
f 58//58 28//28 26//26
f 58//58 41//41 35//35
f 58//58 55//55 41//41
f 56//56 42//42 26//26
f 55//55 58//58 56//56
f 56//56 58//58 42//42
f 56//56 25//25 34//34
f 26//26 25//25 56//56
f 34//34 50//50 56//56
f 41//41 55//55 56//56
f 56//56 50//50 41//41
f 16//16 3//3 1//1
f 1//1 2//2 16//16
f 2//2 10//10 16//16
f 10//10 52//52 31//31
f 52//52 22//22 31//31
f 31//31 16//16 10//10
f 3//3 16//16 31//31
f 19//19 22//22 51//51
f 19//19 31//31 22//22
f 3//3 31//31 19//19
f 20//20 3//3 19//19
f 19//19 24//24 20//20
f 54//54 53//53 40//40
f 18//18 60//60 40//40
f 40//40 60//60 54//54
f 40//40 53//53 52//52
f 40//40 52//52 10//10
f 10//10 18//18 40//40
f 48//48 37//37 45//45
f 45//45 59//59 48//48
f 38//38 37//37 48//48
f 49//49 38//38 48//48
f 48//48 59//59 49//49
f 51//51 50//50 32//32
f 32//32 19//19 51//51
f 32//32 50//50 34//34
f 34//34 33//33 32//32
f 32//32 33//33 11//11
f 21//21 32//32 11//11
f 19//19 32//32 21//21
f 11//11 24//24 21//21
f 24//24 19//19 21//21