# https://github.com/mikedh/trimesh
v 0.49610745 -0.00000735 -0.08521678
v 0.47526336 0.49999856 -0.16462216
v 0.47526336 -0.49999769 -0.16462274
v 0.44159964 0.49999887 -0.23946865
v 0.44159964 -0.49999739 -0.23946923
v 0.39600443 -0.49999712 -0.30784553
v 0.39600443 0.49999913 -0.30784494
v 0.33970948 -0.49999688 -0.36790425
v 0.33970969 0.49999940 -0.36790367
v 0.27423619 -0.49999668 -0.41802261
v 0.20135336 -0.49999651 -0.45684653
v 0.27423619 0.49999960 -0.41802203
v 0.20135336 0.49999977 -0.45684595
v 0.12302997 -0.49999638 -0.48332702
v 0.12303018 0.49999991 -0.48332643
v -0.00367499 0.50000002 -0.50168105
v 0.02957648 -0.49999632 -0.49849550
v -0.12303010 0.49999997 -0.48332643
v -0.11221672 -0.49999629 -0.48622413
v -0.20135328 -0.49999634 -0.45684653
v -0.20135328 0.49999991 -0.45684595
v -0.27423613 0.49999981 -0.41802203
v -0.27423635 -0.49999648 -0.41802261
v -0.33970964 -0.49999665 -0.36790425
v -0.33970964 0.49999964 -0.36790367
v -0.39600437 -0.49999685 -0.30784553
v -0.39600437 0.49999940 -0.30784494
v -0.44159959 0.49999917 -0.23946865
v -0.45751241 -0.37902258 -0.21207522
v -0.49608607 -0.49999765 -0.08532839
v -0.49608607 0.49999863 -0.08532781
v -0.50351782 0.49999833 -0.00358748
v -0.04138266 0.49999628 0.49674854
v -0.49023192 0.06597466 0.12219540
v 0.12303018 0.49999628 0.48332697
v 0.20135336 0.49999634 0.45684653
v 0.27423619 0.49999644 0.41802261
v -0.39600437 0.49999712 0.30784555
v -0.33970964 0.49999685 0.36790425
v -0.27423613 0.49999665 0.41802261
v -0.20135328 0.49999648 0.45684653
v 0.39600443 0.49999685 0.30784555
v 0.49615668 0.49999764 0.08497908
v -0.50384335 -0.49999798 -0.00000030
v -0.49608607 -0.49999829 0.08532780
v -0.44159959 -0.49999890 0.23946865
v -0.45833478 0.49999751 0.21001820
v -0.39600437 -0.49999917 0.30784497
v -0.33970964 -0.49999940 0.36790367
v -0.27423635 -0.49999960 0.41802203
v -0.16653819 -0.37901400 0.47153401
v -0.04138266 -0.50000001 0.49674796
v 0.12302997 -0.50000001 0.48332638
v 0.20135336 -0.49999994 0.45684595
v 0.33227035 -0.43902184 0.37541046
v 0.39600443 -0.49999944 0.30784497
v 0.46097435 0.49999721 0.20299553
v 0.46259004 -0.49952676 0.20374778
v 0.49615034 -0.49999864 0.08495740
v 0.03043162 0.04979482 0.49831896
vn 0.99241308 -0.00001365 -0.12294829
vn 0.37939822 0.91927203 -0.10486148
vn 0.37939945 -0.91927164 -0.10486042
vn 0.33911581 0.92259610 -0.18389372
vn 0.33911615 -0.92259571 -0.18389505
vn 0.30417112 -0.92280450 -0.23645675
vn 0.30417103 0.92280494 -0.23645512
vn 0.26099489 -0.92303123 -0.28265705
vn 0.26099489 0.92303162 -0.28265578
vn 0.21074303 -0.92325125 -0.32123903
vn 0.15476639 -0.92344109 -0.35114658
vn 0.21074246 0.92325192 -0.32123746
vn 0.15476629 0.92344181 -0.35114473
vn 0.09424447 -0.92349938 -0.37184254
vn 0.09174859 0.92305348 -0.37356989
vn -0.00193760 0.91847879 -0.39546550
vn 0.01671542 -0.92121889 -0.38868541
vn -0.09312342 0.92335658 -0.37247907
vn -0.08105410 -0.92176637 -0.37917937
vn -0.15378171 -0.92322978 -0.35213345
vn -0.15476611 0.92344183 -0.35114476
vn -0.21074225 0.92325201 -0.32123735
vn -0.21074305 -0.92325113 -0.32123935
vn -0.26099545 -0.92303109 -0.28265700
vn -0.26099480 0.92303167 -0.28265571
vn -0.31146008 -0.92221991 -0.22913546
vn -0.30417100 0.92280494 -0.23645516
vn -0.35032539 0.92029765 -0.17413889
vn -0.86874968 -0.30561279 -0.38971119
vn -0.38201014 -0.92080548 -0.07864806
vn -0.38384607 0.91990580 -0.08022168
vn -0.39108791 0.92023977 0.01445731
vn -0.03545214 0.92024680 0.38972937
vn -0.97150594 0.02197939 0.23599387
vn 0.08438137 0.92229482 0.37716317
vn 0.15476650 0.92344107 0.35114657
vn 0.22517683 0.92084937 0.31832663
vn -0.30741005 0.92221294 0.23456844
vn -0.26099538 0.92303096 0.28265751
vn -0.21074269 0.92325130 0.32123909
vn -0.14400090 0.92118795 0.36149205
vn 0.30532238 0.91961671 0.24715047
vn 0.39604718 0.91702342 0.04706043
vn -0.38824653 -0.92155553 0.00019890
vn -0.38245898 -0.92067501 0.07799136
vn -0.34856908 -0.92082458 0.17487622
vn -0.36425462 0.91838797 0.15453835
vn -0.30417085 -0.92280503 0.23645501
vn -0.26099499 -0.92303168 0.28265551
vn -0.20212193 -0.92242796 0.32904923
vn -0.31174832 -0.30200806 0.90089073
vn -0.03321640 -0.92091655 0.38834183
vn 0.08375370 -0.92206132 0.37787332
vn 0.16899093 -0.92155356 0.34954413
vn 0.54085915 -0.52412734 0.65784643
vn 0.30446301 -0.92201176 0.23915808
vn 0.36049330 0.91915319 0.15875136
vn 0.36780253 -0.91568828 0.16197613
vn 0.39559536 -0.91733421 0.04474659
vn 0.07098336 0.00456526 0.99746705
f 53//53 35//35 60//60
f 47//47 35//35 42//42
f 42//42 22//22 47//47
f 17//17 46//46 44//44
f 11//11 17//17 14//14
f 44//44 46//46 45//45
f 60//60 35//35 33//33
f 58//58 59//59 43//43
f 56//56 59//59 58//58
f 58//58 42//42 56//56
f 52//52 53//53 60//60
f 60//60 33//33 52//52
f 50//50 49//49 52//52
f 46//46 17//17 52//52
f 27//27 26//26 28//28
f 15//15 11//11 14//14
f 15//15 17//17 16//16
f 14//14 17//17 15//15
f 9//9 7//7 6//6
f 9//9 4//4 7//7
f 43//43 4//4 9//9
f 9//9 42//42 43//43
f 22//22 42//42 9//9
f 16//16 22//22 9//9
f 9//9 15//15 16//16
f 34//34 46//46 47//47
f 34//34 45//45 46//46
f 46//46 52//52 48//48
f 48//48 52//52 49//49
f 39//39 49//49 50//50
f 39//39 48//48 49//49
f 43//43 42//42 57//57
f 57//57 58//58 43//43
f 42//42 58//58 57//57
f 2//2 4//4 43//43
f 5//5 3//3 6//6
f 51//51 33//33 41//41
f 51//51 52//52 33//33
f 51//51 41//41 50//50
f 50//50 52//52 51//51
f 56//56 42//42 55//55
f 42//42 37//37 55//55
f 35//35 53//53 54//54
f 54//54 55//55 37//37
f 56//56 55//55 54//54
f 54//54 59//59 56//56
f 53//53 52//52 54//54
f 54//54 17//17 59//59
f 54//54 52//52 17//17
f 47//47 22//22 32//32
f 22//22 31//31 32//32
f 32//32 34//34 47//47
f 44//44 45//45 32//32
f 45//45 34//34 32//32
f 28//28 31//31 25//25
f 25//25 31//31 22//22
f 25//25 27//27 28//28
f 22//22 23//23 25//25
f 23//23 24//24 25//25
f 26//26 27//27 25//25
f 25//25 24//24 26//26
f 28//28 26//26 29//29
f 29//29 31//31 28//28
f 21//21 18//18 20//20
f 20//20 23//23 21//21
f 21//21 23//23 22//22
f 21//21 22//22 16//16
f 16//16 18//18 21//21
f 20//20 18//18 19//19
f 19//19 23//23 20//20
f 16//16 17//17 19//19
f 19//19 18//18 16//16
f 17//17 24//24 19//19
f 19//19 24//24 23//23
f 17//17 11//11 10//10
f 59//59 17//17 10//10
f 10//10 3//3 59//59
f 11//11 15//15 13//13
f 50//50 41//41 40//40
f 40//40 39//39 50//50
f 48//48 39//39 38//38
f 47//47 46//46 38//38
f 46//46 48//48 38//38
f 39//39 40//40 38//38
f 38//38 40//40 41//41
f 41//41 33//33 38//38
f 38//38 35//35 47//47
f 38//38 33//33 35//35
f 3//3 2//2 1//1
f 1//1 2//2 43//43
f 43//43 59//59 1//1
f 59//59 3//3 1//1
f 35//35 54//54 36//36
f 36//36 54//54 37//37
f 36//36 42//42 35//35
f 36//36 37//37 42//42
f 31//31 29//29 30//30
f 44//44 32//32 30//30
f 30//30 32//32 31//31
f 30//30 29//29 26//26
f 26//26 24//24 30//30
f 30//30 17//17 44//44
f 30//30 24//24 17//17
f 6//6 3//3 8//8
f 3//3 10//10 8//8
f 8//8 9//9 6//6
f 8//8 10//10 9//9
f 15//15 9//9 12//12
f 12//12 13//13 15//15
f 9//9 10//10 12//12
f 7//7 4//4 5//5
f 6//6 7//7 5//5
f 4//4 2//2 5//5
f 5//5 2//2 3//3
f 11//11 13//13 12//12
f 12//12 10//10 11//11