# https://github.com/mikedh/trimesh
v -0.03582153 0.37964988 -0.72990090
v 0.05730084 0.36926770 -0.79894120
v -0.12198198 0.22429867 -0.79316228
v 0.58542714 0.25546190 -0.88140978
v -0.13871083 0.32832046 -0.62786284
v 0.04946438 -0.12707754 -0.83136608
v 0.58788338 0.02992622 -0.90911627
v -0.14960820 -0.07645380 -0.65117094
v 0.03665646 -0.02554684 -0.88958564
v 0.08679301 -0.23417994 -0.65489328
v -0.08524303 -0.15022151 -0.69580668
v -0.06679785 -0.00606836 -0.85026236
v 0.03350190 0.18161872 -0.90601556
v 0.47095696 0.62470851 -0.24049594
v 0.65440731 -0.17771233 -0.69933340
v 0.73035255 -0.09781883 -0.68256124
v 0.51663042 -0.23012608 -0.67726865
v 0.55776072 -0.33539709 -0.05765372
v 0.54615959 -0.12347840 -0.83396038
v 0.70654758 0.00792296 -0.81673561
v 0.71878486 0.23643109 -0.78137700
v 0.66490412 0.38340494 -0.66837732
v 0.58162686 0.36281591 -0.80731918
v 0.25897096 -0.18657251 -0.76318322
v -0.18477477 0.22071231 -0.55594152
v 0.45602389 0.59872060 -0.12867279
v 0.30453849 0.60795221 -0.03788239
v 0.24595062 0.65350190 -0.41266451
v 0.34337211 0.66059043 -0.41384400
v 0.40241303 0.59120539 -0.06706674
v 0.44051984 0.64082576 -0.34233703
v 0.19788919 0.59016277 -0.06147970
v 0.14681564 0.63909528 -0.33335832
v 0.13628121 0.62841793 -0.18392469
v 0.55908719 0.28338729 0.09088375
v 0.02470595 0.28880835 0.08856321
v -0.13678758 -0.07970510 0.03362527
v 0.06516488 -0.18396112 0.01744013
v 0.58074999 -0.30555913 -0.01485394
v 0.74766341 0.19039884 0.05608062
v 0.79801589 0.03605487 0.00292532
v 0.65428544 0.26953901 0.06940533
v 0.07784056 -0.33940954 -0.07107265
v 0.01779923 -0.21134407 -0.71652054
v -0.11225975 -0.24120315 -0.03995579
v -0.05915189 -0.28683476 -0.06730064
v 0.03920458 -0.30874794 -0.01554946
v -0.14615191 0.19908184 0.04072780
v -0.08646479 0.25658792 0.05807131
v -0.18888517 0.10186588 0.00792677
v 0.74393780 0.31293426 -0.60296310
v 0.69081686 -0.26185842 -0.04982859
v 0.57433280 -0.09775417 0.03585679
v -0.04875620 0.13803975 0.07490086
v 0.76051692 -0.16757079 0.00367270
v -0.19551732 -0.08154683 -0.03232989
v -0.19493954 0.04945220 -0.67855028
v -0.20198412 0.14270655 -0.63393842
v 0.79268968 0.02805599 -0.63629090
v 0.78683202 0.22141342 -0.64580654
vn -0.40899110 0.76432223 -0.49853567
vn -0.16100627 0.69121815 -0.70448169
vn -0.63845380 0.34570220 -0.68765306
vn 0.24604878 0.36156450 -0.89929478
vn -0.72571855 0.65985280 -0.19474824
vn -0.16910349 -0.66701496 -0.72559978
vn 0.25565483 -0.18379563 -0.94913633
vn -0.77377315 -0.56427093 -0.28787744
vn -0.15965258 -0.32221472 -0.93310703
vn -0.04540768 -0.97187122 -0.23109409
vn -0.55721522 -0.73045832 -0.39489473
vn -0.51903185 -0.30480158 -0.79856242
vn -0.20662390 0.23195490 -0.95052801
vn 0.40491925 0.90560380 0.12618303
vn 0.42158155 -0.81466897 -0.39822539
vn 0.72070413 -0.60197108 -0.34382608
vn 0.10829473 -0.93491969 -0.33793111
vn 0.15700028 -0.97254788 0.17176013
vn 0.16798414 -0.66562980 -0.72713018
vn 0.63805110 -0.26418182 -0.72325567
vn 0.67253054 0.35814888 -0.64763574
vn 0.52001695 0.78997113 -0.32485071
vn 0.24959363 0.72249165 -0.64475487
vn 0.00242463 -0.83692545 -0.54731153
vn -0.90988340 0.41482744 0.00551219
vn 0.39014944 0.84967030 0.35474468
vn 0.01803311 0.79541678 0.60579449
vn -0.12132056 0.95724861 -0.26259554
vn 0.08139328 0.96557406 -0.24706654
vn 0.27222193 0.78690362 0.55378508
vn 0.31702976 0.94441995 -0.08696596
vn -0.27093800 0.75826217 0.59298490
vn -0.34460556 0.93506571 -0.08306099
vn -0.37273991 0.90207143 0.21755942
vn 0.10527345 0.21273187 0.97142300
vn -0.14855973 0.28398744 0.94724925
vn -0.35636016 -0.26188575 0.89689648
vn -0.01283025 -0.22978605 0.97315659
vn 0.16146341 -0.65492051 0.73824704
vn 0.60667420 0.30966314 0.73215788
vn 0.87459718 -0.00953911 0.48475642
vn 0.34626520 0.47568766 0.80859239
vn -0.10531678 -0.98662669 0.12440318
vn -0.23919842 -0.87888696 -0.41272488
vn -0.57667365 -0.70457811 0.41354225
vn -0.39844771 -0.90882196 0.12362064
vn -0.14319306 -0.69502442 0.70458272
vn -0.64625886 0.37671314 0.66365405
vn -0.43506492 0.45934319 0.77441743
vn -0.83943058 0.14078648 0.52491472
vn 0.73684917 0.66661846 -0.11257502
vn 0.51372267 -0.83506291 0.19687295
vn 0.04108064 -0.19199510 0.98053570
vn -0.13118448 -0.07446104 0.98855763
vn 0.63487615 -0.47155696 0.61201823
vn -0.87800732 -0.32297647 0.35325535
vn -0.89794837 -0.20779757 -0.38795475
vn -0.96087247 0.17999730 -0.21053518
vn 0.94158374 -0.21311732 -0.26077016
vn 0.90741429 0.32730508 -0.26357293
f 23//23 2//2 29//29
f 25//25 5//5 58//58
f 48//48 5//5 25//25
f 58//58 5//5 3//3
f 2//2 3//3 1//1
f 1//1 3//3 5//5
f 29//29 27//27 14//14
f 34//34 27//27 29//29
f 34//34 5//5 48//48
f 2//2 23//23 4//4
f 13//13 3//3 2//2
f 13//13 4//4 7//7
f 2//2 4//4 13//13
f 36//36 35//35 27//27
f 41//41 60//60 40//40
f 22//22 23//23 29//29
f 33//33 1//1 5//5
f 5//5 34//34 33//33
f 17//17 19//19 15//15
f 20//20 19//19 7//7
f 15//15 19//19 20//20
f 21//21 4//4 23//23
f 23//23 22//22 21//21
f 60//60 20//20 21//21
f 7//7 4//4 21//21
f 21//21 20//20 7//7
f 27//27 34//34 32//32
f 32//32 36//36 27//27
f 35//35 36//36 54//54
f 26//26 14//14 27//27
f 26//26 40//40 14//14
f 51//51 22//22 14//14
f 51//51 40//40 60//60
f 14//14 40//40 51//51
f 60//60 21//21 51//51
f 51//51 21//21 22//22
f 29//29 14//14 31//31
f 31//31 22//22 29//29
f 14//14 22//22 31//31
f 28//28 34//34 29//29
f 28//28 33//33 34//34
f 1//1 33//33 28//28
f 29//29 2//2 28//28
f 2//2 1//1 28//28
f 18//18 15//15 52//52
f 18//18 17//17 15//15
f 19//19 17//17 24//24
f 59//59 60//60 41//41
f 59//59 20//20 60//60
f 46//46 11//11 44//44
f 44//44 17//17 10//10
f 44//44 24//24 17//17
f 3//3 13//13 12//12
f 12//12 11//11 8//8
f 57//57 56//56 58//58
f 8//8 56//56 57//57
f 57//57 12//12 8//8
f 58//58 3//3 57//57
f 3//3 12//12 57//57
f 45//45 56//56 8//8
f 8//8 11//11 45//45
f 45//45 11//11 46//46
f 50//50 25//25 58//58
f 58//58 56//56 50//50
f 48//48 25//25 50//50
f 36//36 32//32 49//49
f 48//48 54//54 49//49
f 49//49 54//54 36//36
f 49//49 34//34 48//48
f 49//49 32//32 34//34
f 40//40 26//26 42//42
f 27//27 35//35 42//42
f 35//35 40//40 42//42
f 55//55 59//59 41//41
f 41//41 40//40 55//55
f 15//15 20//20 16//16
f 20//20 59//59 16//16
f 59//59 55//55 16//16
f 52//52 15//15 16//16
f 16//16 55//55 52//52
f 24//24 44//44 6//6
f 19//19 24//24 6//6
f 6//6 44//44 11//11
f 11//11 12//12 6//6
f 56//56 45//45 37//37
f 37//37 50//50 56//56
f 37//37 54//54 48//48
f 48//48 50//50 37//37
f 43//43 44//44 10//10
f 46//46 44//44 43//43
f 10//10 17//17 43//43
f 17//17 18//18 43//43
f 30//30 26//26 27//27
f 27//27 42//42 30//30
f 30//30 42//42 26//26
f 9//9 12//12 13//13
f 9//9 6//6 12//12
f 9//9 13//13 7//7
f 7//7 19//19 9//9
f 19//19 6//6 9//9
f 47//47 43//43 18//18
f 47//47 37//37 45//45
f 47//47 45//45 46//46
f 46//46 43//43 47//47
f 35//35 54//54 53//53
f 53//53 40//40 35//35
f 53//53 55//55 40//40
f 55//55 53//53 39//39
f 39//39 47//47 18//18
f 39//39 18//18 52//52
f 52//52 55//55 39//39
f 37//37 47//47 38//38
f 54//54 37//37 38//38
f 38//38 53//53 54//54
f 47//47 39//39 38//38
f 38//38 39//39 53//53